G04 #@! TF.GenerationSoftware,KiCad,Pcbnew,(5.1.9)-1*
G04 #@! TF.CreationDate,2021-06-03T13:52:16+02:00*
G04 #@! TF.ProjectId,seriallight,73657269-616c-46c6-9967-68742e6b6963,rev?*
G04 #@! TF.SameCoordinates,Original*
G04 #@! TF.FileFunction,Legend,Top*
G04 #@! TF.FilePolarity,Positive*
%FSLAX46Y46*%
G04 Gerber Fmt 4.6, Leading zero omitted, Abs format (unit mm)*
G04 Created by KiCad (PCBNEW (5.1.9)-1) date 2021-06-03 13:52:16*
%MOMM*%
%LPD*%
G01*
G04 APERTURE LIST*
%ADD10C,0.120000*%
%ADD11C,0.150000*%
%ADD12R,0.650000X1.600000*%
%ADD13C,7.500000*%
%ADD14R,3.000000X1.500000*%
%ADD15O,3.000000X1.500000*%
%ADD16R,1.700000X1.700000*%
%ADD17O,1.700000X1.700000*%
%ADD18C,4.700000*%
%ADD19R,1.060000X0.650000*%
%ADD20C,1.000000*%
%ADD21C,0.100000*%
%ADD22R,2.500000X1.800000*%
%ADD23R,2.700000X1.500000*%
%ADD24R,1.200000X2.200000*%
%ADD25R,5.800000X6.400000*%
G04 APERTURE END LIST*
D10*
X105300000Y-106750000D02*
X106500000Y-106750000D01*
X106500000Y-106750000D02*
X106500000Y-106350000D01*
X105300000Y-104750000D02*
X106500000Y-104750000D01*
X106500000Y-104750000D02*
X106500000Y-105150000D01*
X105148748Y-86587000D02*
X105671252Y-86587000D01*
X105148748Y-85117000D02*
X105671252Y-85117000D01*
X95985000Y-86860748D02*
X95985000Y-87383252D01*
X94515000Y-86860748D02*
X94515000Y-87383252D01*
X95270031Y-76790000D02*
X92729969Y-76790000D01*
X95270031Y-80210000D02*
X92729969Y-80210000D01*
X75140000Y-75140000D02*
X75140000Y-76140000D01*
X76380000Y-75140000D02*
X75140000Y-75140000D01*
X89150000Y-85000000D02*
X86651000Y-85000000D01*
X89150000Y-84000000D02*
X86651000Y-84000000D01*
X86651000Y-84000000D02*
X86651000Y-85000000D01*
X89150000Y-84000000D02*
X89150000Y-85000000D01*
X81800000Y-86500000D02*
X80800000Y-86500000D01*
X81800000Y-82500000D02*
X80800000Y-82500000D01*
X80800000Y-82500000D02*
X80800000Y-86500000D01*
X81800000Y-82500000D02*
X81800000Y-86500000D01*
X89500000Y-87000000D02*
X75500000Y-87000000D01*
X89500000Y-82000000D02*
X75500000Y-82000000D01*
X75500000Y-82000000D02*
X75500000Y-87000000D01*
X89500000Y-82000000D02*
X89500000Y-87000000D01*
X80100000Y-86500000D02*
X76800000Y-86500000D01*
X80100000Y-82500000D02*
X76800000Y-82500000D01*
X76800000Y-82500000D02*
X76800000Y-86500000D01*
X80100000Y-82500000D02*
X80100000Y-86500000D01*
X89150000Y-80000000D02*
X86651000Y-80000000D01*
X89150000Y-79000000D02*
X86651000Y-79000000D01*
X86651000Y-79000000D02*
X86651000Y-80000000D01*
X89150000Y-79000000D02*
X89150000Y-80000000D01*
X81800000Y-81500000D02*
X80800000Y-81500000D01*
X81800000Y-77500000D02*
X80800000Y-77500000D01*
X80800000Y-77500000D02*
X80800000Y-81500000D01*
X81800000Y-77500000D02*
X81800000Y-81500000D01*
X89500000Y-82000000D02*
X75500000Y-82000000D01*
X89500000Y-77000000D02*
X75500000Y-77000000D01*
X75500000Y-77000000D02*
X75500000Y-82000000D01*
X89500000Y-77000000D02*
X89500000Y-82000000D01*
X80100000Y-81500000D02*
X76800000Y-81500000D01*
X80100000Y-77500000D02*
X76800000Y-77500000D01*
X76800000Y-77500000D02*
X76800000Y-81500000D01*
X80100000Y-77500000D02*
X80100000Y-81500000D01*
X89620000Y-87921000D02*
X75380000Y-87921000D01*
X89620000Y-75380000D02*
X75380000Y-75380000D01*
X75380000Y-75380000D02*
X75380000Y-87921000D01*
X89620000Y-75380000D02*
X89620000Y-87921000D01*
X85000000Y-85230000D02*
X85000000Y-87921000D01*
X85000000Y-80230000D02*
X85000000Y-82770000D01*
X85000000Y-75380000D02*
X85000000Y-77770000D01*
X82200000Y-75380000D02*
X82200000Y-87921000D01*
X76500000Y-75380000D02*
X76500000Y-87921000D01*
X101540000Y-124520000D02*
X101540000Y-123190000D01*
X102870000Y-124520000D02*
X101540000Y-124520000D01*
X104140000Y-124520000D02*
X104140000Y-121860000D01*
X104140000Y-121860000D02*
X109280000Y-121860000D01*
X104140000Y-124520000D02*
X109280000Y-124520000D01*
X109280000Y-124520000D02*
X109280000Y-121860000D01*
X123500000Y-88120000D02*
X123500000Y-75579000D01*
X117800000Y-88120000D02*
X117800000Y-75579000D01*
X115000000Y-88120000D02*
X115000000Y-85730000D01*
X115000000Y-83270000D02*
X115000000Y-80730000D01*
X115000000Y-78270000D02*
X115000000Y-75579000D01*
X110380000Y-88120000D02*
X110380000Y-75579000D01*
X124620000Y-88120000D02*
X124620000Y-75579000D01*
X110380000Y-88120000D02*
X124620000Y-88120000D01*
X110380000Y-75579000D02*
X124620000Y-75579000D01*
X119900000Y-86000000D02*
X119900000Y-82000000D01*
X123200000Y-86000000D02*
X123200000Y-82000000D01*
X119900000Y-86000000D02*
X123200000Y-86000000D01*
X119900000Y-82000000D02*
X123200000Y-82000000D01*
X110500000Y-86500000D02*
X110500000Y-81500000D01*
X124500000Y-86500000D02*
X124500000Y-81500000D01*
X110500000Y-86500000D02*
X124500000Y-86500000D01*
X110500000Y-81500000D02*
X124500000Y-81500000D01*
X118200000Y-86000000D02*
X118200000Y-82000000D01*
X119200000Y-86000000D02*
X119200000Y-82000000D01*
X118200000Y-86000000D02*
X119200000Y-86000000D01*
X118200000Y-82000000D02*
X119200000Y-82000000D01*
X110850000Y-84500000D02*
X110850000Y-83500000D01*
X113349000Y-84500000D02*
X113349000Y-83500000D01*
X110850000Y-84500000D02*
X113349000Y-84500000D01*
X110850000Y-83500000D02*
X113349000Y-83500000D01*
X119900000Y-81000000D02*
X119900000Y-77000000D01*
X123200000Y-81000000D02*
X123200000Y-77000000D01*
X119900000Y-81000000D02*
X123200000Y-81000000D01*
X119900000Y-77000000D02*
X123200000Y-77000000D01*
X110500000Y-81500000D02*
X110500000Y-76500000D01*
X124500000Y-81500000D02*
X124500000Y-76500000D01*
X110500000Y-81500000D02*
X124500000Y-81500000D01*
X110500000Y-76500000D02*
X124500000Y-76500000D01*
X118200000Y-81000000D02*
X118200000Y-77000000D01*
X119200000Y-81000000D02*
X119200000Y-77000000D01*
X118200000Y-81000000D02*
X119200000Y-81000000D01*
X118200000Y-77000000D02*
X119200000Y-77000000D01*
X110850000Y-79500000D02*
X110850000Y-78500000D01*
X113349000Y-79500000D02*
X113349000Y-78500000D01*
X110850000Y-79500000D02*
X113349000Y-79500000D01*
X110850000Y-78500000D02*
X113349000Y-78500000D01*
X123620000Y-88360000D02*
X124860000Y-88360000D01*
X124860000Y-88360000D02*
X124860000Y-87360000D01*
X85978000Y-103277641D02*
X85978000Y-102970359D01*
X85218000Y-103277641D02*
X85218000Y-102970359D01*
X114174000Y-105055641D02*
X114174000Y-104748359D01*
X114934000Y-105055641D02*
X114934000Y-104748359D01*
X112421641Y-97620000D02*
X112114359Y-97620000D01*
X112421641Y-98380000D02*
X112114359Y-98380000D01*
X114174000Y-96165641D02*
X114174000Y-95858359D01*
X114934000Y-96165641D02*
X114934000Y-95858359D01*
X85978000Y-94133641D02*
X85978000Y-93826359D01*
X85218000Y-94133641D02*
X85218000Y-93826359D01*
X100500000Y-112065000D02*
X97050000Y-112065000D01*
X100500000Y-112065000D02*
X102450000Y-112065000D01*
X100500000Y-120935000D02*
X98550000Y-120935000D01*
X100500000Y-120935000D02*
X102450000Y-120935000D01*
X105500000Y-79440000D02*
X102050000Y-79440000D01*
X105500000Y-79440000D02*
X107450000Y-79440000D01*
X105500000Y-84560000D02*
X103550000Y-84560000D01*
X105500000Y-84560000D02*
X107450000Y-84560000D01*
X91800000Y-106750000D02*
X93000000Y-106750000D01*
X93000000Y-106750000D02*
X93000000Y-106350000D01*
X91800000Y-104750000D02*
X93000000Y-104750000D01*
X93000000Y-104750000D02*
X93000000Y-105150000D01*
X108200000Y-102250000D02*
X107000000Y-102250000D01*
X107000000Y-102250000D02*
X107000000Y-102650000D01*
X108200000Y-104250000D02*
X107000000Y-104250000D01*
X107000000Y-104250000D02*
X107000000Y-103850000D01*
X95500000Y-104750000D02*
X95500000Y-105150000D01*
X94300000Y-104750000D02*
X95500000Y-104750000D01*
X95500000Y-106750000D02*
X95500000Y-106350000D01*
X94300000Y-106750000D02*
X95500000Y-106750000D01*
X104500000Y-104250000D02*
X104500000Y-103850000D01*
X105700000Y-104250000D02*
X104500000Y-104250000D01*
X104500000Y-102250000D02*
X104500000Y-102650000D01*
X105700000Y-102250000D02*
X104500000Y-102250000D01*
X94700000Y-102250000D02*
X93500000Y-102250000D01*
X93500000Y-102250000D02*
X93500000Y-102650000D01*
X94700000Y-104250000D02*
X93500000Y-104250000D01*
X93500000Y-104250000D02*
X93500000Y-103850000D01*
X91000000Y-104250000D02*
X91000000Y-103850000D01*
X92200000Y-104250000D02*
X91000000Y-104250000D01*
X91000000Y-102250000D02*
X91000000Y-102650000D01*
X92200000Y-102250000D02*
X91000000Y-102250000D01*
X109000000Y-104750000D02*
X109000000Y-105150000D01*
X107800000Y-104750000D02*
X109000000Y-104750000D01*
X109000000Y-106750000D02*
X109000000Y-106350000D01*
X107800000Y-106750000D02*
X109000000Y-106750000D01*
X107000000Y-95250000D02*
X107000000Y-94850000D01*
X108200000Y-95250000D02*
X107000000Y-95250000D01*
X107000000Y-93250000D02*
X107000000Y-93650000D01*
X108200000Y-93250000D02*
X107000000Y-93250000D01*
X91800000Y-97750000D02*
X93000000Y-97750000D01*
X93000000Y-97750000D02*
X93000000Y-97350000D01*
X91800000Y-95750000D02*
X93000000Y-95750000D01*
X93000000Y-95750000D02*
X93000000Y-96150000D01*
X105700000Y-93250000D02*
X104500000Y-93250000D01*
X104500000Y-93250000D02*
X104500000Y-93650000D01*
X105700000Y-95250000D02*
X104500000Y-95250000D01*
X104500000Y-95250000D02*
X104500000Y-94850000D01*
X94300000Y-97750000D02*
X95500000Y-97750000D01*
X95500000Y-97750000D02*
X95500000Y-97350000D01*
X94300000Y-95750000D02*
X95500000Y-95750000D01*
X95500000Y-95750000D02*
X95500000Y-96150000D01*
X106500000Y-95750000D02*
X106500000Y-96150000D01*
X105300000Y-95750000D02*
X106500000Y-95750000D01*
X106500000Y-97750000D02*
X106500000Y-97350000D01*
X105300000Y-97750000D02*
X106500000Y-97750000D01*
X93500000Y-95250000D02*
X93500000Y-94850000D01*
X94700000Y-95250000D02*
X93500000Y-95250000D01*
X93500000Y-93250000D02*
X93500000Y-93650000D01*
X94700000Y-93250000D02*
X93500000Y-93250000D01*
X109000000Y-95750000D02*
X109000000Y-96150000D01*
X107800000Y-95750000D02*
X109000000Y-95750000D01*
X109000000Y-97750000D02*
X109000000Y-97350000D01*
X107800000Y-97750000D02*
X109000000Y-97750000D01*
X92200000Y-93250000D02*
X91000000Y-93250000D01*
X91000000Y-93250000D02*
X91000000Y-93650000D01*
X92200000Y-95250000D02*
X91000000Y-95250000D01*
X91000000Y-95250000D02*
X91000000Y-94850000D01*
X87984359Y-101620000D02*
X88291641Y-101620000D01*
X87984359Y-102380000D02*
X88291641Y-102380000D01*
X112421641Y-106620000D02*
X112114359Y-106620000D01*
X112421641Y-107380000D02*
X112114359Y-107380000D01*
X87732359Y-93344000D02*
X88039641Y-93344000D01*
X87732359Y-92584000D02*
X88039641Y-92584000D01*
X89150000Y-102890000D02*
X86700000Y-102890000D01*
X87350000Y-106110000D02*
X89150000Y-106110000D01*
X112650000Y-102890000D02*
X110850000Y-102890000D01*
X110850000Y-106110000D02*
X113300000Y-106110000D01*
X112650000Y-93890000D02*
X110850000Y-93890000D01*
X110850000Y-97110000D02*
X113300000Y-97110000D01*
X89150000Y-93890000D02*
X86700000Y-93890000D01*
X87350000Y-97110000D02*
X89150000Y-97110000D01*
X95200000Y-119250000D02*
G75*
G03*
X95200000Y-119250000I-700000J0D01*
G01*
X106200000Y-114000000D02*
G75*
G03*
X106200000Y-114000000I-700000J0D01*
G01*
X95200000Y-116250000D02*
G75*
G03*
X95200000Y-116250000I-700000J0D01*
G01*
X93200000Y-117750000D02*
G75*
G03*
X93200000Y-117750000I-700000J0D01*
G01*
X95107836Y-110884000D02*
X94892164Y-110884000D01*
X95107836Y-110164000D02*
X94892164Y-110164000D01*
X95107836Y-111414000D02*
X94892164Y-111414000D01*
X95107836Y-112134000D02*
X94892164Y-112134000D01*
X76500000Y-112130000D02*
X76500000Y-124671000D01*
X82200000Y-112130000D02*
X82200000Y-124671000D01*
X85000000Y-112130000D02*
X85000000Y-114520000D01*
X85000000Y-116980000D02*
X85000000Y-119520000D01*
X85000000Y-121980000D02*
X85000000Y-124671000D01*
X89620000Y-112130000D02*
X89620000Y-124671000D01*
X75380000Y-112130000D02*
X75380000Y-124671000D01*
X89620000Y-112130000D02*
X75380000Y-112130000D01*
X89620000Y-124671000D02*
X75380000Y-124671000D01*
X80100000Y-114250000D02*
X80100000Y-118250000D01*
X76800000Y-114250000D02*
X76800000Y-118250000D01*
X80100000Y-114250000D02*
X76800000Y-114250000D01*
X80100000Y-118250000D02*
X76800000Y-118250000D01*
X89500000Y-113750000D02*
X89500000Y-118750000D01*
X75500000Y-113750000D02*
X75500000Y-118750000D01*
X89500000Y-113750000D02*
X75500000Y-113750000D01*
X89500000Y-118750000D02*
X75500000Y-118750000D01*
X81800000Y-114250000D02*
X81800000Y-118250000D01*
X80800000Y-114250000D02*
X80800000Y-118250000D01*
X81800000Y-114250000D02*
X80800000Y-114250000D01*
X81800000Y-118250000D02*
X80800000Y-118250000D01*
X89150000Y-115750000D02*
X89150000Y-116750000D01*
X86651000Y-115750000D02*
X86651000Y-116750000D01*
X89150000Y-115750000D02*
X86651000Y-115750000D01*
X89150000Y-116750000D02*
X86651000Y-116750000D01*
X80100000Y-119250000D02*
X80100000Y-123250000D01*
X76800000Y-119250000D02*
X76800000Y-123250000D01*
X80100000Y-119250000D02*
X76800000Y-119250000D01*
X80100000Y-123250000D02*
X76800000Y-123250000D01*
X89500000Y-118750000D02*
X89500000Y-123750000D01*
X75500000Y-118750000D02*
X75500000Y-123750000D01*
X89500000Y-118750000D02*
X75500000Y-118750000D01*
X89500000Y-123750000D02*
X75500000Y-123750000D01*
X81800000Y-119250000D02*
X81800000Y-123250000D01*
X80800000Y-119250000D02*
X80800000Y-123250000D01*
X81800000Y-119250000D02*
X80800000Y-119250000D01*
X81800000Y-123250000D02*
X80800000Y-123250000D01*
X89150000Y-120750000D02*
X89150000Y-121750000D01*
X86651000Y-120750000D02*
X86651000Y-121750000D01*
X89150000Y-120750000D02*
X86651000Y-120750000D01*
X89150000Y-121750000D02*
X86651000Y-121750000D01*
X76380000Y-111890000D02*
X75140000Y-111890000D01*
X75140000Y-111890000D02*
X75140000Y-112890000D01*
X124860000Y-124860000D02*
X124860000Y-123860000D01*
X123620000Y-124860000D02*
X124860000Y-124860000D01*
X110850000Y-115000000D02*
X113349000Y-115000000D01*
X110850000Y-116000000D02*
X113349000Y-116000000D01*
X113349000Y-116000000D02*
X113349000Y-115000000D01*
X110850000Y-116000000D02*
X110850000Y-115000000D01*
X118200000Y-113500000D02*
X119200000Y-113500000D01*
X118200000Y-117500000D02*
X119200000Y-117500000D01*
X119200000Y-117500000D02*
X119200000Y-113500000D01*
X118200000Y-117500000D02*
X118200000Y-113500000D01*
X110500000Y-113000000D02*
X124500000Y-113000000D01*
X110500000Y-118000000D02*
X124500000Y-118000000D01*
X124500000Y-118000000D02*
X124500000Y-113000000D01*
X110500000Y-118000000D02*
X110500000Y-113000000D01*
X119900000Y-113500000D02*
X123200000Y-113500000D01*
X119900000Y-117500000D02*
X123200000Y-117500000D01*
X123200000Y-117500000D02*
X123200000Y-113500000D01*
X119900000Y-117500000D02*
X119900000Y-113500000D01*
X110850000Y-120000000D02*
X113349000Y-120000000D01*
X110850000Y-121000000D02*
X113349000Y-121000000D01*
X113349000Y-121000000D02*
X113349000Y-120000000D01*
X110850000Y-121000000D02*
X110850000Y-120000000D01*
X118200000Y-118500000D02*
X119200000Y-118500000D01*
X118200000Y-122500000D02*
X119200000Y-122500000D01*
X119200000Y-122500000D02*
X119200000Y-118500000D01*
X118200000Y-122500000D02*
X118200000Y-118500000D01*
X110500000Y-118000000D02*
X124500000Y-118000000D01*
X110500000Y-123000000D02*
X124500000Y-123000000D01*
X124500000Y-123000000D02*
X124500000Y-118000000D01*
X110500000Y-123000000D02*
X110500000Y-118000000D01*
X119900000Y-118500000D02*
X123200000Y-118500000D01*
X119900000Y-122500000D02*
X123200000Y-122500000D01*
X123200000Y-122500000D02*
X123200000Y-118500000D01*
X119900000Y-122500000D02*
X119900000Y-118500000D01*
X110380000Y-112079000D02*
X124620000Y-112079000D01*
X110380000Y-124620000D02*
X124620000Y-124620000D01*
X124620000Y-124620000D02*
X124620000Y-112079000D01*
X110380000Y-124620000D02*
X110380000Y-112079000D01*
X115000000Y-114770000D02*
X115000000Y-112079000D01*
X115000000Y-119770000D02*
X115000000Y-117230000D01*
X115000000Y-124620000D02*
X115000000Y-122230000D01*
X117800000Y-124620000D02*
X117800000Y-112079000D01*
X123500000Y-124620000D02*
X123500000Y-112079000D01*
X90132000Y-108685000D02*
X92417000Y-108685000D01*
X92417000Y-108685000D02*
X92417000Y-107215000D01*
X92417000Y-107215000D02*
X90132000Y-107215000D01*
X107735000Y-101827000D02*
X110020000Y-101827000D01*
X107735000Y-100357000D02*
X107735000Y-101827000D01*
X110020000Y-100357000D02*
X107735000Y-100357000D01*
X95719000Y-107215000D02*
X93434000Y-107215000D01*
X95719000Y-108685000D02*
X95719000Y-107215000D01*
X93434000Y-108685000D02*
X95719000Y-108685000D01*
X106718000Y-100357000D02*
X104433000Y-100357000D01*
X104433000Y-100357000D02*
X104433000Y-101827000D01*
X104433000Y-101827000D02*
X106718000Y-101827000D01*
X95034000Y-100357000D02*
X92749000Y-100357000D01*
X92749000Y-100357000D02*
X92749000Y-101827000D01*
X92749000Y-101827000D02*
X95034000Y-101827000D01*
X105118000Y-108685000D02*
X107403000Y-108685000D01*
X107403000Y-108685000D02*
X107403000Y-107215000D01*
X107403000Y-107215000D02*
X105118000Y-107215000D01*
X89447000Y-101827000D02*
X91732000Y-101827000D01*
X89447000Y-100357000D02*
X89447000Y-101827000D01*
X91732000Y-100357000D02*
X89447000Y-100357000D01*
X110705000Y-107215000D02*
X108420000Y-107215000D01*
X110705000Y-108685000D02*
X110705000Y-107215000D01*
X108420000Y-108685000D02*
X110705000Y-108685000D01*
X107735000Y-92937000D02*
X110020000Y-92937000D01*
X107735000Y-91467000D02*
X107735000Y-92937000D01*
X110020000Y-91467000D02*
X107735000Y-91467000D01*
X90132000Y-99541000D02*
X92417000Y-99541000D01*
X92417000Y-99541000D02*
X92417000Y-98071000D01*
X92417000Y-98071000D02*
X90132000Y-98071000D01*
X106718000Y-91467000D02*
X104433000Y-91467000D01*
X104433000Y-91467000D02*
X104433000Y-92937000D01*
X104433000Y-92937000D02*
X106718000Y-92937000D01*
X95719000Y-98071000D02*
X93434000Y-98071000D01*
X95719000Y-99541000D02*
X95719000Y-98071000D01*
X93434000Y-99541000D02*
X95719000Y-99541000D01*
X107403000Y-98071000D02*
X105118000Y-98071000D01*
X107403000Y-99541000D02*
X107403000Y-98071000D01*
X105118000Y-99541000D02*
X107403000Y-99541000D01*
X95034000Y-91467000D02*
X92749000Y-91467000D01*
X92749000Y-91467000D02*
X92749000Y-92937000D01*
X92749000Y-92937000D02*
X95034000Y-92937000D01*
X108420000Y-99541000D02*
X110705000Y-99541000D01*
X110705000Y-99541000D02*
X110705000Y-98071000D01*
X110705000Y-98071000D02*
X108420000Y-98071000D01*
X89447000Y-92937000D02*
X91732000Y-92937000D01*
X89447000Y-91467000D02*
X89447000Y-92937000D01*
X91732000Y-91467000D02*
X89447000Y-91467000D01*
X86230000Y-99076000D02*
X89030000Y-99076000D01*
X89030000Y-99076000D02*
X89030000Y-101076000D01*
X89030000Y-101076000D02*
X86230000Y-101076000D01*
X86230000Y-101076000D02*
X86230000Y-99076000D01*
X113922000Y-109966000D02*
X111122000Y-109966000D01*
X111122000Y-109966000D02*
X111122000Y-107966000D01*
X111122000Y-107966000D02*
X113922000Y-107966000D01*
X113922000Y-107966000D02*
X113922000Y-109966000D01*
X113922000Y-99076000D02*
X113922000Y-101076000D01*
X111122000Y-99076000D02*
X113922000Y-99076000D01*
X111122000Y-101076000D02*
X111122000Y-99076000D01*
X113922000Y-101076000D02*
X111122000Y-101076000D01*
X86230000Y-91932000D02*
X86230000Y-89932000D01*
X89030000Y-91932000D02*
X86230000Y-91932000D01*
X89030000Y-89932000D02*
X89030000Y-91932000D01*
X86230000Y-89932000D02*
X89030000Y-89932000D01*
X97126000Y-83946000D02*
X91726000Y-83946000D01*
X97126000Y-80646000D02*
X91726000Y-80646000D01*
X97126000Y-83946000D02*
X97126000Y-80646000D01*
X97560000Y-77726000D02*
X97560000Y-83426000D01*
X100560000Y-77726000D02*
X97560000Y-77726000D01*
X100560000Y-83426000D02*
X100560000Y-77726000D01*
X96896000Y-87954000D02*
X96896000Y-86854000D01*
X96626000Y-87954000D02*
X96896000Y-87954000D01*
X96626000Y-89454000D02*
X96626000Y-87954000D01*
X103256000Y-87954000D02*
X103256000Y-85124000D01*
X103526000Y-87954000D02*
X103256000Y-87954000D01*
X103526000Y-89454000D02*
X103526000Y-87954000D01*
D11*
X116419523Y-109926380D02*
X116419523Y-108926380D01*
X116657619Y-108926380D01*
X116800476Y-108974000D01*
X116895714Y-109069238D01*
X116943333Y-109164476D01*
X116990952Y-109354952D01*
X116990952Y-109497809D01*
X116943333Y-109688285D01*
X116895714Y-109783523D01*
X116800476Y-109878761D01*
X116657619Y-109926380D01*
X116419523Y-109926380D01*
X117943333Y-109926380D02*
X117371904Y-109926380D01*
X117657619Y-109926380D02*
X117657619Y-108926380D01*
X117562380Y-109069238D01*
X117467142Y-109164476D01*
X117371904Y-109212095D01*
X118562380Y-108926380D02*
X118657619Y-108926380D01*
X118752857Y-108974000D01*
X118800476Y-109021619D01*
X118848095Y-109116857D01*
X118895714Y-109307333D01*
X118895714Y-109545428D01*
X118848095Y-109735904D01*
X118800476Y-109831142D01*
X118752857Y-109878761D01*
X118657619Y-109926380D01*
X118562380Y-109926380D01*
X118467142Y-109878761D01*
X118419523Y-109831142D01*
X118371904Y-109735904D01*
X118324285Y-109545428D01*
X118324285Y-109307333D01*
X118371904Y-109116857D01*
X118419523Y-109021619D01*
X118467142Y-108974000D01*
X118562380Y-108926380D01*
X119752857Y-108926380D02*
X119562380Y-108926380D01*
X119467142Y-108974000D01*
X119419523Y-109021619D01*
X119324285Y-109164476D01*
X119276666Y-109354952D01*
X119276666Y-109735904D01*
X119324285Y-109831142D01*
X119371904Y-109878761D01*
X119467142Y-109926380D01*
X119657619Y-109926380D01*
X119752857Y-109878761D01*
X119800476Y-109831142D01*
X119848095Y-109735904D01*
X119848095Y-109497809D01*
X119800476Y-109402571D01*
X119752857Y-109354952D01*
X119657619Y-109307333D01*
X119467142Y-109307333D01*
X119371904Y-109354952D01*
X119324285Y-109402571D01*
X119276666Y-109497809D01*
X104544952Y-88241142D02*
X104497333Y-88288761D01*
X104354476Y-88336380D01*
X104259238Y-88336380D01*
X104116380Y-88288761D01*
X104021142Y-88193523D01*
X103973523Y-88098285D01*
X103925904Y-87907809D01*
X103925904Y-87764952D01*
X103973523Y-87574476D01*
X104021142Y-87479238D01*
X104116380Y-87384000D01*
X104259238Y-87336380D01*
X104354476Y-87336380D01*
X104497333Y-87384000D01*
X104544952Y-87431619D01*
X105497333Y-88336380D02*
X104925904Y-88336380D01*
X105211619Y-88336380D02*
X105211619Y-87336380D01*
X105116380Y-87479238D01*
X105021142Y-87574476D01*
X104925904Y-87622095D01*
X106116380Y-87336380D02*
X106211619Y-87336380D01*
X106306857Y-87384000D01*
X106354476Y-87431619D01*
X106402095Y-87526857D01*
X106449714Y-87717333D01*
X106449714Y-87955428D01*
X106402095Y-88145904D01*
X106354476Y-88241142D01*
X106306857Y-88288761D01*
X106211619Y-88336380D01*
X106116380Y-88336380D01*
X106021142Y-88288761D01*
X105973523Y-88241142D01*
X105925904Y-88145904D01*
X105878285Y-87955428D01*
X105878285Y-87717333D01*
X105925904Y-87526857D01*
X105973523Y-87431619D01*
X106021142Y-87384000D01*
X106116380Y-87336380D01*
X107402095Y-88336380D02*
X106830666Y-88336380D01*
X107116380Y-88336380D02*
X107116380Y-87336380D01*
X107021142Y-87479238D01*
X106925904Y-87574476D01*
X106830666Y-87622095D01*
X93829142Y-88749047D02*
X93876761Y-88796666D01*
X93924380Y-88939523D01*
X93924380Y-89034761D01*
X93876761Y-89177619D01*
X93781523Y-89272857D01*
X93686285Y-89320476D01*
X93495809Y-89368095D01*
X93352952Y-89368095D01*
X93162476Y-89320476D01*
X93067238Y-89272857D01*
X92972000Y-89177619D01*
X92924380Y-89034761D01*
X92924380Y-88939523D01*
X92972000Y-88796666D01*
X93019619Y-88749047D01*
X93924380Y-87796666D02*
X93924380Y-88368095D01*
X93924380Y-88082380D02*
X92924380Y-88082380D01*
X93067238Y-88177619D01*
X93162476Y-88272857D01*
X93210095Y-88368095D01*
X92924380Y-87177619D02*
X92924380Y-87082380D01*
X92972000Y-86987142D01*
X93019619Y-86939523D01*
X93114857Y-86891904D01*
X93305333Y-86844285D01*
X93543428Y-86844285D01*
X93733904Y-86891904D01*
X93829142Y-86939523D01*
X93876761Y-86987142D01*
X93924380Y-87082380D01*
X93924380Y-87177619D01*
X93876761Y-87272857D01*
X93829142Y-87320476D01*
X93733904Y-87368095D01*
X93543428Y-87415714D01*
X93305333Y-87415714D01*
X93114857Y-87368095D01*
X93019619Y-87320476D01*
X92972000Y-87272857D01*
X92924380Y-87177619D01*
X93019619Y-86463333D02*
X92972000Y-86415714D01*
X92924380Y-86320476D01*
X92924380Y-86082380D01*
X92972000Y-85987142D01*
X93019619Y-85939523D01*
X93114857Y-85891904D01*
X93210095Y-85891904D01*
X93352952Y-85939523D01*
X93924380Y-86510952D01*
X93924380Y-85891904D01*
X94218285Y-75874571D02*
X93884952Y-75874571D01*
X93884952Y-76398380D02*
X93884952Y-75398380D01*
X94361142Y-75398380D01*
X95265904Y-76398380D02*
X94694476Y-76398380D01*
X94980190Y-76398380D02*
X94980190Y-75398380D01*
X94884952Y-75541238D01*
X94789714Y-75636476D01*
X94694476Y-75684095D01*
X95884952Y-75398380D02*
X95980190Y-75398380D01*
X96075428Y-75446000D01*
X96123047Y-75493619D01*
X96170666Y-75588857D01*
X96218285Y-75779333D01*
X96218285Y-76017428D01*
X96170666Y-76207904D01*
X96123047Y-76303142D01*
X96075428Y-76350761D01*
X95980190Y-76398380D01*
X95884952Y-76398380D01*
X95789714Y-76350761D01*
X95742095Y-76303142D01*
X95694476Y-76207904D01*
X95646857Y-76017428D01*
X95646857Y-75779333D01*
X95694476Y-75588857D01*
X95742095Y-75493619D01*
X95789714Y-75446000D01*
X95884952Y-75398380D01*
X97170666Y-76398380D02*
X96599238Y-76398380D01*
X96884952Y-76398380D02*
X96884952Y-75398380D01*
X96789714Y-75541238D01*
X96694476Y-75636476D01*
X96599238Y-75684095D01*
X98361714Y-105354380D02*
X98361714Y-104354380D01*
X98361714Y-104830571D02*
X98933142Y-104830571D01*
X98933142Y-105354380D02*
X98933142Y-104354380D01*
X99933142Y-105354380D02*
X99361714Y-105354380D01*
X99647428Y-105354380D02*
X99647428Y-104354380D01*
X99552190Y-104497238D01*
X99456952Y-104592476D01*
X99361714Y-104640095D01*
X100552190Y-104354380D02*
X100647428Y-104354380D01*
X100742666Y-104402000D01*
X100790285Y-104449619D01*
X100837904Y-104544857D01*
X100885523Y-104735333D01*
X100885523Y-104973428D01*
X100837904Y-105163904D01*
X100790285Y-105259142D01*
X100742666Y-105306761D01*
X100647428Y-105354380D01*
X100552190Y-105354380D01*
X100456952Y-105306761D01*
X100409333Y-105259142D01*
X100361714Y-105163904D01*
X100314095Y-104973428D01*
X100314095Y-104735333D01*
X100361714Y-104544857D01*
X100409333Y-104449619D01*
X100456952Y-104402000D01*
X100552190Y-104354380D01*
X101837904Y-105354380D02*
X101266476Y-105354380D01*
X101552190Y-105354380D02*
X101552190Y-104354380D01*
X101456952Y-104497238D01*
X101361714Y-104592476D01*
X101266476Y-104640095D01*
X90384380Y-87899714D02*
X91098666Y-87899714D01*
X91241523Y-87947333D01*
X91336761Y-88042571D01*
X91384380Y-88185428D01*
X91384380Y-88280666D01*
X91384380Y-86899714D02*
X91384380Y-87471142D01*
X91384380Y-87185428D02*
X90384380Y-87185428D01*
X90527238Y-87280666D01*
X90622476Y-87375904D01*
X90670095Y-87471142D01*
X90384380Y-86280666D02*
X90384380Y-86185428D01*
X90432000Y-86090190D01*
X90479619Y-86042571D01*
X90574857Y-85994952D01*
X90765333Y-85947333D01*
X91003428Y-85947333D01*
X91193904Y-85994952D01*
X91289142Y-86042571D01*
X91336761Y-86090190D01*
X91384380Y-86185428D01*
X91384380Y-86280666D01*
X91336761Y-86375904D01*
X91289142Y-86423523D01*
X91193904Y-86471142D01*
X91003428Y-86518761D01*
X90765333Y-86518761D01*
X90574857Y-86471142D01*
X90479619Y-86423523D01*
X90432000Y-86375904D01*
X90384380Y-86280666D01*
X91384380Y-84994952D02*
X91384380Y-85566380D01*
X91384380Y-85280666D02*
X90384380Y-85280666D01*
X90527238Y-85375904D01*
X90622476Y-85471142D01*
X90670095Y-85566380D01*
X97774285Y-121626380D02*
X97774285Y-122340666D01*
X97726666Y-122483523D01*
X97631428Y-122578761D01*
X97488571Y-122626380D01*
X97393333Y-122626380D01*
X98774285Y-122626380D02*
X98202857Y-122626380D01*
X98488571Y-122626380D02*
X98488571Y-121626380D01*
X98393333Y-121769238D01*
X98298095Y-121864476D01*
X98202857Y-121912095D01*
X99393333Y-121626380D02*
X99488571Y-121626380D01*
X99583809Y-121674000D01*
X99631428Y-121721619D01*
X99679047Y-121816857D01*
X99726666Y-122007333D01*
X99726666Y-122245428D01*
X99679047Y-122435904D01*
X99631428Y-122531142D01*
X99583809Y-122578761D01*
X99488571Y-122626380D01*
X99393333Y-122626380D01*
X99298095Y-122578761D01*
X99250476Y-122531142D01*
X99202857Y-122435904D01*
X99155238Y-122245428D01*
X99155238Y-122007333D01*
X99202857Y-121816857D01*
X99250476Y-121721619D01*
X99298095Y-121674000D01*
X99393333Y-121626380D01*
X100107619Y-121721619D02*
X100155238Y-121674000D01*
X100250476Y-121626380D01*
X100488571Y-121626380D01*
X100583809Y-121674000D01*
X100631428Y-121721619D01*
X100679047Y-121816857D01*
X100679047Y-121912095D01*
X100631428Y-122054952D01*
X100060000Y-122626380D01*
X100679047Y-122626380D01*
X108672380Y-88153714D02*
X109386666Y-88153714D01*
X109529523Y-88201333D01*
X109624761Y-88296571D01*
X109672380Y-88439428D01*
X109672380Y-88534666D01*
X109672380Y-87153714D02*
X109672380Y-87725142D01*
X109672380Y-87439428D02*
X108672380Y-87439428D01*
X108815238Y-87534666D01*
X108910476Y-87629904D01*
X108958095Y-87725142D01*
X108672380Y-86534666D02*
X108672380Y-86439428D01*
X108720000Y-86344190D01*
X108767619Y-86296571D01*
X108862857Y-86248952D01*
X109053333Y-86201333D01*
X109291428Y-86201333D01*
X109481904Y-86248952D01*
X109577142Y-86296571D01*
X109624761Y-86344190D01*
X109672380Y-86439428D01*
X109672380Y-86534666D01*
X109624761Y-86629904D01*
X109577142Y-86677523D01*
X109481904Y-86725142D01*
X109291428Y-86772761D01*
X109053333Y-86772761D01*
X108862857Y-86725142D01*
X108767619Y-86677523D01*
X108720000Y-86629904D01*
X108672380Y-86534666D01*
X108672380Y-85868000D02*
X108672380Y-85201333D01*
X109672380Y-85629904D01*
X81938952Y-103830380D02*
X81605619Y-103354190D01*
X81367523Y-103830380D02*
X81367523Y-102830380D01*
X81748476Y-102830380D01*
X81843714Y-102878000D01*
X81891333Y-102925619D01*
X81938952Y-103020857D01*
X81938952Y-103163714D01*
X81891333Y-103258952D01*
X81843714Y-103306571D01*
X81748476Y-103354190D01*
X81367523Y-103354190D01*
X82891333Y-103830380D02*
X82319904Y-103830380D01*
X82605619Y-103830380D02*
X82605619Y-102830380D01*
X82510380Y-102973238D01*
X82415142Y-103068476D01*
X82319904Y-103116095D01*
X83510380Y-102830380D02*
X83605619Y-102830380D01*
X83700857Y-102878000D01*
X83748476Y-102925619D01*
X83796095Y-103020857D01*
X83843714Y-103211333D01*
X83843714Y-103449428D01*
X83796095Y-103639904D01*
X83748476Y-103735142D01*
X83700857Y-103782761D01*
X83605619Y-103830380D01*
X83510380Y-103830380D01*
X83415142Y-103782761D01*
X83367523Y-103735142D01*
X83319904Y-103639904D01*
X83272285Y-103449428D01*
X83272285Y-103211333D01*
X83319904Y-103020857D01*
X83367523Y-102925619D01*
X83415142Y-102878000D01*
X83510380Y-102830380D01*
X84177047Y-102830380D02*
X84796095Y-102830380D01*
X84462761Y-103211333D01*
X84605619Y-103211333D01*
X84700857Y-103258952D01*
X84748476Y-103306571D01*
X84796095Y-103401809D01*
X84796095Y-103639904D01*
X84748476Y-103735142D01*
X84700857Y-103782761D01*
X84605619Y-103830380D01*
X84319904Y-103830380D01*
X84224666Y-103782761D01*
X84177047Y-103735142D01*
X115974952Y-105379380D02*
X115641619Y-104903190D01*
X115403523Y-105379380D02*
X115403523Y-104379380D01*
X115784476Y-104379380D01*
X115879714Y-104427000D01*
X115927333Y-104474619D01*
X115974952Y-104569857D01*
X115974952Y-104712714D01*
X115927333Y-104807952D01*
X115879714Y-104855571D01*
X115784476Y-104903190D01*
X115403523Y-104903190D01*
X116927333Y-105379380D02*
X116355904Y-105379380D01*
X116641619Y-105379380D02*
X116641619Y-104379380D01*
X116546380Y-104522238D01*
X116451142Y-104617476D01*
X116355904Y-104665095D01*
X117546380Y-104379380D02*
X117641619Y-104379380D01*
X117736857Y-104427000D01*
X117784476Y-104474619D01*
X117832095Y-104569857D01*
X117879714Y-104760333D01*
X117879714Y-104998428D01*
X117832095Y-105188904D01*
X117784476Y-105284142D01*
X117736857Y-105331761D01*
X117641619Y-105379380D01*
X117546380Y-105379380D01*
X117451142Y-105331761D01*
X117403523Y-105284142D01*
X117355904Y-105188904D01*
X117308285Y-104998428D01*
X117308285Y-104760333D01*
X117355904Y-104569857D01*
X117403523Y-104474619D01*
X117451142Y-104427000D01*
X117546380Y-104379380D01*
X118736857Y-104712714D02*
X118736857Y-105379380D01*
X118498761Y-104331761D02*
X118260666Y-105046047D01*
X118879714Y-105046047D01*
X114196952Y-98496380D02*
X113863619Y-98020190D01*
X113625523Y-98496380D02*
X113625523Y-97496380D01*
X114006476Y-97496380D01*
X114101714Y-97544000D01*
X114149333Y-97591619D01*
X114196952Y-97686857D01*
X114196952Y-97829714D01*
X114149333Y-97924952D01*
X114101714Y-97972571D01*
X114006476Y-98020190D01*
X113625523Y-98020190D01*
X115149333Y-98496380D02*
X114577904Y-98496380D01*
X114863619Y-98496380D02*
X114863619Y-97496380D01*
X114768380Y-97639238D01*
X114673142Y-97734476D01*
X114577904Y-97782095D01*
X115768380Y-97496380D02*
X115863619Y-97496380D01*
X115958857Y-97544000D01*
X116006476Y-97591619D01*
X116054095Y-97686857D01*
X116101714Y-97877333D01*
X116101714Y-98115428D01*
X116054095Y-98305904D01*
X116006476Y-98401142D01*
X115958857Y-98448761D01*
X115863619Y-98496380D01*
X115768380Y-98496380D01*
X115673142Y-98448761D01*
X115625523Y-98401142D01*
X115577904Y-98305904D01*
X115530285Y-98115428D01*
X115530285Y-97877333D01*
X115577904Y-97686857D01*
X115625523Y-97591619D01*
X115673142Y-97544000D01*
X115768380Y-97496380D01*
X117006476Y-97496380D02*
X116530285Y-97496380D01*
X116482666Y-97972571D01*
X116530285Y-97924952D01*
X116625523Y-97877333D01*
X116863619Y-97877333D01*
X116958857Y-97924952D01*
X117006476Y-97972571D01*
X117054095Y-98067809D01*
X117054095Y-98305904D01*
X117006476Y-98401142D01*
X116958857Y-98448761D01*
X116863619Y-98496380D01*
X116625523Y-98496380D01*
X116530285Y-98448761D01*
X116482666Y-98401142D01*
X115974952Y-96464380D02*
X115641619Y-95988190D01*
X115403523Y-96464380D02*
X115403523Y-95464380D01*
X115784476Y-95464380D01*
X115879714Y-95512000D01*
X115927333Y-95559619D01*
X115974952Y-95654857D01*
X115974952Y-95797714D01*
X115927333Y-95892952D01*
X115879714Y-95940571D01*
X115784476Y-95988190D01*
X115403523Y-95988190D01*
X116927333Y-96464380D02*
X116355904Y-96464380D01*
X116641619Y-96464380D02*
X116641619Y-95464380D01*
X116546380Y-95607238D01*
X116451142Y-95702476D01*
X116355904Y-95750095D01*
X117546380Y-95464380D02*
X117641619Y-95464380D01*
X117736857Y-95512000D01*
X117784476Y-95559619D01*
X117832095Y-95654857D01*
X117879714Y-95845333D01*
X117879714Y-96083428D01*
X117832095Y-96273904D01*
X117784476Y-96369142D01*
X117736857Y-96416761D01*
X117641619Y-96464380D01*
X117546380Y-96464380D01*
X117451142Y-96416761D01*
X117403523Y-96369142D01*
X117355904Y-96273904D01*
X117308285Y-96083428D01*
X117308285Y-95845333D01*
X117355904Y-95654857D01*
X117403523Y-95559619D01*
X117451142Y-95512000D01*
X117546380Y-95464380D01*
X118213047Y-95464380D02*
X118879714Y-95464380D01*
X118451142Y-96464380D01*
X81938952Y-94940380D02*
X81605619Y-94464190D01*
X81367523Y-94940380D02*
X81367523Y-93940380D01*
X81748476Y-93940380D01*
X81843714Y-93988000D01*
X81891333Y-94035619D01*
X81938952Y-94130857D01*
X81938952Y-94273714D01*
X81891333Y-94368952D01*
X81843714Y-94416571D01*
X81748476Y-94464190D01*
X81367523Y-94464190D01*
X82891333Y-94940380D02*
X82319904Y-94940380D01*
X82605619Y-94940380D02*
X82605619Y-93940380D01*
X82510380Y-94083238D01*
X82415142Y-94178476D01*
X82319904Y-94226095D01*
X83510380Y-93940380D02*
X83605619Y-93940380D01*
X83700857Y-93988000D01*
X83748476Y-94035619D01*
X83796095Y-94130857D01*
X83843714Y-94321333D01*
X83843714Y-94559428D01*
X83796095Y-94749904D01*
X83748476Y-94845142D01*
X83700857Y-94892761D01*
X83605619Y-94940380D01*
X83510380Y-94940380D01*
X83415142Y-94892761D01*
X83367523Y-94845142D01*
X83319904Y-94749904D01*
X83272285Y-94559428D01*
X83272285Y-94321333D01*
X83319904Y-94130857D01*
X83367523Y-94035619D01*
X83415142Y-93988000D01*
X83510380Y-93940380D01*
X84415142Y-94368952D02*
X84319904Y-94321333D01*
X84272285Y-94273714D01*
X84224666Y-94178476D01*
X84224666Y-94130857D01*
X84272285Y-94035619D01*
X84319904Y-93988000D01*
X84415142Y-93940380D01*
X84605619Y-93940380D01*
X84700857Y-93988000D01*
X84748476Y-94035619D01*
X84796095Y-94130857D01*
X84796095Y-94178476D01*
X84748476Y-94273714D01*
X84700857Y-94321333D01*
X84605619Y-94368952D01*
X84415142Y-94368952D01*
X84319904Y-94416571D01*
X84272285Y-94464190D01*
X84224666Y-94559428D01*
X84224666Y-94749904D01*
X84272285Y-94845142D01*
X84319904Y-94892761D01*
X84415142Y-94940380D01*
X84605619Y-94940380D01*
X84700857Y-94892761D01*
X84748476Y-94845142D01*
X84796095Y-94749904D01*
X84796095Y-94559428D01*
X84748476Y-94464190D01*
X84700857Y-94416571D01*
X84605619Y-94368952D01*
X104702380Y-120714285D02*
X105511904Y-120714285D01*
X105607142Y-120666666D01*
X105654761Y-120619047D01*
X105702380Y-120523809D01*
X105702380Y-120333333D01*
X105654761Y-120238095D01*
X105607142Y-120190476D01*
X105511904Y-120142857D01*
X104702380Y-120142857D01*
X105702380Y-119142857D02*
X105702380Y-119714285D01*
X105702380Y-119428571D02*
X104702380Y-119428571D01*
X104845238Y-119523809D01*
X104940476Y-119619047D01*
X104988095Y-119714285D01*
X104702380Y-118523809D02*
X104702380Y-118428571D01*
X104750000Y-118333333D01*
X104797619Y-118285714D01*
X104892857Y-118238095D01*
X105083333Y-118190476D01*
X105321428Y-118190476D01*
X105511904Y-118238095D01*
X105607142Y-118285714D01*
X105654761Y-118333333D01*
X105702380Y-118428571D01*
X105702380Y-118523809D01*
X105654761Y-118619047D01*
X105607142Y-118666666D01*
X105511904Y-118714285D01*
X105321428Y-118761904D01*
X105083333Y-118761904D01*
X104892857Y-118714285D01*
X104797619Y-118666666D01*
X104750000Y-118619047D01*
X104702380Y-118523809D01*
X105035714Y-117333333D02*
X105702380Y-117333333D01*
X104654761Y-117571428D02*
X105369047Y-117809523D01*
X105369047Y-117190476D01*
X103785714Y-78052380D02*
X103785714Y-78861904D01*
X103833333Y-78957142D01*
X103880952Y-79004761D01*
X103976190Y-79052380D01*
X104166666Y-79052380D01*
X104261904Y-79004761D01*
X104309523Y-78957142D01*
X104357142Y-78861904D01*
X104357142Y-78052380D01*
X105357142Y-79052380D02*
X104785714Y-79052380D01*
X105071428Y-79052380D02*
X105071428Y-78052380D01*
X104976190Y-78195238D01*
X104880952Y-78290476D01*
X104785714Y-78338095D01*
X105976190Y-78052380D02*
X106071428Y-78052380D01*
X106166666Y-78100000D01*
X106214285Y-78147619D01*
X106261904Y-78242857D01*
X106309523Y-78433333D01*
X106309523Y-78671428D01*
X106261904Y-78861904D01*
X106214285Y-78957142D01*
X106166666Y-79004761D01*
X106071428Y-79052380D01*
X105976190Y-79052380D01*
X105880952Y-79004761D01*
X105833333Y-78957142D01*
X105785714Y-78861904D01*
X105738095Y-78671428D01*
X105738095Y-78433333D01*
X105785714Y-78242857D01*
X105833333Y-78147619D01*
X105880952Y-78100000D01*
X105976190Y-78052380D01*
X107214285Y-78052380D02*
X106738095Y-78052380D01*
X106690476Y-78528571D01*
X106738095Y-78480952D01*
X106833333Y-78433333D01*
X107071428Y-78433333D01*
X107166666Y-78480952D01*
X107214285Y-78528571D01*
X107261904Y-78623809D01*
X107261904Y-78861904D01*
X107214285Y-78957142D01*
X107166666Y-79004761D01*
X107071428Y-79052380D01*
X106833333Y-79052380D01*
X106738095Y-79004761D01*
X106690476Y-78957142D01*
X78285714Y-97102380D02*
X78285714Y-96102380D01*
X78285714Y-96578571D02*
X78857142Y-96578571D01*
X78857142Y-97102380D02*
X78857142Y-96102380D01*
X79857142Y-97102380D02*
X79285714Y-97102380D01*
X79571428Y-97102380D02*
X79571428Y-96102380D01*
X79476190Y-96245238D01*
X79380952Y-96340476D01*
X79285714Y-96388095D01*
X80476190Y-96102380D02*
X80571428Y-96102380D01*
X80666666Y-96150000D01*
X80714285Y-96197619D01*
X80761904Y-96292857D01*
X80809523Y-96483333D01*
X80809523Y-96721428D01*
X80761904Y-96911904D01*
X80714285Y-97007142D01*
X80666666Y-97054761D01*
X80571428Y-97102380D01*
X80476190Y-97102380D01*
X80380952Y-97054761D01*
X80333333Y-97007142D01*
X80285714Y-96911904D01*
X80238095Y-96721428D01*
X80238095Y-96483333D01*
X80285714Y-96292857D01*
X80333333Y-96197619D01*
X80380952Y-96150000D01*
X80476190Y-96102380D01*
X81190476Y-96197619D02*
X81238095Y-96150000D01*
X81333333Y-96102380D01*
X81571428Y-96102380D01*
X81666666Y-96150000D01*
X81714285Y-96197619D01*
X81761904Y-96292857D01*
X81761904Y-96388095D01*
X81714285Y-96530952D01*
X81142857Y-97102380D01*
X81761904Y-97102380D01*
X124150380Y-101282285D02*
X123150380Y-101282285D01*
X123626571Y-101282285D02*
X123626571Y-100710857D01*
X124150380Y-100710857D02*
X123150380Y-100710857D01*
X124150380Y-99710857D02*
X124150380Y-100282285D01*
X124150380Y-99996571D02*
X123150380Y-99996571D01*
X123293238Y-100091809D01*
X123388476Y-100187047D01*
X123436095Y-100282285D01*
X123150380Y-99091809D02*
X123150380Y-98996571D01*
X123198000Y-98901333D01*
X123245619Y-98853714D01*
X123340857Y-98806095D01*
X123531333Y-98758476D01*
X123769428Y-98758476D01*
X123959904Y-98806095D01*
X124055142Y-98853714D01*
X124102761Y-98901333D01*
X124150380Y-98996571D01*
X124150380Y-99091809D01*
X124102761Y-99187047D01*
X124055142Y-99234666D01*
X123959904Y-99282285D01*
X123769428Y-99329904D01*
X123531333Y-99329904D01*
X123340857Y-99282285D01*
X123245619Y-99234666D01*
X123198000Y-99187047D01*
X123150380Y-99091809D01*
X123150380Y-98425142D02*
X123150380Y-97806095D01*
X123531333Y-98139428D01*
X123531333Y-97996571D01*
X123578952Y-97901333D01*
X123626571Y-97853714D01*
X123721809Y-97806095D01*
X123959904Y-97806095D01*
X124055142Y-97853714D01*
X124102761Y-97901333D01*
X124150380Y-97996571D01*
X124150380Y-98282285D01*
X124102761Y-98377523D01*
X124055142Y-98425142D01*
X76287523Y-109164380D02*
X76287523Y-108164380D01*
X76525619Y-108164380D01*
X76668476Y-108212000D01*
X76763714Y-108307238D01*
X76811333Y-108402476D01*
X76858952Y-108592952D01*
X76858952Y-108735809D01*
X76811333Y-108926285D01*
X76763714Y-109021523D01*
X76668476Y-109116761D01*
X76525619Y-109164380D01*
X76287523Y-109164380D01*
X77811333Y-109164380D02*
X77239904Y-109164380D01*
X77525619Y-109164380D02*
X77525619Y-108164380D01*
X77430380Y-108307238D01*
X77335142Y-108402476D01*
X77239904Y-108450095D01*
X78430380Y-108164380D02*
X78525619Y-108164380D01*
X78620857Y-108212000D01*
X78668476Y-108259619D01*
X78716095Y-108354857D01*
X78763714Y-108545333D01*
X78763714Y-108783428D01*
X78716095Y-108973904D01*
X78668476Y-109069142D01*
X78620857Y-109116761D01*
X78525619Y-109164380D01*
X78430380Y-109164380D01*
X78335142Y-109116761D01*
X78287523Y-109069142D01*
X78239904Y-108973904D01*
X78192285Y-108783428D01*
X78192285Y-108545333D01*
X78239904Y-108354857D01*
X78287523Y-108259619D01*
X78335142Y-108212000D01*
X78430380Y-108164380D01*
X79716095Y-109164380D02*
X79144666Y-109164380D01*
X79430380Y-109164380D02*
X79430380Y-108164380D01*
X79335142Y-108307238D01*
X79239904Y-108402476D01*
X79144666Y-108450095D01*
X120229523Y-108656380D02*
X120229523Y-107656380D01*
X120467619Y-107656380D01*
X120610476Y-107704000D01*
X120705714Y-107799238D01*
X120753333Y-107894476D01*
X120800952Y-108084952D01*
X120800952Y-108227809D01*
X120753333Y-108418285D01*
X120705714Y-108513523D01*
X120610476Y-108608761D01*
X120467619Y-108656380D01*
X120229523Y-108656380D01*
X121753333Y-108656380D02*
X121181904Y-108656380D01*
X121467619Y-108656380D02*
X121467619Y-107656380D01*
X121372380Y-107799238D01*
X121277142Y-107894476D01*
X121181904Y-107942095D01*
X122372380Y-107656380D02*
X122467619Y-107656380D01*
X122562857Y-107704000D01*
X122610476Y-107751619D01*
X122658095Y-107846857D01*
X122705714Y-108037333D01*
X122705714Y-108275428D01*
X122658095Y-108465904D01*
X122610476Y-108561142D01*
X122562857Y-108608761D01*
X122467619Y-108656380D01*
X122372380Y-108656380D01*
X122277142Y-108608761D01*
X122229523Y-108561142D01*
X122181904Y-108465904D01*
X122134285Y-108275428D01*
X122134285Y-108037333D01*
X122181904Y-107846857D01*
X122229523Y-107751619D01*
X122277142Y-107704000D01*
X122372380Y-107656380D01*
X123086666Y-107751619D02*
X123134285Y-107704000D01*
X123229523Y-107656380D01*
X123467619Y-107656380D01*
X123562857Y-107704000D01*
X123610476Y-107751619D01*
X123658095Y-107846857D01*
X123658095Y-107942095D01*
X123610476Y-108084952D01*
X123039047Y-108656380D01*
X123658095Y-108656380D01*
X80351523Y-109164380D02*
X80351523Y-108164380D01*
X80589619Y-108164380D01*
X80732476Y-108212000D01*
X80827714Y-108307238D01*
X80875333Y-108402476D01*
X80922952Y-108592952D01*
X80922952Y-108735809D01*
X80875333Y-108926285D01*
X80827714Y-109021523D01*
X80732476Y-109116761D01*
X80589619Y-109164380D01*
X80351523Y-109164380D01*
X81875333Y-109164380D02*
X81303904Y-109164380D01*
X81589619Y-109164380D02*
X81589619Y-108164380D01*
X81494380Y-108307238D01*
X81399142Y-108402476D01*
X81303904Y-108450095D01*
X82494380Y-108164380D02*
X82589619Y-108164380D01*
X82684857Y-108212000D01*
X82732476Y-108259619D01*
X82780095Y-108354857D01*
X82827714Y-108545333D01*
X82827714Y-108783428D01*
X82780095Y-108973904D01*
X82732476Y-109069142D01*
X82684857Y-109116761D01*
X82589619Y-109164380D01*
X82494380Y-109164380D01*
X82399142Y-109116761D01*
X82351523Y-109069142D01*
X82303904Y-108973904D01*
X82256285Y-108783428D01*
X82256285Y-108545333D01*
X82303904Y-108354857D01*
X82351523Y-108259619D01*
X82399142Y-108212000D01*
X82494380Y-108164380D01*
X83161047Y-108164380D02*
X83780095Y-108164380D01*
X83446761Y-108545333D01*
X83589619Y-108545333D01*
X83684857Y-108592952D01*
X83732476Y-108640571D01*
X83780095Y-108735809D01*
X83780095Y-108973904D01*
X83732476Y-109069142D01*
X83684857Y-109116761D01*
X83589619Y-109164380D01*
X83303904Y-109164380D01*
X83208666Y-109116761D01*
X83161047Y-109069142D01*
X116419523Y-108656380D02*
X116419523Y-107656380D01*
X116657619Y-107656380D01*
X116800476Y-107704000D01*
X116895714Y-107799238D01*
X116943333Y-107894476D01*
X116990952Y-108084952D01*
X116990952Y-108227809D01*
X116943333Y-108418285D01*
X116895714Y-108513523D01*
X116800476Y-108608761D01*
X116657619Y-108656380D01*
X116419523Y-108656380D01*
X117943333Y-108656380D02*
X117371904Y-108656380D01*
X117657619Y-108656380D02*
X117657619Y-107656380D01*
X117562380Y-107799238D01*
X117467142Y-107894476D01*
X117371904Y-107942095D01*
X118562380Y-107656380D02*
X118657619Y-107656380D01*
X118752857Y-107704000D01*
X118800476Y-107751619D01*
X118848095Y-107846857D01*
X118895714Y-108037333D01*
X118895714Y-108275428D01*
X118848095Y-108465904D01*
X118800476Y-108561142D01*
X118752857Y-108608761D01*
X118657619Y-108656380D01*
X118562380Y-108656380D01*
X118467142Y-108608761D01*
X118419523Y-108561142D01*
X118371904Y-108465904D01*
X118324285Y-108275428D01*
X118324285Y-108037333D01*
X118371904Y-107846857D01*
X118419523Y-107751619D01*
X118467142Y-107704000D01*
X118562380Y-107656380D01*
X119752857Y-107989714D02*
X119752857Y-108656380D01*
X119514761Y-107608761D02*
X119276666Y-108323047D01*
X119895714Y-108323047D01*
X80351523Y-107894380D02*
X80351523Y-106894380D01*
X80589619Y-106894380D01*
X80732476Y-106942000D01*
X80827714Y-107037238D01*
X80875333Y-107132476D01*
X80922952Y-107322952D01*
X80922952Y-107465809D01*
X80875333Y-107656285D01*
X80827714Y-107751523D01*
X80732476Y-107846761D01*
X80589619Y-107894380D01*
X80351523Y-107894380D01*
X81875333Y-107894380D02*
X81303904Y-107894380D01*
X81589619Y-107894380D02*
X81589619Y-106894380D01*
X81494380Y-107037238D01*
X81399142Y-107132476D01*
X81303904Y-107180095D01*
X82494380Y-106894380D02*
X82589619Y-106894380D01*
X82684857Y-106942000D01*
X82732476Y-106989619D01*
X82780095Y-107084857D01*
X82827714Y-107275333D01*
X82827714Y-107513428D01*
X82780095Y-107703904D01*
X82732476Y-107799142D01*
X82684857Y-107846761D01*
X82589619Y-107894380D01*
X82494380Y-107894380D01*
X82399142Y-107846761D01*
X82351523Y-107799142D01*
X82303904Y-107703904D01*
X82256285Y-107513428D01*
X82256285Y-107275333D01*
X82303904Y-107084857D01*
X82351523Y-106989619D01*
X82399142Y-106942000D01*
X82494380Y-106894380D01*
X83732476Y-106894380D02*
X83256285Y-106894380D01*
X83208666Y-107370571D01*
X83256285Y-107322952D01*
X83351523Y-107275333D01*
X83589619Y-107275333D01*
X83684857Y-107322952D01*
X83732476Y-107370571D01*
X83780095Y-107465809D01*
X83780095Y-107703904D01*
X83732476Y-107799142D01*
X83684857Y-107846761D01*
X83589619Y-107894380D01*
X83351523Y-107894380D01*
X83256285Y-107846761D01*
X83208666Y-107799142D01*
X76287523Y-107894380D02*
X76287523Y-106894380D01*
X76525619Y-106894380D01*
X76668476Y-106942000D01*
X76763714Y-107037238D01*
X76811333Y-107132476D01*
X76858952Y-107322952D01*
X76858952Y-107465809D01*
X76811333Y-107656285D01*
X76763714Y-107751523D01*
X76668476Y-107846761D01*
X76525619Y-107894380D01*
X76287523Y-107894380D01*
X77811333Y-107894380D02*
X77239904Y-107894380D01*
X77525619Y-107894380D02*
X77525619Y-106894380D01*
X77430380Y-107037238D01*
X77335142Y-107132476D01*
X77239904Y-107180095D01*
X78430380Y-106894380D02*
X78525619Y-106894380D01*
X78620857Y-106942000D01*
X78668476Y-106989619D01*
X78716095Y-107084857D01*
X78763714Y-107275333D01*
X78763714Y-107513428D01*
X78716095Y-107703904D01*
X78668476Y-107799142D01*
X78620857Y-107846761D01*
X78525619Y-107894380D01*
X78430380Y-107894380D01*
X78335142Y-107846761D01*
X78287523Y-107799142D01*
X78239904Y-107703904D01*
X78192285Y-107513428D01*
X78192285Y-107275333D01*
X78239904Y-107084857D01*
X78287523Y-106989619D01*
X78335142Y-106942000D01*
X78430380Y-106894380D01*
X79097047Y-106894380D02*
X79763714Y-106894380D01*
X79335142Y-107894380D01*
X120229523Y-109926380D02*
X120229523Y-108926380D01*
X120467619Y-108926380D01*
X120610476Y-108974000D01*
X120705714Y-109069238D01*
X120753333Y-109164476D01*
X120800952Y-109354952D01*
X120800952Y-109497809D01*
X120753333Y-109688285D01*
X120705714Y-109783523D01*
X120610476Y-109878761D01*
X120467619Y-109926380D01*
X120229523Y-109926380D01*
X121753333Y-109926380D02*
X121181904Y-109926380D01*
X121467619Y-109926380D02*
X121467619Y-108926380D01*
X121372380Y-109069238D01*
X121277142Y-109164476D01*
X121181904Y-109212095D01*
X122372380Y-108926380D02*
X122467619Y-108926380D01*
X122562857Y-108974000D01*
X122610476Y-109021619D01*
X122658095Y-109116857D01*
X122705714Y-109307333D01*
X122705714Y-109545428D01*
X122658095Y-109735904D01*
X122610476Y-109831142D01*
X122562857Y-109878761D01*
X122467619Y-109926380D01*
X122372380Y-109926380D01*
X122277142Y-109878761D01*
X122229523Y-109831142D01*
X122181904Y-109735904D01*
X122134285Y-109545428D01*
X122134285Y-109307333D01*
X122181904Y-109116857D01*
X122229523Y-109021619D01*
X122277142Y-108974000D01*
X122372380Y-108926380D01*
X123277142Y-109354952D02*
X123181904Y-109307333D01*
X123134285Y-109259714D01*
X123086666Y-109164476D01*
X123086666Y-109116857D01*
X123134285Y-109021619D01*
X123181904Y-108974000D01*
X123277142Y-108926380D01*
X123467619Y-108926380D01*
X123562857Y-108974000D01*
X123610476Y-109021619D01*
X123658095Y-109116857D01*
X123658095Y-109164476D01*
X123610476Y-109259714D01*
X123562857Y-109307333D01*
X123467619Y-109354952D01*
X123277142Y-109354952D01*
X123181904Y-109402571D01*
X123134285Y-109450190D01*
X123086666Y-109545428D01*
X123086666Y-109735904D01*
X123134285Y-109831142D01*
X123181904Y-109878761D01*
X123277142Y-109926380D01*
X123467619Y-109926380D01*
X123562857Y-109878761D01*
X123610476Y-109831142D01*
X123658095Y-109735904D01*
X123658095Y-109545428D01*
X123610476Y-109450190D01*
X123562857Y-109402571D01*
X123467619Y-109354952D01*
X120229523Y-92146380D02*
X120229523Y-91146380D01*
X120467619Y-91146380D01*
X120610476Y-91194000D01*
X120705714Y-91289238D01*
X120753333Y-91384476D01*
X120800952Y-91574952D01*
X120800952Y-91717809D01*
X120753333Y-91908285D01*
X120705714Y-92003523D01*
X120610476Y-92098761D01*
X120467619Y-92146380D01*
X120229523Y-92146380D01*
X121753333Y-92146380D02*
X121181904Y-92146380D01*
X121467619Y-92146380D02*
X121467619Y-91146380D01*
X121372380Y-91289238D01*
X121277142Y-91384476D01*
X121181904Y-91432095D01*
X122372380Y-91146380D02*
X122467619Y-91146380D01*
X122562857Y-91194000D01*
X122610476Y-91241619D01*
X122658095Y-91336857D01*
X122705714Y-91527333D01*
X122705714Y-91765428D01*
X122658095Y-91955904D01*
X122610476Y-92051142D01*
X122562857Y-92098761D01*
X122467619Y-92146380D01*
X122372380Y-92146380D01*
X122277142Y-92098761D01*
X122229523Y-92051142D01*
X122181904Y-91955904D01*
X122134285Y-91765428D01*
X122134285Y-91527333D01*
X122181904Y-91336857D01*
X122229523Y-91241619D01*
X122277142Y-91194000D01*
X122372380Y-91146380D01*
X123181904Y-92146380D02*
X123372380Y-92146380D01*
X123467619Y-92098761D01*
X123515238Y-92051142D01*
X123610476Y-91908285D01*
X123658095Y-91717809D01*
X123658095Y-91336857D01*
X123610476Y-91241619D01*
X123562857Y-91194000D01*
X123467619Y-91146380D01*
X123277142Y-91146380D01*
X123181904Y-91194000D01*
X123134285Y-91241619D01*
X123086666Y-91336857D01*
X123086666Y-91574952D01*
X123134285Y-91670190D01*
X123181904Y-91717809D01*
X123277142Y-91765428D01*
X123467619Y-91765428D01*
X123562857Y-91717809D01*
X123610476Y-91670190D01*
X123658095Y-91574952D01*
X76287523Y-92146380D02*
X76287523Y-91146380D01*
X76525619Y-91146380D01*
X76668476Y-91194000D01*
X76763714Y-91289238D01*
X76811333Y-91384476D01*
X76858952Y-91574952D01*
X76858952Y-91717809D01*
X76811333Y-91908285D01*
X76763714Y-92003523D01*
X76668476Y-92098761D01*
X76525619Y-92146380D01*
X76287523Y-92146380D01*
X77811333Y-92146380D02*
X77239904Y-92146380D01*
X77525619Y-92146380D02*
X77525619Y-91146380D01*
X77430380Y-91289238D01*
X77335142Y-91384476D01*
X77239904Y-91432095D01*
X78763714Y-92146380D02*
X78192285Y-92146380D01*
X78478000Y-92146380D02*
X78478000Y-91146380D01*
X78382761Y-91289238D01*
X78287523Y-91384476D01*
X78192285Y-91432095D01*
X79382761Y-91146380D02*
X79478000Y-91146380D01*
X79573238Y-91194000D01*
X79620857Y-91241619D01*
X79668476Y-91336857D01*
X79716095Y-91527333D01*
X79716095Y-91765428D01*
X79668476Y-91955904D01*
X79620857Y-92051142D01*
X79573238Y-92098761D01*
X79478000Y-92146380D01*
X79382761Y-92146380D01*
X79287523Y-92098761D01*
X79239904Y-92051142D01*
X79192285Y-91955904D01*
X79144666Y-91765428D01*
X79144666Y-91527333D01*
X79192285Y-91336857D01*
X79239904Y-91241619D01*
X79287523Y-91194000D01*
X79382761Y-91146380D01*
X116419523Y-92146380D02*
X116419523Y-91146380D01*
X116657619Y-91146380D01*
X116800476Y-91194000D01*
X116895714Y-91289238D01*
X116943333Y-91384476D01*
X116990952Y-91574952D01*
X116990952Y-91717809D01*
X116943333Y-91908285D01*
X116895714Y-92003523D01*
X116800476Y-92098761D01*
X116657619Y-92146380D01*
X116419523Y-92146380D01*
X117943333Y-92146380D02*
X117371904Y-92146380D01*
X117657619Y-92146380D02*
X117657619Y-91146380D01*
X117562380Y-91289238D01*
X117467142Y-91384476D01*
X117371904Y-91432095D01*
X118895714Y-92146380D02*
X118324285Y-92146380D01*
X118610000Y-92146380D02*
X118610000Y-91146380D01*
X118514761Y-91289238D01*
X118419523Y-91384476D01*
X118324285Y-91432095D01*
X119848095Y-92146380D02*
X119276666Y-92146380D01*
X119562380Y-92146380D02*
X119562380Y-91146380D01*
X119467142Y-91289238D01*
X119371904Y-91384476D01*
X119276666Y-91432095D01*
X80097523Y-92146380D02*
X80097523Y-91146380D01*
X80335619Y-91146380D01*
X80478476Y-91194000D01*
X80573714Y-91289238D01*
X80621333Y-91384476D01*
X80668952Y-91574952D01*
X80668952Y-91717809D01*
X80621333Y-91908285D01*
X80573714Y-92003523D01*
X80478476Y-92098761D01*
X80335619Y-92146380D01*
X80097523Y-92146380D01*
X81621333Y-92146380D02*
X81049904Y-92146380D01*
X81335619Y-92146380D02*
X81335619Y-91146380D01*
X81240380Y-91289238D01*
X81145142Y-91384476D01*
X81049904Y-91432095D01*
X82573714Y-92146380D02*
X82002285Y-92146380D01*
X82288000Y-92146380D02*
X82288000Y-91146380D01*
X82192761Y-91289238D01*
X82097523Y-91384476D01*
X82002285Y-91432095D01*
X82954666Y-91241619D02*
X83002285Y-91194000D01*
X83097523Y-91146380D01*
X83335619Y-91146380D01*
X83430857Y-91194000D01*
X83478476Y-91241619D01*
X83526095Y-91336857D01*
X83526095Y-91432095D01*
X83478476Y-91574952D01*
X82907047Y-92146380D01*
X83526095Y-92146380D01*
X116419523Y-93416380D02*
X116419523Y-92416380D01*
X116657619Y-92416380D01*
X116800476Y-92464000D01*
X116895714Y-92559238D01*
X116943333Y-92654476D01*
X116990952Y-92844952D01*
X116990952Y-92987809D01*
X116943333Y-93178285D01*
X116895714Y-93273523D01*
X116800476Y-93368761D01*
X116657619Y-93416380D01*
X116419523Y-93416380D01*
X117943333Y-93416380D02*
X117371904Y-93416380D01*
X117657619Y-93416380D02*
X117657619Y-92416380D01*
X117562380Y-92559238D01*
X117467142Y-92654476D01*
X117371904Y-92702095D01*
X118895714Y-93416380D02*
X118324285Y-93416380D01*
X118610000Y-93416380D02*
X118610000Y-92416380D01*
X118514761Y-92559238D01*
X118419523Y-92654476D01*
X118324285Y-92702095D01*
X119229047Y-92416380D02*
X119848095Y-92416380D01*
X119514761Y-92797333D01*
X119657619Y-92797333D01*
X119752857Y-92844952D01*
X119800476Y-92892571D01*
X119848095Y-92987809D01*
X119848095Y-93225904D01*
X119800476Y-93321142D01*
X119752857Y-93368761D01*
X119657619Y-93416380D01*
X119371904Y-93416380D01*
X119276666Y-93368761D01*
X119229047Y-93321142D01*
X80097523Y-90876380D02*
X80097523Y-89876380D01*
X80335619Y-89876380D01*
X80478476Y-89924000D01*
X80573714Y-90019238D01*
X80621333Y-90114476D01*
X80668952Y-90304952D01*
X80668952Y-90447809D01*
X80621333Y-90638285D01*
X80573714Y-90733523D01*
X80478476Y-90828761D01*
X80335619Y-90876380D01*
X80097523Y-90876380D01*
X81621333Y-90876380D02*
X81049904Y-90876380D01*
X81335619Y-90876380D02*
X81335619Y-89876380D01*
X81240380Y-90019238D01*
X81145142Y-90114476D01*
X81049904Y-90162095D01*
X82573714Y-90876380D02*
X82002285Y-90876380D01*
X82288000Y-90876380D02*
X82288000Y-89876380D01*
X82192761Y-90019238D01*
X82097523Y-90114476D01*
X82002285Y-90162095D01*
X83430857Y-90209714D02*
X83430857Y-90876380D01*
X83192761Y-89828761D02*
X82954666Y-90543047D01*
X83573714Y-90543047D01*
X120229523Y-93416380D02*
X120229523Y-92416380D01*
X120467619Y-92416380D01*
X120610476Y-92464000D01*
X120705714Y-92559238D01*
X120753333Y-92654476D01*
X120800952Y-92844952D01*
X120800952Y-92987809D01*
X120753333Y-93178285D01*
X120705714Y-93273523D01*
X120610476Y-93368761D01*
X120467619Y-93416380D01*
X120229523Y-93416380D01*
X121753333Y-93416380D02*
X121181904Y-93416380D01*
X121467619Y-93416380D02*
X121467619Y-92416380D01*
X121372380Y-92559238D01*
X121277142Y-92654476D01*
X121181904Y-92702095D01*
X122705714Y-93416380D02*
X122134285Y-93416380D01*
X122420000Y-93416380D02*
X122420000Y-92416380D01*
X122324761Y-92559238D01*
X122229523Y-92654476D01*
X122134285Y-92702095D01*
X123610476Y-92416380D02*
X123134285Y-92416380D01*
X123086666Y-92892571D01*
X123134285Y-92844952D01*
X123229523Y-92797333D01*
X123467619Y-92797333D01*
X123562857Y-92844952D01*
X123610476Y-92892571D01*
X123658095Y-92987809D01*
X123658095Y-93225904D01*
X123610476Y-93321142D01*
X123562857Y-93368761D01*
X123467619Y-93416380D01*
X123229523Y-93416380D01*
X123134285Y-93368761D01*
X123086666Y-93321142D01*
X76287523Y-90876380D02*
X76287523Y-89876380D01*
X76525619Y-89876380D01*
X76668476Y-89924000D01*
X76763714Y-90019238D01*
X76811333Y-90114476D01*
X76858952Y-90304952D01*
X76858952Y-90447809D01*
X76811333Y-90638285D01*
X76763714Y-90733523D01*
X76668476Y-90828761D01*
X76525619Y-90876380D01*
X76287523Y-90876380D01*
X77811333Y-90876380D02*
X77239904Y-90876380D01*
X77525619Y-90876380D02*
X77525619Y-89876380D01*
X77430380Y-90019238D01*
X77335142Y-90114476D01*
X77239904Y-90162095D01*
X78763714Y-90876380D02*
X78192285Y-90876380D01*
X78478000Y-90876380D02*
X78478000Y-89876380D01*
X78382761Y-90019238D01*
X78287523Y-90114476D01*
X78192285Y-90162095D01*
X79620857Y-89876380D02*
X79430380Y-89876380D01*
X79335142Y-89924000D01*
X79287523Y-89971619D01*
X79192285Y-90114476D01*
X79144666Y-90304952D01*
X79144666Y-90685904D01*
X79192285Y-90781142D01*
X79239904Y-90828761D01*
X79335142Y-90876380D01*
X79525619Y-90876380D01*
X79620857Y-90828761D01*
X79668476Y-90781142D01*
X79716095Y-90685904D01*
X79716095Y-90447809D01*
X79668476Y-90352571D01*
X79620857Y-90304952D01*
X79525619Y-90257333D01*
X79335142Y-90257333D01*
X79239904Y-90304952D01*
X79192285Y-90352571D01*
X79144666Y-90447809D01*
X83208952Y-101798380D02*
X82875619Y-101322190D01*
X82637523Y-101798380D02*
X82637523Y-100798380D01*
X83018476Y-100798380D01*
X83113714Y-100846000D01*
X83161333Y-100893619D01*
X83208952Y-100988857D01*
X83208952Y-101131714D01*
X83161333Y-101226952D01*
X83113714Y-101274571D01*
X83018476Y-101322190D01*
X82637523Y-101322190D01*
X84161333Y-101798380D02*
X83589904Y-101798380D01*
X83875619Y-101798380D02*
X83875619Y-100798380D01*
X83780380Y-100941238D01*
X83685142Y-101036476D01*
X83589904Y-101084095D01*
X84780380Y-100798380D02*
X84875619Y-100798380D01*
X84970857Y-100846000D01*
X85018476Y-100893619D01*
X85066095Y-100988857D01*
X85113714Y-101179333D01*
X85113714Y-101417428D01*
X85066095Y-101607904D01*
X85018476Y-101703142D01*
X84970857Y-101750761D01*
X84875619Y-101798380D01*
X84780380Y-101798380D01*
X84685142Y-101750761D01*
X84637523Y-101703142D01*
X84589904Y-101607904D01*
X84542285Y-101417428D01*
X84542285Y-101179333D01*
X84589904Y-100988857D01*
X84637523Y-100893619D01*
X84685142Y-100846000D01*
X84780380Y-100798380D01*
X86066095Y-101798380D02*
X85494666Y-101798380D01*
X85780380Y-101798380D02*
X85780380Y-100798380D01*
X85685142Y-100941238D01*
X85589904Y-101036476D01*
X85494666Y-101084095D01*
X107592952Y-109926380D02*
X107259619Y-109450190D01*
X107021523Y-109926380D02*
X107021523Y-108926380D01*
X107402476Y-108926380D01*
X107497714Y-108974000D01*
X107545333Y-109021619D01*
X107592952Y-109116857D01*
X107592952Y-109259714D01*
X107545333Y-109354952D01*
X107497714Y-109402571D01*
X107402476Y-109450190D01*
X107021523Y-109450190D01*
X108545333Y-109926380D02*
X107973904Y-109926380D01*
X108259619Y-109926380D02*
X108259619Y-108926380D01*
X108164380Y-109069238D01*
X108069142Y-109164476D01*
X107973904Y-109212095D01*
X109164380Y-108926380D02*
X109259619Y-108926380D01*
X109354857Y-108974000D01*
X109402476Y-109021619D01*
X109450095Y-109116857D01*
X109497714Y-109307333D01*
X109497714Y-109545428D01*
X109450095Y-109735904D01*
X109402476Y-109831142D01*
X109354857Y-109878761D01*
X109259619Y-109926380D01*
X109164380Y-109926380D01*
X109069142Y-109878761D01*
X109021523Y-109831142D01*
X108973904Y-109735904D01*
X108926285Y-109545428D01*
X108926285Y-109307333D01*
X108973904Y-109116857D01*
X109021523Y-109021619D01*
X109069142Y-108974000D01*
X109164380Y-108926380D01*
X109878666Y-109021619D02*
X109926285Y-108974000D01*
X110021523Y-108926380D01*
X110259619Y-108926380D01*
X110354857Y-108974000D01*
X110402476Y-109021619D01*
X110450095Y-109116857D01*
X110450095Y-109212095D01*
X110402476Y-109354952D01*
X109831047Y-109926380D01*
X110450095Y-109926380D01*
X90066952Y-91130380D02*
X89733619Y-90654190D01*
X89495523Y-91130380D02*
X89495523Y-90130380D01*
X89876476Y-90130380D01*
X89971714Y-90178000D01*
X90019333Y-90225619D01*
X90066952Y-90320857D01*
X90066952Y-90463714D01*
X90019333Y-90558952D01*
X89971714Y-90606571D01*
X89876476Y-90654190D01*
X89495523Y-90654190D01*
X91019333Y-91130380D02*
X90447904Y-91130380D01*
X90733619Y-91130380D02*
X90733619Y-90130380D01*
X90638380Y-90273238D01*
X90543142Y-90368476D01*
X90447904Y-90416095D01*
X91638380Y-90130380D02*
X91733619Y-90130380D01*
X91828857Y-90178000D01*
X91876476Y-90225619D01*
X91924095Y-90320857D01*
X91971714Y-90511333D01*
X91971714Y-90749428D01*
X91924095Y-90939904D01*
X91876476Y-91035142D01*
X91828857Y-91082761D01*
X91733619Y-91130380D01*
X91638380Y-91130380D01*
X91543142Y-91082761D01*
X91495523Y-91035142D01*
X91447904Y-90939904D01*
X91400285Y-90749428D01*
X91400285Y-90511333D01*
X91447904Y-90320857D01*
X91495523Y-90225619D01*
X91543142Y-90178000D01*
X91638380Y-90130380D01*
X92828857Y-90130380D02*
X92638380Y-90130380D01*
X92543142Y-90178000D01*
X92495523Y-90225619D01*
X92400285Y-90368476D01*
X92352666Y-90558952D01*
X92352666Y-90939904D01*
X92400285Y-91035142D01*
X92447904Y-91082761D01*
X92543142Y-91130380D01*
X92733619Y-91130380D01*
X92828857Y-91082761D01*
X92876476Y-91035142D01*
X92924095Y-90939904D01*
X92924095Y-90701809D01*
X92876476Y-90606571D01*
X92828857Y-90558952D01*
X92733619Y-90511333D01*
X92543142Y-90511333D01*
X92447904Y-90558952D01*
X92400285Y-90606571D01*
X92352666Y-90701809D01*
X85153714Y-106640380D02*
X85153714Y-107449904D01*
X85201333Y-107545142D01*
X85248952Y-107592761D01*
X85344190Y-107640380D01*
X85534666Y-107640380D01*
X85629904Y-107592761D01*
X85677523Y-107545142D01*
X85725142Y-107449904D01*
X85725142Y-106640380D01*
X86725142Y-107640380D02*
X86153714Y-107640380D01*
X86439428Y-107640380D02*
X86439428Y-106640380D01*
X86344190Y-106783238D01*
X86248952Y-106878476D01*
X86153714Y-106926095D01*
X87344190Y-106640380D02*
X87439428Y-106640380D01*
X87534666Y-106688000D01*
X87582285Y-106735619D01*
X87629904Y-106830857D01*
X87677523Y-107021333D01*
X87677523Y-107259428D01*
X87629904Y-107449904D01*
X87582285Y-107545142D01*
X87534666Y-107592761D01*
X87439428Y-107640380D01*
X87344190Y-107640380D01*
X87248952Y-107592761D01*
X87201333Y-107545142D01*
X87153714Y-107449904D01*
X87106095Y-107259428D01*
X87106095Y-107021333D01*
X87153714Y-106830857D01*
X87201333Y-106735619D01*
X87248952Y-106688000D01*
X87344190Y-106640380D01*
X88058476Y-106735619D02*
X88106095Y-106688000D01*
X88201333Y-106640380D01*
X88439428Y-106640380D01*
X88534666Y-106688000D01*
X88582285Y-106735619D01*
X88629904Y-106830857D01*
X88629904Y-106926095D01*
X88582285Y-107068952D01*
X88010857Y-107640380D01*
X88629904Y-107640380D01*
X114109714Y-102576380D02*
X114109714Y-103385904D01*
X114157333Y-103481142D01*
X114204952Y-103528761D01*
X114300190Y-103576380D01*
X114490666Y-103576380D01*
X114585904Y-103528761D01*
X114633523Y-103481142D01*
X114681142Y-103385904D01*
X114681142Y-102576380D01*
X115681142Y-103576380D02*
X115109714Y-103576380D01*
X115395428Y-103576380D02*
X115395428Y-102576380D01*
X115300190Y-102719238D01*
X115204952Y-102814476D01*
X115109714Y-102862095D01*
X116300190Y-102576380D02*
X116395428Y-102576380D01*
X116490666Y-102624000D01*
X116538285Y-102671619D01*
X116585904Y-102766857D01*
X116633523Y-102957333D01*
X116633523Y-103195428D01*
X116585904Y-103385904D01*
X116538285Y-103481142D01*
X116490666Y-103528761D01*
X116395428Y-103576380D01*
X116300190Y-103576380D01*
X116204952Y-103528761D01*
X116157333Y-103481142D01*
X116109714Y-103385904D01*
X116062095Y-103195428D01*
X116062095Y-102957333D01*
X116109714Y-102766857D01*
X116157333Y-102671619D01*
X116204952Y-102624000D01*
X116300190Y-102576380D01*
X116966857Y-102576380D02*
X117585904Y-102576380D01*
X117252571Y-102957333D01*
X117395428Y-102957333D01*
X117490666Y-103004952D01*
X117538285Y-103052571D01*
X117585904Y-103147809D01*
X117585904Y-103385904D01*
X117538285Y-103481142D01*
X117490666Y-103528761D01*
X117395428Y-103576380D01*
X117109714Y-103576380D01*
X117014476Y-103528761D01*
X116966857Y-103481142D01*
X111061714Y-92402380D02*
X111061714Y-93211904D01*
X111109333Y-93307142D01*
X111156952Y-93354761D01*
X111252190Y-93402380D01*
X111442666Y-93402380D01*
X111537904Y-93354761D01*
X111585523Y-93307142D01*
X111633142Y-93211904D01*
X111633142Y-92402380D01*
X112633142Y-93402380D02*
X112061714Y-93402380D01*
X112347428Y-93402380D02*
X112347428Y-92402380D01*
X112252190Y-92545238D01*
X112156952Y-92640476D01*
X112061714Y-92688095D01*
X113252190Y-92402380D02*
X113347428Y-92402380D01*
X113442666Y-92450000D01*
X113490285Y-92497619D01*
X113537904Y-92592857D01*
X113585523Y-92783333D01*
X113585523Y-93021428D01*
X113537904Y-93211904D01*
X113490285Y-93307142D01*
X113442666Y-93354761D01*
X113347428Y-93402380D01*
X113252190Y-93402380D01*
X113156952Y-93354761D01*
X113109333Y-93307142D01*
X113061714Y-93211904D01*
X113014095Y-93021428D01*
X113014095Y-92783333D01*
X113061714Y-92592857D01*
X113109333Y-92497619D01*
X113156952Y-92450000D01*
X113252190Y-92402380D01*
X114442666Y-92402380D02*
X114252190Y-92402380D01*
X114156952Y-92450000D01*
X114109333Y-92497619D01*
X114014095Y-92640476D01*
X113966476Y-92830952D01*
X113966476Y-93211904D01*
X114014095Y-93307142D01*
X114061714Y-93354761D01*
X114156952Y-93402380D01*
X114347428Y-93402380D01*
X114442666Y-93354761D01*
X114490285Y-93307142D01*
X114537904Y-93211904D01*
X114537904Y-92973809D01*
X114490285Y-92878571D01*
X114442666Y-92830952D01*
X114347428Y-92783333D01*
X114156952Y-92783333D01*
X114061714Y-92830952D01*
X114014095Y-92878571D01*
X113966476Y-92973809D01*
X82613714Y-96226380D02*
X82613714Y-97035904D01*
X82661333Y-97131142D01*
X82708952Y-97178761D01*
X82804190Y-97226380D01*
X82994666Y-97226380D01*
X83089904Y-97178761D01*
X83137523Y-97131142D01*
X83185142Y-97035904D01*
X83185142Y-96226380D01*
X84185142Y-97226380D02*
X83613714Y-97226380D01*
X83899428Y-97226380D02*
X83899428Y-96226380D01*
X83804190Y-96369238D01*
X83708952Y-96464476D01*
X83613714Y-96512095D01*
X84804190Y-96226380D02*
X84899428Y-96226380D01*
X84994666Y-96274000D01*
X85042285Y-96321619D01*
X85089904Y-96416857D01*
X85137523Y-96607333D01*
X85137523Y-96845428D01*
X85089904Y-97035904D01*
X85042285Y-97131142D01*
X84994666Y-97178761D01*
X84899428Y-97226380D01*
X84804190Y-97226380D01*
X84708952Y-97178761D01*
X84661333Y-97131142D01*
X84613714Y-97035904D01*
X84566095Y-96845428D01*
X84566095Y-96607333D01*
X84613714Y-96416857D01*
X84661333Y-96321619D01*
X84708952Y-96274000D01*
X84804190Y-96226380D01*
X85470857Y-96226380D02*
X86137523Y-96226380D01*
X85708952Y-97226380D01*
X93214285Y-120452380D02*
X93214285Y-121166666D01*
X93166666Y-121309523D01*
X93071428Y-121404761D01*
X92928571Y-121452380D01*
X92833333Y-121452380D01*
X94214285Y-121452380D02*
X93642857Y-121452380D01*
X93928571Y-121452380D02*
X93928571Y-120452380D01*
X93833333Y-120595238D01*
X93738095Y-120690476D01*
X93642857Y-120738095D01*
X94833333Y-120452380D02*
X94928571Y-120452380D01*
X95023809Y-120500000D01*
X95071428Y-120547619D01*
X95119047Y-120642857D01*
X95166666Y-120833333D01*
X95166666Y-121071428D01*
X95119047Y-121261904D01*
X95071428Y-121357142D01*
X95023809Y-121404761D01*
X94928571Y-121452380D01*
X94833333Y-121452380D01*
X94738095Y-121404761D01*
X94690476Y-121357142D01*
X94642857Y-121261904D01*
X94595238Y-121071428D01*
X94595238Y-120833333D01*
X94642857Y-120642857D01*
X94690476Y-120547619D01*
X94738095Y-120500000D01*
X94833333Y-120452380D01*
X95500000Y-120452380D02*
X96119047Y-120452380D01*
X95785714Y-120833333D01*
X95928571Y-120833333D01*
X96023809Y-120880952D01*
X96071428Y-120928571D01*
X96119047Y-121023809D01*
X96119047Y-121261904D01*
X96071428Y-121357142D01*
X96023809Y-121404761D01*
X95928571Y-121452380D01*
X95642857Y-121452380D01*
X95547619Y-121404761D01*
X95500000Y-121357142D01*
X104964285Y-111952380D02*
X104964285Y-112666666D01*
X104916666Y-112809523D01*
X104821428Y-112904761D01*
X104678571Y-112952380D01*
X104583333Y-112952380D01*
X105964285Y-112952380D02*
X105392857Y-112952380D01*
X105678571Y-112952380D02*
X105678571Y-111952380D01*
X105583333Y-112095238D01*
X105488095Y-112190476D01*
X105392857Y-112238095D01*
X106583333Y-111952380D02*
X106678571Y-111952380D01*
X106773809Y-112000000D01*
X106821428Y-112047619D01*
X106869047Y-112142857D01*
X106916666Y-112333333D01*
X106916666Y-112571428D01*
X106869047Y-112761904D01*
X106821428Y-112857142D01*
X106773809Y-112904761D01*
X106678571Y-112952380D01*
X106583333Y-112952380D01*
X106488095Y-112904761D01*
X106440476Y-112857142D01*
X106392857Y-112761904D01*
X106345238Y-112571428D01*
X106345238Y-112333333D01*
X106392857Y-112142857D01*
X106440476Y-112047619D01*
X106488095Y-112000000D01*
X106583333Y-111952380D01*
X107773809Y-112285714D02*
X107773809Y-112952380D01*
X107535714Y-111904761D02*
X107297619Y-112619047D01*
X107916666Y-112619047D01*
X93214285Y-114052380D02*
X93214285Y-114766666D01*
X93166666Y-114909523D01*
X93071428Y-115004761D01*
X92928571Y-115052380D01*
X92833333Y-115052380D01*
X94214285Y-115052380D02*
X93642857Y-115052380D01*
X93928571Y-115052380D02*
X93928571Y-114052380D01*
X93833333Y-114195238D01*
X93738095Y-114290476D01*
X93642857Y-114338095D01*
X94833333Y-114052380D02*
X94928571Y-114052380D01*
X95023809Y-114100000D01*
X95071428Y-114147619D01*
X95119047Y-114242857D01*
X95166666Y-114433333D01*
X95166666Y-114671428D01*
X95119047Y-114861904D01*
X95071428Y-114957142D01*
X95023809Y-115004761D01*
X94928571Y-115052380D01*
X94833333Y-115052380D01*
X94738095Y-115004761D01*
X94690476Y-114957142D01*
X94642857Y-114861904D01*
X94595238Y-114671428D01*
X94595238Y-114433333D01*
X94642857Y-114242857D01*
X94690476Y-114147619D01*
X94738095Y-114100000D01*
X94833333Y-114052380D01*
X96071428Y-114052380D02*
X95595238Y-114052380D01*
X95547619Y-114528571D01*
X95595238Y-114480952D01*
X95690476Y-114433333D01*
X95928571Y-114433333D01*
X96023809Y-114480952D01*
X96071428Y-114528571D01*
X96119047Y-114623809D01*
X96119047Y-114861904D01*
X96071428Y-114957142D01*
X96023809Y-115004761D01*
X95928571Y-115052380D01*
X95690476Y-115052380D01*
X95595238Y-115004761D01*
X95547619Y-114957142D01*
X90252380Y-119085714D02*
X90966666Y-119085714D01*
X91109523Y-119133333D01*
X91204761Y-119228571D01*
X91252380Y-119371428D01*
X91252380Y-119466666D01*
X91252380Y-118085714D02*
X91252380Y-118657142D01*
X91252380Y-118371428D02*
X90252380Y-118371428D01*
X90395238Y-118466666D01*
X90490476Y-118561904D01*
X90538095Y-118657142D01*
X90252380Y-117466666D02*
X90252380Y-117371428D01*
X90300000Y-117276190D01*
X90347619Y-117228571D01*
X90442857Y-117180952D01*
X90633333Y-117133333D01*
X90871428Y-117133333D01*
X91061904Y-117180952D01*
X91157142Y-117228571D01*
X91204761Y-117276190D01*
X91252380Y-117371428D01*
X91252380Y-117466666D01*
X91204761Y-117561904D01*
X91157142Y-117609523D01*
X91061904Y-117657142D01*
X90871428Y-117704761D01*
X90633333Y-117704761D01*
X90442857Y-117657142D01*
X90347619Y-117609523D01*
X90300000Y-117561904D01*
X90252380Y-117466666D01*
X90252380Y-116276190D02*
X90252380Y-116466666D01*
X90300000Y-116561904D01*
X90347619Y-116609523D01*
X90490476Y-116704761D01*
X90680952Y-116752380D01*
X91061904Y-116752380D01*
X91157142Y-116704761D01*
X91204761Y-116657142D01*
X91252380Y-116561904D01*
X91252380Y-116371428D01*
X91204761Y-116276190D01*
X91157142Y-116228571D01*
X91061904Y-116180952D01*
X90823809Y-116180952D01*
X90728571Y-116228571D01*
X90680952Y-116276190D01*
X90633333Y-116371428D01*
X90633333Y-116561904D01*
X90680952Y-116657142D01*
X90728571Y-116704761D01*
X90823809Y-116752380D01*
X90880952Y-110981142D02*
X90833333Y-111028761D01*
X90690476Y-111076380D01*
X90595238Y-111076380D01*
X90452380Y-111028761D01*
X90357142Y-110933523D01*
X90309523Y-110838285D01*
X90261904Y-110647809D01*
X90261904Y-110504952D01*
X90309523Y-110314476D01*
X90357142Y-110219238D01*
X90452380Y-110124000D01*
X90595238Y-110076380D01*
X90690476Y-110076380D01*
X90833333Y-110124000D01*
X90880952Y-110171619D01*
X91833333Y-111076380D02*
X91261904Y-111076380D01*
X91547619Y-111076380D02*
X91547619Y-110076380D01*
X91452380Y-110219238D01*
X91357142Y-110314476D01*
X91261904Y-110362095D01*
X92452380Y-110076380D02*
X92547619Y-110076380D01*
X92642857Y-110124000D01*
X92690476Y-110171619D01*
X92738095Y-110266857D01*
X92785714Y-110457333D01*
X92785714Y-110695428D01*
X92738095Y-110885904D01*
X92690476Y-110981142D01*
X92642857Y-111028761D01*
X92547619Y-111076380D01*
X92452380Y-111076380D01*
X92357142Y-111028761D01*
X92309523Y-110981142D01*
X92261904Y-110885904D01*
X92214285Y-110695428D01*
X92214285Y-110457333D01*
X92261904Y-110266857D01*
X92309523Y-110171619D01*
X92357142Y-110124000D01*
X92452380Y-110076380D01*
X93119047Y-110076380D02*
X93738095Y-110076380D01*
X93404761Y-110457333D01*
X93547619Y-110457333D01*
X93642857Y-110504952D01*
X93690476Y-110552571D01*
X93738095Y-110647809D01*
X93738095Y-110885904D01*
X93690476Y-110981142D01*
X93642857Y-111028761D01*
X93547619Y-111076380D01*
X93261904Y-111076380D01*
X93166666Y-111028761D01*
X93119047Y-110981142D01*
X90880952Y-112281142D02*
X90833333Y-112328761D01*
X90690476Y-112376380D01*
X90595238Y-112376380D01*
X90452380Y-112328761D01*
X90357142Y-112233523D01*
X90309523Y-112138285D01*
X90261904Y-111947809D01*
X90261904Y-111804952D01*
X90309523Y-111614476D01*
X90357142Y-111519238D01*
X90452380Y-111424000D01*
X90595238Y-111376380D01*
X90690476Y-111376380D01*
X90833333Y-111424000D01*
X90880952Y-111471619D01*
X91833333Y-112376380D02*
X91261904Y-112376380D01*
X91547619Y-112376380D02*
X91547619Y-111376380D01*
X91452380Y-111519238D01*
X91357142Y-111614476D01*
X91261904Y-111662095D01*
X92452380Y-111376380D02*
X92547619Y-111376380D01*
X92642857Y-111424000D01*
X92690476Y-111471619D01*
X92738095Y-111566857D01*
X92785714Y-111757333D01*
X92785714Y-111995428D01*
X92738095Y-112185904D01*
X92690476Y-112281142D01*
X92642857Y-112328761D01*
X92547619Y-112376380D01*
X92452380Y-112376380D01*
X92357142Y-112328761D01*
X92309523Y-112281142D01*
X92261904Y-112185904D01*
X92214285Y-111995428D01*
X92214285Y-111757333D01*
X92261904Y-111566857D01*
X92309523Y-111471619D01*
X92357142Y-111424000D01*
X92452380Y-111376380D01*
X93642857Y-111709714D02*
X93642857Y-112376380D01*
X93404761Y-111328761D02*
X93166666Y-112043047D01*
X93785714Y-112043047D01*
X86344285Y-110450380D02*
X86344285Y-111164666D01*
X86296666Y-111307523D01*
X86201428Y-111402761D01*
X86058571Y-111450380D01*
X85963333Y-111450380D01*
X87344285Y-111450380D02*
X86772857Y-111450380D01*
X87058571Y-111450380D02*
X87058571Y-110450380D01*
X86963333Y-110593238D01*
X86868095Y-110688476D01*
X86772857Y-110736095D01*
X87963333Y-110450380D02*
X88058571Y-110450380D01*
X88153809Y-110498000D01*
X88201428Y-110545619D01*
X88249047Y-110640857D01*
X88296666Y-110831333D01*
X88296666Y-111069428D01*
X88249047Y-111259904D01*
X88201428Y-111355142D01*
X88153809Y-111402761D01*
X88058571Y-111450380D01*
X87963333Y-111450380D01*
X87868095Y-111402761D01*
X87820476Y-111355142D01*
X87772857Y-111259904D01*
X87725238Y-111069428D01*
X87725238Y-110831333D01*
X87772857Y-110640857D01*
X87820476Y-110545619D01*
X87868095Y-110498000D01*
X87963333Y-110450380D01*
X88868095Y-110878952D02*
X88772857Y-110831333D01*
X88725238Y-110783714D01*
X88677619Y-110688476D01*
X88677619Y-110640857D01*
X88725238Y-110545619D01*
X88772857Y-110498000D01*
X88868095Y-110450380D01*
X89058571Y-110450380D01*
X89153809Y-110498000D01*
X89201428Y-110545619D01*
X89249047Y-110640857D01*
X89249047Y-110688476D01*
X89201428Y-110783714D01*
X89153809Y-110831333D01*
X89058571Y-110878952D01*
X88868095Y-110878952D01*
X88772857Y-110926571D01*
X88725238Y-110974190D01*
X88677619Y-111069428D01*
X88677619Y-111259904D01*
X88725238Y-111355142D01*
X88772857Y-111402761D01*
X88868095Y-111450380D01*
X89058571Y-111450380D01*
X89153809Y-111402761D01*
X89201428Y-111355142D01*
X89249047Y-111259904D01*
X89249047Y-111069428D01*
X89201428Y-110974190D01*
X89153809Y-110926571D01*
X89058571Y-110878952D01*
X108672380Y-114823714D02*
X109386666Y-114823714D01*
X109529523Y-114871333D01*
X109624761Y-114966571D01*
X109672380Y-115109428D01*
X109672380Y-115204666D01*
X109672380Y-113823714D02*
X109672380Y-114395142D01*
X109672380Y-114109428D02*
X108672380Y-114109428D01*
X108815238Y-114204666D01*
X108910476Y-114299904D01*
X108958095Y-114395142D01*
X108672380Y-113204666D02*
X108672380Y-113109428D01*
X108720000Y-113014190D01*
X108767619Y-112966571D01*
X108862857Y-112918952D01*
X109053333Y-112871333D01*
X109291428Y-112871333D01*
X109481904Y-112918952D01*
X109577142Y-112966571D01*
X109624761Y-113014190D01*
X109672380Y-113109428D01*
X109672380Y-113204666D01*
X109624761Y-113299904D01*
X109577142Y-113347523D01*
X109481904Y-113395142D01*
X109291428Y-113442761D01*
X109053333Y-113442761D01*
X108862857Y-113395142D01*
X108767619Y-113347523D01*
X108720000Y-113299904D01*
X108672380Y-113204666D01*
X109672380Y-112395142D02*
X109672380Y-112204666D01*
X109624761Y-112109428D01*
X109577142Y-112061809D01*
X109434285Y-111966571D01*
X109243809Y-111918952D01*
X108862857Y-111918952D01*
X108767619Y-111966571D01*
X108720000Y-112014190D01*
X108672380Y-112109428D01*
X108672380Y-112299904D01*
X108720000Y-112395142D01*
X108767619Y-112442761D01*
X108862857Y-112490380D01*
X109100952Y-112490380D01*
X109196190Y-112442761D01*
X109243809Y-112395142D01*
X109291428Y-112299904D01*
X109291428Y-112109428D01*
X109243809Y-112014190D01*
X109196190Y-111966571D01*
X109100952Y-111918952D01*
X75271523Y-110434380D02*
X75271523Y-109434380D01*
X75509619Y-109434380D01*
X75652476Y-109482000D01*
X75747714Y-109577238D01*
X75795333Y-109672476D01*
X75842952Y-109862952D01*
X75842952Y-110005809D01*
X75795333Y-110196285D01*
X75747714Y-110291523D01*
X75652476Y-110386761D01*
X75509619Y-110434380D01*
X75271523Y-110434380D01*
X76795333Y-110434380D02*
X76223904Y-110434380D01*
X76509619Y-110434380D02*
X76509619Y-109434380D01*
X76414380Y-109577238D01*
X76319142Y-109672476D01*
X76223904Y-109720095D01*
X77747714Y-110434380D02*
X77176285Y-110434380D01*
X77462000Y-110434380D02*
X77462000Y-109434380D01*
X77366761Y-109577238D01*
X77271523Y-109672476D01*
X77176285Y-109720095D01*
X78081047Y-109434380D02*
X78747714Y-109434380D01*
X78319142Y-110434380D01*
X121245523Y-107386380D02*
X121245523Y-106386380D01*
X121483619Y-106386380D01*
X121626476Y-106434000D01*
X121721714Y-106529238D01*
X121769333Y-106624476D01*
X121816952Y-106814952D01*
X121816952Y-106957809D01*
X121769333Y-107148285D01*
X121721714Y-107243523D01*
X121626476Y-107338761D01*
X121483619Y-107386380D01*
X121245523Y-107386380D01*
X122769333Y-107386380D02*
X122197904Y-107386380D01*
X122483619Y-107386380D02*
X122483619Y-106386380D01*
X122388380Y-106529238D01*
X122293142Y-106624476D01*
X122197904Y-106672095D01*
X123721714Y-107386380D02*
X123150285Y-107386380D01*
X123436000Y-107386380D02*
X123436000Y-106386380D01*
X123340761Y-106529238D01*
X123245523Y-106624476D01*
X123150285Y-106672095D01*
X124293142Y-106814952D02*
X124197904Y-106767333D01*
X124150285Y-106719714D01*
X124102666Y-106624476D01*
X124102666Y-106576857D01*
X124150285Y-106481619D01*
X124197904Y-106434000D01*
X124293142Y-106386380D01*
X124483619Y-106386380D01*
X124578857Y-106434000D01*
X124626476Y-106481619D01*
X124674095Y-106576857D01*
X124674095Y-106624476D01*
X124626476Y-106719714D01*
X124578857Y-106767333D01*
X124483619Y-106814952D01*
X124293142Y-106814952D01*
X124197904Y-106862571D01*
X124150285Y-106910190D01*
X124102666Y-107005428D01*
X124102666Y-107195904D01*
X124150285Y-107291142D01*
X124197904Y-107338761D01*
X124293142Y-107386380D01*
X124483619Y-107386380D01*
X124578857Y-107338761D01*
X124626476Y-107291142D01*
X124674095Y-107195904D01*
X124674095Y-107005428D01*
X124626476Y-106910190D01*
X124578857Y-106862571D01*
X124483619Y-106814952D01*
X81367523Y-110434380D02*
X81367523Y-109434380D01*
X81605619Y-109434380D01*
X81748476Y-109482000D01*
X81843714Y-109577238D01*
X81891333Y-109672476D01*
X81938952Y-109862952D01*
X81938952Y-110005809D01*
X81891333Y-110196285D01*
X81843714Y-110291523D01*
X81748476Y-110386761D01*
X81605619Y-110434380D01*
X81367523Y-110434380D01*
X82891333Y-110434380D02*
X82319904Y-110434380D01*
X82605619Y-110434380D02*
X82605619Y-109434380D01*
X82510380Y-109577238D01*
X82415142Y-109672476D01*
X82319904Y-109720095D01*
X83843714Y-110434380D02*
X83272285Y-110434380D01*
X83558000Y-110434380D02*
X83558000Y-109434380D01*
X83462761Y-109577238D01*
X83367523Y-109672476D01*
X83272285Y-109720095D01*
X84319904Y-110434380D02*
X84510380Y-110434380D01*
X84605619Y-110386761D01*
X84653238Y-110339142D01*
X84748476Y-110196285D01*
X84796095Y-110005809D01*
X84796095Y-109624857D01*
X84748476Y-109529619D01*
X84700857Y-109482000D01*
X84605619Y-109434380D01*
X84415142Y-109434380D01*
X84319904Y-109482000D01*
X84272285Y-109529619D01*
X84224666Y-109624857D01*
X84224666Y-109862952D01*
X84272285Y-109958190D01*
X84319904Y-110005809D01*
X84415142Y-110053428D01*
X84605619Y-110053428D01*
X84700857Y-110005809D01*
X84748476Y-109958190D01*
X84796095Y-109862952D01*
X115403523Y-107386380D02*
X115403523Y-106386380D01*
X115641619Y-106386380D01*
X115784476Y-106434000D01*
X115879714Y-106529238D01*
X115927333Y-106624476D01*
X115974952Y-106814952D01*
X115974952Y-106957809D01*
X115927333Y-107148285D01*
X115879714Y-107243523D01*
X115784476Y-107338761D01*
X115641619Y-107386380D01*
X115403523Y-107386380D01*
X116927333Y-107386380D02*
X116355904Y-107386380D01*
X116641619Y-107386380D02*
X116641619Y-106386380D01*
X116546380Y-106529238D01*
X116451142Y-106624476D01*
X116355904Y-106672095D01*
X117308285Y-106481619D02*
X117355904Y-106434000D01*
X117451142Y-106386380D01*
X117689238Y-106386380D01*
X117784476Y-106434000D01*
X117832095Y-106481619D01*
X117879714Y-106576857D01*
X117879714Y-106672095D01*
X117832095Y-106814952D01*
X117260666Y-107386380D01*
X117879714Y-107386380D01*
X118498761Y-106386380D02*
X118594000Y-106386380D01*
X118689238Y-106434000D01*
X118736857Y-106481619D01*
X118784476Y-106576857D01*
X118832095Y-106767333D01*
X118832095Y-107005428D01*
X118784476Y-107195904D01*
X118736857Y-107291142D01*
X118689238Y-107338761D01*
X118594000Y-107386380D01*
X118498761Y-107386380D01*
X118403523Y-107338761D01*
X118355904Y-107291142D01*
X118308285Y-107195904D01*
X118260666Y-107005428D01*
X118260666Y-106767333D01*
X118308285Y-106576857D01*
X118355904Y-106481619D01*
X118403523Y-106434000D01*
X118498761Y-106386380D01*
X81367523Y-106624380D02*
X81367523Y-105624380D01*
X81605619Y-105624380D01*
X81748476Y-105672000D01*
X81843714Y-105767238D01*
X81891333Y-105862476D01*
X81938952Y-106052952D01*
X81938952Y-106195809D01*
X81891333Y-106386285D01*
X81843714Y-106481523D01*
X81748476Y-106576761D01*
X81605619Y-106624380D01*
X81367523Y-106624380D01*
X82891333Y-106624380D02*
X82319904Y-106624380D01*
X82605619Y-106624380D02*
X82605619Y-105624380D01*
X82510380Y-105767238D01*
X82415142Y-105862476D01*
X82319904Y-105910095D01*
X83272285Y-105719619D02*
X83319904Y-105672000D01*
X83415142Y-105624380D01*
X83653238Y-105624380D01*
X83748476Y-105672000D01*
X83796095Y-105719619D01*
X83843714Y-105814857D01*
X83843714Y-105910095D01*
X83796095Y-106052952D01*
X83224666Y-106624380D01*
X83843714Y-106624380D01*
X84796095Y-106624380D02*
X84224666Y-106624380D01*
X84510380Y-106624380D02*
X84510380Y-105624380D01*
X84415142Y-105767238D01*
X84319904Y-105862476D01*
X84224666Y-105910095D01*
X115403523Y-111196380D02*
X115403523Y-110196380D01*
X115641619Y-110196380D01*
X115784476Y-110244000D01*
X115879714Y-110339238D01*
X115927333Y-110434476D01*
X115974952Y-110624952D01*
X115974952Y-110767809D01*
X115927333Y-110958285D01*
X115879714Y-111053523D01*
X115784476Y-111148761D01*
X115641619Y-111196380D01*
X115403523Y-111196380D01*
X116927333Y-111196380D02*
X116355904Y-111196380D01*
X116641619Y-111196380D02*
X116641619Y-110196380D01*
X116546380Y-110339238D01*
X116451142Y-110434476D01*
X116355904Y-110482095D01*
X117308285Y-110291619D02*
X117355904Y-110244000D01*
X117451142Y-110196380D01*
X117689238Y-110196380D01*
X117784476Y-110244000D01*
X117832095Y-110291619D01*
X117879714Y-110386857D01*
X117879714Y-110482095D01*
X117832095Y-110624952D01*
X117260666Y-111196380D01*
X117879714Y-111196380D01*
X118260666Y-110291619D02*
X118308285Y-110244000D01*
X118403523Y-110196380D01*
X118641619Y-110196380D01*
X118736857Y-110244000D01*
X118784476Y-110291619D01*
X118832095Y-110386857D01*
X118832095Y-110482095D01*
X118784476Y-110624952D01*
X118213047Y-111196380D01*
X118832095Y-111196380D01*
X75271523Y-106624380D02*
X75271523Y-105624380D01*
X75509619Y-105624380D01*
X75652476Y-105672000D01*
X75747714Y-105767238D01*
X75795333Y-105862476D01*
X75842952Y-106052952D01*
X75842952Y-106195809D01*
X75795333Y-106386285D01*
X75747714Y-106481523D01*
X75652476Y-106576761D01*
X75509619Y-106624380D01*
X75271523Y-106624380D01*
X76795333Y-106624380D02*
X76223904Y-106624380D01*
X76509619Y-106624380D02*
X76509619Y-105624380D01*
X76414380Y-105767238D01*
X76319142Y-105862476D01*
X76223904Y-105910095D01*
X77176285Y-105719619D02*
X77223904Y-105672000D01*
X77319142Y-105624380D01*
X77557238Y-105624380D01*
X77652476Y-105672000D01*
X77700095Y-105719619D01*
X77747714Y-105814857D01*
X77747714Y-105910095D01*
X77700095Y-106052952D01*
X77128666Y-106624380D01*
X77747714Y-106624380D01*
X78081047Y-105624380D02*
X78700095Y-105624380D01*
X78366761Y-106005333D01*
X78509619Y-106005333D01*
X78604857Y-106052952D01*
X78652476Y-106100571D01*
X78700095Y-106195809D01*
X78700095Y-106433904D01*
X78652476Y-106529142D01*
X78604857Y-106576761D01*
X78509619Y-106624380D01*
X78223904Y-106624380D01*
X78128666Y-106576761D01*
X78081047Y-106529142D01*
X121245523Y-111196380D02*
X121245523Y-110196380D01*
X121483619Y-110196380D01*
X121626476Y-110244000D01*
X121721714Y-110339238D01*
X121769333Y-110434476D01*
X121816952Y-110624952D01*
X121816952Y-110767809D01*
X121769333Y-110958285D01*
X121721714Y-111053523D01*
X121626476Y-111148761D01*
X121483619Y-111196380D01*
X121245523Y-111196380D01*
X122769333Y-111196380D02*
X122197904Y-111196380D01*
X122483619Y-111196380D02*
X122483619Y-110196380D01*
X122388380Y-110339238D01*
X122293142Y-110434476D01*
X122197904Y-110482095D01*
X123150285Y-110291619D02*
X123197904Y-110244000D01*
X123293142Y-110196380D01*
X123531238Y-110196380D01*
X123626476Y-110244000D01*
X123674095Y-110291619D01*
X123721714Y-110386857D01*
X123721714Y-110482095D01*
X123674095Y-110624952D01*
X123102666Y-111196380D01*
X123721714Y-111196380D01*
X124578857Y-110529714D02*
X124578857Y-111196380D01*
X124340761Y-110148761D02*
X124102666Y-110863047D01*
X124721714Y-110863047D01*
X121245523Y-90876380D02*
X121245523Y-89876380D01*
X121483619Y-89876380D01*
X121626476Y-89924000D01*
X121721714Y-90019238D01*
X121769333Y-90114476D01*
X121816952Y-90304952D01*
X121816952Y-90447809D01*
X121769333Y-90638285D01*
X121721714Y-90733523D01*
X121626476Y-90828761D01*
X121483619Y-90876380D01*
X121245523Y-90876380D01*
X122769333Y-90876380D02*
X122197904Y-90876380D01*
X122483619Y-90876380D02*
X122483619Y-89876380D01*
X122388380Y-90019238D01*
X122293142Y-90114476D01*
X122197904Y-90162095D01*
X123150285Y-89971619D02*
X123197904Y-89924000D01*
X123293142Y-89876380D01*
X123531238Y-89876380D01*
X123626476Y-89924000D01*
X123674095Y-89971619D01*
X123721714Y-90066857D01*
X123721714Y-90162095D01*
X123674095Y-90304952D01*
X123102666Y-90876380D01*
X123721714Y-90876380D01*
X124626476Y-89876380D02*
X124150285Y-89876380D01*
X124102666Y-90352571D01*
X124150285Y-90304952D01*
X124245523Y-90257333D01*
X124483619Y-90257333D01*
X124578857Y-90304952D01*
X124626476Y-90352571D01*
X124674095Y-90447809D01*
X124674095Y-90685904D01*
X124626476Y-90781142D01*
X124578857Y-90828761D01*
X124483619Y-90876380D01*
X124245523Y-90876380D01*
X124150285Y-90828761D01*
X124102666Y-90781142D01*
X75271523Y-93416380D02*
X75271523Y-92416380D01*
X75509619Y-92416380D01*
X75652476Y-92464000D01*
X75747714Y-92559238D01*
X75795333Y-92654476D01*
X75842952Y-92844952D01*
X75842952Y-92987809D01*
X75795333Y-93178285D01*
X75747714Y-93273523D01*
X75652476Y-93368761D01*
X75509619Y-93416380D01*
X75271523Y-93416380D01*
X76795333Y-93416380D02*
X76223904Y-93416380D01*
X76509619Y-93416380D02*
X76509619Y-92416380D01*
X76414380Y-92559238D01*
X76319142Y-92654476D01*
X76223904Y-92702095D01*
X77176285Y-92511619D02*
X77223904Y-92464000D01*
X77319142Y-92416380D01*
X77557238Y-92416380D01*
X77652476Y-92464000D01*
X77700095Y-92511619D01*
X77747714Y-92606857D01*
X77747714Y-92702095D01*
X77700095Y-92844952D01*
X77128666Y-93416380D01*
X77747714Y-93416380D01*
X78604857Y-92416380D02*
X78414380Y-92416380D01*
X78319142Y-92464000D01*
X78271523Y-92511619D01*
X78176285Y-92654476D01*
X78128666Y-92844952D01*
X78128666Y-93225904D01*
X78176285Y-93321142D01*
X78223904Y-93368761D01*
X78319142Y-93416380D01*
X78509619Y-93416380D01*
X78604857Y-93368761D01*
X78652476Y-93321142D01*
X78700095Y-93225904D01*
X78700095Y-92987809D01*
X78652476Y-92892571D01*
X78604857Y-92844952D01*
X78509619Y-92797333D01*
X78319142Y-92797333D01*
X78223904Y-92844952D01*
X78176285Y-92892571D01*
X78128666Y-92987809D01*
X115403523Y-90876380D02*
X115403523Y-89876380D01*
X115641619Y-89876380D01*
X115784476Y-89924000D01*
X115879714Y-90019238D01*
X115927333Y-90114476D01*
X115974952Y-90304952D01*
X115974952Y-90447809D01*
X115927333Y-90638285D01*
X115879714Y-90733523D01*
X115784476Y-90828761D01*
X115641619Y-90876380D01*
X115403523Y-90876380D01*
X116927333Y-90876380D02*
X116355904Y-90876380D01*
X116641619Y-90876380D02*
X116641619Y-89876380D01*
X116546380Y-90019238D01*
X116451142Y-90114476D01*
X116355904Y-90162095D01*
X117308285Y-89971619D02*
X117355904Y-89924000D01*
X117451142Y-89876380D01*
X117689238Y-89876380D01*
X117784476Y-89924000D01*
X117832095Y-89971619D01*
X117879714Y-90066857D01*
X117879714Y-90162095D01*
X117832095Y-90304952D01*
X117260666Y-90876380D01*
X117879714Y-90876380D01*
X118213047Y-89876380D02*
X118879714Y-89876380D01*
X118451142Y-90876380D01*
X81113523Y-93416380D02*
X81113523Y-92416380D01*
X81351619Y-92416380D01*
X81494476Y-92464000D01*
X81589714Y-92559238D01*
X81637333Y-92654476D01*
X81684952Y-92844952D01*
X81684952Y-92987809D01*
X81637333Y-93178285D01*
X81589714Y-93273523D01*
X81494476Y-93368761D01*
X81351619Y-93416380D01*
X81113523Y-93416380D01*
X82637333Y-93416380D02*
X82065904Y-93416380D01*
X82351619Y-93416380D02*
X82351619Y-92416380D01*
X82256380Y-92559238D01*
X82161142Y-92654476D01*
X82065904Y-92702095D01*
X83018285Y-92511619D02*
X83065904Y-92464000D01*
X83161142Y-92416380D01*
X83399238Y-92416380D01*
X83494476Y-92464000D01*
X83542095Y-92511619D01*
X83589714Y-92606857D01*
X83589714Y-92702095D01*
X83542095Y-92844952D01*
X82970666Y-93416380D01*
X83589714Y-93416380D01*
X84161142Y-92844952D02*
X84065904Y-92797333D01*
X84018285Y-92749714D01*
X83970666Y-92654476D01*
X83970666Y-92606857D01*
X84018285Y-92511619D01*
X84065904Y-92464000D01*
X84161142Y-92416380D01*
X84351619Y-92416380D01*
X84446857Y-92464000D01*
X84494476Y-92511619D01*
X84542095Y-92606857D01*
X84542095Y-92654476D01*
X84494476Y-92749714D01*
X84446857Y-92797333D01*
X84351619Y-92844952D01*
X84161142Y-92844952D01*
X84065904Y-92892571D01*
X84018285Y-92940190D01*
X83970666Y-93035428D01*
X83970666Y-93225904D01*
X84018285Y-93321142D01*
X84065904Y-93368761D01*
X84161142Y-93416380D01*
X84351619Y-93416380D01*
X84446857Y-93368761D01*
X84494476Y-93321142D01*
X84542095Y-93225904D01*
X84542095Y-93035428D01*
X84494476Y-92940190D01*
X84446857Y-92892571D01*
X84351619Y-92844952D01*
X115403523Y-94686380D02*
X115403523Y-93686380D01*
X115641619Y-93686380D01*
X115784476Y-93734000D01*
X115879714Y-93829238D01*
X115927333Y-93924476D01*
X115974952Y-94114952D01*
X115974952Y-94257809D01*
X115927333Y-94448285D01*
X115879714Y-94543523D01*
X115784476Y-94638761D01*
X115641619Y-94686380D01*
X115403523Y-94686380D01*
X116927333Y-94686380D02*
X116355904Y-94686380D01*
X116641619Y-94686380D02*
X116641619Y-93686380D01*
X116546380Y-93829238D01*
X116451142Y-93924476D01*
X116355904Y-93972095D01*
X117308285Y-93781619D02*
X117355904Y-93734000D01*
X117451142Y-93686380D01*
X117689238Y-93686380D01*
X117784476Y-93734000D01*
X117832095Y-93781619D01*
X117879714Y-93876857D01*
X117879714Y-93972095D01*
X117832095Y-94114952D01*
X117260666Y-94686380D01*
X117879714Y-94686380D01*
X118355904Y-94686380D02*
X118546380Y-94686380D01*
X118641619Y-94638761D01*
X118689238Y-94591142D01*
X118784476Y-94448285D01*
X118832095Y-94257809D01*
X118832095Y-93876857D01*
X118784476Y-93781619D01*
X118736857Y-93734000D01*
X118641619Y-93686380D01*
X118451142Y-93686380D01*
X118355904Y-93734000D01*
X118308285Y-93781619D01*
X118260666Y-93876857D01*
X118260666Y-94114952D01*
X118308285Y-94210190D01*
X118355904Y-94257809D01*
X118451142Y-94305428D01*
X118641619Y-94305428D01*
X118736857Y-94257809D01*
X118784476Y-94210190D01*
X118832095Y-94114952D01*
X81113523Y-89606380D02*
X81113523Y-88606380D01*
X81351619Y-88606380D01*
X81494476Y-88654000D01*
X81589714Y-88749238D01*
X81637333Y-88844476D01*
X81684952Y-89034952D01*
X81684952Y-89177809D01*
X81637333Y-89368285D01*
X81589714Y-89463523D01*
X81494476Y-89558761D01*
X81351619Y-89606380D01*
X81113523Y-89606380D01*
X82637333Y-89606380D02*
X82065904Y-89606380D01*
X82351619Y-89606380D02*
X82351619Y-88606380D01*
X82256380Y-88749238D01*
X82161142Y-88844476D01*
X82065904Y-88892095D01*
X82970666Y-88606380D02*
X83589714Y-88606380D01*
X83256380Y-88987333D01*
X83399238Y-88987333D01*
X83494476Y-89034952D01*
X83542095Y-89082571D01*
X83589714Y-89177809D01*
X83589714Y-89415904D01*
X83542095Y-89511142D01*
X83494476Y-89558761D01*
X83399238Y-89606380D01*
X83113523Y-89606380D01*
X83018285Y-89558761D01*
X82970666Y-89511142D01*
X84208761Y-88606380D02*
X84304000Y-88606380D01*
X84399238Y-88654000D01*
X84446857Y-88701619D01*
X84494476Y-88796857D01*
X84542095Y-88987333D01*
X84542095Y-89225428D01*
X84494476Y-89415904D01*
X84446857Y-89511142D01*
X84399238Y-89558761D01*
X84304000Y-89606380D01*
X84208761Y-89606380D01*
X84113523Y-89558761D01*
X84065904Y-89511142D01*
X84018285Y-89415904D01*
X83970666Y-89225428D01*
X83970666Y-88987333D01*
X84018285Y-88796857D01*
X84065904Y-88701619D01*
X84113523Y-88654000D01*
X84208761Y-88606380D01*
X121245523Y-94686380D02*
X121245523Y-93686380D01*
X121483619Y-93686380D01*
X121626476Y-93734000D01*
X121721714Y-93829238D01*
X121769333Y-93924476D01*
X121816952Y-94114952D01*
X121816952Y-94257809D01*
X121769333Y-94448285D01*
X121721714Y-94543523D01*
X121626476Y-94638761D01*
X121483619Y-94686380D01*
X121245523Y-94686380D01*
X122769333Y-94686380D02*
X122197904Y-94686380D01*
X122483619Y-94686380D02*
X122483619Y-93686380D01*
X122388380Y-93829238D01*
X122293142Y-93924476D01*
X122197904Y-93972095D01*
X123102666Y-93686380D02*
X123721714Y-93686380D01*
X123388380Y-94067333D01*
X123531238Y-94067333D01*
X123626476Y-94114952D01*
X123674095Y-94162571D01*
X123721714Y-94257809D01*
X123721714Y-94495904D01*
X123674095Y-94591142D01*
X123626476Y-94638761D01*
X123531238Y-94686380D01*
X123245523Y-94686380D01*
X123150285Y-94638761D01*
X123102666Y-94591142D01*
X124674095Y-94686380D02*
X124102666Y-94686380D01*
X124388380Y-94686380D02*
X124388380Y-93686380D01*
X124293142Y-93829238D01*
X124197904Y-93924476D01*
X124102666Y-93972095D01*
X75271523Y-89606380D02*
X75271523Y-88606380D01*
X75509619Y-88606380D01*
X75652476Y-88654000D01*
X75747714Y-88749238D01*
X75795333Y-88844476D01*
X75842952Y-89034952D01*
X75842952Y-89177809D01*
X75795333Y-89368285D01*
X75747714Y-89463523D01*
X75652476Y-89558761D01*
X75509619Y-89606380D01*
X75271523Y-89606380D01*
X76795333Y-89606380D02*
X76223904Y-89606380D01*
X76509619Y-89606380D02*
X76509619Y-88606380D01*
X76414380Y-88749238D01*
X76319142Y-88844476D01*
X76223904Y-88892095D01*
X77128666Y-88606380D02*
X77747714Y-88606380D01*
X77414380Y-88987333D01*
X77557238Y-88987333D01*
X77652476Y-89034952D01*
X77700095Y-89082571D01*
X77747714Y-89177809D01*
X77747714Y-89415904D01*
X77700095Y-89511142D01*
X77652476Y-89558761D01*
X77557238Y-89606380D01*
X77271523Y-89606380D01*
X77176285Y-89558761D01*
X77128666Y-89511142D01*
X78128666Y-88701619D02*
X78176285Y-88654000D01*
X78271523Y-88606380D01*
X78509619Y-88606380D01*
X78604857Y-88654000D01*
X78652476Y-88701619D01*
X78700095Y-88796857D01*
X78700095Y-88892095D01*
X78652476Y-89034952D01*
X78081047Y-89606380D01*
X78700095Y-89606380D01*
X85336285Y-97496380D02*
X85336285Y-98210666D01*
X85288666Y-98353523D01*
X85193428Y-98448761D01*
X85050571Y-98496380D01*
X84955333Y-98496380D01*
X85812476Y-98496380D02*
X85812476Y-97496380D01*
X86193428Y-97496380D01*
X86288666Y-97544000D01*
X86336285Y-97591619D01*
X86383904Y-97686857D01*
X86383904Y-97829714D01*
X86336285Y-97924952D01*
X86288666Y-97972571D01*
X86193428Y-98020190D01*
X85812476Y-98020190D01*
X87336285Y-98496380D02*
X86764857Y-98496380D01*
X87050571Y-98496380D02*
X87050571Y-97496380D01*
X86955333Y-97639238D01*
X86860095Y-97734476D01*
X86764857Y-97782095D01*
X87955333Y-97496380D02*
X88050571Y-97496380D01*
X88145809Y-97544000D01*
X88193428Y-97591619D01*
X88241047Y-97686857D01*
X88288666Y-97877333D01*
X88288666Y-98115428D01*
X88241047Y-98305904D01*
X88193428Y-98401142D01*
X88145809Y-98448761D01*
X88050571Y-98496380D01*
X87955333Y-98496380D01*
X87860095Y-98448761D01*
X87812476Y-98401142D01*
X87764857Y-98305904D01*
X87717238Y-98115428D01*
X87717238Y-97877333D01*
X87764857Y-97686857D01*
X87812476Y-97591619D01*
X87860095Y-97544000D01*
X87955333Y-97496380D01*
X89241047Y-98496380D02*
X88669619Y-98496380D01*
X88955333Y-98496380D02*
X88955333Y-97496380D01*
X88860095Y-97639238D01*
X88764857Y-97734476D01*
X88669619Y-97782095D01*
X110736285Y-110450380D02*
X110736285Y-111164666D01*
X110688666Y-111307523D01*
X110593428Y-111402761D01*
X110450571Y-111450380D01*
X110355333Y-111450380D01*
X111212476Y-111450380D02*
X111212476Y-110450380D01*
X111593428Y-110450380D01*
X111688666Y-110498000D01*
X111736285Y-110545619D01*
X111783904Y-110640857D01*
X111783904Y-110783714D01*
X111736285Y-110878952D01*
X111688666Y-110926571D01*
X111593428Y-110974190D01*
X111212476Y-110974190D01*
X112736285Y-111450380D02*
X112164857Y-111450380D01*
X112450571Y-111450380D02*
X112450571Y-110450380D01*
X112355333Y-110593238D01*
X112260095Y-110688476D01*
X112164857Y-110736095D01*
X113355333Y-110450380D02*
X113450571Y-110450380D01*
X113545809Y-110498000D01*
X113593428Y-110545619D01*
X113641047Y-110640857D01*
X113688666Y-110831333D01*
X113688666Y-111069428D01*
X113641047Y-111259904D01*
X113593428Y-111355142D01*
X113545809Y-111402761D01*
X113450571Y-111450380D01*
X113355333Y-111450380D01*
X113260095Y-111402761D01*
X113212476Y-111355142D01*
X113164857Y-111259904D01*
X113117238Y-111069428D01*
X113117238Y-110831333D01*
X113164857Y-110640857D01*
X113212476Y-110545619D01*
X113260095Y-110498000D01*
X113355333Y-110450380D01*
X114069619Y-110545619D02*
X114117238Y-110498000D01*
X114212476Y-110450380D01*
X114450571Y-110450380D01*
X114545809Y-110498000D01*
X114593428Y-110545619D01*
X114641047Y-110640857D01*
X114641047Y-110736095D01*
X114593428Y-110878952D01*
X114022000Y-111450380D01*
X114641047Y-111450380D01*
X114800285Y-100036380D02*
X114800285Y-100750666D01*
X114752666Y-100893523D01*
X114657428Y-100988761D01*
X114514571Y-101036380D01*
X114419333Y-101036380D01*
X115276476Y-101036380D02*
X115276476Y-100036380D01*
X115657428Y-100036380D01*
X115752666Y-100084000D01*
X115800285Y-100131619D01*
X115847904Y-100226857D01*
X115847904Y-100369714D01*
X115800285Y-100464952D01*
X115752666Y-100512571D01*
X115657428Y-100560190D01*
X115276476Y-100560190D01*
X116800285Y-101036380D02*
X116228857Y-101036380D01*
X116514571Y-101036380D02*
X116514571Y-100036380D01*
X116419333Y-100179238D01*
X116324095Y-100274476D01*
X116228857Y-100322095D01*
X117419333Y-100036380D02*
X117514571Y-100036380D01*
X117609809Y-100084000D01*
X117657428Y-100131619D01*
X117705047Y-100226857D01*
X117752666Y-100417333D01*
X117752666Y-100655428D01*
X117705047Y-100845904D01*
X117657428Y-100941142D01*
X117609809Y-100988761D01*
X117514571Y-101036380D01*
X117419333Y-101036380D01*
X117324095Y-100988761D01*
X117276476Y-100941142D01*
X117228857Y-100845904D01*
X117181238Y-100655428D01*
X117181238Y-100417333D01*
X117228857Y-100226857D01*
X117276476Y-100131619D01*
X117324095Y-100084000D01*
X117419333Y-100036380D01*
X118086000Y-100036380D02*
X118705047Y-100036380D01*
X118371714Y-100417333D01*
X118514571Y-100417333D01*
X118609809Y-100464952D01*
X118657428Y-100512571D01*
X118705047Y-100607809D01*
X118705047Y-100845904D01*
X118657428Y-100941142D01*
X118609809Y-100988761D01*
X118514571Y-101036380D01*
X118228857Y-101036380D01*
X118133619Y-100988761D01*
X118086000Y-100941142D01*
X85336285Y-88352380D02*
X85336285Y-89066666D01*
X85288666Y-89209523D01*
X85193428Y-89304761D01*
X85050571Y-89352380D01*
X84955333Y-89352380D01*
X85812476Y-89352380D02*
X85812476Y-88352380D01*
X86193428Y-88352380D01*
X86288666Y-88400000D01*
X86336285Y-88447619D01*
X86383904Y-88542857D01*
X86383904Y-88685714D01*
X86336285Y-88780952D01*
X86288666Y-88828571D01*
X86193428Y-88876190D01*
X85812476Y-88876190D01*
X87336285Y-89352380D02*
X86764857Y-89352380D01*
X87050571Y-89352380D02*
X87050571Y-88352380D01*
X86955333Y-88495238D01*
X86860095Y-88590476D01*
X86764857Y-88638095D01*
X87955333Y-88352380D02*
X88050571Y-88352380D01*
X88145809Y-88400000D01*
X88193428Y-88447619D01*
X88241047Y-88542857D01*
X88288666Y-88733333D01*
X88288666Y-88971428D01*
X88241047Y-89161904D01*
X88193428Y-89257142D01*
X88145809Y-89304761D01*
X88050571Y-89352380D01*
X87955333Y-89352380D01*
X87860095Y-89304761D01*
X87812476Y-89257142D01*
X87764857Y-89161904D01*
X87717238Y-88971428D01*
X87717238Y-88733333D01*
X87764857Y-88542857D01*
X87812476Y-88447619D01*
X87860095Y-88400000D01*
X87955333Y-88352380D01*
X89145809Y-88685714D02*
X89145809Y-89352380D01*
X88907714Y-88304761D02*
X88669619Y-89019047D01*
X89288666Y-89019047D01*
X92035523Y-85248380D02*
X92035523Y-84248380D01*
X92273619Y-84248380D01*
X92416476Y-84296000D01*
X92511714Y-84391238D01*
X92559333Y-84486476D01*
X92606952Y-84676952D01*
X92606952Y-84819809D01*
X92559333Y-85010285D01*
X92511714Y-85105523D01*
X92416476Y-85200761D01*
X92273619Y-85248380D01*
X92035523Y-85248380D01*
X93559333Y-85248380D02*
X92987904Y-85248380D01*
X93273619Y-85248380D02*
X93273619Y-84248380D01*
X93178380Y-84391238D01*
X93083142Y-84486476D01*
X92987904Y-84534095D01*
X93892666Y-84248380D02*
X94511714Y-84248380D01*
X94178380Y-84629333D01*
X94321238Y-84629333D01*
X94416476Y-84676952D01*
X94464095Y-84724571D01*
X94511714Y-84819809D01*
X94511714Y-85057904D01*
X94464095Y-85153142D01*
X94416476Y-85200761D01*
X94321238Y-85248380D01*
X94035523Y-85248380D01*
X93940285Y-85200761D01*
X93892666Y-85153142D01*
X94845047Y-84248380D02*
X95464095Y-84248380D01*
X95130761Y-84629333D01*
X95273619Y-84629333D01*
X95368857Y-84676952D01*
X95416476Y-84724571D01*
X95464095Y-84819809D01*
X95464095Y-85057904D01*
X95416476Y-85153142D01*
X95368857Y-85200761D01*
X95273619Y-85248380D01*
X94987904Y-85248380D01*
X94892666Y-85200761D01*
X94845047Y-85153142D01*
X97623523Y-77414380D02*
X97623523Y-76414380D01*
X97861619Y-76414380D01*
X98004476Y-76462000D01*
X98099714Y-76557238D01*
X98147333Y-76652476D01*
X98194952Y-76842952D01*
X98194952Y-76985809D01*
X98147333Y-77176285D01*
X98099714Y-77271523D01*
X98004476Y-77366761D01*
X97861619Y-77414380D01*
X97623523Y-77414380D01*
X99147333Y-77414380D02*
X98575904Y-77414380D01*
X98861619Y-77414380D02*
X98861619Y-76414380D01*
X98766380Y-76557238D01*
X98671142Y-76652476D01*
X98575904Y-76700095D01*
X99480666Y-76414380D02*
X100099714Y-76414380D01*
X99766380Y-76795333D01*
X99909238Y-76795333D01*
X100004476Y-76842952D01*
X100052095Y-76890571D01*
X100099714Y-76985809D01*
X100099714Y-77223904D01*
X100052095Y-77319142D01*
X100004476Y-77366761D01*
X99909238Y-77414380D01*
X99623523Y-77414380D01*
X99528285Y-77366761D01*
X99480666Y-77319142D01*
X100956857Y-76747714D02*
X100956857Y-77414380D01*
X100718761Y-76366761D02*
X100480666Y-77081047D01*
X101099714Y-77081047D01*
X103949714Y-89622380D02*
X103949714Y-90431904D01*
X103997333Y-90527142D01*
X104044952Y-90574761D01*
X104140190Y-90622380D01*
X104330666Y-90622380D01*
X104425904Y-90574761D01*
X104473523Y-90527142D01*
X104521142Y-90431904D01*
X104521142Y-89622380D01*
X105521142Y-90622380D02*
X104949714Y-90622380D01*
X105235428Y-90622380D02*
X105235428Y-89622380D01*
X105140190Y-89765238D01*
X105044952Y-89860476D01*
X104949714Y-89908095D01*
X106140190Y-89622380D02*
X106235428Y-89622380D01*
X106330666Y-89670000D01*
X106378285Y-89717619D01*
X106425904Y-89812857D01*
X106473523Y-90003333D01*
X106473523Y-90241428D01*
X106425904Y-90431904D01*
X106378285Y-90527142D01*
X106330666Y-90574761D01*
X106235428Y-90622380D01*
X106140190Y-90622380D01*
X106044952Y-90574761D01*
X105997333Y-90527142D01*
X105949714Y-90431904D01*
X105902095Y-90241428D01*
X105902095Y-90003333D01*
X105949714Y-89812857D01*
X105997333Y-89717619D01*
X106044952Y-89670000D01*
X106140190Y-89622380D01*
X107425904Y-90622380D02*
X106854476Y-90622380D01*
X107140190Y-90622380D02*
X107140190Y-89622380D01*
X107044952Y-89765238D01*
X106949714Y-89860476D01*
X106854476Y-89908095D01*
%LPC*%
D12*
X105975000Y-105750000D03*
X105025000Y-105750000D03*
G36*
G01*
X103960000Y-86327000D02*
X103960000Y-85377000D01*
G75*
G02*
X104210000Y-85127000I250000J0D01*
G01*
X104710000Y-85127000D01*
G75*
G02*
X104960000Y-85377000I0J-250000D01*
G01*
X104960000Y-86327000D01*
G75*
G02*
X104710000Y-86577000I-250000J0D01*
G01*
X104210000Y-86577000D01*
G75*
G02*
X103960000Y-86327000I0J250000D01*
G01*
G37*
G36*
G01*
X105860000Y-86327000D02*
X105860000Y-85377000D01*
G75*
G02*
X106110000Y-85127000I250000J0D01*
G01*
X106610000Y-85127000D01*
G75*
G02*
X106860000Y-85377000I0J-250000D01*
G01*
X106860000Y-86327000D01*
G75*
G02*
X106610000Y-86577000I-250000J0D01*
G01*
X106110000Y-86577000D01*
G75*
G02*
X105860000Y-86327000I0J250000D01*
G01*
G37*
G36*
G01*
X94775000Y-87572000D02*
X95725000Y-87572000D01*
G75*
G02*
X95975000Y-87822000I0J-250000D01*
G01*
X95975000Y-88322000D01*
G75*
G02*
X95725000Y-88572000I-250000J0D01*
G01*
X94775000Y-88572000D01*
G75*
G02*
X94525000Y-88322000I0J250000D01*
G01*
X94525000Y-87822000D01*
G75*
G02*
X94775000Y-87572000I250000J0D01*
G01*
G37*
G36*
G01*
X94775000Y-85672000D02*
X95725000Y-85672000D01*
G75*
G02*
X95975000Y-85922000I0J-250000D01*
G01*
X95975000Y-86422000D01*
G75*
G02*
X95725000Y-86672000I-250000J0D01*
G01*
X94775000Y-86672000D01*
G75*
G02*
X94525000Y-86422000I0J250000D01*
G01*
X94525000Y-85922000D01*
G75*
G02*
X94775000Y-85672000I250000J0D01*
G01*
G37*
G36*
G01*
X96900000Y-77100000D02*
X96900000Y-79900000D01*
G75*
G02*
X96650000Y-80150000I-250000J0D01*
G01*
X95675000Y-80150000D01*
G75*
G02*
X95425000Y-79900000I0J250000D01*
G01*
X95425000Y-77100000D01*
G75*
G02*
X95675000Y-76850000I250000J0D01*
G01*
X96650000Y-76850000D01*
G75*
G02*
X96900000Y-77100000I0J-250000D01*
G01*
G37*
G36*
G01*
X92575000Y-77100000D02*
X92575000Y-79900000D01*
G75*
G02*
X92325000Y-80150000I-250000J0D01*
G01*
X91350000Y-80150000D01*
G75*
G02*
X91100000Y-79900000I0J250000D01*
G01*
X91100000Y-77100000D01*
G75*
G02*
X91350000Y-76850000I250000J0D01*
G01*
X92325000Y-76850000D01*
G75*
G02*
X92575000Y-77100000I0J-250000D01*
G01*
G37*
D13*
X100000000Y-100000000D03*
D14*
X84500000Y-79000000D03*
D15*
X84500000Y-84000000D03*
D16*
X102870000Y-123190000D03*
D17*
X105410000Y-123190000D03*
X107950000Y-123190000D03*
D15*
X115500000Y-79500000D03*
D14*
X115500000Y-84500000D03*
G36*
G01*
X85783000Y-103904000D02*
X85413000Y-103904000D01*
G75*
G02*
X85278000Y-103769000I0J135000D01*
G01*
X85278000Y-103499000D01*
G75*
G02*
X85413000Y-103364000I135000J0D01*
G01*
X85783000Y-103364000D01*
G75*
G02*
X85918000Y-103499000I0J-135000D01*
G01*
X85918000Y-103769000D01*
G75*
G02*
X85783000Y-103904000I-135000J0D01*
G01*
G37*
G36*
G01*
X85783000Y-102884000D02*
X85413000Y-102884000D01*
G75*
G02*
X85278000Y-102749000I0J135000D01*
G01*
X85278000Y-102479000D01*
G75*
G02*
X85413000Y-102344000I135000J0D01*
G01*
X85783000Y-102344000D01*
G75*
G02*
X85918000Y-102479000I0J-135000D01*
G01*
X85918000Y-102749000D01*
G75*
G02*
X85783000Y-102884000I-135000J0D01*
G01*
G37*
G36*
G01*
X114739000Y-104662000D02*
X114369000Y-104662000D01*
G75*
G02*
X114234000Y-104527000I0J135000D01*
G01*
X114234000Y-104257000D01*
G75*
G02*
X114369000Y-104122000I135000J0D01*
G01*
X114739000Y-104122000D01*
G75*
G02*
X114874000Y-104257000I0J-135000D01*
G01*
X114874000Y-104527000D01*
G75*
G02*
X114739000Y-104662000I-135000J0D01*
G01*
G37*
G36*
G01*
X114739000Y-105682000D02*
X114369000Y-105682000D01*
G75*
G02*
X114234000Y-105547000I0J135000D01*
G01*
X114234000Y-105277000D01*
G75*
G02*
X114369000Y-105142000I135000J0D01*
G01*
X114739000Y-105142000D01*
G75*
G02*
X114874000Y-105277000I0J-135000D01*
G01*
X114874000Y-105547000D01*
G75*
G02*
X114739000Y-105682000I-135000J0D01*
G01*
G37*
G36*
G01*
X113048000Y-97815000D02*
X113048000Y-98185000D01*
G75*
G02*
X112913000Y-98320000I-135000J0D01*
G01*
X112643000Y-98320000D01*
G75*
G02*
X112508000Y-98185000I0J135000D01*
G01*
X112508000Y-97815000D01*
G75*
G02*
X112643000Y-97680000I135000J0D01*
G01*
X112913000Y-97680000D01*
G75*
G02*
X113048000Y-97815000I0J-135000D01*
G01*
G37*
G36*
G01*
X112028000Y-97815000D02*
X112028000Y-98185000D01*
G75*
G02*
X111893000Y-98320000I-135000J0D01*
G01*
X111623000Y-98320000D01*
G75*
G02*
X111488000Y-98185000I0J135000D01*
G01*
X111488000Y-97815000D01*
G75*
G02*
X111623000Y-97680000I135000J0D01*
G01*
X111893000Y-97680000D01*
G75*
G02*
X112028000Y-97815000I0J-135000D01*
G01*
G37*
G36*
G01*
X114739000Y-95772000D02*
X114369000Y-95772000D01*
G75*
G02*
X114234000Y-95637000I0J135000D01*
G01*
X114234000Y-95367000D01*
G75*
G02*
X114369000Y-95232000I135000J0D01*
G01*
X114739000Y-95232000D01*
G75*
G02*
X114874000Y-95367000I0J-135000D01*
G01*
X114874000Y-95637000D01*
G75*
G02*
X114739000Y-95772000I-135000J0D01*
G01*
G37*
G36*
G01*
X114739000Y-96792000D02*
X114369000Y-96792000D01*
G75*
G02*
X114234000Y-96657000I0J135000D01*
G01*
X114234000Y-96387000D01*
G75*
G02*
X114369000Y-96252000I135000J0D01*
G01*
X114739000Y-96252000D01*
G75*
G02*
X114874000Y-96387000I0J-135000D01*
G01*
X114874000Y-96657000D01*
G75*
G02*
X114739000Y-96792000I-135000J0D01*
G01*
G37*
G36*
G01*
X85783000Y-94760000D02*
X85413000Y-94760000D01*
G75*
G02*
X85278000Y-94625000I0J135000D01*
G01*
X85278000Y-94355000D01*
G75*
G02*
X85413000Y-94220000I135000J0D01*
G01*
X85783000Y-94220000D01*
G75*
G02*
X85918000Y-94355000I0J-135000D01*
G01*
X85918000Y-94625000D01*
G75*
G02*
X85783000Y-94760000I-135000J0D01*
G01*
G37*
G36*
G01*
X85783000Y-93740000D02*
X85413000Y-93740000D01*
G75*
G02*
X85278000Y-93605000I0J135000D01*
G01*
X85278000Y-93335000D01*
G75*
G02*
X85413000Y-93200000I135000J0D01*
G01*
X85783000Y-93200000D01*
G75*
G02*
X85918000Y-93335000I0J-135000D01*
G01*
X85918000Y-93605000D01*
G75*
G02*
X85783000Y-93740000I-135000J0D01*
G01*
G37*
G36*
G01*
X97050000Y-112840000D02*
X97050000Y-112540000D01*
G75*
G02*
X97200000Y-112390000I150000J0D01*
G01*
X98850000Y-112390000D01*
G75*
G02*
X99000000Y-112540000I0J-150000D01*
G01*
X99000000Y-112840000D01*
G75*
G02*
X98850000Y-112990000I-150000J0D01*
G01*
X97200000Y-112990000D01*
G75*
G02*
X97050000Y-112840000I0J150000D01*
G01*
G37*
G36*
G01*
X97050000Y-114110000D02*
X97050000Y-113810000D01*
G75*
G02*
X97200000Y-113660000I150000J0D01*
G01*
X98850000Y-113660000D01*
G75*
G02*
X99000000Y-113810000I0J-150000D01*
G01*
X99000000Y-114110000D01*
G75*
G02*
X98850000Y-114260000I-150000J0D01*
G01*
X97200000Y-114260000D01*
G75*
G02*
X97050000Y-114110000I0J150000D01*
G01*
G37*
G36*
G01*
X97050000Y-115380000D02*
X97050000Y-115080000D01*
G75*
G02*
X97200000Y-114930000I150000J0D01*
G01*
X98850000Y-114930000D01*
G75*
G02*
X99000000Y-115080000I0J-150000D01*
G01*
X99000000Y-115380000D01*
G75*
G02*
X98850000Y-115530000I-150000J0D01*
G01*
X97200000Y-115530000D01*
G75*
G02*
X97050000Y-115380000I0J150000D01*
G01*
G37*
G36*
G01*
X97050000Y-116650000D02*
X97050000Y-116350000D01*
G75*
G02*
X97200000Y-116200000I150000J0D01*
G01*
X98850000Y-116200000D01*
G75*
G02*
X99000000Y-116350000I0J-150000D01*
G01*
X99000000Y-116650000D01*
G75*
G02*
X98850000Y-116800000I-150000J0D01*
G01*
X97200000Y-116800000D01*
G75*
G02*
X97050000Y-116650000I0J150000D01*
G01*
G37*
G36*
G01*
X97050000Y-117920000D02*
X97050000Y-117620000D01*
G75*
G02*
X97200000Y-117470000I150000J0D01*
G01*
X98850000Y-117470000D01*
G75*
G02*
X99000000Y-117620000I0J-150000D01*
G01*
X99000000Y-117920000D01*
G75*
G02*
X98850000Y-118070000I-150000J0D01*
G01*
X97200000Y-118070000D01*
G75*
G02*
X97050000Y-117920000I0J150000D01*
G01*
G37*
G36*
G01*
X97050000Y-119190000D02*
X97050000Y-118890000D01*
G75*
G02*
X97200000Y-118740000I150000J0D01*
G01*
X98850000Y-118740000D01*
G75*
G02*
X99000000Y-118890000I0J-150000D01*
G01*
X99000000Y-119190000D01*
G75*
G02*
X98850000Y-119340000I-150000J0D01*
G01*
X97200000Y-119340000D01*
G75*
G02*
X97050000Y-119190000I0J150000D01*
G01*
G37*
G36*
G01*
X97050000Y-120460000D02*
X97050000Y-120160000D01*
G75*
G02*
X97200000Y-120010000I150000J0D01*
G01*
X98850000Y-120010000D01*
G75*
G02*
X99000000Y-120160000I0J-150000D01*
G01*
X99000000Y-120460000D01*
G75*
G02*
X98850000Y-120610000I-150000J0D01*
G01*
X97200000Y-120610000D01*
G75*
G02*
X97050000Y-120460000I0J150000D01*
G01*
G37*
G36*
G01*
X102000000Y-120460000D02*
X102000000Y-120160000D01*
G75*
G02*
X102150000Y-120010000I150000J0D01*
G01*
X103800000Y-120010000D01*
G75*
G02*
X103950000Y-120160000I0J-150000D01*
G01*
X103950000Y-120460000D01*
G75*
G02*
X103800000Y-120610000I-150000J0D01*
G01*
X102150000Y-120610000D01*
G75*
G02*
X102000000Y-120460000I0J150000D01*
G01*
G37*
G36*
G01*
X102000000Y-119190000D02*
X102000000Y-118890000D01*
G75*
G02*
X102150000Y-118740000I150000J0D01*
G01*
X103800000Y-118740000D01*
G75*
G02*
X103950000Y-118890000I0J-150000D01*
G01*
X103950000Y-119190000D01*
G75*
G02*
X103800000Y-119340000I-150000J0D01*
G01*
X102150000Y-119340000D01*
G75*
G02*
X102000000Y-119190000I0J150000D01*
G01*
G37*
G36*
G01*
X102000000Y-117920000D02*
X102000000Y-117620000D01*
G75*
G02*
X102150000Y-117470000I150000J0D01*
G01*
X103800000Y-117470000D01*
G75*
G02*
X103950000Y-117620000I0J-150000D01*
G01*
X103950000Y-117920000D01*
G75*
G02*
X103800000Y-118070000I-150000J0D01*
G01*
X102150000Y-118070000D01*
G75*
G02*
X102000000Y-117920000I0J150000D01*
G01*
G37*
G36*
G01*
X102000000Y-116650000D02*
X102000000Y-116350000D01*
G75*
G02*
X102150000Y-116200000I150000J0D01*
G01*
X103800000Y-116200000D01*
G75*
G02*
X103950000Y-116350000I0J-150000D01*
G01*
X103950000Y-116650000D01*
G75*
G02*
X103800000Y-116800000I-150000J0D01*
G01*
X102150000Y-116800000D01*
G75*
G02*
X102000000Y-116650000I0J150000D01*
G01*
G37*
G36*
G01*
X102000000Y-115380000D02*
X102000000Y-115080000D01*
G75*
G02*
X102150000Y-114930000I150000J0D01*
G01*
X103800000Y-114930000D01*
G75*
G02*
X103950000Y-115080000I0J-150000D01*
G01*
X103950000Y-115380000D01*
G75*
G02*
X103800000Y-115530000I-150000J0D01*
G01*
X102150000Y-115530000D01*
G75*
G02*
X102000000Y-115380000I0J150000D01*
G01*
G37*
G36*
G01*
X102000000Y-114110000D02*
X102000000Y-113810000D01*
G75*
G02*
X102150000Y-113660000I150000J0D01*
G01*
X103800000Y-113660000D01*
G75*
G02*
X103950000Y-113810000I0J-150000D01*
G01*
X103950000Y-114110000D01*
G75*
G02*
X103800000Y-114260000I-150000J0D01*
G01*
X102150000Y-114260000D01*
G75*
G02*
X102000000Y-114110000I0J150000D01*
G01*
G37*
G36*
G01*
X102000000Y-112840000D02*
X102000000Y-112540000D01*
G75*
G02*
X102150000Y-112390000I150000J0D01*
G01*
X103800000Y-112390000D01*
G75*
G02*
X103950000Y-112540000I0J-150000D01*
G01*
X103950000Y-112840000D01*
G75*
G02*
X103800000Y-112990000I-150000J0D01*
G01*
X102150000Y-112990000D01*
G75*
G02*
X102000000Y-112840000I0J150000D01*
G01*
G37*
G36*
G01*
X102050000Y-80245000D02*
X102050000Y-79945000D01*
G75*
G02*
X102200000Y-79795000I150000J0D01*
G01*
X103850000Y-79795000D01*
G75*
G02*
X104000000Y-79945000I0J-150000D01*
G01*
X104000000Y-80245000D01*
G75*
G02*
X103850000Y-80395000I-150000J0D01*
G01*
X102200000Y-80395000D01*
G75*
G02*
X102050000Y-80245000I0J150000D01*
G01*
G37*
G36*
G01*
X102050000Y-81515000D02*
X102050000Y-81215000D01*
G75*
G02*
X102200000Y-81065000I150000J0D01*
G01*
X103850000Y-81065000D01*
G75*
G02*
X104000000Y-81215000I0J-150000D01*
G01*
X104000000Y-81515000D01*
G75*
G02*
X103850000Y-81665000I-150000J0D01*
G01*
X102200000Y-81665000D01*
G75*
G02*
X102050000Y-81515000I0J150000D01*
G01*
G37*
G36*
G01*
X102050000Y-82785000D02*
X102050000Y-82485000D01*
G75*
G02*
X102200000Y-82335000I150000J0D01*
G01*
X103850000Y-82335000D01*
G75*
G02*
X104000000Y-82485000I0J-150000D01*
G01*
X104000000Y-82785000D01*
G75*
G02*
X103850000Y-82935000I-150000J0D01*
G01*
X102200000Y-82935000D01*
G75*
G02*
X102050000Y-82785000I0J150000D01*
G01*
G37*
G36*
G01*
X102050000Y-84055000D02*
X102050000Y-83755000D01*
G75*
G02*
X102200000Y-83605000I150000J0D01*
G01*
X103850000Y-83605000D01*
G75*
G02*
X104000000Y-83755000I0J-150000D01*
G01*
X104000000Y-84055000D01*
G75*
G02*
X103850000Y-84205000I-150000J0D01*
G01*
X102200000Y-84205000D01*
G75*
G02*
X102050000Y-84055000I0J150000D01*
G01*
G37*
G36*
G01*
X107000000Y-84055000D02*
X107000000Y-83755000D01*
G75*
G02*
X107150000Y-83605000I150000J0D01*
G01*
X108800000Y-83605000D01*
G75*
G02*
X108950000Y-83755000I0J-150000D01*
G01*
X108950000Y-84055000D01*
G75*
G02*
X108800000Y-84205000I-150000J0D01*
G01*
X107150000Y-84205000D01*
G75*
G02*
X107000000Y-84055000I0J150000D01*
G01*
G37*
G36*
G01*
X107000000Y-82785000D02*
X107000000Y-82485000D01*
G75*
G02*
X107150000Y-82335000I150000J0D01*
G01*
X108800000Y-82335000D01*
G75*
G02*
X108950000Y-82485000I0J-150000D01*
G01*
X108950000Y-82785000D01*
G75*
G02*
X108800000Y-82935000I-150000J0D01*
G01*
X107150000Y-82935000D01*
G75*
G02*
X107000000Y-82785000I0J150000D01*
G01*
G37*
G36*
G01*
X107000000Y-81515000D02*
X107000000Y-81215000D01*
G75*
G02*
X107150000Y-81065000I150000J0D01*
G01*
X108800000Y-81065000D01*
G75*
G02*
X108950000Y-81215000I0J-150000D01*
G01*
X108950000Y-81515000D01*
G75*
G02*
X108800000Y-81665000I-150000J0D01*
G01*
X107150000Y-81665000D01*
G75*
G02*
X107000000Y-81515000I0J150000D01*
G01*
G37*
G36*
G01*
X107000000Y-80245000D02*
X107000000Y-79945000D01*
G75*
G02*
X107150000Y-79795000I150000J0D01*
G01*
X108800000Y-79795000D01*
G75*
G02*
X108950000Y-79945000I0J-150000D01*
G01*
X108950000Y-80245000D01*
G75*
G02*
X108800000Y-80395000I-150000J0D01*
G01*
X107150000Y-80395000D01*
G75*
G02*
X107000000Y-80245000I0J150000D01*
G01*
G37*
D18*
X80000000Y-100000000D03*
X120000000Y-99750000D03*
D12*
X92475000Y-105750000D03*
X91525000Y-105750000D03*
X107525000Y-103250000D03*
X108475000Y-103250000D03*
X94025000Y-105750000D03*
X94975000Y-105750000D03*
X105975000Y-103250000D03*
X105025000Y-103250000D03*
X94025000Y-103250000D03*
X94975000Y-103250000D03*
X92475000Y-103250000D03*
X91525000Y-103250000D03*
X107525000Y-105750000D03*
X108475000Y-105750000D03*
X108475000Y-94250000D03*
X107525000Y-94250000D03*
X92475000Y-96750000D03*
X91525000Y-96750000D03*
X105025000Y-94250000D03*
X105975000Y-94250000D03*
X94975000Y-96750000D03*
X94025000Y-96750000D03*
X105025000Y-96750000D03*
X105975000Y-96750000D03*
X94975000Y-94250000D03*
X94025000Y-94250000D03*
X107525000Y-96750000D03*
X108475000Y-96750000D03*
X91525000Y-94250000D03*
X92475000Y-94250000D03*
G36*
G01*
X88378000Y-102185000D02*
X88378000Y-101815000D01*
G75*
G02*
X88513000Y-101680000I135000J0D01*
G01*
X88783000Y-101680000D01*
G75*
G02*
X88918000Y-101815000I0J-135000D01*
G01*
X88918000Y-102185000D01*
G75*
G02*
X88783000Y-102320000I-135000J0D01*
G01*
X88513000Y-102320000D01*
G75*
G02*
X88378000Y-102185000I0J135000D01*
G01*
G37*
G36*
G01*
X87358000Y-102185000D02*
X87358000Y-101815000D01*
G75*
G02*
X87493000Y-101680000I135000J0D01*
G01*
X87763000Y-101680000D01*
G75*
G02*
X87898000Y-101815000I0J-135000D01*
G01*
X87898000Y-102185000D01*
G75*
G02*
X87763000Y-102320000I-135000J0D01*
G01*
X87493000Y-102320000D01*
G75*
G02*
X87358000Y-102185000I0J135000D01*
G01*
G37*
G36*
G01*
X113048000Y-106815000D02*
X113048000Y-107185000D01*
G75*
G02*
X112913000Y-107320000I-135000J0D01*
G01*
X112643000Y-107320000D01*
G75*
G02*
X112508000Y-107185000I0J135000D01*
G01*
X112508000Y-106815000D01*
G75*
G02*
X112643000Y-106680000I135000J0D01*
G01*
X112913000Y-106680000D01*
G75*
G02*
X113048000Y-106815000I0J-135000D01*
G01*
G37*
G36*
G01*
X112028000Y-106815000D02*
X112028000Y-107185000D01*
G75*
G02*
X111893000Y-107320000I-135000J0D01*
G01*
X111623000Y-107320000D01*
G75*
G02*
X111488000Y-107185000I0J135000D01*
G01*
X111488000Y-106815000D01*
G75*
G02*
X111623000Y-106680000I135000J0D01*
G01*
X111893000Y-106680000D01*
G75*
G02*
X112028000Y-106815000I0J-135000D01*
G01*
G37*
G36*
G01*
X87106000Y-93149000D02*
X87106000Y-92779000D01*
G75*
G02*
X87241000Y-92644000I135000J0D01*
G01*
X87511000Y-92644000D01*
G75*
G02*
X87646000Y-92779000I0J-135000D01*
G01*
X87646000Y-93149000D01*
G75*
G02*
X87511000Y-93284000I-135000J0D01*
G01*
X87241000Y-93284000D01*
G75*
G02*
X87106000Y-93149000I0J135000D01*
G01*
G37*
G36*
G01*
X88126000Y-93149000D02*
X88126000Y-92779000D01*
G75*
G02*
X88261000Y-92644000I135000J0D01*
G01*
X88531000Y-92644000D01*
G75*
G02*
X88666000Y-92779000I0J-135000D01*
G01*
X88666000Y-93149000D01*
G75*
G02*
X88531000Y-93284000I-135000J0D01*
G01*
X88261000Y-93284000D01*
G75*
G02*
X88126000Y-93149000I0J135000D01*
G01*
G37*
D19*
X87150000Y-103550000D03*
X87150000Y-104500000D03*
X87150000Y-105450000D03*
X89350000Y-105450000D03*
X89350000Y-103550000D03*
X89350000Y-104500000D03*
X110650000Y-104500000D03*
X110650000Y-105450000D03*
X110650000Y-103550000D03*
X112850000Y-103550000D03*
X112850000Y-104500000D03*
X112850000Y-105450000D03*
X110650000Y-95500000D03*
X110650000Y-96450000D03*
X110650000Y-94550000D03*
X112850000Y-94550000D03*
X112850000Y-95500000D03*
X112850000Y-96450000D03*
X87150000Y-94550000D03*
X87150000Y-95500000D03*
X87150000Y-96450000D03*
X89350000Y-96450000D03*
X89350000Y-94550000D03*
X89350000Y-95500000D03*
D20*
X94500000Y-119250000D03*
X105500000Y-114000000D03*
X94500000Y-116250000D03*
X92500000Y-117750000D03*
G36*
G01*
X94800000Y-110354000D02*
X94800000Y-110694000D01*
G75*
G02*
X94660000Y-110834000I-140000J0D01*
G01*
X94380000Y-110834000D01*
G75*
G02*
X94240000Y-110694000I0J140000D01*
G01*
X94240000Y-110354000D01*
G75*
G02*
X94380000Y-110214000I140000J0D01*
G01*
X94660000Y-110214000D01*
G75*
G02*
X94800000Y-110354000I0J-140000D01*
G01*
G37*
G36*
G01*
X95760000Y-110354000D02*
X95760000Y-110694000D01*
G75*
G02*
X95620000Y-110834000I-140000J0D01*
G01*
X95340000Y-110834000D01*
G75*
G02*
X95200000Y-110694000I0J140000D01*
G01*
X95200000Y-110354000D01*
G75*
G02*
X95340000Y-110214000I140000J0D01*
G01*
X95620000Y-110214000D01*
G75*
G02*
X95760000Y-110354000I0J-140000D01*
G01*
G37*
G36*
G01*
X95760000Y-111604000D02*
X95760000Y-111944000D01*
G75*
G02*
X95620000Y-112084000I-140000J0D01*
G01*
X95340000Y-112084000D01*
G75*
G02*
X95200000Y-111944000I0J140000D01*
G01*
X95200000Y-111604000D01*
G75*
G02*
X95340000Y-111464000I140000J0D01*
G01*
X95620000Y-111464000D01*
G75*
G02*
X95760000Y-111604000I0J-140000D01*
G01*
G37*
G36*
G01*
X94800000Y-111604000D02*
X94800000Y-111944000D01*
G75*
G02*
X94660000Y-112084000I-140000J0D01*
G01*
X94380000Y-112084000D01*
G75*
G02*
X94240000Y-111944000I0J140000D01*
G01*
X94240000Y-111604000D01*
G75*
G02*
X94380000Y-111464000I140000J0D01*
G01*
X94660000Y-111464000D01*
G75*
G02*
X94800000Y-111604000I0J-140000D01*
G01*
G37*
D15*
X84500000Y-120750000D03*
D14*
X84500000Y-115750000D03*
X115500000Y-121000000D03*
D15*
X115500000Y-116000000D03*
G36*
G01*
X90582000Y-107693750D02*
X90582000Y-108206250D01*
G75*
G02*
X90363250Y-108425000I-218750J0D01*
G01*
X89925750Y-108425000D01*
G75*
G02*
X89707000Y-108206250I0J218750D01*
G01*
X89707000Y-107693750D01*
G75*
G02*
X89925750Y-107475000I218750J0D01*
G01*
X90363250Y-107475000D01*
G75*
G02*
X90582000Y-107693750I0J-218750D01*
G01*
G37*
G36*
G01*
X92157000Y-107693750D02*
X92157000Y-108206250D01*
G75*
G02*
X91938250Y-108425000I-218750J0D01*
G01*
X91500750Y-108425000D01*
G75*
G02*
X91282000Y-108206250I0J218750D01*
G01*
X91282000Y-107693750D01*
G75*
G02*
X91500750Y-107475000I218750J0D01*
G01*
X91938250Y-107475000D01*
G75*
G02*
X92157000Y-107693750I0J-218750D01*
G01*
G37*
G36*
G01*
X107995000Y-101348250D02*
X107995000Y-100835750D01*
G75*
G02*
X108213750Y-100617000I218750J0D01*
G01*
X108651250Y-100617000D01*
G75*
G02*
X108870000Y-100835750I0J-218750D01*
G01*
X108870000Y-101348250D01*
G75*
G02*
X108651250Y-101567000I-218750J0D01*
G01*
X108213750Y-101567000D01*
G75*
G02*
X107995000Y-101348250I0J218750D01*
G01*
G37*
G36*
G01*
X109570000Y-101348250D02*
X109570000Y-100835750D01*
G75*
G02*
X109788750Y-100617000I218750J0D01*
G01*
X110226250Y-100617000D01*
G75*
G02*
X110445000Y-100835750I0J-218750D01*
G01*
X110445000Y-101348250D01*
G75*
G02*
X110226250Y-101567000I-218750J0D01*
G01*
X109788750Y-101567000D01*
G75*
G02*
X109570000Y-101348250I0J218750D01*
G01*
G37*
G36*
G01*
X95459000Y-107693750D02*
X95459000Y-108206250D01*
G75*
G02*
X95240250Y-108425000I-218750J0D01*
G01*
X94802750Y-108425000D01*
G75*
G02*
X94584000Y-108206250I0J218750D01*
G01*
X94584000Y-107693750D01*
G75*
G02*
X94802750Y-107475000I218750J0D01*
G01*
X95240250Y-107475000D01*
G75*
G02*
X95459000Y-107693750I0J-218750D01*
G01*
G37*
G36*
G01*
X93884000Y-107693750D02*
X93884000Y-108206250D01*
G75*
G02*
X93665250Y-108425000I-218750J0D01*
G01*
X93227750Y-108425000D01*
G75*
G02*
X93009000Y-108206250I0J218750D01*
G01*
X93009000Y-107693750D01*
G75*
G02*
X93227750Y-107475000I218750J0D01*
G01*
X93665250Y-107475000D01*
G75*
G02*
X93884000Y-107693750I0J-218750D01*
G01*
G37*
G36*
G01*
X106268000Y-101348250D02*
X106268000Y-100835750D01*
G75*
G02*
X106486750Y-100617000I218750J0D01*
G01*
X106924250Y-100617000D01*
G75*
G02*
X107143000Y-100835750I0J-218750D01*
G01*
X107143000Y-101348250D01*
G75*
G02*
X106924250Y-101567000I-218750J0D01*
G01*
X106486750Y-101567000D01*
G75*
G02*
X106268000Y-101348250I0J218750D01*
G01*
G37*
G36*
G01*
X104693000Y-101348250D02*
X104693000Y-100835750D01*
G75*
G02*
X104911750Y-100617000I218750J0D01*
G01*
X105349250Y-100617000D01*
G75*
G02*
X105568000Y-100835750I0J-218750D01*
G01*
X105568000Y-101348250D01*
G75*
G02*
X105349250Y-101567000I-218750J0D01*
G01*
X104911750Y-101567000D01*
G75*
G02*
X104693000Y-101348250I0J218750D01*
G01*
G37*
G36*
G01*
X94584000Y-101348250D02*
X94584000Y-100835750D01*
G75*
G02*
X94802750Y-100617000I218750J0D01*
G01*
X95240250Y-100617000D01*
G75*
G02*
X95459000Y-100835750I0J-218750D01*
G01*
X95459000Y-101348250D01*
G75*
G02*
X95240250Y-101567000I-218750J0D01*
G01*
X94802750Y-101567000D01*
G75*
G02*
X94584000Y-101348250I0J218750D01*
G01*
G37*
G36*
G01*
X93009000Y-101348250D02*
X93009000Y-100835750D01*
G75*
G02*
X93227750Y-100617000I218750J0D01*
G01*
X93665250Y-100617000D01*
G75*
G02*
X93884000Y-100835750I0J-218750D01*
G01*
X93884000Y-101348250D01*
G75*
G02*
X93665250Y-101567000I-218750J0D01*
G01*
X93227750Y-101567000D01*
G75*
G02*
X93009000Y-101348250I0J218750D01*
G01*
G37*
G36*
G01*
X105568000Y-107693750D02*
X105568000Y-108206250D01*
G75*
G02*
X105349250Y-108425000I-218750J0D01*
G01*
X104911750Y-108425000D01*
G75*
G02*
X104693000Y-108206250I0J218750D01*
G01*
X104693000Y-107693750D01*
G75*
G02*
X104911750Y-107475000I218750J0D01*
G01*
X105349250Y-107475000D01*
G75*
G02*
X105568000Y-107693750I0J-218750D01*
G01*
G37*
G36*
G01*
X107143000Y-107693750D02*
X107143000Y-108206250D01*
G75*
G02*
X106924250Y-108425000I-218750J0D01*
G01*
X106486750Y-108425000D01*
G75*
G02*
X106268000Y-108206250I0J218750D01*
G01*
X106268000Y-107693750D01*
G75*
G02*
X106486750Y-107475000I218750J0D01*
G01*
X106924250Y-107475000D01*
G75*
G02*
X107143000Y-107693750I0J-218750D01*
G01*
G37*
G36*
G01*
X89707000Y-101348250D02*
X89707000Y-100835750D01*
G75*
G02*
X89925750Y-100617000I218750J0D01*
G01*
X90363250Y-100617000D01*
G75*
G02*
X90582000Y-100835750I0J-218750D01*
G01*
X90582000Y-101348250D01*
G75*
G02*
X90363250Y-101567000I-218750J0D01*
G01*
X89925750Y-101567000D01*
G75*
G02*
X89707000Y-101348250I0J218750D01*
G01*
G37*
G36*
G01*
X91282000Y-101348250D02*
X91282000Y-100835750D01*
G75*
G02*
X91500750Y-100617000I218750J0D01*
G01*
X91938250Y-100617000D01*
G75*
G02*
X92157000Y-100835750I0J-218750D01*
G01*
X92157000Y-101348250D01*
G75*
G02*
X91938250Y-101567000I-218750J0D01*
G01*
X91500750Y-101567000D01*
G75*
G02*
X91282000Y-101348250I0J218750D01*
G01*
G37*
G36*
G01*
X110445000Y-107693750D02*
X110445000Y-108206250D01*
G75*
G02*
X110226250Y-108425000I-218750J0D01*
G01*
X109788750Y-108425000D01*
G75*
G02*
X109570000Y-108206250I0J218750D01*
G01*
X109570000Y-107693750D01*
G75*
G02*
X109788750Y-107475000I218750J0D01*
G01*
X110226250Y-107475000D01*
G75*
G02*
X110445000Y-107693750I0J-218750D01*
G01*
G37*
G36*
G01*
X108870000Y-107693750D02*
X108870000Y-108206250D01*
G75*
G02*
X108651250Y-108425000I-218750J0D01*
G01*
X108213750Y-108425000D01*
G75*
G02*
X107995000Y-108206250I0J218750D01*
G01*
X107995000Y-107693750D01*
G75*
G02*
X108213750Y-107475000I218750J0D01*
G01*
X108651250Y-107475000D01*
G75*
G02*
X108870000Y-107693750I0J-218750D01*
G01*
G37*
G36*
G01*
X107995000Y-92458250D02*
X107995000Y-91945750D01*
G75*
G02*
X108213750Y-91727000I218750J0D01*
G01*
X108651250Y-91727000D01*
G75*
G02*
X108870000Y-91945750I0J-218750D01*
G01*
X108870000Y-92458250D01*
G75*
G02*
X108651250Y-92677000I-218750J0D01*
G01*
X108213750Y-92677000D01*
G75*
G02*
X107995000Y-92458250I0J218750D01*
G01*
G37*
G36*
G01*
X109570000Y-92458250D02*
X109570000Y-91945750D01*
G75*
G02*
X109788750Y-91727000I218750J0D01*
G01*
X110226250Y-91727000D01*
G75*
G02*
X110445000Y-91945750I0J-218750D01*
G01*
X110445000Y-92458250D01*
G75*
G02*
X110226250Y-92677000I-218750J0D01*
G01*
X109788750Y-92677000D01*
G75*
G02*
X109570000Y-92458250I0J218750D01*
G01*
G37*
G36*
G01*
X90582000Y-98549750D02*
X90582000Y-99062250D01*
G75*
G02*
X90363250Y-99281000I-218750J0D01*
G01*
X89925750Y-99281000D01*
G75*
G02*
X89707000Y-99062250I0J218750D01*
G01*
X89707000Y-98549750D01*
G75*
G02*
X89925750Y-98331000I218750J0D01*
G01*
X90363250Y-98331000D01*
G75*
G02*
X90582000Y-98549750I0J-218750D01*
G01*
G37*
G36*
G01*
X92157000Y-98549750D02*
X92157000Y-99062250D01*
G75*
G02*
X91938250Y-99281000I-218750J0D01*
G01*
X91500750Y-99281000D01*
G75*
G02*
X91282000Y-99062250I0J218750D01*
G01*
X91282000Y-98549750D01*
G75*
G02*
X91500750Y-98331000I218750J0D01*
G01*
X91938250Y-98331000D01*
G75*
G02*
X92157000Y-98549750I0J-218750D01*
G01*
G37*
G36*
G01*
X106268000Y-92458250D02*
X106268000Y-91945750D01*
G75*
G02*
X106486750Y-91727000I218750J0D01*
G01*
X106924250Y-91727000D01*
G75*
G02*
X107143000Y-91945750I0J-218750D01*
G01*
X107143000Y-92458250D01*
G75*
G02*
X106924250Y-92677000I-218750J0D01*
G01*
X106486750Y-92677000D01*
G75*
G02*
X106268000Y-92458250I0J218750D01*
G01*
G37*
G36*
G01*
X104693000Y-92458250D02*
X104693000Y-91945750D01*
G75*
G02*
X104911750Y-91727000I218750J0D01*
G01*
X105349250Y-91727000D01*
G75*
G02*
X105568000Y-91945750I0J-218750D01*
G01*
X105568000Y-92458250D01*
G75*
G02*
X105349250Y-92677000I-218750J0D01*
G01*
X104911750Y-92677000D01*
G75*
G02*
X104693000Y-92458250I0J218750D01*
G01*
G37*
G36*
G01*
X95459000Y-98549750D02*
X95459000Y-99062250D01*
G75*
G02*
X95240250Y-99281000I-218750J0D01*
G01*
X94802750Y-99281000D01*
G75*
G02*
X94584000Y-99062250I0J218750D01*
G01*
X94584000Y-98549750D01*
G75*
G02*
X94802750Y-98331000I218750J0D01*
G01*
X95240250Y-98331000D01*
G75*
G02*
X95459000Y-98549750I0J-218750D01*
G01*
G37*
G36*
G01*
X93884000Y-98549750D02*
X93884000Y-99062250D01*
G75*
G02*
X93665250Y-99281000I-218750J0D01*
G01*
X93227750Y-99281000D01*
G75*
G02*
X93009000Y-99062250I0J218750D01*
G01*
X93009000Y-98549750D01*
G75*
G02*
X93227750Y-98331000I218750J0D01*
G01*
X93665250Y-98331000D01*
G75*
G02*
X93884000Y-98549750I0J-218750D01*
G01*
G37*
G36*
G01*
X107143000Y-98549750D02*
X107143000Y-99062250D01*
G75*
G02*
X106924250Y-99281000I-218750J0D01*
G01*
X106486750Y-99281000D01*
G75*
G02*
X106268000Y-99062250I0J218750D01*
G01*
X106268000Y-98549750D01*
G75*
G02*
X106486750Y-98331000I218750J0D01*
G01*
X106924250Y-98331000D01*
G75*
G02*
X107143000Y-98549750I0J-218750D01*
G01*
G37*
G36*
G01*
X105568000Y-98549750D02*
X105568000Y-99062250D01*
G75*
G02*
X105349250Y-99281000I-218750J0D01*
G01*
X104911750Y-99281000D01*
G75*
G02*
X104693000Y-99062250I0J218750D01*
G01*
X104693000Y-98549750D01*
G75*
G02*
X104911750Y-98331000I218750J0D01*
G01*
X105349250Y-98331000D01*
G75*
G02*
X105568000Y-98549750I0J-218750D01*
G01*
G37*
G36*
G01*
X94584000Y-92458250D02*
X94584000Y-91945750D01*
G75*
G02*
X94802750Y-91727000I218750J0D01*
G01*
X95240250Y-91727000D01*
G75*
G02*
X95459000Y-91945750I0J-218750D01*
G01*
X95459000Y-92458250D01*
G75*
G02*
X95240250Y-92677000I-218750J0D01*
G01*
X94802750Y-92677000D01*
G75*
G02*
X94584000Y-92458250I0J218750D01*
G01*
G37*
G36*
G01*
X93009000Y-92458250D02*
X93009000Y-91945750D01*
G75*
G02*
X93227750Y-91727000I218750J0D01*
G01*
X93665250Y-91727000D01*
G75*
G02*
X93884000Y-91945750I0J-218750D01*
G01*
X93884000Y-92458250D01*
G75*
G02*
X93665250Y-92677000I-218750J0D01*
G01*
X93227750Y-92677000D01*
G75*
G02*
X93009000Y-92458250I0J218750D01*
G01*
G37*
G36*
G01*
X108870000Y-98549750D02*
X108870000Y-99062250D01*
G75*
G02*
X108651250Y-99281000I-218750J0D01*
G01*
X108213750Y-99281000D01*
G75*
G02*
X107995000Y-99062250I0J218750D01*
G01*
X107995000Y-98549750D01*
G75*
G02*
X108213750Y-98331000I218750J0D01*
G01*
X108651250Y-98331000D01*
G75*
G02*
X108870000Y-98549750I0J-218750D01*
G01*
G37*
G36*
G01*
X110445000Y-98549750D02*
X110445000Y-99062250D01*
G75*
G02*
X110226250Y-99281000I-218750J0D01*
G01*
X109788750Y-99281000D01*
G75*
G02*
X109570000Y-99062250I0J218750D01*
G01*
X109570000Y-98549750D01*
G75*
G02*
X109788750Y-98331000I218750J0D01*
G01*
X110226250Y-98331000D01*
G75*
G02*
X110445000Y-98549750I0J-218750D01*
G01*
G37*
G36*
G01*
X89707000Y-92458250D02*
X89707000Y-91945750D01*
G75*
G02*
X89925750Y-91727000I218750J0D01*
G01*
X90363250Y-91727000D01*
G75*
G02*
X90582000Y-91945750I0J-218750D01*
G01*
X90582000Y-92458250D01*
G75*
G02*
X90363250Y-92677000I-218750J0D01*
G01*
X89925750Y-92677000D01*
G75*
G02*
X89707000Y-92458250I0J218750D01*
G01*
G37*
G36*
G01*
X91282000Y-92458250D02*
X91282000Y-91945750D01*
G75*
G02*
X91500750Y-91727000I218750J0D01*
G01*
X91938250Y-91727000D01*
G75*
G02*
X92157000Y-91945750I0J-218750D01*
G01*
X92157000Y-92458250D01*
G75*
G02*
X91938250Y-92677000I-218750J0D01*
G01*
X91500750Y-92677000D01*
G75*
G02*
X91282000Y-92458250I0J218750D01*
G01*
G37*
D21*
G36*
X88855000Y-100826000D02*
G01*
X87705000Y-100826000D01*
X88205000Y-100076000D01*
X87705000Y-99326000D01*
X88855000Y-99326000D01*
X88855000Y-100826000D01*
G37*
G36*
X87905000Y-100076000D02*
G01*
X87405000Y-100826000D01*
X86405000Y-100826000D01*
X86405000Y-99326000D01*
X87405000Y-99326000D01*
X87905000Y-100076000D01*
G37*
G36*
X111297000Y-108216000D02*
G01*
X112447000Y-108216000D01*
X111947000Y-108966000D01*
X112447000Y-109716000D01*
X111297000Y-109716000D01*
X111297000Y-108216000D01*
G37*
G36*
X112247000Y-108966000D02*
G01*
X112747000Y-108216000D01*
X113747000Y-108216000D01*
X113747000Y-109716000D01*
X112747000Y-109716000D01*
X112247000Y-108966000D01*
G37*
G36*
X112247000Y-100076000D02*
G01*
X112747000Y-99326000D01*
X113747000Y-99326000D01*
X113747000Y-100826000D01*
X112747000Y-100826000D01*
X112247000Y-100076000D01*
G37*
G36*
X111297000Y-99326000D02*
G01*
X112447000Y-99326000D01*
X111947000Y-100076000D01*
X112447000Y-100826000D01*
X111297000Y-100826000D01*
X111297000Y-99326000D01*
G37*
G36*
X87905000Y-90932000D02*
G01*
X87405000Y-91682000D01*
X86405000Y-91682000D01*
X86405000Y-90182000D01*
X87405000Y-90182000D01*
X87905000Y-90932000D01*
G37*
G36*
X88855000Y-91682000D02*
G01*
X87705000Y-91682000D01*
X88205000Y-90932000D01*
X87705000Y-90182000D01*
X88855000Y-90182000D01*
X88855000Y-91682000D01*
G37*
D22*
X95726000Y-82296000D03*
X91726000Y-82296000D03*
D23*
X99060000Y-78626000D03*
X99060000Y-83426000D03*
D24*
X102356000Y-86224000D03*
X97796000Y-86224000D03*
D25*
X100076000Y-92524000D03*
M02*
