G04 #@! TF.GenerationSoftware,KiCad,Pcbnew,(5.1.9)-1*
G04 #@! TF.CreationDate,2021-06-03T13:52:16+02:00*
G04 #@! TF.ProjectId,seriallight,73657269-616c-46c6-9967-68742e6b6963,rev?*
G04 #@! TF.SameCoordinates,Original*
G04 #@! TF.FileFunction,Copper,L1,Top*
G04 #@! TF.FilePolarity,Positive*
%FSLAX46Y46*%
G04 Gerber Fmt 4.6, Leading zero omitted, Abs format (unit mm)*
G04 Created by KiCad (PCBNEW (5.1.9)-1) date 2021-06-03 13:52:16*
%MOMM*%
%LPD*%
G01*
G04 APERTURE LIST*
G04 #@! TA.AperFunction,NonConductor*
%ADD10C,0.100000*%
G04 #@! TD*
G04 #@! TA.AperFunction,SMDPad,CuDef*
%ADD11R,0.650000X1.600000*%
G04 #@! TD*
G04 #@! TA.AperFunction,ComponentPad*
%ADD12C,7.500000*%
G04 #@! TD*
G04 #@! TA.AperFunction,ComponentPad*
%ADD13R,3.000000X1.500000*%
G04 #@! TD*
G04 #@! TA.AperFunction,ComponentPad*
%ADD14O,3.000000X1.500000*%
G04 #@! TD*
G04 #@! TA.AperFunction,ComponentPad*
%ADD15R,1.700000X1.700000*%
G04 #@! TD*
G04 #@! TA.AperFunction,ComponentPad*
%ADD16O,1.700000X1.700000*%
G04 #@! TD*
G04 #@! TA.AperFunction,ComponentPad*
%ADD17C,4.700000*%
G04 #@! TD*
G04 #@! TA.AperFunction,SMDPad,CuDef*
%ADD18R,1.060000X0.650000*%
G04 #@! TD*
G04 #@! TA.AperFunction,SMDPad,CuDef*
%ADD19C,1.000000*%
G04 #@! TD*
G04 #@! TA.AperFunction,SMDPad,CuDef*
%ADD20C,0.100000*%
G04 #@! TD*
G04 #@! TA.AperFunction,SMDPad,CuDef*
%ADD21R,2.500000X1.800000*%
G04 #@! TD*
G04 #@! TA.AperFunction,SMDPad,CuDef*
%ADD22R,2.700000X1.500000*%
G04 #@! TD*
G04 #@! TA.AperFunction,SMDPad,CuDef*
%ADD23R,1.200000X2.200000*%
G04 #@! TD*
G04 #@! TA.AperFunction,SMDPad,CuDef*
%ADD24R,5.800000X6.400000*%
G04 #@! TD*
G04 #@! TA.AperFunction,ViaPad*
%ADD25C,0.800000*%
G04 #@! TD*
G04 #@! TA.AperFunction,Conductor*
%ADD26C,1.000000*%
G04 #@! TD*
G04 #@! TA.AperFunction,Conductor*
%ADD27C,0.500000*%
G04 #@! TD*
G04 #@! TA.AperFunction,Conductor*
%ADD28C,0.254000*%
G04 #@! TD*
G04 #@! TA.AperFunction,Conductor*
%ADD29C,0.100000*%
G04 #@! TD*
G04 APERTURE END LIST*
D10*
X91440476Y-122540761D02*
X91583333Y-122588380D01*
X91821428Y-122588380D01*
X91916666Y-122540761D01*
X91964285Y-122493142D01*
X92011904Y-122397904D01*
X92011904Y-122302666D01*
X91964285Y-122207428D01*
X91916666Y-122159809D01*
X91821428Y-122112190D01*
X91630952Y-122064571D01*
X91535714Y-122016952D01*
X91488095Y-121969333D01*
X91440476Y-121874095D01*
X91440476Y-121778857D01*
X91488095Y-121683619D01*
X91535714Y-121636000D01*
X91630952Y-121588380D01*
X91869047Y-121588380D01*
X92011904Y-121636000D01*
X92821428Y-122540761D02*
X92726190Y-122588380D01*
X92535714Y-122588380D01*
X92440476Y-122540761D01*
X92392857Y-122445523D01*
X92392857Y-122064571D01*
X92440476Y-121969333D01*
X92535714Y-121921714D01*
X92726190Y-121921714D01*
X92821428Y-121969333D01*
X92869047Y-122064571D01*
X92869047Y-122159809D01*
X92392857Y-122255047D01*
X93297619Y-122588380D02*
X93297619Y-121921714D01*
X93297619Y-122112190D02*
X93345238Y-122016952D01*
X93392857Y-121969333D01*
X93488095Y-121921714D01*
X93583333Y-121921714D01*
X93916666Y-122588380D02*
X93916666Y-121921714D01*
X93916666Y-121588380D02*
X93869047Y-121636000D01*
X93916666Y-121683619D01*
X93964285Y-121636000D01*
X93916666Y-121588380D01*
X93916666Y-121683619D01*
X94821428Y-122588380D02*
X94821428Y-122064571D01*
X94773809Y-121969333D01*
X94678571Y-121921714D01*
X94488095Y-121921714D01*
X94392857Y-121969333D01*
X94821428Y-122540761D02*
X94726190Y-122588380D01*
X94488095Y-122588380D01*
X94392857Y-122540761D01*
X94345238Y-122445523D01*
X94345238Y-122350285D01*
X94392857Y-122255047D01*
X94488095Y-122207428D01*
X94726190Y-122207428D01*
X94821428Y-122159809D01*
X95440476Y-122588380D02*
X95345238Y-122540761D01*
X95297619Y-122445523D01*
X95297619Y-121588380D01*
X96297619Y-122588380D02*
X95821428Y-122588380D01*
X95821428Y-121588380D01*
X96630952Y-122588380D02*
X96630952Y-121921714D01*
X96630952Y-121588380D02*
X96583333Y-121636000D01*
X96630952Y-121683619D01*
X96678571Y-121636000D01*
X96630952Y-121588380D01*
X96630952Y-121683619D01*
X97535714Y-121921714D02*
X97535714Y-122731238D01*
X97488095Y-122826476D01*
X97440476Y-122874095D01*
X97345238Y-122921714D01*
X97202380Y-122921714D01*
X97107142Y-122874095D01*
X97535714Y-122540761D02*
X97440476Y-122588380D01*
X97250000Y-122588380D01*
X97154761Y-122540761D01*
X97107142Y-122493142D01*
X97059523Y-122397904D01*
X97059523Y-122112190D01*
X97107142Y-122016952D01*
X97154761Y-121969333D01*
X97250000Y-121921714D01*
X97440476Y-121921714D01*
X97535714Y-121969333D01*
X98011904Y-122588380D02*
X98011904Y-121588380D01*
X98440476Y-122588380D02*
X98440476Y-122064571D01*
X98392857Y-121969333D01*
X98297619Y-121921714D01*
X98154761Y-121921714D01*
X98059523Y-121969333D01*
X98011904Y-122016952D01*
X98773809Y-121921714D02*
X99154761Y-121921714D01*
X98916666Y-121588380D02*
X98916666Y-122445523D01*
X98964285Y-122540761D01*
X99059523Y-122588380D01*
X99154761Y-122588380D01*
X93821428Y-123521714D02*
X94059523Y-124188380D01*
X94297619Y-123521714D01*
X94869047Y-123188380D02*
X94964285Y-123188380D01*
X95059523Y-123236000D01*
X95107142Y-123283619D01*
X95154761Y-123378857D01*
X95202380Y-123569333D01*
X95202380Y-123807428D01*
X95154761Y-123997904D01*
X95107142Y-124093142D01*
X95059523Y-124140761D01*
X94964285Y-124188380D01*
X94869047Y-124188380D01*
X94773809Y-124140761D01*
X94726190Y-124093142D01*
X94678571Y-123997904D01*
X94630952Y-123807428D01*
X94630952Y-123569333D01*
X94678571Y-123378857D01*
X94726190Y-123283619D01*
X94773809Y-123236000D01*
X94869047Y-123188380D01*
X95630952Y-124093142D02*
X95678571Y-124140761D01*
X95630952Y-124188380D01*
X95583333Y-124140761D01*
X95630952Y-124093142D01*
X95630952Y-124188380D01*
X96630952Y-124188380D02*
X96059523Y-124188380D01*
X96345238Y-124188380D02*
X96345238Y-123188380D01*
X96250000Y-123331238D01*
X96154761Y-123426476D01*
X96059523Y-123474095D01*
D11*
X105975000Y-105750000D03*
X105025000Y-105750000D03*
G04 #@! TA.AperFunction,SMDPad,CuDef*
G36*
G01*
X103960000Y-86327000D02*
X103960000Y-85377000D01*
G75*
G02*
X104210000Y-85127000I250000J0D01*
G01*
X104710000Y-85127000D01*
G75*
G02*
X104960000Y-85377000I0J-250000D01*
G01*
X104960000Y-86327000D01*
G75*
G02*
X104710000Y-86577000I-250000J0D01*
G01*
X104210000Y-86577000D01*
G75*
G02*
X103960000Y-86327000I0J250000D01*
G01*
G37*
G04 #@! TD.AperFunction*
G04 #@! TA.AperFunction,SMDPad,CuDef*
G36*
G01*
X105860000Y-86327000D02*
X105860000Y-85377000D01*
G75*
G02*
X106110000Y-85127000I250000J0D01*
G01*
X106610000Y-85127000D01*
G75*
G02*
X106860000Y-85377000I0J-250000D01*
G01*
X106860000Y-86327000D01*
G75*
G02*
X106610000Y-86577000I-250000J0D01*
G01*
X106110000Y-86577000D01*
G75*
G02*
X105860000Y-86327000I0J250000D01*
G01*
G37*
G04 #@! TD.AperFunction*
G04 #@! TA.AperFunction,SMDPad,CuDef*
G36*
G01*
X94775000Y-87572000D02*
X95725000Y-87572000D01*
G75*
G02*
X95975000Y-87822000I0J-250000D01*
G01*
X95975000Y-88322000D01*
G75*
G02*
X95725000Y-88572000I-250000J0D01*
G01*
X94775000Y-88572000D01*
G75*
G02*
X94525000Y-88322000I0J250000D01*
G01*
X94525000Y-87822000D01*
G75*
G02*
X94775000Y-87572000I250000J0D01*
G01*
G37*
G04 #@! TD.AperFunction*
G04 #@! TA.AperFunction,SMDPad,CuDef*
G36*
G01*
X94775000Y-85672000D02*
X95725000Y-85672000D01*
G75*
G02*
X95975000Y-85922000I0J-250000D01*
G01*
X95975000Y-86422000D01*
G75*
G02*
X95725000Y-86672000I-250000J0D01*
G01*
X94775000Y-86672000D01*
G75*
G02*
X94525000Y-86422000I0J250000D01*
G01*
X94525000Y-85922000D01*
G75*
G02*
X94775000Y-85672000I250000J0D01*
G01*
G37*
G04 #@! TD.AperFunction*
G04 #@! TA.AperFunction,SMDPad,CuDef*
G36*
G01*
X96900000Y-77100000D02*
X96900000Y-79900000D01*
G75*
G02*
X96650000Y-80150000I-250000J0D01*
G01*
X95675000Y-80150000D01*
G75*
G02*
X95425000Y-79900000I0J250000D01*
G01*
X95425000Y-77100000D01*
G75*
G02*
X95675000Y-76850000I250000J0D01*
G01*
X96650000Y-76850000D01*
G75*
G02*
X96900000Y-77100000I0J-250000D01*
G01*
G37*
G04 #@! TD.AperFunction*
G04 #@! TA.AperFunction,SMDPad,CuDef*
G36*
G01*
X92575000Y-77100000D02*
X92575000Y-79900000D01*
G75*
G02*
X92325000Y-80150000I-250000J0D01*
G01*
X91350000Y-80150000D01*
G75*
G02*
X91100000Y-79900000I0J250000D01*
G01*
X91100000Y-77100000D01*
G75*
G02*
X91350000Y-76850000I250000J0D01*
G01*
X92325000Y-76850000D01*
G75*
G02*
X92575000Y-77100000I0J-250000D01*
G01*
G37*
G04 #@! TD.AperFunction*
D12*
X100000000Y-100000000D03*
D13*
X84500000Y-79000000D03*
D14*
X84500000Y-84000000D03*
D15*
X102870000Y-123190000D03*
D16*
X105410000Y-123190000D03*
X107950000Y-123190000D03*
D14*
X115500000Y-79500000D03*
D13*
X115500000Y-84500000D03*
G04 #@! TA.AperFunction,SMDPad,CuDef*
G36*
G01*
X85783000Y-103904000D02*
X85413000Y-103904000D01*
G75*
G02*
X85278000Y-103769000I0J135000D01*
G01*
X85278000Y-103499000D01*
G75*
G02*
X85413000Y-103364000I135000J0D01*
G01*
X85783000Y-103364000D01*
G75*
G02*
X85918000Y-103499000I0J-135000D01*
G01*
X85918000Y-103769000D01*
G75*
G02*
X85783000Y-103904000I-135000J0D01*
G01*
G37*
G04 #@! TD.AperFunction*
G04 #@! TA.AperFunction,SMDPad,CuDef*
G36*
G01*
X85783000Y-102884000D02*
X85413000Y-102884000D01*
G75*
G02*
X85278000Y-102749000I0J135000D01*
G01*
X85278000Y-102479000D01*
G75*
G02*
X85413000Y-102344000I135000J0D01*
G01*
X85783000Y-102344000D01*
G75*
G02*
X85918000Y-102479000I0J-135000D01*
G01*
X85918000Y-102749000D01*
G75*
G02*
X85783000Y-102884000I-135000J0D01*
G01*
G37*
G04 #@! TD.AperFunction*
G04 #@! TA.AperFunction,SMDPad,CuDef*
G36*
G01*
X114739000Y-104662000D02*
X114369000Y-104662000D01*
G75*
G02*
X114234000Y-104527000I0J135000D01*
G01*
X114234000Y-104257000D01*
G75*
G02*
X114369000Y-104122000I135000J0D01*
G01*
X114739000Y-104122000D01*
G75*
G02*
X114874000Y-104257000I0J-135000D01*
G01*
X114874000Y-104527000D01*
G75*
G02*
X114739000Y-104662000I-135000J0D01*
G01*
G37*
G04 #@! TD.AperFunction*
G04 #@! TA.AperFunction,SMDPad,CuDef*
G36*
G01*
X114739000Y-105682000D02*
X114369000Y-105682000D01*
G75*
G02*
X114234000Y-105547000I0J135000D01*
G01*
X114234000Y-105277000D01*
G75*
G02*
X114369000Y-105142000I135000J0D01*
G01*
X114739000Y-105142000D01*
G75*
G02*
X114874000Y-105277000I0J-135000D01*
G01*
X114874000Y-105547000D01*
G75*
G02*
X114739000Y-105682000I-135000J0D01*
G01*
G37*
G04 #@! TD.AperFunction*
G04 #@! TA.AperFunction,SMDPad,CuDef*
G36*
G01*
X113048000Y-97815000D02*
X113048000Y-98185000D01*
G75*
G02*
X112913000Y-98320000I-135000J0D01*
G01*
X112643000Y-98320000D01*
G75*
G02*
X112508000Y-98185000I0J135000D01*
G01*
X112508000Y-97815000D01*
G75*
G02*
X112643000Y-97680000I135000J0D01*
G01*
X112913000Y-97680000D01*
G75*
G02*
X113048000Y-97815000I0J-135000D01*
G01*
G37*
G04 #@! TD.AperFunction*
G04 #@! TA.AperFunction,SMDPad,CuDef*
G36*
G01*
X112028000Y-97815000D02*
X112028000Y-98185000D01*
G75*
G02*
X111893000Y-98320000I-135000J0D01*
G01*
X111623000Y-98320000D01*
G75*
G02*
X111488000Y-98185000I0J135000D01*
G01*
X111488000Y-97815000D01*
G75*
G02*
X111623000Y-97680000I135000J0D01*
G01*
X111893000Y-97680000D01*
G75*
G02*
X112028000Y-97815000I0J-135000D01*
G01*
G37*
G04 #@! TD.AperFunction*
G04 #@! TA.AperFunction,SMDPad,CuDef*
G36*
G01*
X114739000Y-95772000D02*
X114369000Y-95772000D01*
G75*
G02*
X114234000Y-95637000I0J135000D01*
G01*
X114234000Y-95367000D01*
G75*
G02*
X114369000Y-95232000I135000J0D01*
G01*
X114739000Y-95232000D01*
G75*
G02*
X114874000Y-95367000I0J-135000D01*
G01*
X114874000Y-95637000D01*
G75*
G02*
X114739000Y-95772000I-135000J0D01*
G01*
G37*
G04 #@! TD.AperFunction*
G04 #@! TA.AperFunction,SMDPad,CuDef*
G36*
G01*
X114739000Y-96792000D02*
X114369000Y-96792000D01*
G75*
G02*
X114234000Y-96657000I0J135000D01*
G01*
X114234000Y-96387000D01*
G75*
G02*
X114369000Y-96252000I135000J0D01*
G01*
X114739000Y-96252000D01*
G75*
G02*
X114874000Y-96387000I0J-135000D01*
G01*
X114874000Y-96657000D01*
G75*
G02*
X114739000Y-96792000I-135000J0D01*
G01*
G37*
G04 #@! TD.AperFunction*
G04 #@! TA.AperFunction,SMDPad,CuDef*
G36*
G01*
X85783000Y-94760000D02*
X85413000Y-94760000D01*
G75*
G02*
X85278000Y-94625000I0J135000D01*
G01*
X85278000Y-94355000D01*
G75*
G02*
X85413000Y-94220000I135000J0D01*
G01*
X85783000Y-94220000D01*
G75*
G02*
X85918000Y-94355000I0J-135000D01*
G01*
X85918000Y-94625000D01*
G75*
G02*
X85783000Y-94760000I-135000J0D01*
G01*
G37*
G04 #@! TD.AperFunction*
G04 #@! TA.AperFunction,SMDPad,CuDef*
G36*
G01*
X85783000Y-93740000D02*
X85413000Y-93740000D01*
G75*
G02*
X85278000Y-93605000I0J135000D01*
G01*
X85278000Y-93335000D01*
G75*
G02*
X85413000Y-93200000I135000J0D01*
G01*
X85783000Y-93200000D01*
G75*
G02*
X85918000Y-93335000I0J-135000D01*
G01*
X85918000Y-93605000D01*
G75*
G02*
X85783000Y-93740000I-135000J0D01*
G01*
G37*
G04 #@! TD.AperFunction*
G04 #@! TA.AperFunction,SMDPad,CuDef*
G36*
G01*
X97050000Y-112840000D02*
X97050000Y-112540000D01*
G75*
G02*
X97200000Y-112390000I150000J0D01*
G01*
X98850000Y-112390000D01*
G75*
G02*
X99000000Y-112540000I0J-150000D01*
G01*
X99000000Y-112840000D01*
G75*
G02*
X98850000Y-112990000I-150000J0D01*
G01*
X97200000Y-112990000D01*
G75*
G02*
X97050000Y-112840000I0J150000D01*
G01*
G37*
G04 #@! TD.AperFunction*
G04 #@! TA.AperFunction,SMDPad,CuDef*
G36*
G01*
X97050000Y-114110000D02*
X97050000Y-113810000D01*
G75*
G02*
X97200000Y-113660000I150000J0D01*
G01*
X98850000Y-113660000D01*
G75*
G02*
X99000000Y-113810000I0J-150000D01*
G01*
X99000000Y-114110000D01*
G75*
G02*
X98850000Y-114260000I-150000J0D01*
G01*
X97200000Y-114260000D01*
G75*
G02*
X97050000Y-114110000I0J150000D01*
G01*
G37*
G04 #@! TD.AperFunction*
G04 #@! TA.AperFunction,SMDPad,CuDef*
G36*
G01*
X97050000Y-115380000D02*
X97050000Y-115080000D01*
G75*
G02*
X97200000Y-114930000I150000J0D01*
G01*
X98850000Y-114930000D01*
G75*
G02*
X99000000Y-115080000I0J-150000D01*
G01*
X99000000Y-115380000D01*
G75*
G02*
X98850000Y-115530000I-150000J0D01*
G01*
X97200000Y-115530000D01*
G75*
G02*
X97050000Y-115380000I0J150000D01*
G01*
G37*
G04 #@! TD.AperFunction*
G04 #@! TA.AperFunction,SMDPad,CuDef*
G36*
G01*
X97050000Y-116650000D02*
X97050000Y-116350000D01*
G75*
G02*
X97200000Y-116200000I150000J0D01*
G01*
X98850000Y-116200000D01*
G75*
G02*
X99000000Y-116350000I0J-150000D01*
G01*
X99000000Y-116650000D01*
G75*
G02*
X98850000Y-116800000I-150000J0D01*
G01*
X97200000Y-116800000D01*
G75*
G02*
X97050000Y-116650000I0J150000D01*
G01*
G37*
G04 #@! TD.AperFunction*
G04 #@! TA.AperFunction,SMDPad,CuDef*
G36*
G01*
X97050000Y-117920000D02*
X97050000Y-117620000D01*
G75*
G02*
X97200000Y-117470000I150000J0D01*
G01*
X98850000Y-117470000D01*
G75*
G02*
X99000000Y-117620000I0J-150000D01*
G01*
X99000000Y-117920000D01*
G75*
G02*
X98850000Y-118070000I-150000J0D01*
G01*
X97200000Y-118070000D01*
G75*
G02*
X97050000Y-117920000I0J150000D01*
G01*
G37*
G04 #@! TD.AperFunction*
G04 #@! TA.AperFunction,SMDPad,CuDef*
G36*
G01*
X97050000Y-119190000D02*
X97050000Y-118890000D01*
G75*
G02*
X97200000Y-118740000I150000J0D01*
G01*
X98850000Y-118740000D01*
G75*
G02*
X99000000Y-118890000I0J-150000D01*
G01*
X99000000Y-119190000D01*
G75*
G02*
X98850000Y-119340000I-150000J0D01*
G01*
X97200000Y-119340000D01*
G75*
G02*
X97050000Y-119190000I0J150000D01*
G01*
G37*
G04 #@! TD.AperFunction*
G04 #@! TA.AperFunction,SMDPad,CuDef*
G36*
G01*
X97050000Y-120460000D02*
X97050000Y-120160000D01*
G75*
G02*
X97200000Y-120010000I150000J0D01*
G01*
X98850000Y-120010000D01*
G75*
G02*
X99000000Y-120160000I0J-150000D01*
G01*
X99000000Y-120460000D01*
G75*
G02*
X98850000Y-120610000I-150000J0D01*
G01*
X97200000Y-120610000D01*
G75*
G02*
X97050000Y-120460000I0J150000D01*
G01*
G37*
G04 #@! TD.AperFunction*
G04 #@! TA.AperFunction,SMDPad,CuDef*
G36*
G01*
X102000000Y-120460000D02*
X102000000Y-120160000D01*
G75*
G02*
X102150000Y-120010000I150000J0D01*
G01*
X103800000Y-120010000D01*
G75*
G02*
X103950000Y-120160000I0J-150000D01*
G01*
X103950000Y-120460000D01*
G75*
G02*
X103800000Y-120610000I-150000J0D01*
G01*
X102150000Y-120610000D01*
G75*
G02*
X102000000Y-120460000I0J150000D01*
G01*
G37*
G04 #@! TD.AperFunction*
G04 #@! TA.AperFunction,SMDPad,CuDef*
G36*
G01*
X102000000Y-119190000D02*
X102000000Y-118890000D01*
G75*
G02*
X102150000Y-118740000I150000J0D01*
G01*
X103800000Y-118740000D01*
G75*
G02*
X103950000Y-118890000I0J-150000D01*
G01*
X103950000Y-119190000D01*
G75*
G02*
X103800000Y-119340000I-150000J0D01*
G01*
X102150000Y-119340000D01*
G75*
G02*
X102000000Y-119190000I0J150000D01*
G01*
G37*
G04 #@! TD.AperFunction*
G04 #@! TA.AperFunction,SMDPad,CuDef*
G36*
G01*
X102000000Y-117920000D02*
X102000000Y-117620000D01*
G75*
G02*
X102150000Y-117470000I150000J0D01*
G01*
X103800000Y-117470000D01*
G75*
G02*
X103950000Y-117620000I0J-150000D01*
G01*
X103950000Y-117920000D01*
G75*
G02*
X103800000Y-118070000I-150000J0D01*
G01*
X102150000Y-118070000D01*
G75*
G02*
X102000000Y-117920000I0J150000D01*
G01*
G37*
G04 #@! TD.AperFunction*
G04 #@! TA.AperFunction,SMDPad,CuDef*
G36*
G01*
X102000000Y-116650000D02*
X102000000Y-116350000D01*
G75*
G02*
X102150000Y-116200000I150000J0D01*
G01*
X103800000Y-116200000D01*
G75*
G02*
X103950000Y-116350000I0J-150000D01*
G01*
X103950000Y-116650000D01*
G75*
G02*
X103800000Y-116800000I-150000J0D01*
G01*
X102150000Y-116800000D01*
G75*
G02*
X102000000Y-116650000I0J150000D01*
G01*
G37*
G04 #@! TD.AperFunction*
G04 #@! TA.AperFunction,SMDPad,CuDef*
G36*
G01*
X102000000Y-115380000D02*
X102000000Y-115080000D01*
G75*
G02*
X102150000Y-114930000I150000J0D01*
G01*
X103800000Y-114930000D01*
G75*
G02*
X103950000Y-115080000I0J-150000D01*
G01*
X103950000Y-115380000D01*
G75*
G02*
X103800000Y-115530000I-150000J0D01*
G01*
X102150000Y-115530000D01*
G75*
G02*
X102000000Y-115380000I0J150000D01*
G01*
G37*
G04 #@! TD.AperFunction*
G04 #@! TA.AperFunction,SMDPad,CuDef*
G36*
G01*
X102000000Y-114110000D02*
X102000000Y-113810000D01*
G75*
G02*
X102150000Y-113660000I150000J0D01*
G01*
X103800000Y-113660000D01*
G75*
G02*
X103950000Y-113810000I0J-150000D01*
G01*
X103950000Y-114110000D01*
G75*
G02*
X103800000Y-114260000I-150000J0D01*
G01*
X102150000Y-114260000D01*
G75*
G02*
X102000000Y-114110000I0J150000D01*
G01*
G37*
G04 #@! TD.AperFunction*
G04 #@! TA.AperFunction,SMDPad,CuDef*
G36*
G01*
X102000000Y-112840000D02*
X102000000Y-112540000D01*
G75*
G02*
X102150000Y-112390000I150000J0D01*
G01*
X103800000Y-112390000D01*
G75*
G02*
X103950000Y-112540000I0J-150000D01*
G01*
X103950000Y-112840000D01*
G75*
G02*
X103800000Y-112990000I-150000J0D01*
G01*
X102150000Y-112990000D01*
G75*
G02*
X102000000Y-112840000I0J150000D01*
G01*
G37*
G04 #@! TD.AperFunction*
G04 #@! TA.AperFunction,SMDPad,CuDef*
G36*
G01*
X102050000Y-80245000D02*
X102050000Y-79945000D01*
G75*
G02*
X102200000Y-79795000I150000J0D01*
G01*
X103850000Y-79795000D01*
G75*
G02*
X104000000Y-79945000I0J-150000D01*
G01*
X104000000Y-80245000D01*
G75*
G02*
X103850000Y-80395000I-150000J0D01*
G01*
X102200000Y-80395000D01*
G75*
G02*
X102050000Y-80245000I0J150000D01*
G01*
G37*
G04 #@! TD.AperFunction*
G04 #@! TA.AperFunction,SMDPad,CuDef*
G36*
G01*
X102050000Y-81515000D02*
X102050000Y-81215000D01*
G75*
G02*
X102200000Y-81065000I150000J0D01*
G01*
X103850000Y-81065000D01*
G75*
G02*
X104000000Y-81215000I0J-150000D01*
G01*
X104000000Y-81515000D01*
G75*
G02*
X103850000Y-81665000I-150000J0D01*
G01*
X102200000Y-81665000D01*
G75*
G02*
X102050000Y-81515000I0J150000D01*
G01*
G37*
G04 #@! TD.AperFunction*
G04 #@! TA.AperFunction,SMDPad,CuDef*
G36*
G01*
X102050000Y-82785000D02*
X102050000Y-82485000D01*
G75*
G02*
X102200000Y-82335000I150000J0D01*
G01*
X103850000Y-82335000D01*
G75*
G02*
X104000000Y-82485000I0J-150000D01*
G01*
X104000000Y-82785000D01*
G75*
G02*
X103850000Y-82935000I-150000J0D01*
G01*
X102200000Y-82935000D01*
G75*
G02*
X102050000Y-82785000I0J150000D01*
G01*
G37*
G04 #@! TD.AperFunction*
G04 #@! TA.AperFunction,SMDPad,CuDef*
G36*
G01*
X102050000Y-84055000D02*
X102050000Y-83755000D01*
G75*
G02*
X102200000Y-83605000I150000J0D01*
G01*
X103850000Y-83605000D01*
G75*
G02*
X104000000Y-83755000I0J-150000D01*
G01*
X104000000Y-84055000D01*
G75*
G02*
X103850000Y-84205000I-150000J0D01*
G01*
X102200000Y-84205000D01*
G75*
G02*
X102050000Y-84055000I0J150000D01*
G01*
G37*
G04 #@! TD.AperFunction*
G04 #@! TA.AperFunction,SMDPad,CuDef*
G36*
G01*
X107000000Y-84055000D02*
X107000000Y-83755000D01*
G75*
G02*
X107150000Y-83605000I150000J0D01*
G01*
X108800000Y-83605000D01*
G75*
G02*
X108950000Y-83755000I0J-150000D01*
G01*
X108950000Y-84055000D01*
G75*
G02*
X108800000Y-84205000I-150000J0D01*
G01*
X107150000Y-84205000D01*
G75*
G02*
X107000000Y-84055000I0J150000D01*
G01*
G37*
G04 #@! TD.AperFunction*
G04 #@! TA.AperFunction,SMDPad,CuDef*
G36*
G01*
X107000000Y-82785000D02*
X107000000Y-82485000D01*
G75*
G02*
X107150000Y-82335000I150000J0D01*
G01*
X108800000Y-82335000D01*
G75*
G02*
X108950000Y-82485000I0J-150000D01*
G01*
X108950000Y-82785000D01*
G75*
G02*
X108800000Y-82935000I-150000J0D01*
G01*
X107150000Y-82935000D01*
G75*
G02*
X107000000Y-82785000I0J150000D01*
G01*
G37*
G04 #@! TD.AperFunction*
G04 #@! TA.AperFunction,SMDPad,CuDef*
G36*
G01*
X107000000Y-81515000D02*
X107000000Y-81215000D01*
G75*
G02*
X107150000Y-81065000I150000J0D01*
G01*
X108800000Y-81065000D01*
G75*
G02*
X108950000Y-81215000I0J-150000D01*
G01*
X108950000Y-81515000D01*
G75*
G02*
X108800000Y-81665000I-150000J0D01*
G01*
X107150000Y-81665000D01*
G75*
G02*
X107000000Y-81515000I0J150000D01*
G01*
G37*
G04 #@! TD.AperFunction*
G04 #@! TA.AperFunction,SMDPad,CuDef*
G36*
G01*
X107000000Y-80245000D02*
X107000000Y-79945000D01*
G75*
G02*
X107150000Y-79795000I150000J0D01*
G01*
X108800000Y-79795000D01*
G75*
G02*
X108950000Y-79945000I0J-150000D01*
G01*
X108950000Y-80245000D01*
G75*
G02*
X108800000Y-80395000I-150000J0D01*
G01*
X107150000Y-80395000D01*
G75*
G02*
X107000000Y-80245000I0J150000D01*
G01*
G37*
G04 #@! TD.AperFunction*
D17*
X80000000Y-100000000D03*
X120000000Y-99750000D03*
D11*
X92475000Y-105750000D03*
X91525000Y-105750000D03*
X107525000Y-103250000D03*
X108475000Y-103250000D03*
X94025000Y-105750000D03*
X94975000Y-105750000D03*
X105975000Y-103250000D03*
X105025000Y-103250000D03*
X94025000Y-103250000D03*
X94975000Y-103250000D03*
X92475000Y-103250000D03*
X91525000Y-103250000D03*
X107525000Y-105750000D03*
X108475000Y-105750000D03*
X108475000Y-94250000D03*
X107525000Y-94250000D03*
X92475000Y-96750000D03*
X91525000Y-96750000D03*
X105025000Y-94250000D03*
X105975000Y-94250000D03*
X94975000Y-96750000D03*
X94025000Y-96750000D03*
X105025000Y-96750000D03*
X105975000Y-96750000D03*
X94975000Y-94250000D03*
X94025000Y-94250000D03*
X107525000Y-96750000D03*
X108475000Y-96750000D03*
X91525000Y-94250000D03*
X92475000Y-94250000D03*
G04 #@! TA.AperFunction,SMDPad,CuDef*
G36*
G01*
X88378000Y-102185000D02*
X88378000Y-101815000D01*
G75*
G02*
X88513000Y-101680000I135000J0D01*
G01*
X88783000Y-101680000D01*
G75*
G02*
X88918000Y-101815000I0J-135000D01*
G01*
X88918000Y-102185000D01*
G75*
G02*
X88783000Y-102320000I-135000J0D01*
G01*
X88513000Y-102320000D01*
G75*
G02*
X88378000Y-102185000I0J135000D01*
G01*
G37*
G04 #@! TD.AperFunction*
G04 #@! TA.AperFunction,SMDPad,CuDef*
G36*
G01*
X87358000Y-102185000D02*
X87358000Y-101815000D01*
G75*
G02*
X87493000Y-101680000I135000J0D01*
G01*
X87763000Y-101680000D01*
G75*
G02*
X87898000Y-101815000I0J-135000D01*
G01*
X87898000Y-102185000D01*
G75*
G02*
X87763000Y-102320000I-135000J0D01*
G01*
X87493000Y-102320000D01*
G75*
G02*
X87358000Y-102185000I0J135000D01*
G01*
G37*
G04 #@! TD.AperFunction*
G04 #@! TA.AperFunction,SMDPad,CuDef*
G36*
G01*
X113048000Y-106815000D02*
X113048000Y-107185000D01*
G75*
G02*
X112913000Y-107320000I-135000J0D01*
G01*
X112643000Y-107320000D01*
G75*
G02*
X112508000Y-107185000I0J135000D01*
G01*
X112508000Y-106815000D01*
G75*
G02*
X112643000Y-106680000I135000J0D01*
G01*
X112913000Y-106680000D01*
G75*
G02*
X113048000Y-106815000I0J-135000D01*
G01*
G37*
G04 #@! TD.AperFunction*
G04 #@! TA.AperFunction,SMDPad,CuDef*
G36*
G01*
X112028000Y-106815000D02*
X112028000Y-107185000D01*
G75*
G02*
X111893000Y-107320000I-135000J0D01*
G01*
X111623000Y-107320000D01*
G75*
G02*
X111488000Y-107185000I0J135000D01*
G01*
X111488000Y-106815000D01*
G75*
G02*
X111623000Y-106680000I135000J0D01*
G01*
X111893000Y-106680000D01*
G75*
G02*
X112028000Y-106815000I0J-135000D01*
G01*
G37*
G04 #@! TD.AperFunction*
G04 #@! TA.AperFunction,SMDPad,CuDef*
G36*
G01*
X87106000Y-93149000D02*
X87106000Y-92779000D01*
G75*
G02*
X87241000Y-92644000I135000J0D01*
G01*
X87511000Y-92644000D01*
G75*
G02*
X87646000Y-92779000I0J-135000D01*
G01*
X87646000Y-93149000D01*
G75*
G02*
X87511000Y-93284000I-135000J0D01*
G01*
X87241000Y-93284000D01*
G75*
G02*
X87106000Y-93149000I0J135000D01*
G01*
G37*
G04 #@! TD.AperFunction*
G04 #@! TA.AperFunction,SMDPad,CuDef*
G36*
G01*
X88126000Y-93149000D02*
X88126000Y-92779000D01*
G75*
G02*
X88261000Y-92644000I135000J0D01*
G01*
X88531000Y-92644000D01*
G75*
G02*
X88666000Y-92779000I0J-135000D01*
G01*
X88666000Y-93149000D01*
G75*
G02*
X88531000Y-93284000I-135000J0D01*
G01*
X88261000Y-93284000D01*
G75*
G02*
X88126000Y-93149000I0J135000D01*
G01*
G37*
G04 #@! TD.AperFunction*
D18*
X87150000Y-103550000D03*
X87150000Y-104500000D03*
X87150000Y-105450000D03*
X89350000Y-105450000D03*
X89350000Y-103550000D03*
X89350000Y-104500000D03*
X110650000Y-104500000D03*
X110650000Y-105450000D03*
X110650000Y-103550000D03*
X112850000Y-103550000D03*
X112850000Y-104500000D03*
X112850000Y-105450000D03*
X110650000Y-95500000D03*
X110650000Y-96450000D03*
X110650000Y-94550000D03*
X112850000Y-94550000D03*
X112850000Y-95500000D03*
X112850000Y-96450000D03*
X87150000Y-94550000D03*
X87150000Y-95500000D03*
X87150000Y-96450000D03*
X89350000Y-96450000D03*
X89350000Y-94550000D03*
X89350000Y-95500000D03*
D19*
X94500000Y-119250000D03*
X105500000Y-114000000D03*
X94500000Y-116250000D03*
X92500000Y-117750000D03*
G04 #@! TA.AperFunction,SMDPad,CuDef*
G36*
G01*
X94800000Y-110354000D02*
X94800000Y-110694000D01*
G75*
G02*
X94660000Y-110834000I-140000J0D01*
G01*
X94380000Y-110834000D01*
G75*
G02*
X94240000Y-110694000I0J140000D01*
G01*
X94240000Y-110354000D01*
G75*
G02*
X94380000Y-110214000I140000J0D01*
G01*
X94660000Y-110214000D01*
G75*
G02*
X94800000Y-110354000I0J-140000D01*
G01*
G37*
G04 #@! TD.AperFunction*
G04 #@! TA.AperFunction,SMDPad,CuDef*
G36*
G01*
X95760000Y-110354000D02*
X95760000Y-110694000D01*
G75*
G02*
X95620000Y-110834000I-140000J0D01*
G01*
X95340000Y-110834000D01*
G75*
G02*
X95200000Y-110694000I0J140000D01*
G01*
X95200000Y-110354000D01*
G75*
G02*
X95340000Y-110214000I140000J0D01*
G01*
X95620000Y-110214000D01*
G75*
G02*
X95760000Y-110354000I0J-140000D01*
G01*
G37*
G04 #@! TD.AperFunction*
G04 #@! TA.AperFunction,SMDPad,CuDef*
G36*
G01*
X95760000Y-111604000D02*
X95760000Y-111944000D01*
G75*
G02*
X95620000Y-112084000I-140000J0D01*
G01*
X95340000Y-112084000D01*
G75*
G02*
X95200000Y-111944000I0J140000D01*
G01*
X95200000Y-111604000D01*
G75*
G02*
X95340000Y-111464000I140000J0D01*
G01*
X95620000Y-111464000D01*
G75*
G02*
X95760000Y-111604000I0J-140000D01*
G01*
G37*
G04 #@! TD.AperFunction*
G04 #@! TA.AperFunction,SMDPad,CuDef*
G36*
G01*
X94800000Y-111604000D02*
X94800000Y-111944000D01*
G75*
G02*
X94660000Y-112084000I-140000J0D01*
G01*
X94380000Y-112084000D01*
G75*
G02*
X94240000Y-111944000I0J140000D01*
G01*
X94240000Y-111604000D01*
G75*
G02*
X94380000Y-111464000I140000J0D01*
G01*
X94660000Y-111464000D01*
G75*
G02*
X94800000Y-111604000I0J-140000D01*
G01*
G37*
G04 #@! TD.AperFunction*
D14*
X84500000Y-120750000D03*
D13*
X84500000Y-115750000D03*
X115500000Y-121000000D03*
D14*
X115500000Y-116000000D03*
G04 #@! TA.AperFunction,SMDPad,CuDef*
G36*
G01*
X90582000Y-107693750D02*
X90582000Y-108206250D01*
G75*
G02*
X90363250Y-108425000I-218750J0D01*
G01*
X89925750Y-108425000D01*
G75*
G02*
X89707000Y-108206250I0J218750D01*
G01*
X89707000Y-107693750D01*
G75*
G02*
X89925750Y-107475000I218750J0D01*
G01*
X90363250Y-107475000D01*
G75*
G02*
X90582000Y-107693750I0J-218750D01*
G01*
G37*
G04 #@! TD.AperFunction*
G04 #@! TA.AperFunction,SMDPad,CuDef*
G36*
G01*
X92157000Y-107693750D02*
X92157000Y-108206250D01*
G75*
G02*
X91938250Y-108425000I-218750J0D01*
G01*
X91500750Y-108425000D01*
G75*
G02*
X91282000Y-108206250I0J218750D01*
G01*
X91282000Y-107693750D01*
G75*
G02*
X91500750Y-107475000I218750J0D01*
G01*
X91938250Y-107475000D01*
G75*
G02*
X92157000Y-107693750I0J-218750D01*
G01*
G37*
G04 #@! TD.AperFunction*
G04 #@! TA.AperFunction,SMDPad,CuDef*
G36*
G01*
X107995000Y-101348250D02*
X107995000Y-100835750D01*
G75*
G02*
X108213750Y-100617000I218750J0D01*
G01*
X108651250Y-100617000D01*
G75*
G02*
X108870000Y-100835750I0J-218750D01*
G01*
X108870000Y-101348250D01*
G75*
G02*
X108651250Y-101567000I-218750J0D01*
G01*
X108213750Y-101567000D01*
G75*
G02*
X107995000Y-101348250I0J218750D01*
G01*
G37*
G04 #@! TD.AperFunction*
G04 #@! TA.AperFunction,SMDPad,CuDef*
G36*
G01*
X109570000Y-101348250D02*
X109570000Y-100835750D01*
G75*
G02*
X109788750Y-100617000I218750J0D01*
G01*
X110226250Y-100617000D01*
G75*
G02*
X110445000Y-100835750I0J-218750D01*
G01*
X110445000Y-101348250D01*
G75*
G02*
X110226250Y-101567000I-218750J0D01*
G01*
X109788750Y-101567000D01*
G75*
G02*
X109570000Y-101348250I0J218750D01*
G01*
G37*
G04 #@! TD.AperFunction*
G04 #@! TA.AperFunction,SMDPad,CuDef*
G36*
G01*
X95459000Y-107693750D02*
X95459000Y-108206250D01*
G75*
G02*
X95240250Y-108425000I-218750J0D01*
G01*
X94802750Y-108425000D01*
G75*
G02*
X94584000Y-108206250I0J218750D01*
G01*
X94584000Y-107693750D01*
G75*
G02*
X94802750Y-107475000I218750J0D01*
G01*
X95240250Y-107475000D01*
G75*
G02*
X95459000Y-107693750I0J-218750D01*
G01*
G37*
G04 #@! TD.AperFunction*
G04 #@! TA.AperFunction,SMDPad,CuDef*
G36*
G01*
X93884000Y-107693750D02*
X93884000Y-108206250D01*
G75*
G02*
X93665250Y-108425000I-218750J0D01*
G01*
X93227750Y-108425000D01*
G75*
G02*
X93009000Y-108206250I0J218750D01*
G01*
X93009000Y-107693750D01*
G75*
G02*
X93227750Y-107475000I218750J0D01*
G01*
X93665250Y-107475000D01*
G75*
G02*
X93884000Y-107693750I0J-218750D01*
G01*
G37*
G04 #@! TD.AperFunction*
G04 #@! TA.AperFunction,SMDPad,CuDef*
G36*
G01*
X106268000Y-101348250D02*
X106268000Y-100835750D01*
G75*
G02*
X106486750Y-100617000I218750J0D01*
G01*
X106924250Y-100617000D01*
G75*
G02*
X107143000Y-100835750I0J-218750D01*
G01*
X107143000Y-101348250D01*
G75*
G02*
X106924250Y-101567000I-218750J0D01*
G01*
X106486750Y-101567000D01*
G75*
G02*
X106268000Y-101348250I0J218750D01*
G01*
G37*
G04 #@! TD.AperFunction*
G04 #@! TA.AperFunction,SMDPad,CuDef*
G36*
G01*
X104693000Y-101348250D02*
X104693000Y-100835750D01*
G75*
G02*
X104911750Y-100617000I218750J0D01*
G01*
X105349250Y-100617000D01*
G75*
G02*
X105568000Y-100835750I0J-218750D01*
G01*
X105568000Y-101348250D01*
G75*
G02*
X105349250Y-101567000I-218750J0D01*
G01*
X104911750Y-101567000D01*
G75*
G02*
X104693000Y-101348250I0J218750D01*
G01*
G37*
G04 #@! TD.AperFunction*
G04 #@! TA.AperFunction,SMDPad,CuDef*
G36*
G01*
X94584000Y-101348250D02*
X94584000Y-100835750D01*
G75*
G02*
X94802750Y-100617000I218750J0D01*
G01*
X95240250Y-100617000D01*
G75*
G02*
X95459000Y-100835750I0J-218750D01*
G01*
X95459000Y-101348250D01*
G75*
G02*
X95240250Y-101567000I-218750J0D01*
G01*
X94802750Y-101567000D01*
G75*
G02*
X94584000Y-101348250I0J218750D01*
G01*
G37*
G04 #@! TD.AperFunction*
G04 #@! TA.AperFunction,SMDPad,CuDef*
G36*
G01*
X93009000Y-101348250D02*
X93009000Y-100835750D01*
G75*
G02*
X93227750Y-100617000I218750J0D01*
G01*
X93665250Y-100617000D01*
G75*
G02*
X93884000Y-100835750I0J-218750D01*
G01*
X93884000Y-101348250D01*
G75*
G02*
X93665250Y-101567000I-218750J0D01*
G01*
X93227750Y-101567000D01*
G75*
G02*
X93009000Y-101348250I0J218750D01*
G01*
G37*
G04 #@! TD.AperFunction*
G04 #@! TA.AperFunction,SMDPad,CuDef*
G36*
G01*
X105568000Y-107693750D02*
X105568000Y-108206250D01*
G75*
G02*
X105349250Y-108425000I-218750J0D01*
G01*
X104911750Y-108425000D01*
G75*
G02*
X104693000Y-108206250I0J218750D01*
G01*
X104693000Y-107693750D01*
G75*
G02*
X104911750Y-107475000I218750J0D01*
G01*
X105349250Y-107475000D01*
G75*
G02*
X105568000Y-107693750I0J-218750D01*
G01*
G37*
G04 #@! TD.AperFunction*
G04 #@! TA.AperFunction,SMDPad,CuDef*
G36*
G01*
X107143000Y-107693750D02*
X107143000Y-108206250D01*
G75*
G02*
X106924250Y-108425000I-218750J0D01*
G01*
X106486750Y-108425000D01*
G75*
G02*
X106268000Y-108206250I0J218750D01*
G01*
X106268000Y-107693750D01*
G75*
G02*
X106486750Y-107475000I218750J0D01*
G01*
X106924250Y-107475000D01*
G75*
G02*
X107143000Y-107693750I0J-218750D01*
G01*
G37*
G04 #@! TD.AperFunction*
G04 #@! TA.AperFunction,SMDPad,CuDef*
G36*
G01*
X89707000Y-101348250D02*
X89707000Y-100835750D01*
G75*
G02*
X89925750Y-100617000I218750J0D01*
G01*
X90363250Y-100617000D01*
G75*
G02*
X90582000Y-100835750I0J-218750D01*
G01*
X90582000Y-101348250D01*
G75*
G02*
X90363250Y-101567000I-218750J0D01*
G01*
X89925750Y-101567000D01*
G75*
G02*
X89707000Y-101348250I0J218750D01*
G01*
G37*
G04 #@! TD.AperFunction*
G04 #@! TA.AperFunction,SMDPad,CuDef*
G36*
G01*
X91282000Y-101348250D02*
X91282000Y-100835750D01*
G75*
G02*
X91500750Y-100617000I218750J0D01*
G01*
X91938250Y-100617000D01*
G75*
G02*
X92157000Y-100835750I0J-218750D01*
G01*
X92157000Y-101348250D01*
G75*
G02*
X91938250Y-101567000I-218750J0D01*
G01*
X91500750Y-101567000D01*
G75*
G02*
X91282000Y-101348250I0J218750D01*
G01*
G37*
G04 #@! TD.AperFunction*
G04 #@! TA.AperFunction,SMDPad,CuDef*
G36*
G01*
X110445000Y-107693750D02*
X110445000Y-108206250D01*
G75*
G02*
X110226250Y-108425000I-218750J0D01*
G01*
X109788750Y-108425000D01*
G75*
G02*
X109570000Y-108206250I0J218750D01*
G01*
X109570000Y-107693750D01*
G75*
G02*
X109788750Y-107475000I218750J0D01*
G01*
X110226250Y-107475000D01*
G75*
G02*
X110445000Y-107693750I0J-218750D01*
G01*
G37*
G04 #@! TD.AperFunction*
G04 #@! TA.AperFunction,SMDPad,CuDef*
G36*
G01*
X108870000Y-107693750D02*
X108870000Y-108206250D01*
G75*
G02*
X108651250Y-108425000I-218750J0D01*
G01*
X108213750Y-108425000D01*
G75*
G02*
X107995000Y-108206250I0J218750D01*
G01*
X107995000Y-107693750D01*
G75*
G02*
X108213750Y-107475000I218750J0D01*
G01*
X108651250Y-107475000D01*
G75*
G02*
X108870000Y-107693750I0J-218750D01*
G01*
G37*
G04 #@! TD.AperFunction*
G04 #@! TA.AperFunction,SMDPad,CuDef*
G36*
G01*
X107995000Y-92458250D02*
X107995000Y-91945750D01*
G75*
G02*
X108213750Y-91727000I218750J0D01*
G01*
X108651250Y-91727000D01*
G75*
G02*
X108870000Y-91945750I0J-218750D01*
G01*
X108870000Y-92458250D01*
G75*
G02*
X108651250Y-92677000I-218750J0D01*
G01*
X108213750Y-92677000D01*
G75*
G02*
X107995000Y-92458250I0J218750D01*
G01*
G37*
G04 #@! TD.AperFunction*
G04 #@! TA.AperFunction,SMDPad,CuDef*
G36*
G01*
X109570000Y-92458250D02*
X109570000Y-91945750D01*
G75*
G02*
X109788750Y-91727000I218750J0D01*
G01*
X110226250Y-91727000D01*
G75*
G02*
X110445000Y-91945750I0J-218750D01*
G01*
X110445000Y-92458250D01*
G75*
G02*
X110226250Y-92677000I-218750J0D01*
G01*
X109788750Y-92677000D01*
G75*
G02*
X109570000Y-92458250I0J218750D01*
G01*
G37*
G04 #@! TD.AperFunction*
G04 #@! TA.AperFunction,SMDPad,CuDef*
G36*
G01*
X90582000Y-98549750D02*
X90582000Y-99062250D01*
G75*
G02*
X90363250Y-99281000I-218750J0D01*
G01*
X89925750Y-99281000D01*
G75*
G02*
X89707000Y-99062250I0J218750D01*
G01*
X89707000Y-98549750D01*
G75*
G02*
X89925750Y-98331000I218750J0D01*
G01*
X90363250Y-98331000D01*
G75*
G02*
X90582000Y-98549750I0J-218750D01*
G01*
G37*
G04 #@! TD.AperFunction*
G04 #@! TA.AperFunction,SMDPad,CuDef*
G36*
G01*
X92157000Y-98549750D02*
X92157000Y-99062250D01*
G75*
G02*
X91938250Y-99281000I-218750J0D01*
G01*
X91500750Y-99281000D01*
G75*
G02*
X91282000Y-99062250I0J218750D01*
G01*
X91282000Y-98549750D01*
G75*
G02*
X91500750Y-98331000I218750J0D01*
G01*
X91938250Y-98331000D01*
G75*
G02*
X92157000Y-98549750I0J-218750D01*
G01*
G37*
G04 #@! TD.AperFunction*
G04 #@! TA.AperFunction,SMDPad,CuDef*
G36*
G01*
X106268000Y-92458250D02*
X106268000Y-91945750D01*
G75*
G02*
X106486750Y-91727000I218750J0D01*
G01*
X106924250Y-91727000D01*
G75*
G02*
X107143000Y-91945750I0J-218750D01*
G01*
X107143000Y-92458250D01*
G75*
G02*
X106924250Y-92677000I-218750J0D01*
G01*
X106486750Y-92677000D01*
G75*
G02*
X106268000Y-92458250I0J218750D01*
G01*
G37*
G04 #@! TD.AperFunction*
G04 #@! TA.AperFunction,SMDPad,CuDef*
G36*
G01*
X104693000Y-92458250D02*
X104693000Y-91945750D01*
G75*
G02*
X104911750Y-91727000I218750J0D01*
G01*
X105349250Y-91727000D01*
G75*
G02*
X105568000Y-91945750I0J-218750D01*
G01*
X105568000Y-92458250D01*
G75*
G02*
X105349250Y-92677000I-218750J0D01*
G01*
X104911750Y-92677000D01*
G75*
G02*
X104693000Y-92458250I0J218750D01*
G01*
G37*
G04 #@! TD.AperFunction*
G04 #@! TA.AperFunction,SMDPad,CuDef*
G36*
G01*
X95459000Y-98549750D02*
X95459000Y-99062250D01*
G75*
G02*
X95240250Y-99281000I-218750J0D01*
G01*
X94802750Y-99281000D01*
G75*
G02*
X94584000Y-99062250I0J218750D01*
G01*
X94584000Y-98549750D01*
G75*
G02*
X94802750Y-98331000I218750J0D01*
G01*
X95240250Y-98331000D01*
G75*
G02*
X95459000Y-98549750I0J-218750D01*
G01*
G37*
G04 #@! TD.AperFunction*
G04 #@! TA.AperFunction,SMDPad,CuDef*
G36*
G01*
X93884000Y-98549750D02*
X93884000Y-99062250D01*
G75*
G02*
X93665250Y-99281000I-218750J0D01*
G01*
X93227750Y-99281000D01*
G75*
G02*
X93009000Y-99062250I0J218750D01*
G01*
X93009000Y-98549750D01*
G75*
G02*
X93227750Y-98331000I218750J0D01*
G01*
X93665250Y-98331000D01*
G75*
G02*
X93884000Y-98549750I0J-218750D01*
G01*
G37*
G04 #@! TD.AperFunction*
G04 #@! TA.AperFunction,SMDPad,CuDef*
G36*
G01*
X107143000Y-98549750D02*
X107143000Y-99062250D01*
G75*
G02*
X106924250Y-99281000I-218750J0D01*
G01*
X106486750Y-99281000D01*
G75*
G02*
X106268000Y-99062250I0J218750D01*
G01*
X106268000Y-98549750D01*
G75*
G02*
X106486750Y-98331000I218750J0D01*
G01*
X106924250Y-98331000D01*
G75*
G02*
X107143000Y-98549750I0J-218750D01*
G01*
G37*
G04 #@! TD.AperFunction*
G04 #@! TA.AperFunction,SMDPad,CuDef*
G36*
G01*
X105568000Y-98549750D02*
X105568000Y-99062250D01*
G75*
G02*
X105349250Y-99281000I-218750J0D01*
G01*
X104911750Y-99281000D01*
G75*
G02*
X104693000Y-99062250I0J218750D01*
G01*
X104693000Y-98549750D01*
G75*
G02*
X104911750Y-98331000I218750J0D01*
G01*
X105349250Y-98331000D01*
G75*
G02*
X105568000Y-98549750I0J-218750D01*
G01*
G37*
G04 #@! TD.AperFunction*
G04 #@! TA.AperFunction,SMDPad,CuDef*
G36*
G01*
X94584000Y-92458250D02*
X94584000Y-91945750D01*
G75*
G02*
X94802750Y-91727000I218750J0D01*
G01*
X95240250Y-91727000D01*
G75*
G02*
X95459000Y-91945750I0J-218750D01*
G01*
X95459000Y-92458250D01*
G75*
G02*
X95240250Y-92677000I-218750J0D01*
G01*
X94802750Y-92677000D01*
G75*
G02*
X94584000Y-92458250I0J218750D01*
G01*
G37*
G04 #@! TD.AperFunction*
G04 #@! TA.AperFunction,SMDPad,CuDef*
G36*
G01*
X93009000Y-92458250D02*
X93009000Y-91945750D01*
G75*
G02*
X93227750Y-91727000I218750J0D01*
G01*
X93665250Y-91727000D01*
G75*
G02*
X93884000Y-91945750I0J-218750D01*
G01*
X93884000Y-92458250D01*
G75*
G02*
X93665250Y-92677000I-218750J0D01*
G01*
X93227750Y-92677000D01*
G75*
G02*
X93009000Y-92458250I0J218750D01*
G01*
G37*
G04 #@! TD.AperFunction*
G04 #@! TA.AperFunction,SMDPad,CuDef*
G36*
G01*
X108870000Y-98549750D02*
X108870000Y-99062250D01*
G75*
G02*
X108651250Y-99281000I-218750J0D01*
G01*
X108213750Y-99281000D01*
G75*
G02*
X107995000Y-99062250I0J218750D01*
G01*
X107995000Y-98549750D01*
G75*
G02*
X108213750Y-98331000I218750J0D01*
G01*
X108651250Y-98331000D01*
G75*
G02*
X108870000Y-98549750I0J-218750D01*
G01*
G37*
G04 #@! TD.AperFunction*
G04 #@! TA.AperFunction,SMDPad,CuDef*
G36*
G01*
X110445000Y-98549750D02*
X110445000Y-99062250D01*
G75*
G02*
X110226250Y-99281000I-218750J0D01*
G01*
X109788750Y-99281000D01*
G75*
G02*
X109570000Y-99062250I0J218750D01*
G01*
X109570000Y-98549750D01*
G75*
G02*
X109788750Y-98331000I218750J0D01*
G01*
X110226250Y-98331000D01*
G75*
G02*
X110445000Y-98549750I0J-218750D01*
G01*
G37*
G04 #@! TD.AperFunction*
G04 #@! TA.AperFunction,SMDPad,CuDef*
G36*
G01*
X89707000Y-92458250D02*
X89707000Y-91945750D01*
G75*
G02*
X89925750Y-91727000I218750J0D01*
G01*
X90363250Y-91727000D01*
G75*
G02*
X90582000Y-91945750I0J-218750D01*
G01*
X90582000Y-92458250D01*
G75*
G02*
X90363250Y-92677000I-218750J0D01*
G01*
X89925750Y-92677000D01*
G75*
G02*
X89707000Y-92458250I0J218750D01*
G01*
G37*
G04 #@! TD.AperFunction*
G04 #@! TA.AperFunction,SMDPad,CuDef*
G36*
G01*
X91282000Y-92458250D02*
X91282000Y-91945750D01*
G75*
G02*
X91500750Y-91727000I218750J0D01*
G01*
X91938250Y-91727000D01*
G75*
G02*
X92157000Y-91945750I0J-218750D01*
G01*
X92157000Y-92458250D01*
G75*
G02*
X91938250Y-92677000I-218750J0D01*
G01*
X91500750Y-92677000D01*
G75*
G02*
X91282000Y-92458250I0J218750D01*
G01*
G37*
G04 #@! TD.AperFunction*
G04 #@! TA.AperFunction,SMDPad,CuDef*
D20*
G36*
X88855000Y-100826000D02*
G01*
X87705000Y-100826000D01*
X88205000Y-100076000D01*
X87705000Y-99326000D01*
X88855000Y-99326000D01*
X88855000Y-100826000D01*
G37*
G04 #@! TD.AperFunction*
G04 #@! TA.AperFunction,SMDPad,CuDef*
G36*
X87905000Y-100076000D02*
G01*
X87405000Y-100826000D01*
X86405000Y-100826000D01*
X86405000Y-99326000D01*
X87405000Y-99326000D01*
X87905000Y-100076000D01*
G37*
G04 #@! TD.AperFunction*
G04 #@! TA.AperFunction,SMDPad,CuDef*
G36*
X111297000Y-108216000D02*
G01*
X112447000Y-108216000D01*
X111947000Y-108966000D01*
X112447000Y-109716000D01*
X111297000Y-109716000D01*
X111297000Y-108216000D01*
G37*
G04 #@! TD.AperFunction*
G04 #@! TA.AperFunction,SMDPad,CuDef*
G36*
X112247000Y-108966000D02*
G01*
X112747000Y-108216000D01*
X113747000Y-108216000D01*
X113747000Y-109716000D01*
X112747000Y-109716000D01*
X112247000Y-108966000D01*
G37*
G04 #@! TD.AperFunction*
G04 #@! TA.AperFunction,SMDPad,CuDef*
G36*
X112247000Y-100076000D02*
G01*
X112747000Y-99326000D01*
X113747000Y-99326000D01*
X113747000Y-100826000D01*
X112747000Y-100826000D01*
X112247000Y-100076000D01*
G37*
G04 #@! TD.AperFunction*
G04 #@! TA.AperFunction,SMDPad,CuDef*
G36*
X111297000Y-99326000D02*
G01*
X112447000Y-99326000D01*
X111947000Y-100076000D01*
X112447000Y-100826000D01*
X111297000Y-100826000D01*
X111297000Y-99326000D01*
G37*
G04 #@! TD.AperFunction*
G04 #@! TA.AperFunction,SMDPad,CuDef*
G36*
X87905000Y-90932000D02*
G01*
X87405000Y-91682000D01*
X86405000Y-91682000D01*
X86405000Y-90182000D01*
X87405000Y-90182000D01*
X87905000Y-90932000D01*
G37*
G04 #@! TD.AperFunction*
G04 #@! TA.AperFunction,SMDPad,CuDef*
G36*
X88855000Y-91682000D02*
G01*
X87705000Y-91682000D01*
X88205000Y-90932000D01*
X87705000Y-90182000D01*
X88855000Y-90182000D01*
X88855000Y-91682000D01*
G37*
G04 #@! TD.AperFunction*
D21*
X95726000Y-82296000D03*
X91726000Y-82296000D03*
D22*
X99060000Y-78626000D03*
X99060000Y-83426000D03*
D23*
X102356000Y-86224000D03*
X97796000Y-86224000D03*
D24*
X100076000Y-92524000D03*
D25*
X112776000Y-97790000D03*
X112776000Y-106934000D03*
X110744000Y-103378000D03*
X110744000Y-94488000D03*
X89408000Y-105664000D03*
X89408000Y-96520000D03*
X87376000Y-92964000D03*
X87630000Y-102108000D03*
X91525000Y-96750000D03*
X91525000Y-105750000D03*
X108475000Y-103250000D03*
X108475000Y-94250000D03*
X92549990Y-109125010D03*
X105230001Y-109125010D03*
X96162500Y-78500000D03*
X98087542Y-112627458D03*
X100728001Y-87774001D03*
X85598000Y-102614000D03*
X101432000Y-119040000D03*
X114554000Y-104392000D03*
X102975000Y-120310000D03*
X114554000Y-95502000D03*
X98025000Y-120310000D03*
X96000000Y-114500000D03*
X85598000Y-93470000D03*
X96000000Y-113000000D03*
X103025000Y-82635000D03*
X101500000Y-116000000D03*
X103025000Y-83905000D03*
X101500000Y-114500000D03*
X103025000Y-80095000D03*
D26*
X96162500Y-78500000D02*
X96162500Y-79287500D01*
D27*
X98000000Y-112665000D02*
X98025000Y-112690000D01*
X105975000Y-103250000D02*
X107525000Y-103250000D01*
X105025000Y-103250000D02*
X105025000Y-105750000D01*
X105975000Y-105750000D02*
X107525000Y-105750000D01*
X91525000Y-97425500D02*
X90144500Y-98806000D01*
X91525000Y-96750000D02*
X91525000Y-97425500D01*
X91525000Y-106569500D02*
X90144500Y-107950000D01*
X91525000Y-105750000D02*
X91525000Y-106569500D01*
X108475000Y-93734500D02*
X110007500Y-92202000D01*
X108475000Y-94250000D02*
X108475000Y-93734500D01*
X108475000Y-102624500D02*
X110007500Y-101092000D01*
X108475000Y-103250000D02*
X108475000Y-102624500D01*
D26*
X90144500Y-108149326D02*
X90144500Y-107950000D01*
X92549990Y-109125010D02*
X105230001Y-109125010D01*
X98934000Y-78500000D02*
X99060000Y-78626000D01*
X96162500Y-78500000D02*
X98934000Y-78500000D01*
X101110001Y-84978001D02*
X102356000Y-86224000D01*
X101110001Y-80676001D02*
X101110001Y-84978001D01*
X99060000Y-78626000D02*
X101110001Y-80676001D01*
X102728000Y-85852000D02*
X102356000Y-86224000D01*
X104460000Y-85852000D02*
X102728000Y-85852000D01*
D27*
X95500000Y-110524000D02*
X95500000Y-111024000D01*
X96591000Y-111256000D02*
X95500000Y-111256000D01*
X98025000Y-112690000D02*
X96591000Y-111256000D01*
X95500000Y-111256000D02*
X95500000Y-111774000D01*
X95500000Y-111024000D02*
X95500000Y-111256000D01*
X100581999Y-120901999D02*
X102870000Y-123190000D01*
X100581999Y-114271999D02*
X100581999Y-120901999D01*
X99000000Y-112690000D02*
X100581999Y-114271999D01*
X98025000Y-112690000D02*
X99000000Y-112690000D01*
X95504000Y-111252000D02*
X95500000Y-111256000D01*
D26*
X99060000Y-84960000D02*
X97796000Y-86224000D01*
X99060000Y-83426000D02*
X99060000Y-84960000D01*
D27*
X97796000Y-86224000D02*
X99346001Y-87774001D01*
D26*
X97744000Y-86172000D02*
X97796000Y-86224000D01*
X95250000Y-86172000D02*
X97744000Y-86172000D01*
D27*
X99346001Y-87774001D02*
X100728001Y-87774001D01*
X105410000Y-86616966D02*
X104252965Y-87774001D01*
X105410000Y-81685000D02*
X105410000Y-86616966D01*
X107000000Y-80095000D02*
X105410000Y-81685000D01*
X104252965Y-87774001D02*
X100728001Y-87774001D01*
X107975000Y-80095000D02*
X107000000Y-80095000D01*
X94025000Y-105750000D02*
X92475000Y-105750000D01*
X94975000Y-103250000D02*
X94975000Y-105750000D01*
X92475000Y-103250000D02*
X94025000Y-103250000D01*
X107525000Y-94250000D02*
X105975000Y-94250000D01*
X92475000Y-96750000D02*
X94025000Y-96750000D01*
X105025000Y-94250000D02*
X105025000Y-96750000D01*
X94975000Y-96750000D02*
X94975000Y-94250000D01*
X105975000Y-96750000D02*
X107525000Y-96750000D01*
X94025000Y-94250000D02*
X92475000Y-94250000D01*
D26*
X76949999Y-108199999D02*
X84500000Y-115750000D01*
X76949999Y-86550001D02*
X76949999Y-108199999D01*
X84500000Y-79000000D02*
X76949999Y-86550001D01*
X88684000Y-79000000D02*
X91980000Y-82296000D01*
X84500000Y-79000000D02*
X88684000Y-79000000D01*
D27*
X105410000Y-119230000D02*
X105410000Y-123190000D01*
X103950000Y-117770000D02*
X105410000Y-119230000D01*
X102975000Y-117770000D02*
X103950000Y-117770000D01*
X94710000Y-119040000D02*
X94500000Y-119250000D01*
X98025000Y-119040000D02*
X94710000Y-119040000D01*
X105460000Y-113960000D02*
X105500000Y-114000000D01*
X102975000Y-113960000D02*
X105460000Y-113960000D01*
X94750000Y-116500000D02*
X94500000Y-116250000D01*
X98025000Y-116500000D02*
X94750000Y-116500000D01*
X92520000Y-117770000D02*
X92500000Y-117750000D01*
X98025000Y-117770000D02*
X92520000Y-117770000D01*
X113635000Y-81365000D02*
X115500000Y-79500000D01*
X107975000Y-81365000D02*
X113635000Y-81365000D01*
X122800001Y-108699999D02*
X115500000Y-116000000D01*
X122800001Y-86800001D02*
X122800001Y-108699999D01*
X115500000Y-79500000D02*
X122800001Y-86800001D01*
X113635000Y-82635000D02*
X115500000Y-84500000D01*
X107975000Y-82635000D02*
X113635000Y-82635000D01*
X102975000Y-119040000D02*
X101432000Y-119040000D01*
X103950000Y-120310000D02*
X102975000Y-120310000D01*
X96730000Y-115230000D02*
X96000000Y-114500000D01*
X98025000Y-115230000D02*
X96730000Y-115230000D01*
X96960000Y-113960000D02*
X96000000Y-113000000D01*
X98025000Y-113960000D02*
X96960000Y-113960000D01*
X103025000Y-82635000D02*
X103025000Y-81365000D01*
X102000000Y-116500000D02*
X101500000Y-116000000D01*
X102975000Y-116500000D02*
X102000000Y-116500000D01*
X102230000Y-115230000D02*
X101500000Y-114500000D01*
X102975000Y-115230000D02*
X102230000Y-115230000D01*
X90275000Y-104500000D02*
X91525000Y-103250000D01*
X89350000Y-104500000D02*
X90275000Y-104500000D01*
X89350000Y-104500000D02*
X87150000Y-104500000D01*
X87150000Y-104500000D02*
X87150000Y-105450000D01*
X85316670Y-104500000D02*
X87150000Y-104500000D01*
X84747999Y-103931329D02*
X85316670Y-104500000D01*
X84747999Y-102233001D02*
X84747999Y-103931329D01*
X86905000Y-100076000D02*
X84747999Y-102233001D01*
X109725000Y-104500000D02*
X110650000Y-104500000D01*
X108475000Y-105750000D02*
X109725000Y-104500000D01*
X110650000Y-104500000D02*
X112850000Y-104500000D01*
X112850000Y-104500000D02*
X112850000Y-103550000D01*
X114962001Y-103541999D02*
X112858001Y-103541999D01*
X112858001Y-103541999D02*
X112850000Y-103550000D01*
X115404001Y-103983999D02*
X114962001Y-103541999D01*
X115404001Y-106808999D02*
X115404001Y-103983999D01*
X113247000Y-108966000D02*
X115404001Y-106808999D01*
X109725000Y-95500000D02*
X110650000Y-95500000D01*
X108475000Y-96750000D02*
X109725000Y-95500000D01*
X110650000Y-95500000D02*
X112850000Y-95500000D01*
X112850000Y-95500000D02*
X112850000Y-94550000D01*
X114860002Y-94550000D02*
X112850000Y-94550000D01*
X115404001Y-95093999D02*
X114860002Y-94550000D01*
X115404001Y-97918999D02*
X115404001Y-95093999D01*
X113247000Y-100076000D02*
X115404001Y-97918999D01*
X87150000Y-96450000D02*
X87150000Y-95500000D01*
X87150000Y-95500000D02*
X89350000Y-95500000D01*
X90275000Y-95500000D02*
X91525000Y-94250000D01*
X89350000Y-95500000D02*
X90275000Y-95500000D01*
X85460670Y-95500000D02*
X87150000Y-95500000D01*
X84747999Y-93089001D02*
X84747999Y-94787329D01*
X84747999Y-94787329D02*
X85460670Y-95500000D01*
X86905000Y-90932000D02*
X84747999Y-93089001D01*
X89260000Y-103460000D02*
X89350000Y-103550000D01*
X89350000Y-103550000D02*
X89350000Y-102956000D01*
X89350000Y-102702000D02*
X88648000Y-102000000D01*
X89350000Y-103550000D02*
X89350000Y-102702000D01*
X110740000Y-105540000D02*
X110650000Y-105450000D01*
X110650000Y-105892000D02*
X111758000Y-107000000D01*
X110650000Y-105450000D02*
X110650000Y-105892000D01*
X87090000Y-103490000D02*
X87150000Y-103550000D01*
X87066000Y-103634000D02*
X87150000Y-103550000D01*
X85598000Y-103634000D02*
X87066000Y-103634000D01*
X112890000Y-105490000D02*
X112850000Y-105450000D01*
X112888000Y-105412000D02*
X112850000Y-105450000D01*
X114554000Y-105412000D02*
X112888000Y-105412000D01*
X110740000Y-96540000D02*
X110650000Y-96450000D01*
X110650000Y-96892000D02*
X111758000Y-98000000D01*
X110650000Y-96450000D02*
X110650000Y-96892000D01*
X89260000Y-94460000D02*
X89350000Y-94550000D01*
X89350000Y-93918000D02*
X88396000Y-92964000D01*
X89350000Y-94550000D02*
X89350000Y-93918000D01*
X112910000Y-96510000D02*
X112850000Y-96450000D01*
X114500000Y-96510000D02*
X112910000Y-96510000D01*
X87090000Y-94490000D02*
X87150000Y-94550000D01*
X85500000Y-94490000D02*
X87090000Y-94490000D01*
X91719500Y-107950000D02*
X93446500Y-107950000D01*
X106705500Y-101092000D02*
X108432500Y-101092000D01*
X96210010Y-106761490D02*
X95021500Y-107950000D01*
X96210010Y-101843010D02*
X96210010Y-106761490D01*
X95459000Y-101092000D02*
X96210010Y-101843010D01*
X95021500Y-101092000D02*
X95459000Y-101092000D01*
X104249999Y-101972501D02*
X105130500Y-101092000D01*
X104249999Y-107069499D02*
X104249999Y-101972501D01*
X105130500Y-107950000D02*
X104249999Y-107069499D01*
X91719500Y-101092000D02*
X93446500Y-101092000D01*
X108432500Y-107950000D02*
X106705500Y-107950000D01*
X89128500Y-100076000D02*
X90144500Y-101092000D01*
X88355000Y-100076000D02*
X89128500Y-100076000D01*
X111023500Y-108966000D02*
X110007500Y-107950000D01*
X111797000Y-108966000D02*
X111023500Y-108966000D01*
X108432500Y-92202000D02*
X106705500Y-92202000D01*
X91719500Y-98806000D02*
X93446500Y-98806000D01*
X104249999Y-97925499D02*
X105130500Y-98806000D01*
X104249999Y-93082501D02*
X104249999Y-97925499D01*
X105130500Y-92202000D02*
X104249999Y-93082501D01*
X95750001Y-92930501D02*
X95750001Y-98077499D01*
X95750001Y-98077499D02*
X95021500Y-98806000D01*
X95021500Y-92202000D02*
X95750001Y-92930501D01*
X106705500Y-98806000D02*
X108432500Y-98806000D01*
X91719500Y-92202000D02*
X93446500Y-92202000D01*
X111277500Y-100076000D02*
X110007500Y-98806000D01*
X111797000Y-100076000D02*
X111277500Y-100076000D01*
X88874500Y-90932000D02*
X90144500Y-92202000D01*
X88355000Y-90932000D02*
X88874500Y-90932000D01*
D26*
X92184000Y-78500000D02*
X95980000Y-82296000D01*
X91837500Y-78500000D02*
X92184000Y-78500000D01*
D28*
X124340000Y-124340000D02*
X106360107Y-124340000D01*
X106563475Y-124136632D01*
X106725990Y-123893411D01*
X106837932Y-123623158D01*
X106895000Y-123336260D01*
X106895000Y-123043740D01*
X106837932Y-122756842D01*
X106725990Y-122486589D01*
X106563475Y-122243368D01*
X106356632Y-122036525D01*
X106295000Y-121995344D01*
X106295000Y-120250000D01*
X113361928Y-120250000D01*
X113361928Y-121750000D01*
X113374188Y-121874482D01*
X113410498Y-121994180D01*
X113469463Y-122104494D01*
X113548815Y-122201185D01*
X113645506Y-122280537D01*
X113755820Y-122339502D01*
X113875518Y-122375812D01*
X114000000Y-122388072D01*
X117000000Y-122388072D01*
X117124482Y-122375812D01*
X117244180Y-122339502D01*
X117354494Y-122280537D01*
X117451185Y-122201185D01*
X117530537Y-122104494D01*
X117589502Y-121994180D01*
X117625812Y-121874482D01*
X117638072Y-121750000D01*
X117638072Y-120250000D01*
X117625812Y-120125518D01*
X117589502Y-120005820D01*
X117530537Y-119895506D01*
X117451185Y-119798815D01*
X117354494Y-119719463D01*
X117244180Y-119660498D01*
X117124482Y-119624188D01*
X117000000Y-119611928D01*
X114000000Y-119611928D01*
X113875518Y-119624188D01*
X113755820Y-119660498D01*
X113645506Y-119719463D01*
X113548815Y-119798815D01*
X113469463Y-119895506D01*
X113410498Y-120005820D01*
X113374188Y-120125518D01*
X113361928Y-120250000D01*
X106295000Y-120250000D01*
X106295000Y-119273469D01*
X106299281Y-119230000D01*
X106295000Y-119186531D01*
X106295000Y-119186523D01*
X106282195Y-119056510D01*
X106231589Y-118889687D01*
X106149411Y-118735941D01*
X106114112Y-118692929D01*
X106066532Y-118634953D01*
X106066530Y-118634951D01*
X106038817Y-118601183D01*
X106005050Y-118573471D01*
X104606532Y-117174954D01*
X104578817Y-117141183D01*
X104473110Y-117054431D01*
X104528084Y-116951582D01*
X104572929Y-116803745D01*
X104588072Y-116650000D01*
X104588072Y-116350000D01*
X104572929Y-116196255D01*
X104528084Y-116048418D01*
X104455258Y-115912171D01*
X104416546Y-115865000D01*
X104455258Y-115817829D01*
X104528084Y-115681582D01*
X104572929Y-115533745D01*
X104588072Y-115380000D01*
X104588072Y-115080000D01*
X104572929Y-114926255D01*
X104548281Y-114845000D01*
X104739868Y-114845000D01*
X104776480Y-114881612D01*
X104962376Y-115005824D01*
X105168933Y-115091383D01*
X105388212Y-115135000D01*
X105611788Y-115135000D01*
X105831067Y-115091383D01*
X106037624Y-115005824D01*
X106223520Y-114881612D01*
X106381612Y-114723520D01*
X106505824Y-114537624D01*
X106591383Y-114331067D01*
X106635000Y-114111788D01*
X106635000Y-113888212D01*
X106591383Y-113668933D01*
X106505824Y-113462376D01*
X106381612Y-113276480D01*
X106223520Y-113118388D01*
X106037624Y-112994176D01*
X105831067Y-112908617D01*
X105611788Y-112865000D01*
X105388212Y-112865000D01*
X105168933Y-112908617D01*
X104962376Y-112994176D01*
X104841415Y-113075000D01*
X104078783Y-113075000D01*
X103953745Y-113037071D01*
X103800000Y-113021928D01*
X102150000Y-113021928D01*
X101996255Y-113037071D01*
X101848418Y-113081916D01*
X101712171Y-113154742D01*
X101592749Y-113252749D01*
X101494742Y-113372171D01*
X101445124Y-113465000D01*
X101398061Y-113465000D01*
X101198102Y-113504774D01*
X101104942Y-113543363D01*
X99656532Y-112094954D01*
X99628817Y-112061183D01*
X99494059Y-111950589D01*
X99340313Y-111868411D01*
X99173490Y-111817805D01*
X99160139Y-111816490D01*
X99151582Y-111811916D01*
X99003745Y-111767071D01*
X98850000Y-111751928D01*
X98640169Y-111751928D01*
X98577798Y-111710253D01*
X98389440Y-111632232D01*
X98189481Y-111592458D01*
X98179037Y-111592458D01*
X97247532Y-110660954D01*
X97219817Y-110627183D01*
X97085059Y-110516589D01*
X96931313Y-110434411D01*
X96764490Y-110383805D01*
X96634477Y-110371000D01*
X96634469Y-110371000D01*
X96591000Y-110366719D01*
X96547531Y-110371000D01*
X96398072Y-110371000D01*
X96398072Y-110354000D01*
X96388815Y-110260010D01*
X105285753Y-110260010D01*
X105452500Y-110243587D01*
X105666448Y-110178686D01*
X105863624Y-110073294D01*
X106036450Y-109931459D01*
X106178285Y-109758633D01*
X106283677Y-109561457D01*
X106348578Y-109347509D01*
X106370492Y-109125010D01*
X106363193Y-109050902D01*
X106486750Y-109063072D01*
X106924250Y-109063072D01*
X107091408Y-109046608D01*
X107252142Y-108997850D01*
X107400275Y-108918671D01*
X107502229Y-108835000D01*
X107635771Y-108835000D01*
X107737725Y-108918671D01*
X107885858Y-108997850D01*
X108046592Y-109046608D01*
X108213750Y-109063072D01*
X108651250Y-109063072D01*
X108818408Y-109046608D01*
X108979142Y-108997850D01*
X109127275Y-108918671D01*
X109220000Y-108842574D01*
X109312725Y-108918671D01*
X109460858Y-108997850D01*
X109621592Y-109046608D01*
X109788750Y-109063072D01*
X109868994Y-109063072D01*
X110366970Y-109561049D01*
X110394683Y-109594817D01*
X110428451Y-109622530D01*
X110428453Y-109622532D01*
X110464122Y-109651805D01*
X110529441Y-109705411D01*
X110665022Y-109777880D01*
X110671188Y-109840482D01*
X110707498Y-109960180D01*
X110766463Y-110070494D01*
X110845815Y-110167185D01*
X110942506Y-110246537D01*
X111052820Y-110305502D01*
X111172518Y-110341812D01*
X111297000Y-110354072D01*
X112447000Y-110354072D01*
X112570827Y-110341941D01*
X112596935Y-110334051D01*
X112622518Y-110341812D01*
X112747000Y-110354072D01*
X113747000Y-110354072D01*
X113871482Y-110341812D01*
X113991180Y-110305502D01*
X114101494Y-110246537D01*
X114198185Y-110167185D01*
X114277537Y-110070494D01*
X114336502Y-109960180D01*
X114372812Y-109840482D01*
X114385072Y-109716000D01*
X114385072Y-109079506D01*
X115999051Y-107465528D01*
X116032818Y-107437816D01*
X116071167Y-107391089D01*
X116132481Y-107316377D01*
X116143412Y-107303058D01*
X116225590Y-107149312D01*
X116276196Y-106982489D01*
X116289001Y-106852476D01*
X116289001Y-106852466D01*
X116293282Y-106809000D01*
X116289001Y-106765533D01*
X116289001Y-104027464D01*
X116293282Y-103983998D01*
X116289001Y-103940532D01*
X116289001Y-103940522D01*
X116276196Y-103810509D01*
X116225590Y-103643686D01*
X116143412Y-103489940D01*
X116032818Y-103355182D01*
X115999045Y-103327465D01*
X115618535Y-102946955D01*
X115590818Y-102913182D01*
X115456060Y-102802588D01*
X115302314Y-102720410D01*
X115135491Y-102669804D01*
X115005478Y-102656999D01*
X115005470Y-102656999D01*
X114962001Y-102652718D01*
X114918532Y-102656999D01*
X113664405Y-102656999D01*
X113624180Y-102635498D01*
X113504482Y-102599188D01*
X113380000Y-102586928D01*
X112320000Y-102586928D01*
X112195518Y-102599188D01*
X112075820Y-102635498D01*
X111965506Y-102694463D01*
X111868815Y-102773815D01*
X111789463Y-102870506D01*
X111730498Y-102980820D01*
X111694188Y-103100518D01*
X111681928Y-103225000D01*
X111681928Y-103615000D01*
X111479373Y-103615000D01*
X111424180Y-103585498D01*
X111304482Y-103549188D01*
X111180000Y-103536928D01*
X110120000Y-103536928D01*
X109995518Y-103549188D01*
X109875820Y-103585498D01*
X109820627Y-103615000D01*
X109768469Y-103615000D01*
X109725000Y-103610719D01*
X109681531Y-103615000D01*
X109681523Y-103615000D01*
X109566306Y-103626348D01*
X109551509Y-103627805D01*
X109532769Y-103633490D01*
X109438072Y-103662217D01*
X109438072Y-103629524D01*
X109470226Y-103551898D01*
X109510000Y-103351939D01*
X109510000Y-103148061D01*
X109470226Y-102948102D01*
X109450529Y-102900549D01*
X110146007Y-102205072D01*
X110226250Y-102205072D01*
X110393408Y-102188608D01*
X110554142Y-102139850D01*
X110702275Y-102060671D01*
X110832115Y-101954115D01*
X110938671Y-101824275D01*
X111017850Y-101676142D01*
X111066608Y-101515408D01*
X111075763Y-101422462D01*
X111172518Y-101451812D01*
X111297000Y-101464072D01*
X112447000Y-101464072D01*
X112570827Y-101451941D01*
X112596935Y-101444051D01*
X112622518Y-101451812D01*
X112747000Y-101464072D01*
X113747000Y-101464072D01*
X113871482Y-101451812D01*
X113991180Y-101415502D01*
X114101494Y-101356537D01*
X114198185Y-101277185D01*
X114277537Y-101180494D01*
X114336502Y-101070180D01*
X114372812Y-100950482D01*
X114385072Y-100826000D01*
X114385072Y-100189506D01*
X115999051Y-98575528D01*
X116032818Y-98547816D01*
X116143412Y-98413058D01*
X116225590Y-98259312D01*
X116276196Y-98092489D01*
X116289001Y-97962476D01*
X116289001Y-97962466D01*
X116293282Y-97919000D01*
X116289001Y-97875533D01*
X116289001Y-95137468D01*
X116293282Y-95093999D01*
X116289001Y-95050530D01*
X116289001Y-95050522D01*
X116276196Y-94920509D01*
X116225590Y-94753686D01*
X116143412Y-94599940D01*
X116032818Y-94465182D01*
X115999045Y-94437465D01*
X115516534Y-93954954D01*
X115488819Y-93921183D01*
X115354061Y-93810589D01*
X115200315Y-93728411D01*
X115033492Y-93677805D01*
X114903479Y-93665000D01*
X114903471Y-93665000D01*
X114860002Y-93660719D01*
X114816533Y-93665000D01*
X113679373Y-93665000D01*
X113624180Y-93635498D01*
X113504482Y-93599188D01*
X113380000Y-93586928D01*
X112320000Y-93586928D01*
X112195518Y-93599188D01*
X112075820Y-93635498D01*
X111965506Y-93694463D01*
X111868815Y-93773815D01*
X111789463Y-93870506D01*
X111730498Y-93980820D01*
X111694188Y-94100518D01*
X111681928Y-94225000D01*
X111681928Y-94615000D01*
X111479373Y-94615000D01*
X111424180Y-94585498D01*
X111304482Y-94549188D01*
X111180000Y-94536928D01*
X110120000Y-94536928D01*
X109995518Y-94549188D01*
X109875820Y-94585498D01*
X109820627Y-94615000D01*
X109768469Y-94615000D01*
X109725000Y-94610719D01*
X109681531Y-94615000D01*
X109681523Y-94615000D01*
X109566306Y-94626348D01*
X109551509Y-94627805D01*
X109532769Y-94633490D01*
X109438072Y-94662217D01*
X109438072Y-94629524D01*
X109470226Y-94551898D01*
X109510000Y-94351939D01*
X109510000Y-94148061D01*
X109477319Y-93983760D01*
X110146007Y-93315072D01*
X110226250Y-93315072D01*
X110393408Y-93298608D01*
X110554142Y-93249850D01*
X110702275Y-93170671D01*
X110832115Y-93064115D01*
X110938671Y-92934275D01*
X111017850Y-92786142D01*
X111066608Y-92625408D01*
X111083072Y-92458250D01*
X111083072Y-91945750D01*
X111066608Y-91778592D01*
X111017850Y-91617858D01*
X110938671Y-91469725D01*
X110832115Y-91339885D01*
X110702275Y-91233329D01*
X110554142Y-91154150D01*
X110393408Y-91105392D01*
X110226250Y-91088928D01*
X109788750Y-91088928D01*
X109621592Y-91105392D01*
X109460858Y-91154150D01*
X109312725Y-91233329D01*
X109220000Y-91309426D01*
X109127275Y-91233329D01*
X108979142Y-91154150D01*
X108818408Y-91105392D01*
X108651250Y-91088928D01*
X108213750Y-91088928D01*
X108046592Y-91105392D01*
X107885858Y-91154150D01*
X107737725Y-91233329D01*
X107635771Y-91317000D01*
X107502229Y-91317000D01*
X107400275Y-91233329D01*
X107252142Y-91154150D01*
X107091408Y-91105392D01*
X106924250Y-91088928D01*
X106486750Y-91088928D01*
X106319592Y-91105392D01*
X106158858Y-91154150D01*
X106010725Y-91233329D01*
X105918000Y-91309426D01*
X105825275Y-91233329D01*
X105677142Y-91154150D01*
X105516408Y-91105392D01*
X105349250Y-91088928D01*
X104911750Y-91088928D01*
X104744592Y-91105392D01*
X104583858Y-91154150D01*
X104435725Y-91233329D01*
X104305885Y-91339885D01*
X104199329Y-91469725D01*
X104120150Y-91617858D01*
X104071392Y-91778592D01*
X104054928Y-91945750D01*
X104054928Y-92025994D01*
X103654955Y-92425967D01*
X103621182Y-92453684D01*
X103510588Y-92588443D01*
X103428410Y-92742189D01*
X103377804Y-92909012D01*
X103364999Y-93039025D01*
X103364999Y-93039032D01*
X103360718Y-93082501D01*
X103364999Y-93125970D01*
X103365000Y-97882020D01*
X103360718Y-97925499D01*
X103377804Y-98098989D01*
X103428411Y-98265812D01*
X103510589Y-98419558D01*
X103593467Y-98520545D01*
X103593470Y-98520548D01*
X103621183Y-98554316D01*
X103654950Y-98582028D01*
X104054928Y-98982006D01*
X104054928Y-99062250D01*
X104071392Y-99229408D01*
X104120150Y-99390142D01*
X104199329Y-99538275D01*
X104305885Y-99668115D01*
X104435725Y-99774671D01*
X104583858Y-99853850D01*
X104744592Y-99902608D01*
X104911750Y-99919072D01*
X105349250Y-99919072D01*
X105516408Y-99902608D01*
X105677142Y-99853850D01*
X105825275Y-99774671D01*
X105918000Y-99698574D01*
X106010725Y-99774671D01*
X106158858Y-99853850D01*
X106319592Y-99902608D01*
X106486750Y-99919072D01*
X106924250Y-99919072D01*
X107091408Y-99902608D01*
X107252142Y-99853850D01*
X107400275Y-99774671D01*
X107502229Y-99691000D01*
X107635771Y-99691000D01*
X107737725Y-99774671D01*
X107885858Y-99853850D01*
X108046592Y-99902608D01*
X108213750Y-99919072D01*
X108651250Y-99919072D01*
X108818408Y-99902608D01*
X108979142Y-99853850D01*
X109127275Y-99774671D01*
X109220000Y-99698574D01*
X109312725Y-99774671D01*
X109460858Y-99853850D01*
X109621592Y-99902608D01*
X109788750Y-99919072D01*
X109868994Y-99919072D01*
X109928850Y-99978928D01*
X109788750Y-99978928D01*
X109621592Y-99995392D01*
X109460858Y-100044150D01*
X109312725Y-100123329D01*
X109220000Y-100199426D01*
X109127275Y-100123329D01*
X108979142Y-100044150D01*
X108818408Y-99995392D01*
X108651250Y-99978928D01*
X108213750Y-99978928D01*
X108046592Y-99995392D01*
X107885858Y-100044150D01*
X107737725Y-100123329D01*
X107635771Y-100207000D01*
X107502229Y-100207000D01*
X107400275Y-100123329D01*
X107252142Y-100044150D01*
X107091408Y-99995392D01*
X106924250Y-99978928D01*
X106486750Y-99978928D01*
X106319592Y-99995392D01*
X106158858Y-100044150D01*
X106010725Y-100123329D01*
X105918000Y-100199426D01*
X105825275Y-100123329D01*
X105677142Y-100044150D01*
X105516408Y-99995392D01*
X105349250Y-99978928D01*
X104911750Y-99978928D01*
X104744592Y-99995392D01*
X104583858Y-100044150D01*
X104435725Y-100123329D01*
X104305885Y-100229885D01*
X104199329Y-100359725D01*
X104120150Y-100507858D01*
X104071392Y-100668592D01*
X104054928Y-100835750D01*
X104054928Y-100915994D01*
X103654950Y-101315972D01*
X103621183Y-101343684D01*
X103593470Y-101377452D01*
X103593467Y-101377455D01*
X103510589Y-101478442D01*
X103428411Y-101632188D01*
X103377804Y-101799011D01*
X103360718Y-101972501D01*
X103365000Y-102015980D01*
X103364999Y-107026030D01*
X103360718Y-107069499D01*
X103364999Y-107112968D01*
X103364999Y-107112975D01*
X103374613Y-107210589D01*
X103377804Y-107242989D01*
X103393117Y-107293468D01*
X103428410Y-107409811D01*
X103510588Y-107563557D01*
X103621182Y-107698316D01*
X103654955Y-107726033D01*
X103918932Y-107990010D01*
X96233068Y-107990010D01*
X96805059Y-107418020D01*
X96838827Y-107390307D01*
X96879857Y-107340313D01*
X96949420Y-107255550D01*
X96949421Y-107255549D01*
X97031599Y-107101803D01*
X97082205Y-106934980D01*
X97095010Y-106804967D01*
X97095010Y-106804959D01*
X97099291Y-106761490D01*
X97095010Y-106718021D01*
X97095010Y-101886479D01*
X97099291Y-101843010D01*
X97095010Y-101799541D01*
X97095010Y-101799533D01*
X97082205Y-101669520D01*
X97054746Y-101579000D01*
X97031599Y-101502696D01*
X96949421Y-101348951D01*
X96866542Y-101247963D01*
X96866540Y-101247961D01*
X96838827Y-101214193D01*
X96805060Y-101186481D01*
X96115534Y-100496956D01*
X96087817Y-100463183D01*
X95953059Y-100352589D01*
X95941935Y-100346643D01*
X95846115Y-100229885D01*
X95716275Y-100123329D01*
X95568142Y-100044150D01*
X95407408Y-99995392D01*
X95240250Y-99978928D01*
X94802750Y-99978928D01*
X94635592Y-99995392D01*
X94474858Y-100044150D01*
X94326725Y-100123329D01*
X94234000Y-100199426D01*
X94141275Y-100123329D01*
X93993142Y-100044150D01*
X93832408Y-99995392D01*
X93665250Y-99978928D01*
X93227750Y-99978928D01*
X93060592Y-99995392D01*
X92899858Y-100044150D01*
X92751725Y-100123329D01*
X92649771Y-100207000D01*
X92516229Y-100207000D01*
X92414275Y-100123329D01*
X92266142Y-100044150D01*
X92105408Y-99995392D01*
X91938250Y-99978928D01*
X91500750Y-99978928D01*
X91333592Y-99995392D01*
X91172858Y-100044150D01*
X91024725Y-100123329D01*
X90932000Y-100199426D01*
X90839275Y-100123329D01*
X90691142Y-100044150D01*
X90530408Y-99995392D01*
X90363250Y-99978928D01*
X90283007Y-99978928D01*
X90223150Y-99919072D01*
X90363250Y-99919072D01*
X90530408Y-99902608D01*
X90691142Y-99853850D01*
X90839275Y-99774671D01*
X90932000Y-99698574D01*
X91024725Y-99774671D01*
X91172858Y-99853850D01*
X91333592Y-99902608D01*
X91500750Y-99919072D01*
X91938250Y-99919072D01*
X92105408Y-99902608D01*
X92266142Y-99853850D01*
X92414275Y-99774671D01*
X92516229Y-99691000D01*
X92649771Y-99691000D01*
X92751725Y-99774671D01*
X92899858Y-99853850D01*
X93060592Y-99902608D01*
X93227750Y-99919072D01*
X93665250Y-99919072D01*
X93832408Y-99902608D01*
X93993142Y-99853850D01*
X94141275Y-99774671D01*
X94234000Y-99698574D01*
X94326725Y-99774671D01*
X94474858Y-99853850D01*
X94635592Y-99902608D01*
X94802750Y-99919072D01*
X95240250Y-99919072D01*
X95407408Y-99902608D01*
X95568142Y-99853850D01*
X95716275Y-99774671D01*
X95846115Y-99668115D01*
X95952671Y-99538275D01*
X96031850Y-99390142D01*
X96080608Y-99229408D01*
X96097072Y-99062250D01*
X96097072Y-98982007D01*
X96345050Y-98734029D01*
X96378818Y-98706316D01*
X96412800Y-98664910D01*
X96489411Y-98571559D01*
X96489412Y-98571558D01*
X96571590Y-98417812D01*
X96608028Y-98297695D01*
X96622196Y-98250990D01*
X96626139Y-98210953D01*
X96635001Y-98120976D01*
X96635001Y-98120968D01*
X96639282Y-98077499D01*
X96635001Y-98034030D01*
X96635001Y-92973970D01*
X96639282Y-92930501D01*
X96635001Y-92887032D01*
X96635001Y-92887024D01*
X96622196Y-92757011D01*
X96617700Y-92742188D01*
X96582274Y-92625408D01*
X96571590Y-92590188D01*
X96489412Y-92436442D01*
X96465211Y-92406953D01*
X96406533Y-92335454D01*
X96406531Y-92335452D01*
X96378818Y-92301684D01*
X96345051Y-92273972D01*
X96097072Y-92025993D01*
X96097072Y-91945750D01*
X96080608Y-91778592D01*
X96031850Y-91617858D01*
X95952671Y-91469725D01*
X95846115Y-91339885D01*
X95716275Y-91233329D01*
X95568142Y-91154150D01*
X95407408Y-91105392D01*
X95240250Y-91088928D01*
X94802750Y-91088928D01*
X94635592Y-91105392D01*
X94474858Y-91154150D01*
X94326725Y-91233329D01*
X94234000Y-91309426D01*
X94141275Y-91233329D01*
X93993142Y-91154150D01*
X93832408Y-91105392D01*
X93665250Y-91088928D01*
X93227750Y-91088928D01*
X93060592Y-91105392D01*
X92899858Y-91154150D01*
X92751725Y-91233329D01*
X92649771Y-91317000D01*
X92516229Y-91317000D01*
X92414275Y-91233329D01*
X92266142Y-91154150D01*
X92105408Y-91105392D01*
X91938250Y-91088928D01*
X91500750Y-91088928D01*
X91333592Y-91105392D01*
X91172858Y-91154150D01*
X91024725Y-91233329D01*
X90932000Y-91309426D01*
X90839275Y-91233329D01*
X90691142Y-91154150D01*
X90530408Y-91105392D01*
X90363250Y-91088928D01*
X90283007Y-91088928D01*
X89531034Y-90336956D01*
X89503317Y-90303183D01*
X89493072Y-90294775D01*
X89493072Y-90182000D01*
X89480812Y-90057518D01*
X89444502Y-89937820D01*
X89385537Y-89827506D01*
X89306185Y-89730815D01*
X89209494Y-89651463D01*
X89099180Y-89592498D01*
X88979482Y-89556188D01*
X88855000Y-89543928D01*
X87705000Y-89543928D01*
X87581173Y-89556059D01*
X87555065Y-89563949D01*
X87529482Y-89556188D01*
X87405000Y-89543928D01*
X86405000Y-89543928D01*
X86280518Y-89556188D01*
X86160820Y-89592498D01*
X86050506Y-89651463D01*
X85953815Y-89730815D01*
X85874463Y-89827506D01*
X85815498Y-89937820D01*
X85779188Y-90057518D01*
X85766928Y-90182000D01*
X85766928Y-90818493D01*
X84152955Y-92432467D01*
X84119182Y-92460184D01*
X84008588Y-92594943D01*
X83926410Y-92748689D01*
X83897128Y-92845218D01*
X83884446Y-92887025D01*
X83875804Y-92915512D01*
X83862999Y-93045525D01*
X83862999Y-93045532D01*
X83858718Y-93089001D01*
X83862999Y-93132470D01*
X83863000Y-94743850D01*
X83858718Y-94787329D01*
X83875804Y-94960819D01*
X83926411Y-95127642D01*
X84008589Y-95281388D01*
X84091467Y-95382375D01*
X84091470Y-95382378D01*
X84119183Y-95416146D01*
X84152950Y-95443858D01*
X84804138Y-96095047D01*
X84831853Y-96128817D01*
X84865621Y-96156530D01*
X84865623Y-96156532D01*
X84937122Y-96215210D01*
X84966611Y-96239411D01*
X85120357Y-96321589D01*
X85232267Y-96355537D01*
X85287179Y-96372195D01*
X85301976Y-96373652D01*
X85417193Y-96385000D01*
X85417201Y-96385000D01*
X85460670Y-96389281D01*
X85504139Y-96385000D01*
X85981928Y-96385000D01*
X85981928Y-96775000D01*
X85994188Y-96899482D01*
X86030498Y-97019180D01*
X86089463Y-97129494D01*
X86168815Y-97226185D01*
X86265506Y-97305537D01*
X86375820Y-97364502D01*
X86495518Y-97400812D01*
X86620000Y-97413072D01*
X87680000Y-97413072D01*
X87804482Y-97400812D01*
X87924180Y-97364502D01*
X88034494Y-97305537D01*
X88131185Y-97226185D01*
X88210537Y-97129494D01*
X88269502Y-97019180D01*
X88305812Y-96899482D01*
X88318072Y-96775000D01*
X88318072Y-96385000D01*
X88520627Y-96385000D01*
X88575820Y-96414502D01*
X88695518Y-96450812D01*
X88820000Y-96463072D01*
X89880000Y-96463072D01*
X90004482Y-96450812D01*
X90124180Y-96414502D01*
X90179373Y-96385000D01*
X90231531Y-96385000D01*
X90275000Y-96389281D01*
X90318469Y-96385000D01*
X90318477Y-96385000D01*
X90448490Y-96372195D01*
X90561928Y-96337783D01*
X90561928Y-96370476D01*
X90529774Y-96448102D01*
X90490000Y-96648061D01*
X90490000Y-96851939D01*
X90529774Y-97051898D01*
X90561928Y-97129524D01*
X90561928Y-97136993D01*
X90005994Y-97692928D01*
X89925750Y-97692928D01*
X89758592Y-97709392D01*
X89597858Y-97758150D01*
X89449725Y-97837329D01*
X89319885Y-97943885D01*
X89213329Y-98073725D01*
X89134150Y-98221858D01*
X89085392Y-98382592D01*
X89068928Y-98549750D01*
X89068928Y-98727321D01*
X88979482Y-98700188D01*
X88855000Y-98687928D01*
X87705000Y-98687928D01*
X87581173Y-98700059D01*
X87555065Y-98707949D01*
X87529482Y-98700188D01*
X87405000Y-98687928D01*
X86405000Y-98687928D01*
X86280518Y-98700188D01*
X86160820Y-98736498D01*
X86050506Y-98795463D01*
X85953815Y-98874815D01*
X85874463Y-98971506D01*
X85815498Y-99081820D01*
X85779188Y-99201518D01*
X85766928Y-99326000D01*
X85766928Y-99962493D01*
X84152955Y-101576467D01*
X84119182Y-101604184D01*
X84008588Y-101738943D01*
X83926410Y-101892689D01*
X83875804Y-102059512D01*
X83862999Y-102189525D01*
X83862999Y-102189532D01*
X83858718Y-102233001D01*
X83862999Y-102276470D01*
X83863000Y-103887850D01*
X83858718Y-103931329D01*
X83875804Y-104104819D01*
X83926411Y-104271642D01*
X84008589Y-104425388D01*
X84091467Y-104526375D01*
X84091470Y-104526378D01*
X84119183Y-104560146D01*
X84152951Y-104587859D01*
X84660136Y-105095044D01*
X84687853Y-105128817D01*
X84822611Y-105239411D01*
X84976357Y-105321589D01*
X85143180Y-105372195D01*
X85273193Y-105385000D01*
X85273203Y-105385000D01*
X85316669Y-105389281D01*
X85360135Y-105385000D01*
X85981928Y-105385000D01*
X85981928Y-105775000D01*
X85994188Y-105899482D01*
X86030498Y-106019180D01*
X86089463Y-106129494D01*
X86168815Y-106226185D01*
X86265506Y-106305537D01*
X86375820Y-106364502D01*
X86495518Y-106400812D01*
X86620000Y-106413072D01*
X87680000Y-106413072D01*
X87804482Y-106400812D01*
X87924180Y-106364502D01*
X88034494Y-106305537D01*
X88131185Y-106226185D01*
X88210537Y-106129494D01*
X88269502Y-106019180D01*
X88305812Y-105899482D01*
X88318072Y-105775000D01*
X88318072Y-105385000D01*
X88520627Y-105385000D01*
X88575820Y-105414502D01*
X88695518Y-105450812D01*
X88820000Y-105463072D01*
X89880000Y-105463072D01*
X90004482Y-105450812D01*
X90124180Y-105414502D01*
X90179373Y-105385000D01*
X90231531Y-105385000D01*
X90275000Y-105389281D01*
X90318469Y-105385000D01*
X90318477Y-105385000D01*
X90448490Y-105372195D01*
X90561928Y-105337783D01*
X90561928Y-105370476D01*
X90529774Y-105448102D01*
X90490000Y-105648061D01*
X90490000Y-105851939D01*
X90529774Y-106051898D01*
X90561928Y-106129524D01*
X90561928Y-106280993D01*
X90021276Y-106821645D01*
X89922002Y-106831423D01*
X89893327Y-106840121D01*
X89758592Y-106853392D01*
X89597858Y-106902150D01*
X89449725Y-106981329D01*
X89319885Y-107087885D01*
X89213329Y-107217725D01*
X89134150Y-107365858D01*
X89085392Y-107526592D01*
X89084682Y-107533800D01*
X89025923Y-107727501D01*
X89009500Y-107894248D01*
X89009500Y-108205077D01*
X89025923Y-108371824D01*
X89090824Y-108585772D01*
X89196216Y-108782949D01*
X89338051Y-108955775D01*
X89510877Y-109097610D01*
X89708053Y-109203002D01*
X89922001Y-109267903D01*
X90144500Y-109289817D01*
X90366998Y-109267903D01*
X90580946Y-109203002D01*
X90778123Y-109097610D01*
X90950949Y-108955775D01*
X90998836Y-108897425D01*
X91024725Y-108918671D01*
X91172858Y-108997850D01*
X91333592Y-109046608D01*
X91416417Y-109054766D01*
X91409499Y-109125010D01*
X91431413Y-109347509D01*
X91496314Y-109561457D01*
X91601706Y-109758633D01*
X91743541Y-109931459D01*
X91916367Y-110073294D01*
X92113543Y-110178686D01*
X92327491Y-110243587D01*
X92494238Y-110260010D01*
X94571185Y-110260010D01*
X94561928Y-110354000D01*
X94561928Y-110694000D01*
X94576878Y-110845794D01*
X94615000Y-110971465D01*
X94615000Y-111212523D01*
X94610718Y-111256000D01*
X94615000Y-111299476D01*
X94615000Y-111326535D01*
X94576878Y-111452206D01*
X94561928Y-111604000D01*
X94561928Y-111944000D01*
X94576878Y-112095794D01*
X94621155Y-112241755D01*
X94693057Y-112376274D01*
X94789820Y-112494180D01*
X94907726Y-112590943D01*
X95023523Y-112652838D01*
X95004774Y-112698102D01*
X94965000Y-112898061D01*
X94965000Y-113101939D01*
X95004774Y-113301898D01*
X95082795Y-113490256D01*
X95196063Y-113659774D01*
X95286289Y-113750000D01*
X95196063Y-113840226D01*
X95082795Y-114009744D01*
X95004774Y-114198102D01*
X94965000Y-114398061D01*
X94965000Y-114601939D01*
X95004774Y-114801898D01*
X95082795Y-114990256D01*
X95196063Y-115159774D01*
X95340226Y-115303937D01*
X95509744Y-115417205D01*
X95698102Y-115495226D01*
X95754956Y-115506535D01*
X95863421Y-115615000D01*
X95440759Y-115615000D01*
X95381612Y-115526480D01*
X95223520Y-115368388D01*
X95037624Y-115244176D01*
X94831067Y-115158617D01*
X94611788Y-115115000D01*
X94388212Y-115115000D01*
X94168933Y-115158617D01*
X93962376Y-115244176D01*
X93776480Y-115368388D01*
X93618388Y-115526480D01*
X93494176Y-115712376D01*
X93408617Y-115918933D01*
X93365000Y-116138212D01*
X93365000Y-116361788D01*
X93408617Y-116581067D01*
X93494176Y-116787624D01*
X93559241Y-116885000D01*
X93240132Y-116885000D01*
X93223520Y-116868388D01*
X93037624Y-116744176D01*
X92831067Y-116658617D01*
X92611788Y-116615000D01*
X92388212Y-116615000D01*
X92168933Y-116658617D01*
X91962376Y-116744176D01*
X91776480Y-116868388D01*
X91618388Y-117026480D01*
X91494176Y-117212376D01*
X91408617Y-117418933D01*
X91365000Y-117638212D01*
X91365000Y-117861788D01*
X91408617Y-118081067D01*
X91494176Y-118287624D01*
X91618388Y-118473520D01*
X91776480Y-118631612D01*
X91962376Y-118755824D01*
X92168933Y-118841383D01*
X92388212Y-118885000D01*
X92611788Y-118885000D01*
X92831067Y-118841383D01*
X93037624Y-118755824D01*
X93188517Y-118655000D01*
X93532513Y-118655000D01*
X93494176Y-118712376D01*
X93408617Y-118918933D01*
X93365000Y-119138212D01*
X93365000Y-119361788D01*
X93408617Y-119581067D01*
X93494176Y-119787624D01*
X93618388Y-119973520D01*
X93776480Y-120131612D01*
X93962376Y-120255824D01*
X94168933Y-120341383D01*
X94388212Y-120385000D01*
X94611788Y-120385000D01*
X94831067Y-120341383D01*
X95037624Y-120255824D01*
X95223520Y-120131612D01*
X95381612Y-119973520D01*
X95414032Y-119925000D01*
X96451719Y-119925000D01*
X96427071Y-120006255D01*
X96411928Y-120160000D01*
X96411928Y-120460000D01*
X96427071Y-120613745D01*
X96470223Y-120756000D01*
X90565000Y-120756000D01*
X90565000Y-124340000D01*
X75660000Y-124340000D01*
X75660000Y-86550001D01*
X75809508Y-86550001D01*
X75814999Y-86605752D01*
X75815000Y-108144237D01*
X75809508Y-108199999D01*
X75831422Y-108422497D01*
X75896323Y-108636445D01*
X75924634Y-108689411D01*
X76001716Y-108833622D01*
X76143551Y-109006448D01*
X76186859Y-109041990D01*
X82361928Y-115217060D01*
X82361928Y-116500000D01*
X82374188Y-116624482D01*
X82410498Y-116744180D01*
X82469463Y-116854494D01*
X82548815Y-116951185D01*
X82645506Y-117030537D01*
X82755820Y-117089502D01*
X82875518Y-117125812D01*
X83000000Y-117138072D01*
X86000000Y-117138072D01*
X86124482Y-117125812D01*
X86244180Y-117089502D01*
X86354494Y-117030537D01*
X86451185Y-116951185D01*
X86530537Y-116854494D01*
X86589502Y-116744180D01*
X86625812Y-116624482D01*
X86638072Y-116500000D01*
X86638072Y-115000000D01*
X86625812Y-114875518D01*
X86589502Y-114755820D01*
X86530537Y-114645506D01*
X86451185Y-114548815D01*
X86354494Y-114469463D01*
X86244180Y-114410498D01*
X86124482Y-114374188D01*
X86000000Y-114361928D01*
X84717060Y-114361928D01*
X78084999Y-107729868D01*
X78084999Y-87020132D01*
X84717060Y-80388072D01*
X86000000Y-80388072D01*
X86124482Y-80375812D01*
X86244180Y-80339502D01*
X86354494Y-80280537D01*
X86451185Y-80201185D01*
X86505501Y-80135000D01*
X88213869Y-80135000D01*
X89837928Y-81759060D01*
X89837928Y-83196000D01*
X89850188Y-83320482D01*
X89886498Y-83440180D01*
X89945463Y-83550494D01*
X90024815Y-83647185D01*
X90121506Y-83726537D01*
X90231820Y-83785502D01*
X90351518Y-83821812D01*
X90476000Y-83834072D01*
X92976000Y-83834072D01*
X93100482Y-83821812D01*
X93220180Y-83785502D01*
X93330494Y-83726537D01*
X93427185Y-83647185D01*
X93506537Y-83550494D01*
X93565502Y-83440180D01*
X93601812Y-83320482D01*
X93614072Y-83196000D01*
X93614072Y-81535204D01*
X93837928Y-81759060D01*
X93837928Y-83196000D01*
X93850188Y-83320482D01*
X93886498Y-83440180D01*
X93945463Y-83550494D01*
X94024815Y-83647185D01*
X94121506Y-83726537D01*
X94231820Y-83785502D01*
X94351518Y-83821812D01*
X94476000Y-83834072D01*
X96976000Y-83834072D01*
X97071928Y-83824624D01*
X97071928Y-84176000D01*
X97084188Y-84300482D01*
X97120498Y-84420180D01*
X97157660Y-84489704D01*
X97071518Y-84498188D01*
X96951820Y-84534498D01*
X96841506Y-84593463D01*
X96744815Y-84672815D01*
X96665463Y-84769506D01*
X96606498Y-84879820D01*
X96570188Y-84999518D01*
X96566496Y-85037000D01*
X95756191Y-85037000D01*
X95725000Y-85033928D01*
X94775000Y-85033928D01*
X94601746Y-85050992D01*
X94435150Y-85101528D01*
X94281614Y-85183595D01*
X94147038Y-85294038D01*
X94036595Y-85428614D01*
X93954528Y-85582150D01*
X93903992Y-85748746D01*
X93886928Y-85922000D01*
X93886928Y-86422000D01*
X93903992Y-86595254D01*
X93954528Y-86761850D01*
X94036595Y-86915386D01*
X94147038Y-87049962D01*
X94281614Y-87160405D01*
X94435150Y-87242472D01*
X94601746Y-87293008D01*
X94775000Y-87310072D01*
X95725000Y-87310072D01*
X95756191Y-87307000D01*
X96557928Y-87307000D01*
X96557928Y-87324000D01*
X96570188Y-87448482D01*
X96606498Y-87568180D01*
X96665463Y-87678494D01*
X96744815Y-87775185D01*
X96841506Y-87854537D01*
X96951820Y-87913502D01*
X97071518Y-87949812D01*
X97196000Y-87962072D01*
X98282493Y-87962072D01*
X98689471Y-88369050D01*
X98717184Y-88402818D01*
X98750952Y-88430531D01*
X98750954Y-88430533D01*
X98822453Y-88489211D01*
X98851942Y-88513412D01*
X99005688Y-88595590D01*
X99172511Y-88646196D01*
X99302524Y-88659001D01*
X99302534Y-88659001D01*
X99346000Y-88663282D01*
X99389466Y-88659001D01*
X100189547Y-88659001D01*
X100237745Y-88691206D01*
X100426103Y-88769227D01*
X100626062Y-88809001D01*
X100829940Y-88809001D01*
X101029899Y-88769227D01*
X101218257Y-88691206D01*
X101266455Y-88659001D01*
X104209496Y-88659001D01*
X104252965Y-88663282D01*
X104296434Y-88659001D01*
X104296442Y-88659001D01*
X104426455Y-88646196D01*
X104593278Y-88595590D01*
X104747024Y-88513412D01*
X104881782Y-88402818D01*
X104909499Y-88369045D01*
X106005049Y-87273496D01*
X106038817Y-87245783D01*
X106078026Y-87198008D01*
X106149411Y-87111025D01*
X106231589Y-86957280D01*
X106282195Y-86790456D01*
X106283345Y-86778775D01*
X106295000Y-86660443D01*
X106295000Y-86660435D01*
X106299281Y-86616966D01*
X106295000Y-86573497D01*
X106295000Y-82051578D01*
X106459563Y-81887015D01*
X106494742Y-81952829D01*
X106533454Y-82000000D01*
X106494742Y-82047171D01*
X106421916Y-82183418D01*
X106377071Y-82331255D01*
X106361928Y-82485000D01*
X106361928Y-82785000D01*
X106377071Y-82938745D01*
X106421916Y-83086582D01*
X106494742Y-83222829D01*
X106592749Y-83342251D01*
X106712171Y-83440258D01*
X106848418Y-83513084D01*
X106996255Y-83557929D01*
X107150000Y-83573072D01*
X108800000Y-83573072D01*
X108953745Y-83557929D01*
X109078783Y-83520000D01*
X113268422Y-83520000D01*
X113374166Y-83625744D01*
X113361928Y-83750000D01*
X113361928Y-85250000D01*
X113374188Y-85374482D01*
X113410498Y-85494180D01*
X113469463Y-85604494D01*
X113548815Y-85701185D01*
X113645506Y-85780537D01*
X113755820Y-85839502D01*
X113875518Y-85875812D01*
X114000000Y-85888072D01*
X117000000Y-85888072D01*
X117124482Y-85875812D01*
X117244180Y-85839502D01*
X117354494Y-85780537D01*
X117451185Y-85701185D01*
X117530537Y-85604494D01*
X117589502Y-85494180D01*
X117625812Y-85374482D01*
X117638072Y-85250000D01*
X117638072Y-83750000D01*
X117625812Y-83625518D01*
X117589502Y-83505820D01*
X117530537Y-83395506D01*
X117451185Y-83298815D01*
X117354494Y-83219463D01*
X117244180Y-83160498D01*
X117124482Y-83124188D01*
X117000000Y-83111928D01*
X115363507Y-83111928D01*
X114291534Y-82039956D01*
X114263817Y-82006183D01*
X114256283Y-82000000D01*
X114263817Y-81993817D01*
X114291534Y-81960044D01*
X115366579Y-80885000D01*
X115633422Y-80885000D01*
X121915001Y-87166580D01*
X121915002Y-108333419D01*
X115633422Y-114615000D01*
X114681963Y-114615000D01*
X114478493Y-114635040D01*
X114217419Y-114714236D01*
X113976812Y-114842843D01*
X113765919Y-115015919D01*
X113592843Y-115226812D01*
X113464236Y-115467419D01*
X113385040Y-115728493D01*
X113358299Y-116000000D01*
X113385040Y-116271507D01*
X113464236Y-116532581D01*
X113592843Y-116773188D01*
X113765919Y-116984081D01*
X113976812Y-117157157D01*
X114217419Y-117285764D01*
X114478493Y-117364960D01*
X114681963Y-117385000D01*
X116318037Y-117385000D01*
X116521507Y-117364960D01*
X116782581Y-117285764D01*
X117023188Y-117157157D01*
X117234081Y-116984081D01*
X117407157Y-116773188D01*
X117535764Y-116532581D01*
X117614960Y-116271507D01*
X117641701Y-116000000D01*
X117614960Y-115728493D01*
X117535764Y-115467419D01*
X117448123Y-115303455D01*
X123395050Y-109356529D01*
X123428818Y-109328816D01*
X123478809Y-109267903D01*
X123539411Y-109194059D01*
X123539412Y-109194058D01*
X123621590Y-109040312D01*
X123672196Y-108873489D01*
X123685001Y-108743476D01*
X123685001Y-108743466D01*
X123689282Y-108700000D01*
X123685001Y-108656534D01*
X123685001Y-86843466D01*
X123689282Y-86800000D01*
X123685001Y-86756534D01*
X123685001Y-86756524D01*
X123672196Y-86626511D01*
X123621590Y-86459688D01*
X123539412Y-86305942D01*
X123515211Y-86276453D01*
X123456533Y-86204954D01*
X123456531Y-86204952D01*
X123428818Y-86171184D01*
X123395052Y-86143473D01*
X117448123Y-80196545D01*
X117535764Y-80032581D01*
X117614960Y-79771507D01*
X117641701Y-79500000D01*
X117614960Y-79228493D01*
X117535764Y-78967419D01*
X117407157Y-78726812D01*
X117234081Y-78515919D01*
X117023188Y-78342843D01*
X116782581Y-78214236D01*
X116521507Y-78135040D01*
X116318037Y-78115000D01*
X114681963Y-78115000D01*
X114478493Y-78135040D01*
X114217419Y-78214236D01*
X113976812Y-78342843D01*
X113765919Y-78515919D01*
X113592843Y-78726812D01*
X113464236Y-78967419D01*
X113385040Y-79228493D01*
X113358299Y-79500000D01*
X113385040Y-79771507D01*
X113464236Y-80032581D01*
X113551877Y-80196545D01*
X113268422Y-80480000D01*
X109548281Y-80480000D01*
X109572929Y-80398745D01*
X109588072Y-80245000D01*
X109588072Y-79945000D01*
X109572929Y-79791255D01*
X109528084Y-79643418D01*
X109455258Y-79507171D01*
X109357251Y-79387749D01*
X109237829Y-79289742D01*
X109101582Y-79216916D01*
X108953745Y-79172071D01*
X108800000Y-79156928D01*
X107150000Y-79156928D01*
X106996255Y-79172071D01*
X106848418Y-79216916D01*
X106839861Y-79221490D01*
X106829627Y-79222498D01*
X106826510Y-79222805D01*
X106659686Y-79273411D01*
X106505941Y-79355589D01*
X106404953Y-79438468D01*
X106404951Y-79438470D01*
X106371183Y-79466183D01*
X106343470Y-79499951D01*
X104814956Y-81028466D01*
X104781183Y-81056183D01*
X104670589Y-81190942D01*
X104638072Y-81251778D01*
X104638072Y-81215000D01*
X104622929Y-81061255D01*
X104578084Y-80913418D01*
X104505258Y-80777171D01*
X104466546Y-80730000D01*
X104505258Y-80682829D01*
X104578084Y-80546582D01*
X104622929Y-80398745D01*
X104638072Y-80245000D01*
X104638072Y-79945000D01*
X104622929Y-79791255D01*
X104578084Y-79643418D01*
X104505258Y-79507171D01*
X104407251Y-79387749D01*
X104287829Y-79289742D01*
X104151582Y-79216916D01*
X104003745Y-79172071D01*
X103850000Y-79156928D01*
X103464879Y-79156928D01*
X103326898Y-79099774D01*
X103126939Y-79060000D01*
X102923061Y-79060000D01*
X102723102Y-79099774D01*
X102585121Y-79156928D01*
X102200000Y-79156928D01*
X102046255Y-79172071D01*
X101898418Y-79216916D01*
X101762171Y-79289742D01*
X101642749Y-79387749D01*
X101545446Y-79506314D01*
X101048072Y-79008940D01*
X101048072Y-77876000D01*
X101035812Y-77751518D01*
X100999502Y-77631820D01*
X100940537Y-77521506D01*
X100861185Y-77424815D01*
X100764494Y-77345463D01*
X100654180Y-77286498D01*
X100534482Y-77250188D01*
X100410000Y-77237928D01*
X97710000Y-77237928D01*
X97585518Y-77250188D01*
X97538072Y-77264581D01*
X97538072Y-77100000D01*
X97521008Y-76926746D01*
X97470472Y-76760150D01*
X97388405Y-76606614D01*
X97277962Y-76472038D01*
X97143386Y-76361595D01*
X96989850Y-76279528D01*
X96823254Y-76228992D01*
X96650000Y-76211928D01*
X95675000Y-76211928D01*
X95501746Y-76228992D01*
X95335150Y-76279528D01*
X95181614Y-76361595D01*
X95047038Y-76472038D01*
X94936595Y-76606614D01*
X94854528Y-76760150D01*
X94803992Y-76926746D01*
X94786928Y-77100000D01*
X94786928Y-79497796D01*
X93213072Y-77923941D01*
X93213072Y-77100000D01*
X93196008Y-76926746D01*
X93145472Y-76760150D01*
X93063405Y-76606614D01*
X92952962Y-76472038D01*
X92818386Y-76361595D01*
X92664850Y-76279528D01*
X92498254Y-76228992D01*
X92325000Y-76211928D01*
X91350000Y-76211928D01*
X91176746Y-76228992D01*
X91010150Y-76279528D01*
X90856614Y-76361595D01*
X90722038Y-76472038D01*
X90611595Y-76606614D01*
X90529528Y-76760150D01*
X90478992Y-76926746D01*
X90461928Y-77100000D01*
X90461928Y-79172797D01*
X89525996Y-78236865D01*
X89490449Y-78193551D01*
X89317623Y-78051716D01*
X89120447Y-77946324D01*
X88906499Y-77881423D01*
X88739752Y-77865000D01*
X88739751Y-77865000D01*
X88684000Y-77859509D01*
X88628249Y-77865000D01*
X86505501Y-77865000D01*
X86451185Y-77798815D01*
X86354494Y-77719463D01*
X86244180Y-77660498D01*
X86124482Y-77624188D01*
X86000000Y-77611928D01*
X83000000Y-77611928D01*
X82875518Y-77624188D01*
X82755820Y-77660498D01*
X82645506Y-77719463D01*
X82548815Y-77798815D01*
X82469463Y-77895506D01*
X82410498Y-78005820D01*
X82374188Y-78125518D01*
X82361928Y-78250000D01*
X82361928Y-79532940D01*
X76186864Y-85708005D01*
X76143550Y-85743552D01*
X76001715Y-85916378D01*
X75930021Y-86050510D01*
X75896323Y-86113555D01*
X75831422Y-86327503D01*
X75809508Y-86550001D01*
X75660000Y-86550001D01*
X75660000Y-75660000D01*
X124340001Y-75660000D01*
X124340000Y-124340000D01*
G04 #@! TA.AperFunction,Conductor*
D29*
G36*
X124340000Y-124340000D02*
G01*
X106360107Y-124340000D01*
X106563475Y-124136632D01*
X106725990Y-123893411D01*
X106837932Y-123623158D01*
X106895000Y-123336260D01*
X106895000Y-123043740D01*
X106837932Y-122756842D01*
X106725990Y-122486589D01*
X106563475Y-122243368D01*
X106356632Y-122036525D01*
X106295000Y-121995344D01*
X106295000Y-120250000D01*
X113361928Y-120250000D01*
X113361928Y-121750000D01*
X113374188Y-121874482D01*
X113410498Y-121994180D01*
X113469463Y-122104494D01*
X113548815Y-122201185D01*
X113645506Y-122280537D01*
X113755820Y-122339502D01*
X113875518Y-122375812D01*
X114000000Y-122388072D01*
X117000000Y-122388072D01*
X117124482Y-122375812D01*
X117244180Y-122339502D01*
X117354494Y-122280537D01*
X117451185Y-122201185D01*
X117530537Y-122104494D01*
X117589502Y-121994180D01*
X117625812Y-121874482D01*
X117638072Y-121750000D01*
X117638072Y-120250000D01*
X117625812Y-120125518D01*
X117589502Y-120005820D01*
X117530537Y-119895506D01*
X117451185Y-119798815D01*
X117354494Y-119719463D01*
X117244180Y-119660498D01*
X117124482Y-119624188D01*
X117000000Y-119611928D01*
X114000000Y-119611928D01*
X113875518Y-119624188D01*
X113755820Y-119660498D01*
X113645506Y-119719463D01*
X113548815Y-119798815D01*
X113469463Y-119895506D01*
X113410498Y-120005820D01*
X113374188Y-120125518D01*
X113361928Y-120250000D01*
X106295000Y-120250000D01*
X106295000Y-119273469D01*
X106299281Y-119230000D01*
X106295000Y-119186531D01*
X106295000Y-119186523D01*
X106282195Y-119056510D01*
X106231589Y-118889687D01*
X106149411Y-118735941D01*
X106114112Y-118692929D01*
X106066532Y-118634953D01*
X106066530Y-118634951D01*
X106038817Y-118601183D01*
X106005050Y-118573471D01*
X104606532Y-117174954D01*
X104578817Y-117141183D01*
X104473110Y-117054431D01*
X104528084Y-116951582D01*
X104572929Y-116803745D01*
X104588072Y-116650000D01*
X104588072Y-116350000D01*
X104572929Y-116196255D01*
X104528084Y-116048418D01*
X104455258Y-115912171D01*
X104416546Y-115865000D01*
X104455258Y-115817829D01*
X104528084Y-115681582D01*
X104572929Y-115533745D01*
X104588072Y-115380000D01*
X104588072Y-115080000D01*
X104572929Y-114926255D01*
X104548281Y-114845000D01*
X104739868Y-114845000D01*
X104776480Y-114881612D01*
X104962376Y-115005824D01*
X105168933Y-115091383D01*
X105388212Y-115135000D01*
X105611788Y-115135000D01*
X105831067Y-115091383D01*
X106037624Y-115005824D01*
X106223520Y-114881612D01*
X106381612Y-114723520D01*
X106505824Y-114537624D01*
X106591383Y-114331067D01*
X106635000Y-114111788D01*
X106635000Y-113888212D01*
X106591383Y-113668933D01*
X106505824Y-113462376D01*
X106381612Y-113276480D01*
X106223520Y-113118388D01*
X106037624Y-112994176D01*
X105831067Y-112908617D01*
X105611788Y-112865000D01*
X105388212Y-112865000D01*
X105168933Y-112908617D01*
X104962376Y-112994176D01*
X104841415Y-113075000D01*
X104078783Y-113075000D01*
X103953745Y-113037071D01*
X103800000Y-113021928D01*
X102150000Y-113021928D01*
X101996255Y-113037071D01*
X101848418Y-113081916D01*
X101712171Y-113154742D01*
X101592749Y-113252749D01*
X101494742Y-113372171D01*
X101445124Y-113465000D01*
X101398061Y-113465000D01*
X101198102Y-113504774D01*
X101104942Y-113543363D01*
X99656532Y-112094954D01*
X99628817Y-112061183D01*
X99494059Y-111950589D01*
X99340313Y-111868411D01*
X99173490Y-111817805D01*
X99160139Y-111816490D01*
X99151582Y-111811916D01*
X99003745Y-111767071D01*
X98850000Y-111751928D01*
X98640169Y-111751928D01*
X98577798Y-111710253D01*
X98389440Y-111632232D01*
X98189481Y-111592458D01*
X98179037Y-111592458D01*
X97247532Y-110660954D01*
X97219817Y-110627183D01*
X97085059Y-110516589D01*
X96931313Y-110434411D01*
X96764490Y-110383805D01*
X96634477Y-110371000D01*
X96634469Y-110371000D01*
X96591000Y-110366719D01*
X96547531Y-110371000D01*
X96398072Y-110371000D01*
X96398072Y-110354000D01*
X96388815Y-110260010D01*
X105285753Y-110260010D01*
X105452500Y-110243587D01*
X105666448Y-110178686D01*
X105863624Y-110073294D01*
X106036450Y-109931459D01*
X106178285Y-109758633D01*
X106283677Y-109561457D01*
X106348578Y-109347509D01*
X106370492Y-109125010D01*
X106363193Y-109050902D01*
X106486750Y-109063072D01*
X106924250Y-109063072D01*
X107091408Y-109046608D01*
X107252142Y-108997850D01*
X107400275Y-108918671D01*
X107502229Y-108835000D01*
X107635771Y-108835000D01*
X107737725Y-108918671D01*
X107885858Y-108997850D01*
X108046592Y-109046608D01*
X108213750Y-109063072D01*
X108651250Y-109063072D01*
X108818408Y-109046608D01*
X108979142Y-108997850D01*
X109127275Y-108918671D01*
X109220000Y-108842574D01*
X109312725Y-108918671D01*
X109460858Y-108997850D01*
X109621592Y-109046608D01*
X109788750Y-109063072D01*
X109868994Y-109063072D01*
X110366970Y-109561049D01*
X110394683Y-109594817D01*
X110428451Y-109622530D01*
X110428453Y-109622532D01*
X110464122Y-109651805D01*
X110529441Y-109705411D01*
X110665022Y-109777880D01*
X110671188Y-109840482D01*
X110707498Y-109960180D01*
X110766463Y-110070494D01*
X110845815Y-110167185D01*
X110942506Y-110246537D01*
X111052820Y-110305502D01*
X111172518Y-110341812D01*
X111297000Y-110354072D01*
X112447000Y-110354072D01*
X112570827Y-110341941D01*
X112596935Y-110334051D01*
X112622518Y-110341812D01*
X112747000Y-110354072D01*
X113747000Y-110354072D01*
X113871482Y-110341812D01*
X113991180Y-110305502D01*
X114101494Y-110246537D01*
X114198185Y-110167185D01*
X114277537Y-110070494D01*
X114336502Y-109960180D01*
X114372812Y-109840482D01*
X114385072Y-109716000D01*
X114385072Y-109079506D01*
X115999051Y-107465528D01*
X116032818Y-107437816D01*
X116071167Y-107391089D01*
X116132481Y-107316377D01*
X116143412Y-107303058D01*
X116225590Y-107149312D01*
X116276196Y-106982489D01*
X116289001Y-106852476D01*
X116289001Y-106852466D01*
X116293282Y-106809000D01*
X116289001Y-106765533D01*
X116289001Y-104027464D01*
X116293282Y-103983998D01*
X116289001Y-103940532D01*
X116289001Y-103940522D01*
X116276196Y-103810509D01*
X116225590Y-103643686D01*
X116143412Y-103489940D01*
X116032818Y-103355182D01*
X115999045Y-103327465D01*
X115618535Y-102946955D01*
X115590818Y-102913182D01*
X115456060Y-102802588D01*
X115302314Y-102720410D01*
X115135491Y-102669804D01*
X115005478Y-102656999D01*
X115005470Y-102656999D01*
X114962001Y-102652718D01*
X114918532Y-102656999D01*
X113664405Y-102656999D01*
X113624180Y-102635498D01*
X113504482Y-102599188D01*
X113380000Y-102586928D01*
X112320000Y-102586928D01*
X112195518Y-102599188D01*
X112075820Y-102635498D01*
X111965506Y-102694463D01*
X111868815Y-102773815D01*
X111789463Y-102870506D01*
X111730498Y-102980820D01*
X111694188Y-103100518D01*
X111681928Y-103225000D01*
X111681928Y-103615000D01*
X111479373Y-103615000D01*
X111424180Y-103585498D01*
X111304482Y-103549188D01*
X111180000Y-103536928D01*
X110120000Y-103536928D01*
X109995518Y-103549188D01*
X109875820Y-103585498D01*
X109820627Y-103615000D01*
X109768469Y-103615000D01*
X109725000Y-103610719D01*
X109681531Y-103615000D01*
X109681523Y-103615000D01*
X109566306Y-103626348D01*
X109551509Y-103627805D01*
X109532769Y-103633490D01*
X109438072Y-103662217D01*
X109438072Y-103629524D01*
X109470226Y-103551898D01*
X109510000Y-103351939D01*
X109510000Y-103148061D01*
X109470226Y-102948102D01*
X109450529Y-102900549D01*
X110146007Y-102205072D01*
X110226250Y-102205072D01*
X110393408Y-102188608D01*
X110554142Y-102139850D01*
X110702275Y-102060671D01*
X110832115Y-101954115D01*
X110938671Y-101824275D01*
X111017850Y-101676142D01*
X111066608Y-101515408D01*
X111075763Y-101422462D01*
X111172518Y-101451812D01*
X111297000Y-101464072D01*
X112447000Y-101464072D01*
X112570827Y-101451941D01*
X112596935Y-101444051D01*
X112622518Y-101451812D01*
X112747000Y-101464072D01*
X113747000Y-101464072D01*
X113871482Y-101451812D01*
X113991180Y-101415502D01*
X114101494Y-101356537D01*
X114198185Y-101277185D01*
X114277537Y-101180494D01*
X114336502Y-101070180D01*
X114372812Y-100950482D01*
X114385072Y-100826000D01*
X114385072Y-100189506D01*
X115999051Y-98575528D01*
X116032818Y-98547816D01*
X116143412Y-98413058D01*
X116225590Y-98259312D01*
X116276196Y-98092489D01*
X116289001Y-97962476D01*
X116289001Y-97962466D01*
X116293282Y-97919000D01*
X116289001Y-97875533D01*
X116289001Y-95137468D01*
X116293282Y-95093999D01*
X116289001Y-95050530D01*
X116289001Y-95050522D01*
X116276196Y-94920509D01*
X116225590Y-94753686D01*
X116143412Y-94599940D01*
X116032818Y-94465182D01*
X115999045Y-94437465D01*
X115516534Y-93954954D01*
X115488819Y-93921183D01*
X115354061Y-93810589D01*
X115200315Y-93728411D01*
X115033492Y-93677805D01*
X114903479Y-93665000D01*
X114903471Y-93665000D01*
X114860002Y-93660719D01*
X114816533Y-93665000D01*
X113679373Y-93665000D01*
X113624180Y-93635498D01*
X113504482Y-93599188D01*
X113380000Y-93586928D01*
X112320000Y-93586928D01*
X112195518Y-93599188D01*
X112075820Y-93635498D01*
X111965506Y-93694463D01*
X111868815Y-93773815D01*
X111789463Y-93870506D01*
X111730498Y-93980820D01*
X111694188Y-94100518D01*
X111681928Y-94225000D01*
X111681928Y-94615000D01*
X111479373Y-94615000D01*
X111424180Y-94585498D01*
X111304482Y-94549188D01*
X111180000Y-94536928D01*
X110120000Y-94536928D01*
X109995518Y-94549188D01*
X109875820Y-94585498D01*
X109820627Y-94615000D01*
X109768469Y-94615000D01*
X109725000Y-94610719D01*
X109681531Y-94615000D01*
X109681523Y-94615000D01*
X109566306Y-94626348D01*
X109551509Y-94627805D01*
X109532769Y-94633490D01*
X109438072Y-94662217D01*
X109438072Y-94629524D01*
X109470226Y-94551898D01*
X109510000Y-94351939D01*
X109510000Y-94148061D01*
X109477319Y-93983760D01*
X110146007Y-93315072D01*
X110226250Y-93315072D01*
X110393408Y-93298608D01*
X110554142Y-93249850D01*
X110702275Y-93170671D01*
X110832115Y-93064115D01*
X110938671Y-92934275D01*
X111017850Y-92786142D01*
X111066608Y-92625408D01*
X111083072Y-92458250D01*
X111083072Y-91945750D01*
X111066608Y-91778592D01*
X111017850Y-91617858D01*
X110938671Y-91469725D01*
X110832115Y-91339885D01*
X110702275Y-91233329D01*
X110554142Y-91154150D01*
X110393408Y-91105392D01*
X110226250Y-91088928D01*
X109788750Y-91088928D01*
X109621592Y-91105392D01*
X109460858Y-91154150D01*
X109312725Y-91233329D01*
X109220000Y-91309426D01*
X109127275Y-91233329D01*
X108979142Y-91154150D01*
X108818408Y-91105392D01*
X108651250Y-91088928D01*
X108213750Y-91088928D01*
X108046592Y-91105392D01*
X107885858Y-91154150D01*
X107737725Y-91233329D01*
X107635771Y-91317000D01*
X107502229Y-91317000D01*
X107400275Y-91233329D01*
X107252142Y-91154150D01*
X107091408Y-91105392D01*
X106924250Y-91088928D01*
X106486750Y-91088928D01*
X106319592Y-91105392D01*
X106158858Y-91154150D01*
X106010725Y-91233329D01*
X105918000Y-91309426D01*
X105825275Y-91233329D01*
X105677142Y-91154150D01*
X105516408Y-91105392D01*
X105349250Y-91088928D01*
X104911750Y-91088928D01*
X104744592Y-91105392D01*
X104583858Y-91154150D01*
X104435725Y-91233329D01*
X104305885Y-91339885D01*
X104199329Y-91469725D01*
X104120150Y-91617858D01*
X104071392Y-91778592D01*
X104054928Y-91945750D01*
X104054928Y-92025994D01*
X103654955Y-92425967D01*
X103621182Y-92453684D01*
X103510588Y-92588443D01*
X103428410Y-92742189D01*
X103377804Y-92909012D01*
X103364999Y-93039025D01*
X103364999Y-93039032D01*
X103360718Y-93082501D01*
X103364999Y-93125970D01*
X103365000Y-97882020D01*
X103360718Y-97925499D01*
X103377804Y-98098989D01*
X103428411Y-98265812D01*
X103510589Y-98419558D01*
X103593467Y-98520545D01*
X103593470Y-98520548D01*
X103621183Y-98554316D01*
X103654950Y-98582028D01*
X104054928Y-98982006D01*
X104054928Y-99062250D01*
X104071392Y-99229408D01*
X104120150Y-99390142D01*
X104199329Y-99538275D01*
X104305885Y-99668115D01*
X104435725Y-99774671D01*
X104583858Y-99853850D01*
X104744592Y-99902608D01*
X104911750Y-99919072D01*
X105349250Y-99919072D01*
X105516408Y-99902608D01*
X105677142Y-99853850D01*
X105825275Y-99774671D01*
X105918000Y-99698574D01*
X106010725Y-99774671D01*
X106158858Y-99853850D01*
X106319592Y-99902608D01*
X106486750Y-99919072D01*
X106924250Y-99919072D01*
X107091408Y-99902608D01*
X107252142Y-99853850D01*
X107400275Y-99774671D01*
X107502229Y-99691000D01*
X107635771Y-99691000D01*
X107737725Y-99774671D01*
X107885858Y-99853850D01*
X108046592Y-99902608D01*
X108213750Y-99919072D01*
X108651250Y-99919072D01*
X108818408Y-99902608D01*
X108979142Y-99853850D01*
X109127275Y-99774671D01*
X109220000Y-99698574D01*
X109312725Y-99774671D01*
X109460858Y-99853850D01*
X109621592Y-99902608D01*
X109788750Y-99919072D01*
X109868994Y-99919072D01*
X109928850Y-99978928D01*
X109788750Y-99978928D01*
X109621592Y-99995392D01*
X109460858Y-100044150D01*
X109312725Y-100123329D01*
X109220000Y-100199426D01*
X109127275Y-100123329D01*
X108979142Y-100044150D01*
X108818408Y-99995392D01*
X108651250Y-99978928D01*
X108213750Y-99978928D01*
X108046592Y-99995392D01*
X107885858Y-100044150D01*
X107737725Y-100123329D01*
X107635771Y-100207000D01*
X107502229Y-100207000D01*
X107400275Y-100123329D01*
X107252142Y-100044150D01*
X107091408Y-99995392D01*
X106924250Y-99978928D01*
X106486750Y-99978928D01*
X106319592Y-99995392D01*
X106158858Y-100044150D01*
X106010725Y-100123329D01*
X105918000Y-100199426D01*
X105825275Y-100123329D01*
X105677142Y-100044150D01*
X105516408Y-99995392D01*
X105349250Y-99978928D01*
X104911750Y-99978928D01*
X104744592Y-99995392D01*
X104583858Y-100044150D01*
X104435725Y-100123329D01*
X104305885Y-100229885D01*
X104199329Y-100359725D01*
X104120150Y-100507858D01*
X104071392Y-100668592D01*
X104054928Y-100835750D01*
X104054928Y-100915994D01*
X103654950Y-101315972D01*
X103621183Y-101343684D01*
X103593470Y-101377452D01*
X103593467Y-101377455D01*
X103510589Y-101478442D01*
X103428411Y-101632188D01*
X103377804Y-101799011D01*
X103360718Y-101972501D01*
X103365000Y-102015980D01*
X103364999Y-107026030D01*
X103360718Y-107069499D01*
X103364999Y-107112968D01*
X103364999Y-107112975D01*
X103374613Y-107210589D01*
X103377804Y-107242989D01*
X103393117Y-107293468D01*
X103428410Y-107409811D01*
X103510588Y-107563557D01*
X103621182Y-107698316D01*
X103654955Y-107726033D01*
X103918932Y-107990010D01*
X96233068Y-107990010D01*
X96805059Y-107418020D01*
X96838827Y-107390307D01*
X96879857Y-107340313D01*
X96949420Y-107255550D01*
X96949421Y-107255549D01*
X97031599Y-107101803D01*
X97082205Y-106934980D01*
X97095010Y-106804967D01*
X97095010Y-106804959D01*
X97099291Y-106761490D01*
X97095010Y-106718021D01*
X97095010Y-101886479D01*
X97099291Y-101843010D01*
X97095010Y-101799541D01*
X97095010Y-101799533D01*
X97082205Y-101669520D01*
X97054746Y-101579000D01*
X97031599Y-101502696D01*
X96949421Y-101348951D01*
X96866542Y-101247963D01*
X96866540Y-101247961D01*
X96838827Y-101214193D01*
X96805060Y-101186481D01*
X96115534Y-100496956D01*
X96087817Y-100463183D01*
X95953059Y-100352589D01*
X95941935Y-100346643D01*
X95846115Y-100229885D01*
X95716275Y-100123329D01*
X95568142Y-100044150D01*
X95407408Y-99995392D01*
X95240250Y-99978928D01*
X94802750Y-99978928D01*
X94635592Y-99995392D01*
X94474858Y-100044150D01*
X94326725Y-100123329D01*
X94234000Y-100199426D01*
X94141275Y-100123329D01*
X93993142Y-100044150D01*
X93832408Y-99995392D01*
X93665250Y-99978928D01*
X93227750Y-99978928D01*
X93060592Y-99995392D01*
X92899858Y-100044150D01*
X92751725Y-100123329D01*
X92649771Y-100207000D01*
X92516229Y-100207000D01*
X92414275Y-100123329D01*
X92266142Y-100044150D01*
X92105408Y-99995392D01*
X91938250Y-99978928D01*
X91500750Y-99978928D01*
X91333592Y-99995392D01*
X91172858Y-100044150D01*
X91024725Y-100123329D01*
X90932000Y-100199426D01*
X90839275Y-100123329D01*
X90691142Y-100044150D01*
X90530408Y-99995392D01*
X90363250Y-99978928D01*
X90283007Y-99978928D01*
X90223150Y-99919072D01*
X90363250Y-99919072D01*
X90530408Y-99902608D01*
X90691142Y-99853850D01*
X90839275Y-99774671D01*
X90932000Y-99698574D01*
X91024725Y-99774671D01*
X91172858Y-99853850D01*
X91333592Y-99902608D01*
X91500750Y-99919072D01*
X91938250Y-99919072D01*
X92105408Y-99902608D01*
X92266142Y-99853850D01*
X92414275Y-99774671D01*
X92516229Y-99691000D01*
X92649771Y-99691000D01*
X92751725Y-99774671D01*
X92899858Y-99853850D01*
X93060592Y-99902608D01*
X93227750Y-99919072D01*
X93665250Y-99919072D01*
X93832408Y-99902608D01*
X93993142Y-99853850D01*
X94141275Y-99774671D01*
X94234000Y-99698574D01*
X94326725Y-99774671D01*
X94474858Y-99853850D01*
X94635592Y-99902608D01*
X94802750Y-99919072D01*
X95240250Y-99919072D01*
X95407408Y-99902608D01*
X95568142Y-99853850D01*
X95716275Y-99774671D01*
X95846115Y-99668115D01*
X95952671Y-99538275D01*
X96031850Y-99390142D01*
X96080608Y-99229408D01*
X96097072Y-99062250D01*
X96097072Y-98982007D01*
X96345050Y-98734029D01*
X96378818Y-98706316D01*
X96412800Y-98664910D01*
X96489411Y-98571559D01*
X96489412Y-98571558D01*
X96571590Y-98417812D01*
X96608028Y-98297695D01*
X96622196Y-98250990D01*
X96626139Y-98210953D01*
X96635001Y-98120976D01*
X96635001Y-98120968D01*
X96639282Y-98077499D01*
X96635001Y-98034030D01*
X96635001Y-92973970D01*
X96639282Y-92930501D01*
X96635001Y-92887032D01*
X96635001Y-92887024D01*
X96622196Y-92757011D01*
X96617700Y-92742188D01*
X96582274Y-92625408D01*
X96571590Y-92590188D01*
X96489412Y-92436442D01*
X96465211Y-92406953D01*
X96406533Y-92335454D01*
X96406531Y-92335452D01*
X96378818Y-92301684D01*
X96345051Y-92273972D01*
X96097072Y-92025993D01*
X96097072Y-91945750D01*
X96080608Y-91778592D01*
X96031850Y-91617858D01*
X95952671Y-91469725D01*
X95846115Y-91339885D01*
X95716275Y-91233329D01*
X95568142Y-91154150D01*
X95407408Y-91105392D01*
X95240250Y-91088928D01*
X94802750Y-91088928D01*
X94635592Y-91105392D01*
X94474858Y-91154150D01*
X94326725Y-91233329D01*
X94234000Y-91309426D01*
X94141275Y-91233329D01*
X93993142Y-91154150D01*
X93832408Y-91105392D01*
X93665250Y-91088928D01*
X93227750Y-91088928D01*
X93060592Y-91105392D01*
X92899858Y-91154150D01*
X92751725Y-91233329D01*
X92649771Y-91317000D01*
X92516229Y-91317000D01*
X92414275Y-91233329D01*
X92266142Y-91154150D01*
X92105408Y-91105392D01*
X91938250Y-91088928D01*
X91500750Y-91088928D01*
X91333592Y-91105392D01*
X91172858Y-91154150D01*
X91024725Y-91233329D01*
X90932000Y-91309426D01*
X90839275Y-91233329D01*
X90691142Y-91154150D01*
X90530408Y-91105392D01*
X90363250Y-91088928D01*
X90283007Y-91088928D01*
X89531034Y-90336956D01*
X89503317Y-90303183D01*
X89493072Y-90294775D01*
X89493072Y-90182000D01*
X89480812Y-90057518D01*
X89444502Y-89937820D01*
X89385537Y-89827506D01*
X89306185Y-89730815D01*
X89209494Y-89651463D01*
X89099180Y-89592498D01*
X88979482Y-89556188D01*
X88855000Y-89543928D01*
X87705000Y-89543928D01*
X87581173Y-89556059D01*
X87555065Y-89563949D01*
X87529482Y-89556188D01*
X87405000Y-89543928D01*
X86405000Y-89543928D01*
X86280518Y-89556188D01*
X86160820Y-89592498D01*
X86050506Y-89651463D01*
X85953815Y-89730815D01*
X85874463Y-89827506D01*
X85815498Y-89937820D01*
X85779188Y-90057518D01*
X85766928Y-90182000D01*
X85766928Y-90818493D01*
X84152955Y-92432467D01*
X84119182Y-92460184D01*
X84008588Y-92594943D01*
X83926410Y-92748689D01*
X83897128Y-92845218D01*
X83884446Y-92887025D01*
X83875804Y-92915512D01*
X83862999Y-93045525D01*
X83862999Y-93045532D01*
X83858718Y-93089001D01*
X83862999Y-93132470D01*
X83863000Y-94743850D01*
X83858718Y-94787329D01*
X83875804Y-94960819D01*
X83926411Y-95127642D01*
X84008589Y-95281388D01*
X84091467Y-95382375D01*
X84091470Y-95382378D01*
X84119183Y-95416146D01*
X84152950Y-95443858D01*
X84804138Y-96095047D01*
X84831853Y-96128817D01*
X84865621Y-96156530D01*
X84865623Y-96156532D01*
X84937122Y-96215210D01*
X84966611Y-96239411D01*
X85120357Y-96321589D01*
X85232267Y-96355537D01*
X85287179Y-96372195D01*
X85301976Y-96373652D01*
X85417193Y-96385000D01*
X85417201Y-96385000D01*
X85460670Y-96389281D01*
X85504139Y-96385000D01*
X85981928Y-96385000D01*
X85981928Y-96775000D01*
X85994188Y-96899482D01*
X86030498Y-97019180D01*
X86089463Y-97129494D01*
X86168815Y-97226185D01*
X86265506Y-97305537D01*
X86375820Y-97364502D01*
X86495518Y-97400812D01*
X86620000Y-97413072D01*
X87680000Y-97413072D01*
X87804482Y-97400812D01*
X87924180Y-97364502D01*
X88034494Y-97305537D01*
X88131185Y-97226185D01*
X88210537Y-97129494D01*
X88269502Y-97019180D01*
X88305812Y-96899482D01*
X88318072Y-96775000D01*
X88318072Y-96385000D01*
X88520627Y-96385000D01*
X88575820Y-96414502D01*
X88695518Y-96450812D01*
X88820000Y-96463072D01*
X89880000Y-96463072D01*
X90004482Y-96450812D01*
X90124180Y-96414502D01*
X90179373Y-96385000D01*
X90231531Y-96385000D01*
X90275000Y-96389281D01*
X90318469Y-96385000D01*
X90318477Y-96385000D01*
X90448490Y-96372195D01*
X90561928Y-96337783D01*
X90561928Y-96370476D01*
X90529774Y-96448102D01*
X90490000Y-96648061D01*
X90490000Y-96851939D01*
X90529774Y-97051898D01*
X90561928Y-97129524D01*
X90561928Y-97136993D01*
X90005994Y-97692928D01*
X89925750Y-97692928D01*
X89758592Y-97709392D01*
X89597858Y-97758150D01*
X89449725Y-97837329D01*
X89319885Y-97943885D01*
X89213329Y-98073725D01*
X89134150Y-98221858D01*
X89085392Y-98382592D01*
X89068928Y-98549750D01*
X89068928Y-98727321D01*
X88979482Y-98700188D01*
X88855000Y-98687928D01*
X87705000Y-98687928D01*
X87581173Y-98700059D01*
X87555065Y-98707949D01*
X87529482Y-98700188D01*
X87405000Y-98687928D01*
X86405000Y-98687928D01*
X86280518Y-98700188D01*
X86160820Y-98736498D01*
X86050506Y-98795463D01*
X85953815Y-98874815D01*
X85874463Y-98971506D01*
X85815498Y-99081820D01*
X85779188Y-99201518D01*
X85766928Y-99326000D01*
X85766928Y-99962493D01*
X84152955Y-101576467D01*
X84119182Y-101604184D01*
X84008588Y-101738943D01*
X83926410Y-101892689D01*
X83875804Y-102059512D01*
X83862999Y-102189525D01*
X83862999Y-102189532D01*
X83858718Y-102233001D01*
X83862999Y-102276470D01*
X83863000Y-103887850D01*
X83858718Y-103931329D01*
X83875804Y-104104819D01*
X83926411Y-104271642D01*
X84008589Y-104425388D01*
X84091467Y-104526375D01*
X84091470Y-104526378D01*
X84119183Y-104560146D01*
X84152951Y-104587859D01*
X84660136Y-105095044D01*
X84687853Y-105128817D01*
X84822611Y-105239411D01*
X84976357Y-105321589D01*
X85143180Y-105372195D01*
X85273193Y-105385000D01*
X85273203Y-105385000D01*
X85316669Y-105389281D01*
X85360135Y-105385000D01*
X85981928Y-105385000D01*
X85981928Y-105775000D01*
X85994188Y-105899482D01*
X86030498Y-106019180D01*
X86089463Y-106129494D01*
X86168815Y-106226185D01*
X86265506Y-106305537D01*
X86375820Y-106364502D01*
X86495518Y-106400812D01*
X86620000Y-106413072D01*
X87680000Y-106413072D01*
X87804482Y-106400812D01*
X87924180Y-106364502D01*
X88034494Y-106305537D01*
X88131185Y-106226185D01*
X88210537Y-106129494D01*
X88269502Y-106019180D01*
X88305812Y-105899482D01*
X88318072Y-105775000D01*
X88318072Y-105385000D01*
X88520627Y-105385000D01*
X88575820Y-105414502D01*
X88695518Y-105450812D01*
X88820000Y-105463072D01*
X89880000Y-105463072D01*
X90004482Y-105450812D01*
X90124180Y-105414502D01*
X90179373Y-105385000D01*
X90231531Y-105385000D01*
X90275000Y-105389281D01*
X90318469Y-105385000D01*
X90318477Y-105385000D01*
X90448490Y-105372195D01*
X90561928Y-105337783D01*
X90561928Y-105370476D01*
X90529774Y-105448102D01*
X90490000Y-105648061D01*
X90490000Y-105851939D01*
X90529774Y-106051898D01*
X90561928Y-106129524D01*
X90561928Y-106280993D01*
X90021276Y-106821645D01*
X89922002Y-106831423D01*
X89893327Y-106840121D01*
X89758592Y-106853392D01*
X89597858Y-106902150D01*
X89449725Y-106981329D01*
X89319885Y-107087885D01*
X89213329Y-107217725D01*
X89134150Y-107365858D01*
X89085392Y-107526592D01*
X89084682Y-107533800D01*
X89025923Y-107727501D01*
X89009500Y-107894248D01*
X89009500Y-108205077D01*
X89025923Y-108371824D01*
X89090824Y-108585772D01*
X89196216Y-108782949D01*
X89338051Y-108955775D01*
X89510877Y-109097610D01*
X89708053Y-109203002D01*
X89922001Y-109267903D01*
X90144500Y-109289817D01*
X90366998Y-109267903D01*
X90580946Y-109203002D01*
X90778123Y-109097610D01*
X90950949Y-108955775D01*
X90998836Y-108897425D01*
X91024725Y-108918671D01*
X91172858Y-108997850D01*
X91333592Y-109046608D01*
X91416417Y-109054766D01*
X91409499Y-109125010D01*
X91431413Y-109347509D01*
X91496314Y-109561457D01*
X91601706Y-109758633D01*
X91743541Y-109931459D01*
X91916367Y-110073294D01*
X92113543Y-110178686D01*
X92327491Y-110243587D01*
X92494238Y-110260010D01*
X94571185Y-110260010D01*
X94561928Y-110354000D01*
X94561928Y-110694000D01*
X94576878Y-110845794D01*
X94615000Y-110971465D01*
X94615000Y-111212523D01*
X94610718Y-111256000D01*
X94615000Y-111299476D01*
X94615000Y-111326535D01*
X94576878Y-111452206D01*
X94561928Y-111604000D01*
X94561928Y-111944000D01*
X94576878Y-112095794D01*
X94621155Y-112241755D01*
X94693057Y-112376274D01*
X94789820Y-112494180D01*
X94907726Y-112590943D01*
X95023523Y-112652838D01*
X95004774Y-112698102D01*
X94965000Y-112898061D01*
X94965000Y-113101939D01*
X95004774Y-113301898D01*
X95082795Y-113490256D01*
X95196063Y-113659774D01*
X95286289Y-113750000D01*
X95196063Y-113840226D01*
X95082795Y-114009744D01*
X95004774Y-114198102D01*
X94965000Y-114398061D01*
X94965000Y-114601939D01*
X95004774Y-114801898D01*
X95082795Y-114990256D01*
X95196063Y-115159774D01*
X95340226Y-115303937D01*
X95509744Y-115417205D01*
X95698102Y-115495226D01*
X95754956Y-115506535D01*
X95863421Y-115615000D01*
X95440759Y-115615000D01*
X95381612Y-115526480D01*
X95223520Y-115368388D01*
X95037624Y-115244176D01*
X94831067Y-115158617D01*
X94611788Y-115115000D01*
X94388212Y-115115000D01*
X94168933Y-115158617D01*
X93962376Y-115244176D01*
X93776480Y-115368388D01*
X93618388Y-115526480D01*
X93494176Y-115712376D01*
X93408617Y-115918933D01*
X93365000Y-116138212D01*
X93365000Y-116361788D01*
X93408617Y-116581067D01*
X93494176Y-116787624D01*
X93559241Y-116885000D01*
X93240132Y-116885000D01*
X93223520Y-116868388D01*
X93037624Y-116744176D01*
X92831067Y-116658617D01*
X92611788Y-116615000D01*
X92388212Y-116615000D01*
X92168933Y-116658617D01*
X91962376Y-116744176D01*
X91776480Y-116868388D01*
X91618388Y-117026480D01*
X91494176Y-117212376D01*
X91408617Y-117418933D01*
X91365000Y-117638212D01*
X91365000Y-117861788D01*
X91408617Y-118081067D01*
X91494176Y-118287624D01*
X91618388Y-118473520D01*
X91776480Y-118631612D01*
X91962376Y-118755824D01*
X92168933Y-118841383D01*
X92388212Y-118885000D01*
X92611788Y-118885000D01*
X92831067Y-118841383D01*
X93037624Y-118755824D01*
X93188517Y-118655000D01*
X93532513Y-118655000D01*
X93494176Y-118712376D01*
X93408617Y-118918933D01*
X93365000Y-119138212D01*
X93365000Y-119361788D01*
X93408617Y-119581067D01*
X93494176Y-119787624D01*
X93618388Y-119973520D01*
X93776480Y-120131612D01*
X93962376Y-120255824D01*
X94168933Y-120341383D01*
X94388212Y-120385000D01*
X94611788Y-120385000D01*
X94831067Y-120341383D01*
X95037624Y-120255824D01*
X95223520Y-120131612D01*
X95381612Y-119973520D01*
X95414032Y-119925000D01*
X96451719Y-119925000D01*
X96427071Y-120006255D01*
X96411928Y-120160000D01*
X96411928Y-120460000D01*
X96427071Y-120613745D01*
X96470223Y-120756000D01*
X90565000Y-120756000D01*
X90565000Y-124340000D01*
X75660000Y-124340000D01*
X75660000Y-86550001D01*
X75809508Y-86550001D01*
X75814999Y-86605752D01*
X75815000Y-108144237D01*
X75809508Y-108199999D01*
X75831422Y-108422497D01*
X75896323Y-108636445D01*
X75924634Y-108689411D01*
X76001716Y-108833622D01*
X76143551Y-109006448D01*
X76186859Y-109041990D01*
X82361928Y-115217060D01*
X82361928Y-116500000D01*
X82374188Y-116624482D01*
X82410498Y-116744180D01*
X82469463Y-116854494D01*
X82548815Y-116951185D01*
X82645506Y-117030537D01*
X82755820Y-117089502D01*
X82875518Y-117125812D01*
X83000000Y-117138072D01*
X86000000Y-117138072D01*
X86124482Y-117125812D01*
X86244180Y-117089502D01*
X86354494Y-117030537D01*
X86451185Y-116951185D01*
X86530537Y-116854494D01*
X86589502Y-116744180D01*
X86625812Y-116624482D01*
X86638072Y-116500000D01*
X86638072Y-115000000D01*
X86625812Y-114875518D01*
X86589502Y-114755820D01*
X86530537Y-114645506D01*
X86451185Y-114548815D01*
X86354494Y-114469463D01*
X86244180Y-114410498D01*
X86124482Y-114374188D01*
X86000000Y-114361928D01*
X84717060Y-114361928D01*
X78084999Y-107729868D01*
X78084999Y-87020132D01*
X84717060Y-80388072D01*
X86000000Y-80388072D01*
X86124482Y-80375812D01*
X86244180Y-80339502D01*
X86354494Y-80280537D01*
X86451185Y-80201185D01*
X86505501Y-80135000D01*
X88213869Y-80135000D01*
X89837928Y-81759060D01*
X89837928Y-83196000D01*
X89850188Y-83320482D01*
X89886498Y-83440180D01*
X89945463Y-83550494D01*
X90024815Y-83647185D01*
X90121506Y-83726537D01*
X90231820Y-83785502D01*
X90351518Y-83821812D01*
X90476000Y-83834072D01*
X92976000Y-83834072D01*
X93100482Y-83821812D01*
X93220180Y-83785502D01*
X93330494Y-83726537D01*
X93427185Y-83647185D01*
X93506537Y-83550494D01*
X93565502Y-83440180D01*
X93601812Y-83320482D01*
X93614072Y-83196000D01*
X93614072Y-81535204D01*
X93837928Y-81759060D01*
X93837928Y-83196000D01*
X93850188Y-83320482D01*
X93886498Y-83440180D01*
X93945463Y-83550494D01*
X94024815Y-83647185D01*
X94121506Y-83726537D01*
X94231820Y-83785502D01*
X94351518Y-83821812D01*
X94476000Y-83834072D01*
X96976000Y-83834072D01*
X97071928Y-83824624D01*
X97071928Y-84176000D01*
X97084188Y-84300482D01*
X97120498Y-84420180D01*
X97157660Y-84489704D01*
X97071518Y-84498188D01*
X96951820Y-84534498D01*
X96841506Y-84593463D01*
X96744815Y-84672815D01*
X96665463Y-84769506D01*
X96606498Y-84879820D01*
X96570188Y-84999518D01*
X96566496Y-85037000D01*
X95756191Y-85037000D01*
X95725000Y-85033928D01*
X94775000Y-85033928D01*
X94601746Y-85050992D01*
X94435150Y-85101528D01*
X94281614Y-85183595D01*
X94147038Y-85294038D01*
X94036595Y-85428614D01*
X93954528Y-85582150D01*
X93903992Y-85748746D01*
X93886928Y-85922000D01*
X93886928Y-86422000D01*
X93903992Y-86595254D01*
X93954528Y-86761850D01*
X94036595Y-86915386D01*
X94147038Y-87049962D01*
X94281614Y-87160405D01*
X94435150Y-87242472D01*
X94601746Y-87293008D01*
X94775000Y-87310072D01*
X95725000Y-87310072D01*
X95756191Y-87307000D01*
X96557928Y-87307000D01*
X96557928Y-87324000D01*
X96570188Y-87448482D01*
X96606498Y-87568180D01*
X96665463Y-87678494D01*
X96744815Y-87775185D01*
X96841506Y-87854537D01*
X96951820Y-87913502D01*
X97071518Y-87949812D01*
X97196000Y-87962072D01*
X98282493Y-87962072D01*
X98689471Y-88369050D01*
X98717184Y-88402818D01*
X98750952Y-88430531D01*
X98750954Y-88430533D01*
X98822453Y-88489211D01*
X98851942Y-88513412D01*
X99005688Y-88595590D01*
X99172511Y-88646196D01*
X99302524Y-88659001D01*
X99302534Y-88659001D01*
X99346000Y-88663282D01*
X99389466Y-88659001D01*
X100189547Y-88659001D01*
X100237745Y-88691206D01*
X100426103Y-88769227D01*
X100626062Y-88809001D01*
X100829940Y-88809001D01*
X101029899Y-88769227D01*
X101218257Y-88691206D01*
X101266455Y-88659001D01*
X104209496Y-88659001D01*
X104252965Y-88663282D01*
X104296434Y-88659001D01*
X104296442Y-88659001D01*
X104426455Y-88646196D01*
X104593278Y-88595590D01*
X104747024Y-88513412D01*
X104881782Y-88402818D01*
X104909499Y-88369045D01*
X106005049Y-87273496D01*
X106038817Y-87245783D01*
X106078026Y-87198008D01*
X106149411Y-87111025D01*
X106231589Y-86957280D01*
X106282195Y-86790456D01*
X106283345Y-86778775D01*
X106295000Y-86660443D01*
X106295000Y-86660435D01*
X106299281Y-86616966D01*
X106295000Y-86573497D01*
X106295000Y-82051578D01*
X106459563Y-81887015D01*
X106494742Y-81952829D01*
X106533454Y-82000000D01*
X106494742Y-82047171D01*
X106421916Y-82183418D01*
X106377071Y-82331255D01*
X106361928Y-82485000D01*
X106361928Y-82785000D01*
X106377071Y-82938745D01*
X106421916Y-83086582D01*
X106494742Y-83222829D01*
X106592749Y-83342251D01*
X106712171Y-83440258D01*
X106848418Y-83513084D01*
X106996255Y-83557929D01*
X107150000Y-83573072D01*
X108800000Y-83573072D01*
X108953745Y-83557929D01*
X109078783Y-83520000D01*
X113268422Y-83520000D01*
X113374166Y-83625744D01*
X113361928Y-83750000D01*
X113361928Y-85250000D01*
X113374188Y-85374482D01*
X113410498Y-85494180D01*
X113469463Y-85604494D01*
X113548815Y-85701185D01*
X113645506Y-85780537D01*
X113755820Y-85839502D01*
X113875518Y-85875812D01*
X114000000Y-85888072D01*
X117000000Y-85888072D01*
X117124482Y-85875812D01*
X117244180Y-85839502D01*
X117354494Y-85780537D01*
X117451185Y-85701185D01*
X117530537Y-85604494D01*
X117589502Y-85494180D01*
X117625812Y-85374482D01*
X117638072Y-85250000D01*
X117638072Y-83750000D01*
X117625812Y-83625518D01*
X117589502Y-83505820D01*
X117530537Y-83395506D01*
X117451185Y-83298815D01*
X117354494Y-83219463D01*
X117244180Y-83160498D01*
X117124482Y-83124188D01*
X117000000Y-83111928D01*
X115363507Y-83111928D01*
X114291534Y-82039956D01*
X114263817Y-82006183D01*
X114256283Y-82000000D01*
X114263817Y-81993817D01*
X114291534Y-81960044D01*
X115366579Y-80885000D01*
X115633422Y-80885000D01*
X121915001Y-87166580D01*
X121915002Y-108333419D01*
X115633422Y-114615000D01*
X114681963Y-114615000D01*
X114478493Y-114635040D01*
X114217419Y-114714236D01*
X113976812Y-114842843D01*
X113765919Y-115015919D01*
X113592843Y-115226812D01*
X113464236Y-115467419D01*
X113385040Y-115728493D01*
X113358299Y-116000000D01*
X113385040Y-116271507D01*
X113464236Y-116532581D01*
X113592843Y-116773188D01*
X113765919Y-116984081D01*
X113976812Y-117157157D01*
X114217419Y-117285764D01*
X114478493Y-117364960D01*
X114681963Y-117385000D01*
X116318037Y-117385000D01*
X116521507Y-117364960D01*
X116782581Y-117285764D01*
X117023188Y-117157157D01*
X117234081Y-116984081D01*
X117407157Y-116773188D01*
X117535764Y-116532581D01*
X117614960Y-116271507D01*
X117641701Y-116000000D01*
X117614960Y-115728493D01*
X117535764Y-115467419D01*
X117448123Y-115303455D01*
X123395050Y-109356529D01*
X123428818Y-109328816D01*
X123478809Y-109267903D01*
X123539411Y-109194059D01*
X123539412Y-109194058D01*
X123621590Y-109040312D01*
X123672196Y-108873489D01*
X123685001Y-108743476D01*
X123685001Y-108743466D01*
X123689282Y-108700000D01*
X123685001Y-108656534D01*
X123685001Y-86843466D01*
X123689282Y-86800000D01*
X123685001Y-86756534D01*
X123685001Y-86756524D01*
X123672196Y-86626511D01*
X123621590Y-86459688D01*
X123539412Y-86305942D01*
X123515211Y-86276453D01*
X123456533Y-86204954D01*
X123456531Y-86204952D01*
X123428818Y-86171184D01*
X123395052Y-86143473D01*
X117448123Y-80196545D01*
X117535764Y-80032581D01*
X117614960Y-79771507D01*
X117641701Y-79500000D01*
X117614960Y-79228493D01*
X117535764Y-78967419D01*
X117407157Y-78726812D01*
X117234081Y-78515919D01*
X117023188Y-78342843D01*
X116782581Y-78214236D01*
X116521507Y-78135040D01*
X116318037Y-78115000D01*
X114681963Y-78115000D01*
X114478493Y-78135040D01*
X114217419Y-78214236D01*
X113976812Y-78342843D01*
X113765919Y-78515919D01*
X113592843Y-78726812D01*
X113464236Y-78967419D01*
X113385040Y-79228493D01*
X113358299Y-79500000D01*
X113385040Y-79771507D01*
X113464236Y-80032581D01*
X113551877Y-80196545D01*
X113268422Y-80480000D01*
X109548281Y-80480000D01*
X109572929Y-80398745D01*
X109588072Y-80245000D01*
X109588072Y-79945000D01*
X109572929Y-79791255D01*
X109528084Y-79643418D01*
X109455258Y-79507171D01*
X109357251Y-79387749D01*
X109237829Y-79289742D01*
X109101582Y-79216916D01*
X108953745Y-79172071D01*
X108800000Y-79156928D01*
X107150000Y-79156928D01*
X106996255Y-79172071D01*
X106848418Y-79216916D01*
X106839861Y-79221490D01*
X106829627Y-79222498D01*
X106826510Y-79222805D01*
X106659686Y-79273411D01*
X106505941Y-79355589D01*
X106404953Y-79438468D01*
X106404951Y-79438470D01*
X106371183Y-79466183D01*
X106343470Y-79499951D01*
X104814956Y-81028466D01*
X104781183Y-81056183D01*
X104670589Y-81190942D01*
X104638072Y-81251778D01*
X104638072Y-81215000D01*
X104622929Y-81061255D01*
X104578084Y-80913418D01*
X104505258Y-80777171D01*
X104466546Y-80730000D01*
X104505258Y-80682829D01*
X104578084Y-80546582D01*
X104622929Y-80398745D01*
X104638072Y-80245000D01*
X104638072Y-79945000D01*
X104622929Y-79791255D01*
X104578084Y-79643418D01*
X104505258Y-79507171D01*
X104407251Y-79387749D01*
X104287829Y-79289742D01*
X104151582Y-79216916D01*
X104003745Y-79172071D01*
X103850000Y-79156928D01*
X103464879Y-79156928D01*
X103326898Y-79099774D01*
X103126939Y-79060000D01*
X102923061Y-79060000D01*
X102723102Y-79099774D01*
X102585121Y-79156928D01*
X102200000Y-79156928D01*
X102046255Y-79172071D01*
X101898418Y-79216916D01*
X101762171Y-79289742D01*
X101642749Y-79387749D01*
X101545446Y-79506314D01*
X101048072Y-79008940D01*
X101048072Y-77876000D01*
X101035812Y-77751518D01*
X100999502Y-77631820D01*
X100940537Y-77521506D01*
X100861185Y-77424815D01*
X100764494Y-77345463D01*
X100654180Y-77286498D01*
X100534482Y-77250188D01*
X100410000Y-77237928D01*
X97710000Y-77237928D01*
X97585518Y-77250188D01*
X97538072Y-77264581D01*
X97538072Y-77100000D01*
X97521008Y-76926746D01*
X97470472Y-76760150D01*
X97388405Y-76606614D01*
X97277962Y-76472038D01*
X97143386Y-76361595D01*
X96989850Y-76279528D01*
X96823254Y-76228992D01*
X96650000Y-76211928D01*
X95675000Y-76211928D01*
X95501746Y-76228992D01*
X95335150Y-76279528D01*
X95181614Y-76361595D01*
X95047038Y-76472038D01*
X94936595Y-76606614D01*
X94854528Y-76760150D01*
X94803992Y-76926746D01*
X94786928Y-77100000D01*
X94786928Y-79497796D01*
X93213072Y-77923941D01*
X93213072Y-77100000D01*
X93196008Y-76926746D01*
X93145472Y-76760150D01*
X93063405Y-76606614D01*
X92952962Y-76472038D01*
X92818386Y-76361595D01*
X92664850Y-76279528D01*
X92498254Y-76228992D01*
X92325000Y-76211928D01*
X91350000Y-76211928D01*
X91176746Y-76228992D01*
X91010150Y-76279528D01*
X90856614Y-76361595D01*
X90722038Y-76472038D01*
X90611595Y-76606614D01*
X90529528Y-76760150D01*
X90478992Y-76926746D01*
X90461928Y-77100000D01*
X90461928Y-79172797D01*
X89525996Y-78236865D01*
X89490449Y-78193551D01*
X89317623Y-78051716D01*
X89120447Y-77946324D01*
X88906499Y-77881423D01*
X88739752Y-77865000D01*
X88739751Y-77865000D01*
X88684000Y-77859509D01*
X88628249Y-77865000D01*
X86505501Y-77865000D01*
X86451185Y-77798815D01*
X86354494Y-77719463D01*
X86244180Y-77660498D01*
X86124482Y-77624188D01*
X86000000Y-77611928D01*
X83000000Y-77611928D01*
X82875518Y-77624188D01*
X82755820Y-77660498D01*
X82645506Y-77719463D01*
X82548815Y-77798815D01*
X82469463Y-77895506D01*
X82410498Y-78005820D01*
X82374188Y-78125518D01*
X82361928Y-78250000D01*
X82361928Y-79532940D01*
X76186864Y-85708005D01*
X76143550Y-85743552D01*
X76001715Y-85916378D01*
X75930021Y-86050510D01*
X75896323Y-86113555D01*
X75831422Y-86327503D01*
X75809508Y-86550001D01*
X75660000Y-86550001D01*
X75660000Y-75660000D01*
X124340001Y-75660000D01*
X124340000Y-124340000D01*
G37*
G04 #@! TD.AperFunction*
D28*
X114218181Y-106305218D02*
X114369000Y-106320072D01*
X114519001Y-106320072D01*
X114519001Y-106442420D01*
X113383494Y-107577928D01*
X112747000Y-107577928D01*
X112621864Y-107590319D01*
X112596936Y-107597909D01*
X112571482Y-107590188D01*
X112549914Y-107588064D01*
X112607225Y-107480842D01*
X112651218Y-107335819D01*
X112666072Y-107185000D01*
X112666072Y-106815000D01*
X112651218Y-106664181D01*
X112607225Y-106519158D01*
X112550521Y-106413072D01*
X113380000Y-106413072D01*
X113504482Y-106400812D01*
X113624180Y-106364502D01*
X113734494Y-106305537D01*
X113744896Y-106297000D01*
X114191090Y-106297000D01*
X114218181Y-106305218D01*
G04 #@! TA.AperFunction,Conductor*
D29*
G36*
X114218181Y-106305218D02*
G01*
X114369000Y-106320072D01*
X114519001Y-106320072D01*
X114519001Y-106442420D01*
X113383494Y-107577928D01*
X112747000Y-107577928D01*
X112621864Y-107590319D01*
X112596936Y-107597909D01*
X112571482Y-107590188D01*
X112549914Y-107588064D01*
X112607225Y-107480842D01*
X112651218Y-107335819D01*
X112666072Y-107185000D01*
X112666072Y-106815000D01*
X112651218Y-106664181D01*
X112607225Y-106519158D01*
X112550521Y-106413072D01*
X113380000Y-106413072D01*
X113504482Y-106400812D01*
X113624180Y-106364502D01*
X113734494Y-106305537D01*
X113744896Y-106297000D01*
X114191090Y-106297000D01*
X114218181Y-106305218D01*
G37*
G04 #@! TD.AperFunction*
D28*
X87580518Y-101451812D02*
X87705000Y-101464072D01*
X87828219Y-101464072D01*
X87798775Y-101519158D01*
X87754782Y-101664181D01*
X87739928Y-101815000D01*
X87739928Y-102185000D01*
X87754782Y-102335819D01*
X87798775Y-102480842D01*
X87870214Y-102614496D01*
X87875275Y-102620663D01*
X87804482Y-102599188D01*
X87680000Y-102586928D01*
X86633000Y-102586928D01*
X86633000Y-102512061D01*
X86593226Y-102312102D01*
X86515205Y-102123744D01*
X86401937Y-101954226D01*
X86340145Y-101892434D01*
X86768507Y-101464072D01*
X87405000Y-101464072D01*
X87530136Y-101451681D01*
X87555064Y-101444091D01*
X87580518Y-101451812D01*
G04 #@! TA.AperFunction,Conductor*
D29*
G36*
X87580518Y-101451812D02*
G01*
X87705000Y-101464072D01*
X87828219Y-101464072D01*
X87798775Y-101519158D01*
X87754782Y-101664181D01*
X87739928Y-101815000D01*
X87739928Y-102185000D01*
X87754782Y-102335819D01*
X87798775Y-102480842D01*
X87870214Y-102614496D01*
X87875275Y-102620663D01*
X87804482Y-102599188D01*
X87680000Y-102586928D01*
X86633000Y-102586928D01*
X86633000Y-102512061D01*
X86593226Y-102312102D01*
X86515205Y-102123744D01*
X86401937Y-101954226D01*
X86340145Y-101892434D01*
X86768507Y-101464072D01*
X87405000Y-101464072D01*
X87530136Y-101451681D01*
X87555064Y-101444091D01*
X87580518Y-101451812D01*
G37*
G04 #@! TD.AperFunction*
D28*
X114218181Y-97415218D02*
X114369000Y-97430072D01*
X114519001Y-97430072D01*
X114519001Y-97552420D01*
X113383494Y-98687928D01*
X112747000Y-98687928D01*
X112621864Y-98700319D01*
X112596936Y-98707909D01*
X112571482Y-98700188D01*
X112473388Y-98690527D01*
X112535786Y-98614496D01*
X112607225Y-98480842D01*
X112651218Y-98335819D01*
X112666072Y-98185000D01*
X112666072Y-97815000D01*
X112651218Y-97664181D01*
X112607225Y-97519158D01*
X112550521Y-97413072D01*
X113380000Y-97413072D01*
X113504482Y-97400812D01*
X113523642Y-97395000D01*
X114151532Y-97395000D01*
X114218181Y-97415218D01*
G04 #@! TA.AperFunction,Conductor*
D29*
G36*
X114218181Y-97415218D02*
G01*
X114369000Y-97430072D01*
X114519001Y-97430072D01*
X114519001Y-97552420D01*
X113383494Y-98687928D01*
X112747000Y-98687928D01*
X112621864Y-98700319D01*
X112596936Y-98707909D01*
X112571482Y-98700188D01*
X112473388Y-98690527D01*
X112535786Y-98614496D01*
X112607225Y-98480842D01*
X112651218Y-98335819D01*
X112666072Y-98185000D01*
X112666072Y-97815000D01*
X112651218Y-97664181D01*
X112607225Y-97519158D01*
X112550521Y-97413072D01*
X113380000Y-97413072D01*
X113504482Y-97400812D01*
X113523642Y-97395000D01*
X114151532Y-97395000D01*
X114218181Y-97415218D01*
G37*
G04 #@! TD.AperFunction*
D28*
X87580518Y-92307812D02*
X87647052Y-92314365D01*
X87618214Y-92349504D01*
X87546775Y-92483158D01*
X87502782Y-92628181D01*
X87487928Y-92779000D01*
X87487928Y-93149000D01*
X87502782Y-93299819D01*
X87546775Y-93444842D01*
X87618214Y-93578496D01*
X87625134Y-93586928D01*
X86630019Y-93586928D01*
X86633000Y-93571939D01*
X86633000Y-93368061D01*
X86593226Y-93168102D01*
X86515205Y-92979744D01*
X86401937Y-92810226D01*
X86340145Y-92748434D01*
X86768507Y-92320072D01*
X87405000Y-92320072D01*
X87530136Y-92307681D01*
X87555064Y-92300091D01*
X87580518Y-92307812D01*
G04 #@! TA.AperFunction,Conductor*
D29*
G36*
X87580518Y-92307812D02*
G01*
X87647052Y-92314365D01*
X87618214Y-92349504D01*
X87546775Y-92483158D01*
X87502782Y-92628181D01*
X87487928Y-92779000D01*
X87487928Y-93149000D01*
X87502782Y-93299819D01*
X87546775Y-93444842D01*
X87618214Y-93578496D01*
X87625134Y-93586928D01*
X86630019Y-93586928D01*
X86633000Y-93571939D01*
X86633000Y-93368061D01*
X86593226Y-93168102D01*
X86515205Y-92979744D01*
X86401937Y-92810226D01*
X86340145Y-92748434D01*
X86768507Y-92320072D01*
X87405000Y-92320072D01*
X87530136Y-92307681D01*
X87555064Y-92300091D01*
X87580518Y-92307812D01*
G37*
G04 #@! TD.AperFunction*
M02*
