G04 #@! TF.GenerationSoftware,KiCad,Pcbnew,(5.1.9)-1*
G04 #@! TF.CreationDate,2021-06-03T13:52:16+02:00*
G04 #@! TF.ProjectId,seriallight,73657269-616c-46c6-9967-68742e6b6963,rev?*
G04 #@! TF.SameCoordinates,Original*
G04 #@! TF.FileFunction,Paste,Top*
G04 #@! TF.FilePolarity,Positive*
%FSLAX46Y46*%
G04 Gerber Fmt 4.6, Leading zero omitted, Abs format (unit mm)*
G04 Created by KiCad (PCBNEW (5.1.9)-1) date 2021-06-03 13:52:16*
%MOMM*%
%LPD*%
G01*
G04 APERTURE LIST*
%ADD10R,0.650000X1.600000*%
%ADD11R,1.060000X0.650000*%
%ADD12R,2.500000X1.800000*%
%ADD13R,2.700000X1.500000*%
%ADD14R,1.200000X2.200000*%
%ADD15R,2.750000X3.050000*%
G04 APERTURE END LIST*
D10*
X105975000Y-105750000D03*
X105025000Y-105750000D03*
G36*
G01*
X103960000Y-86327000D02*
X103960000Y-85377000D01*
G75*
G02*
X104210000Y-85127000I250000J0D01*
G01*
X104710000Y-85127000D01*
G75*
G02*
X104960000Y-85377000I0J-250000D01*
G01*
X104960000Y-86327000D01*
G75*
G02*
X104710000Y-86577000I-250000J0D01*
G01*
X104210000Y-86577000D01*
G75*
G02*
X103960000Y-86327000I0J250000D01*
G01*
G37*
G36*
G01*
X105860000Y-86327000D02*
X105860000Y-85377000D01*
G75*
G02*
X106110000Y-85127000I250000J0D01*
G01*
X106610000Y-85127000D01*
G75*
G02*
X106860000Y-85377000I0J-250000D01*
G01*
X106860000Y-86327000D01*
G75*
G02*
X106610000Y-86577000I-250000J0D01*
G01*
X106110000Y-86577000D01*
G75*
G02*
X105860000Y-86327000I0J250000D01*
G01*
G37*
G36*
G01*
X94775000Y-87572000D02*
X95725000Y-87572000D01*
G75*
G02*
X95975000Y-87822000I0J-250000D01*
G01*
X95975000Y-88322000D01*
G75*
G02*
X95725000Y-88572000I-250000J0D01*
G01*
X94775000Y-88572000D01*
G75*
G02*
X94525000Y-88322000I0J250000D01*
G01*
X94525000Y-87822000D01*
G75*
G02*
X94775000Y-87572000I250000J0D01*
G01*
G37*
G36*
G01*
X94775000Y-85672000D02*
X95725000Y-85672000D01*
G75*
G02*
X95975000Y-85922000I0J-250000D01*
G01*
X95975000Y-86422000D01*
G75*
G02*
X95725000Y-86672000I-250000J0D01*
G01*
X94775000Y-86672000D01*
G75*
G02*
X94525000Y-86422000I0J250000D01*
G01*
X94525000Y-85922000D01*
G75*
G02*
X94775000Y-85672000I250000J0D01*
G01*
G37*
G36*
G01*
X96900000Y-77100000D02*
X96900000Y-79900000D01*
G75*
G02*
X96650000Y-80150000I-250000J0D01*
G01*
X95675000Y-80150000D01*
G75*
G02*
X95425000Y-79900000I0J250000D01*
G01*
X95425000Y-77100000D01*
G75*
G02*
X95675000Y-76850000I250000J0D01*
G01*
X96650000Y-76850000D01*
G75*
G02*
X96900000Y-77100000I0J-250000D01*
G01*
G37*
G36*
G01*
X92575000Y-77100000D02*
X92575000Y-79900000D01*
G75*
G02*
X92325000Y-80150000I-250000J0D01*
G01*
X91350000Y-80150000D01*
G75*
G02*
X91100000Y-79900000I0J250000D01*
G01*
X91100000Y-77100000D01*
G75*
G02*
X91350000Y-76850000I250000J0D01*
G01*
X92325000Y-76850000D01*
G75*
G02*
X92575000Y-77100000I0J-250000D01*
G01*
G37*
G36*
G01*
X85783000Y-103904000D02*
X85413000Y-103904000D01*
G75*
G02*
X85278000Y-103769000I0J135000D01*
G01*
X85278000Y-103499000D01*
G75*
G02*
X85413000Y-103364000I135000J0D01*
G01*
X85783000Y-103364000D01*
G75*
G02*
X85918000Y-103499000I0J-135000D01*
G01*
X85918000Y-103769000D01*
G75*
G02*
X85783000Y-103904000I-135000J0D01*
G01*
G37*
G36*
G01*
X85783000Y-102884000D02*
X85413000Y-102884000D01*
G75*
G02*
X85278000Y-102749000I0J135000D01*
G01*
X85278000Y-102479000D01*
G75*
G02*
X85413000Y-102344000I135000J0D01*
G01*
X85783000Y-102344000D01*
G75*
G02*
X85918000Y-102479000I0J-135000D01*
G01*
X85918000Y-102749000D01*
G75*
G02*
X85783000Y-102884000I-135000J0D01*
G01*
G37*
G36*
G01*
X114739000Y-104662000D02*
X114369000Y-104662000D01*
G75*
G02*
X114234000Y-104527000I0J135000D01*
G01*
X114234000Y-104257000D01*
G75*
G02*
X114369000Y-104122000I135000J0D01*
G01*
X114739000Y-104122000D01*
G75*
G02*
X114874000Y-104257000I0J-135000D01*
G01*
X114874000Y-104527000D01*
G75*
G02*
X114739000Y-104662000I-135000J0D01*
G01*
G37*
G36*
G01*
X114739000Y-105682000D02*
X114369000Y-105682000D01*
G75*
G02*
X114234000Y-105547000I0J135000D01*
G01*
X114234000Y-105277000D01*
G75*
G02*
X114369000Y-105142000I135000J0D01*
G01*
X114739000Y-105142000D01*
G75*
G02*
X114874000Y-105277000I0J-135000D01*
G01*
X114874000Y-105547000D01*
G75*
G02*
X114739000Y-105682000I-135000J0D01*
G01*
G37*
G36*
G01*
X113048000Y-97815000D02*
X113048000Y-98185000D01*
G75*
G02*
X112913000Y-98320000I-135000J0D01*
G01*
X112643000Y-98320000D01*
G75*
G02*
X112508000Y-98185000I0J135000D01*
G01*
X112508000Y-97815000D01*
G75*
G02*
X112643000Y-97680000I135000J0D01*
G01*
X112913000Y-97680000D01*
G75*
G02*
X113048000Y-97815000I0J-135000D01*
G01*
G37*
G36*
G01*
X112028000Y-97815000D02*
X112028000Y-98185000D01*
G75*
G02*
X111893000Y-98320000I-135000J0D01*
G01*
X111623000Y-98320000D01*
G75*
G02*
X111488000Y-98185000I0J135000D01*
G01*
X111488000Y-97815000D01*
G75*
G02*
X111623000Y-97680000I135000J0D01*
G01*
X111893000Y-97680000D01*
G75*
G02*
X112028000Y-97815000I0J-135000D01*
G01*
G37*
G36*
G01*
X114739000Y-95772000D02*
X114369000Y-95772000D01*
G75*
G02*
X114234000Y-95637000I0J135000D01*
G01*
X114234000Y-95367000D01*
G75*
G02*
X114369000Y-95232000I135000J0D01*
G01*
X114739000Y-95232000D01*
G75*
G02*
X114874000Y-95367000I0J-135000D01*
G01*
X114874000Y-95637000D01*
G75*
G02*
X114739000Y-95772000I-135000J0D01*
G01*
G37*
G36*
G01*
X114739000Y-96792000D02*
X114369000Y-96792000D01*
G75*
G02*
X114234000Y-96657000I0J135000D01*
G01*
X114234000Y-96387000D01*
G75*
G02*
X114369000Y-96252000I135000J0D01*
G01*
X114739000Y-96252000D01*
G75*
G02*
X114874000Y-96387000I0J-135000D01*
G01*
X114874000Y-96657000D01*
G75*
G02*
X114739000Y-96792000I-135000J0D01*
G01*
G37*
G36*
G01*
X85783000Y-94760000D02*
X85413000Y-94760000D01*
G75*
G02*
X85278000Y-94625000I0J135000D01*
G01*
X85278000Y-94355000D01*
G75*
G02*
X85413000Y-94220000I135000J0D01*
G01*
X85783000Y-94220000D01*
G75*
G02*
X85918000Y-94355000I0J-135000D01*
G01*
X85918000Y-94625000D01*
G75*
G02*
X85783000Y-94760000I-135000J0D01*
G01*
G37*
G36*
G01*
X85783000Y-93740000D02*
X85413000Y-93740000D01*
G75*
G02*
X85278000Y-93605000I0J135000D01*
G01*
X85278000Y-93335000D01*
G75*
G02*
X85413000Y-93200000I135000J0D01*
G01*
X85783000Y-93200000D01*
G75*
G02*
X85918000Y-93335000I0J-135000D01*
G01*
X85918000Y-93605000D01*
G75*
G02*
X85783000Y-93740000I-135000J0D01*
G01*
G37*
G36*
G01*
X97050000Y-112840000D02*
X97050000Y-112540000D01*
G75*
G02*
X97200000Y-112390000I150000J0D01*
G01*
X98850000Y-112390000D01*
G75*
G02*
X99000000Y-112540000I0J-150000D01*
G01*
X99000000Y-112840000D01*
G75*
G02*
X98850000Y-112990000I-150000J0D01*
G01*
X97200000Y-112990000D01*
G75*
G02*
X97050000Y-112840000I0J150000D01*
G01*
G37*
G36*
G01*
X97050000Y-114110000D02*
X97050000Y-113810000D01*
G75*
G02*
X97200000Y-113660000I150000J0D01*
G01*
X98850000Y-113660000D01*
G75*
G02*
X99000000Y-113810000I0J-150000D01*
G01*
X99000000Y-114110000D01*
G75*
G02*
X98850000Y-114260000I-150000J0D01*
G01*
X97200000Y-114260000D01*
G75*
G02*
X97050000Y-114110000I0J150000D01*
G01*
G37*
G36*
G01*
X97050000Y-115380000D02*
X97050000Y-115080000D01*
G75*
G02*
X97200000Y-114930000I150000J0D01*
G01*
X98850000Y-114930000D01*
G75*
G02*
X99000000Y-115080000I0J-150000D01*
G01*
X99000000Y-115380000D01*
G75*
G02*
X98850000Y-115530000I-150000J0D01*
G01*
X97200000Y-115530000D01*
G75*
G02*
X97050000Y-115380000I0J150000D01*
G01*
G37*
G36*
G01*
X97050000Y-116650000D02*
X97050000Y-116350000D01*
G75*
G02*
X97200000Y-116200000I150000J0D01*
G01*
X98850000Y-116200000D01*
G75*
G02*
X99000000Y-116350000I0J-150000D01*
G01*
X99000000Y-116650000D01*
G75*
G02*
X98850000Y-116800000I-150000J0D01*
G01*
X97200000Y-116800000D01*
G75*
G02*
X97050000Y-116650000I0J150000D01*
G01*
G37*
G36*
G01*
X97050000Y-117920000D02*
X97050000Y-117620000D01*
G75*
G02*
X97200000Y-117470000I150000J0D01*
G01*
X98850000Y-117470000D01*
G75*
G02*
X99000000Y-117620000I0J-150000D01*
G01*
X99000000Y-117920000D01*
G75*
G02*
X98850000Y-118070000I-150000J0D01*
G01*
X97200000Y-118070000D01*
G75*
G02*
X97050000Y-117920000I0J150000D01*
G01*
G37*
G36*
G01*
X97050000Y-119190000D02*
X97050000Y-118890000D01*
G75*
G02*
X97200000Y-118740000I150000J0D01*
G01*
X98850000Y-118740000D01*
G75*
G02*
X99000000Y-118890000I0J-150000D01*
G01*
X99000000Y-119190000D01*
G75*
G02*
X98850000Y-119340000I-150000J0D01*
G01*
X97200000Y-119340000D01*
G75*
G02*
X97050000Y-119190000I0J150000D01*
G01*
G37*
G36*
G01*
X97050000Y-120460000D02*
X97050000Y-120160000D01*
G75*
G02*
X97200000Y-120010000I150000J0D01*
G01*
X98850000Y-120010000D01*
G75*
G02*
X99000000Y-120160000I0J-150000D01*
G01*
X99000000Y-120460000D01*
G75*
G02*
X98850000Y-120610000I-150000J0D01*
G01*
X97200000Y-120610000D01*
G75*
G02*
X97050000Y-120460000I0J150000D01*
G01*
G37*
G36*
G01*
X102000000Y-120460000D02*
X102000000Y-120160000D01*
G75*
G02*
X102150000Y-120010000I150000J0D01*
G01*
X103800000Y-120010000D01*
G75*
G02*
X103950000Y-120160000I0J-150000D01*
G01*
X103950000Y-120460000D01*
G75*
G02*
X103800000Y-120610000I-150000J0D01*
G01*
X102150000Y-120610000D01*
G75*
G02*
X102000000Y-120460000I0J150000D01*
G01*
G37*
G36*
G01*
X102000000Y-119190000D02*
X102000000Y-118890000D01*
G75*
G02*
X102150000Y-118740000I150000J0D01*
G01*
X103800000Y-118740000D01*
G75*
G02*
X103950000Y-118890000I0J-150000D01*
G01*
X103950000Y-119190000D01*
G75*
G02*
X103800000Y-119340000I-150000J0D01*
G01*
X102150000Y-119340000D01*
G75*
G02*
X102000000Y-119190000I0J150000D01*
G01*
G37*
G36*
G01*
X102000000Y-117920000D02*
X102000000Y-117620000D01*
G75*
G02*
X102150000Y-117470000I150000J0D01*
G01*
X103800000Y-117470000D01*
G75*
G02*
X103950000Y-117620000I0J-150000D01*
G01*
X103950000Y-117920000D01*
G75*
G02*
X103800000Y-118070000I-150000J0D01*
G01*
X102150000Y-118070000D01*
G75*
G02*
X102000000Y-117920000I0J150000D01*
G01*
G37*
G36*
G01*
X102000000Y-116650000D02*
X102000000Y-116350000D01*
G75*
G02*
X102150000Y-116200000I150000J0D01*
G01*
X103800000Y-116200000D01*
G75*
G02*
X103950000Y-116350000I0J-150000D01*
G01*
X103950000Y-116650000D01*
G75*
G02*
X103800000Y-116800000I-150000J0D01*
G01*
X102150000Y-116800000D01*
G75*
G02*
X102000000Y-116650000I0J150000D01*
G01*
G37*
G36*
G01*
X102000000Y-115380000D02*
X102000000Y-115080000D01*
G75*
G02*
X102150000Y-114930000I150000J0D01*
G01*
X103800000Y-114930000D01*
G75*
G02*
X103950000Y-115080000I0J-150000D01*
G01*
X103950000Y-115380000D01*
G75*
G02*
X103800000Y-115530000I-150000J0D01*
G01*
X102150000Y-115530000D01*
G75*
G02*
X102000000Y-115380000I0J150000D01*
G01*
G37*
G36*
G01*
X102000000Y-114110000D02*
X102000000Y-113810000D01*
G75*
G02*
X102150000Y-113660000I150000J0D01*
G01*
X103800000Y-113660000D01*
G75*
G02*
X103950000Y-113810000I0J-150000D01*
G01*
X103950000Y-114110000D01*
G75*
G02*
X103800000Y-114260000I-150000J0D01*
G01*
X102150000Y-114260000D01*
G75*
G02*
X102000000Y-114110000I0J150000D01*
G01*
G37*
G36*
G01*
X102000000Y-112840000D02*
X102000000Y-112540000D01*
G75*
G02*
X102150000Y-112390000I150000J0D01*
G01*
X103800000Y-112390000D01*
G75*
G02*
X103950000Y-112540000I0J-150000D01*
G01*
X103950000Y-112840000D01*
G75*
G02*
X103800000Y-112990000I-150000J0D01*
G01*
X102150000Y-112990000D01*
G75*
G02*
X102000000Y-112840000I0J150000D01*
G01*
G37*
G36*
G01*
X102050000Y-80245000D02*
X102050000Y-79945000D01*
G75*
G02*
X102200000Y-79795000I150000J0D01*
G01*
X103850000Y-79795000D01*
G75*
G02*
X104000000Y-79945000I0J-150000D01*
G01*
X104000000Y-80245000D01*
G75*
G02*
X103850000Y-80395000I-150000J0D01*
G01*
X102200000Y-80395000D01*
G75*
G02*
X102050000Y-80245000I0J150000D01*
G01*
G37*
G36*
G01*
X102050000Y-81515000D02*
X102050000Y-81215000D01*
G75*
G02*
X102200000Y-81065000I150000J0D01*
G01*
X103850000Y-81065000D01*
G75*
G02*
X104000000Y-81215000I0J-150000D01*
G01*
X104000000Y-81515000D01*
G75*
G02*
X103850000Y-81665000I-150000J0D01*
G01*
X102200000Y-81665000D01*
G75*
G02*
X102050000Y-81515000I0J150000D01*
G01*
G37*
G36*
G01*
X102050000Y-82785000D02*
X102050000Y-82485000D01*
G75*
G02*
X102200000Y-82335000I150000J0D01*
G01*
X103850000Y-82335000D01*
G75*
G02*
X104000000Y-82485000I0J-150000D01*
G01*
X104000000Y-82785000D01*
G75*
G02*
X103850000Y-82935000I-150000J0D01*
G01*
X102200000Y-82935000D01*
G75*
G02*
X102050000Y-82785000I0J150000D01*
G01*
G37*
G36*
G01*
X102050000Y-84055000D02*
X102050000Y-83755000D01*
G75*
G02*
X102200000Y-83605000I150000J0D01*
G01*
X103850000Y-83605000D01*
G75*
G02*
X104000000Y-83755000I0J-150000D01*
G01*
X104000000Y-84055000D01*
G75*
G02*
X103850000Y-84205000I-150000J0D01*
G01*
X102200000Y-84205000D01*
G75*
G02*
X102050000Y-84055000I0J150000D01*
G01*
G37*
G36*
G01*
X107000000Y-84055000D02*
X107000000Y-83755000D01*
G75*
G02*
X107150000Y-83605000I150000J0D01*
G01*
X108800000Y-83605000D01*
G75*
G02*
X108950000Y-83755000I0J-150000D01*
G01*
X108950000Y-84055000D01*
G75*
G02*
X108800000Y-84205000I-150000J0D01*
G01*
X107150000Y-84205000D01*
G75*
G02*
X107000000Y-84055000I0J150000D01*
G01*
G37*
G36*
G01*
X107000000Y-82785000D02*
X107000000Y-82485000D01*
G75*
G02*
X107150000Y-82335000I150000J0D01*
G01*
X108800000Y-82335000D01*
G75*
G02*
X108950000Y-82485000I0J-150000D01*
G01*
X108950000Y-82785000D01*
G75*
G02*
X108800000Y-82935000I-150000J0D01*
G01*
X107150000Y-82935000D01*
G75*
G02*
X107000000Y-82785000I0J150000D01*
G01*
G37*
G36*
G01*
X107000000Y-81515000D02*
X107000000Y-81215000D01*
G75*
G02*
X107150000Y-81065000I150000J0D01*
G01*
X108800000Y-81065000D01*
G75*
G02*
X108950000Y-81215000I0J-150000D01*
G01*
X108950000Y-81515000D01*
G75*
G02*
X108800000Y-81665000I-150000J0D01*
G01*
X107150000Y-81665000D01*
G75*
G02*
X107000000Y-81515000I0J150000D01*
G01*
G37*
G36*
G01*
X107000000Y-80245000D02*
X107000000Y-79945000D01*
G75*
G02*
X107150000Y-79795000I150000J0D01*
G01*
X108800000Y-79795000D01*
G75*
G02*
X108950000Y-79945000I0J-150000D01*
G01*
X108950000Y-80245000D01*
G75*
G02*
X108800000Y-80395000I-150000J0D01*
G01*
X107150000Y-80395000D01*
G75*
G02*
X107000000Y-80245000I0J150000D01*
G01*
G37*
X92475000Y-105750000D03*
X91525000Y-105750000D03*
X107525000Y-103250000D03*
X108475000Y-103250000D03*
X94025000Y-105750000D03*
X94975000Y-105750000D03*
X105975000Y-103250000D03*
X105025000Y-103250000D03*
X94025000Y-103250000D03*
X94975000Y-103250000D03*
X92475000Y-103250000D03*
X91525000Y-103250000D03*
X107525000Y-105750000D03*
X108475000Y-105750000D03*
X108475000Y-94250000D03*
X107525000Y-94250000D03*
X92475000Y-96750000D03*
X91525000Y-96750000D03*
X105025000Y-94250000D03*
X105975000Y-94250000D03*
X94975000Y-96750000D03*
X94025000Y-96750000D03*
X105025000Y-96750000D03*
X105975000Y-96750000D03*
X94975000Y-94250000D03*
X94025000Y-94250000D03*
X107525000Y-96750000D03*
X108475000Y-96750000D03*
X91525000Y-94250000D03*
X92475000Y-94250000D03*
G36*
G01*
X88378000Y-102185000D02*
X88378000Y-101815000D01*
G75*
G02*
X88513000Y-101680000I135000J0D01*
G01*
X88783000Y-101680000D01*
G75*
G02*
X88918000Y-101815000I0J-135000D01*
G01*
X88918000Y-102185000D01*
G75*
G02*
X88783000Y-102320000I-135000J0D01*
G01*
X88513000Y-102320000D01*
G75*
G02*
X88378000Y-102185000I0J135000D01*
G01*
G37*
G36*
G01*
X87358000Y-102185000D02*
X87358000Y-101815000D01*
G75*
G02*
X87493000Y-101680000I135000J0D01*
G01*
X87763000Y-101680000D01*
G75*
G02*
X87898000Y-101815000I0J-135000D01*
G01*
X87898000Y-102185000D01*
G75*
G02*
X87763000Y-102320000I-135000J0D01*
G01*
X87493000Y-102320000D01*
G75*
G02*
X87358000Y-102185000I0J135000D01*
G01*
G37*
G36*
G01*
X113048000Y-106815000D02*
X113048000Y-107185000D01*
G75*
G02*
X112913000Y-107320000I-135000J0D01*
G01*
X112643000Y-107320000D01*
G75*
G02*
X112508000Y-107185000I0J135000D01*
G01*
X112508000Y-106815000D01*
G75*
G02*
X112643000Y-106680000I135000J0D01*
G01*
X112913000Y-106680000D01*
G75*
G02*
X113048000Y-106815000I0J-135000D01*
G01*
G37*
G36*
G01*
X112028000Y-106815000D02*
X112028000Y-107185000D01*
G75*
G02*
X111893000Y-107320000I-135000J0D01*
G01*
X111623000Y-107320000D01*
G75*
G02*
X111488000Y-107185000I0J135000D01*
G01*
X111488000Y-106815000D01*
G75*
G02*
X111623000Y-106680000I135000J0D01*
G01*
X111893000Y-106680000D01*
G75*
G02*
X112028000Y-106815000I0J-135000D01*
G01*
G37*
G36*
G01*
X87106000Y-93149000D02*
X87106000Y-92779000D01*
G75*
G02*
X87241000Y-92644000I135000J0D01*
G01*
X87511000Y-92644000D01*
G75*
G02*
X87646000Y-92779000I0J-135000D01*
G01*
X87646000Y-93149000D01*
G75*
G02*
X87511000Y-93284000I-135000J0D01*
G01*
X87241000Y-93284000D01*
G75*
G02*
X87106000Y-93149000I0J135000D01*
G01*
G37*
G36*
G01*
X88126000Y-93149000D02*
X88126000Y-92779000D01*
G75*
G02*
X88261000Y-92644000I135000J0D01*
G01*
X88531000Y-92644000D01*
G75*
G02*
X88666000Y-92779000I0J-135000D01*
G01*
X88666000Y-93149000D01*
G75*
G02*
X88531000Y-93284000I-135000J0D01*
G01*
X88261000Y-93284000D01*
G75*
G02*
X88126000Y-93149000I0J135000D01*
G01*
G37*
D11*
X87150000Y-103550000D03*
X87150000Y-104500000D03*
X87150000Y-105450000D03*
X89350000Y-105450000D03*
X89350000Y-103550000D03*
X89350000Y-104500000D03*
X110650000Y-104500000D03*
X110650000Y-105450000D03*
X110650000Y-103550000D03*
X112850000Y-103550000D03*
X112850000Y-104500000D03*
X112850000Y-105450000D03*
X110650000Y-95500000D03*
X110650000Y-96450000D03*
X110650000Y-94550000D03*
X112850000Y-94550000D03*
X112850000Y-95500000D03*
X112850000Y-96450000D03*
X87150000Y-94550000D03*
X87150000Y-95500000D03*
X87150000Y-96450000D03*
X89350000Y-96450000D03*
X89350000Y-94550000D03*
X89350000Y-95500000D03*
G36*
G01*
X94800000Y-110354000D02*
X94800000Y-110694000D01*
G75*
G02*
X94660000Y-110834000I-140000J0D01*
G01*
X94380000Y-110834000D01*
G75*
G02*
X94240000Y-110694000I0J140000D01*
G01*
X94240000Y-110354000D01*
G75*
G02*
X94380000Y-110214000I140000J0D01*
G01*
X94660000Y-110214000D01*
G75*
G02*
X94800000Y-110354000I0J-140000D01*
G01*
G37*
G36*
G01*
X95760000Y-110354000D02*
X95760000Y-110694000D01*
G75*
G02*
X95620000Y-110834000I-140000J0D01*
G01*
X95340000Y-110834000D01*
G75*
G02*
X95200000Y-110694000I0J140000D01*
G01*
X95200000Y-110354000D01*
G75*
G02*
X95340000Y-110214000I140000J0D01*
G01*
X95620000Y-110214000D01*
G75*
G02*
X95760000Y-110354000I0J-140000D01*
G01*
G37*
G36*
G01*
X95760000Y-111604000D02*
X95760000Y-111944000D01*
G75*
G02*
X95620000Y-112084000I-140000J0D01*
G01*
X95340000Y-112084000D01*
G75*
G02*
X95200000Y-111944000I0J140000D01*
G01*
X95200000Y-111604000D01*
G75*
G02*
X95340000Y-111464000I140000J0D01*
G01*
X95620000Y-111464000D01*
G75*
G02*
X95760000Y-111604000I0J-140000D01*
G01*
G37*
G36*
G01*
X94800000Y-111604000D02*
X94800000Y-111944000D01*
G75*
G02*
X94660000Y-112084000I-140000J0D01*
G01*
X94380000Y-112084000D01*
G75*
G02*
X94240000Y-111944000I0J140000D01*
G01*
X94240000Y-111604000D01*
G75*
G02*
X94380000Y-111464000I140000J0D01*
G01*
X94660000Y-111464000D01*
G75*
G02*
X94800000Y-111604000I0J-140000D01*
G01*
G37*
G36*
G01*
X90582000Y-107693750D02*
X90582000Y-108206250D01*
G75*
G02*
X90363250Y-108425000I-218750J0D01*
G01*
X89925750Y-108425000D01*
G75*
G02*
X89707000Y-108206250I0J218750D01*
G01*
X89707000Y-107693750D01*
G75*
G02*
X89925750Y-107475000I218750J0D01*
G01*
X90363250Y-107475000D01*
G75*
G02*
X90582000Y-107693750I0J-218750D01*
G01*
G37*
G36*
G01*
X92157000Y-107693750D02*
X92157000Y-108206250D01*
G75*
G02*
X91938250Y-108425000I-218750J0D01*
G01*
X91500750Y-108425000D01*
G75*
G02*
X91282000Y-108206250I0J218750D01*
G01*
X91282000Y-107693750D01*
G75*
G02*
X91500750Y-107475000I218750J0D01*
G01*
X91938250Y-107475000D01*
G75*
G02*
X92157000Y-107693750I0J-218750D01*
G01*
G37*
G36*
G01*
X107995000Y-101348250D02*
X107995000Y-100835750D01*
G75*
G02*
X108213750Y-100617000I218750J0D01*
G01*
X108651250Y-100617000D01*
G75*
G02*
X108870000Y-100835750I0J-218750D01*
G01*
X108870000Y-101348250D01*
G75*
G02*
X108651250Y-101567000I-218750J0D01*
G01*
X108213750Y-101567000D01*
G75*
G02*
X107995000Y-101348250I0J218750D01*
G01*
G37*
G36*
G01*
X109570000Y-101348250D02*
X109570000Y-100835750D01*
G75*
G02*
X109788750Y-100617000I218750J0D01*
G01*
X110226250Y-100617000D01*
G75*
G02*
X110445000Y-100835750I0J-218750D01*
G01*
X110445000Y-101348250D01*
G75*
G02*
X110226250Y-101567000I-218750J0D01*
G01*
X109788750Y-101567000D01*
G75*
G02*
X109570000Y-101348250I0J218750D01*
G01*
G37*
G36*
G01*
X95459000Y-107693750D02*
X95459000Y-108206250D01*
G75*
G02*
X95240250Y-108425000I-218750J0D01*
G01*
X94802750Y-108425000D01*
G75*
G02*
X94584000Y-108206250I0J218750D01*
G01*
X94584000Y-107693750D01*
G75*
G02*
X94802750Y-107475000I218750J0D01*
G01*
X95240250Y-107475000D01*
G75*
G02*
X95459000Y-107693750I0J-218750D01*
G01*
G37*
G36*
G01*
X93884000Y-107693750D02*
X93884000Y-108206250D01*
G75*
G02*
X93665250Y-108425000I-218750J0D01*
G01*
X93227750Y-108425000D01*
G75*
G02*
X93009000Y-108206250I0J218750D01*
G01*
X93009000Y-107693750D01*
G75*
G02*
X93227750Y-107475000I218750J0D01*
G01*
X93665250Y-107475000D01*
G75*
G02*
X93884000Y-107693750I0J-218750D01*
G01*
G37*
G36*
G01*
X106268000Y-101348250D02*
X106268000Y-100835750D01*
G75*
G02*
X106486750Y-100617000I218750J0D01*
G01*
X106924250Y-100617000D01*
G75*
G02*
X107143000Y-100835750I0J-218750D01*
G01*
X107143000Y-101348250D01*
G75*
G02*
X106924250Y-101567000I-218750J0D01*
G01*
X106486750Y-101567000D01*
G75*
G02*
X106268000Y-101348250I0J218750D01*
G01*
G37*
G36*
G01*
X104693000Y-101348250D02*
X104693000Y-100835750D01*
G75*
G02*
X104911750Y-100617000I218750J0D01*
G01*
X105349250Y-100617000D01*
G75*
G02*
X105568000Y-100835750I0J-218750D01*
G01*
X105568000Y-101348250D01*
G75*
G02*
X105349250Y-101567000I-218750J0D01*
G01*
X104911750Y-101567000D01*
G75*
G02*
X104693000Y-101348250I0J218750D01*
G01*
G37*
G36*
G01*
X94584000Y-101348250D02*
X94584000Y-100835750D01*
G75*
G02*
X94802750Y-100617000I218750J0D01*
G01*
X95240250Y-100617000D01*
G75*
G02*
X95459000Y-100835750I0J-218750D01*
G01*
X95459000Y-101348250D01*
G75*
G02*
X95240250Y-101567000I-218750J0D01*
G01*
X94802750Y-101567000D01*
G75*
G02*
X94584000Y-101348250I0J218750D01*
G01*
G37*
G36*
G01*
X93009000Y-101348250D02*
X93009000Y-100835750D01*
G75*
G02*
X93227750Y-100617000I218750J0D01*
G01*
X93665250Y-100617000D01*
G75*
G02*
X93884000Y-100835750I0J-218750D01*
G01*
X93884000Y-101348250D01*
G75*
G02*
X93665250Y-101567000I-218750J0D01*
G01*
X93227750Y-101567000D01*
G75*
G02*
X93009000Y-101348250I0J218750D01*
G01*
G37*
G36*
G01*
X105568000Y-107693750D02*
X105568000Y-108206250D01*
G75*
G02*
X105349250Y-108425000I-218750J0D01*
G01*
X104911750Y-108425000D01*
G75*
G02*
X104693000Y-108206250I0J218750D01*
G01*
X104693000Y-107693750D01*
G75*
G02*
X104911750Y-107475000I218750J0D01*
G01*
X105349250Y-107475000D01*
G75*
G02*
X105568000Y-107693750I0J-218750D01*
G01*
G37*
G36*
G01*
X107143000Y-107693750D02*
X107143000Y-108206250D01*
G75*
G02*
X106924250Y-108425000I-218750J0D01*
G01*
X106486750Y-108425000D01*
G75*
G02*
X106268000Y-108206250I0J218750D01*
G01*
X106268000Y-107693750D01*
G75*
G02*
X106486750Y-107475000I218750J0D01*
G01*
X106924250Y-107475000D01*
G75*
G02*
X107143000Y-107693750I0J-218750D01*
G01*
G37*
G36*
G01*
X89707000Y-101348250D02*
X89707000Y-100835750D01*
G75*
G02*
X89925750Y-100617000I218750J0D01*
G01*
X90363250Y-100617000D01*
G75*
G02*
X90582000Y-100835750I0J-218750D01*
G01*
X90582000Y-101348250D01*
G75*
G02*
X90363250Y-101567000I-218750J0D01*
G01*
X89925750Y-101567000D01*
G75*
G02*
X89707000Y-101348250I0J218750D01*
G01*
G37*
G36*
G01*
X91282000Y-101348250D02*
X91282000Y-100835750D01*
G75*
G02*
X91500750Y-100617000I218750J0D01*
G01*
X91938250Y-100617000D01*
G75*
G02*
X92157000Y-100835750I0J-218750D01*
G01*
X92157000Y-101348250D01*
G75*
G02*
X91938250Y-101567000I-218750J0D01*
G01*
X91500750Y-101567000D01*
G75*
G02*
X91282000Y-101348250I0J218750D01*
G01*
G37*
G36*
G01*
X110445000Y-107693750D02*
X110445000Y-108206250D01*
G75*
G02*
X110226250Y-108425000I-218750J0D01*
G01*
X109788750Y-108425000D01*
G75*
G02*
X109570000Y-108206250I0J218750D01*
G01*
X109570000Y-107693750D01*
G75*
G02*
X109788750Y-107475000I218750J0D01*
G01*
X110226250Y-107475000D01*
G75*
G02*
X110445000Y-107693750I0J-218750D01*
G01*
G37*
G36*
G01*
X108870000Y-107693750D02*
X108870000Y-108206250D01*
G75*
G02*
X108651250Y-108425000I-218750J0D01*
G01*
X108213750Y-108425000D01*
G75*
G02*
X107995000Y-108206250I0J218750D01*
G01*
X107995000Y-107693750D01*
G75*
G02*
X108213750Y-107475000I218750J0D01*
G01*
X108651250Y-107475000D01*
G75*
G02*
X108870000Y-107693750I0J-218750D01*
G01*
G37*
G36*
G01*
X107995000Y-92458250D02*
X107995000Y-91945750D01*
G75*
G02*
X108213750Y-91727000I218750J0D01*
G01*
X108651250Y-91727000D01*
G75*
G02*
X108870000Y-91945750I0J-218750D01*
G01*
X108870000Y-92458250D01*
G75*
G02*
X108651250Y-92677000I-218750J0D01*
G01*
X108213750Y-92677000D01*
G75*
G02*
X107995000Y-92458250I0J218750D01*
G01*
G37*
G36*
G01*
X109570000Y-92458250D02*
X109570000Y-91945750D01*
G75*
G02*
X109788750Y-91727000I218750J0D01*
G01*
X110226250Y-91727000D01*
G75*
G02*
X110445000Y-91945750I0J-218750D01*
G01*
X110445000Y-92458250D01*
G75*
G02*
X110226250Y-92677000I-218750J0D01*
G01*
X109788750Y-92677000D01*
G75*
G02*
X109570000Y-92458250I0J218750D01*
G01*
G37*
G36*
G01*
X90582000Y-98549750D02*
X90582000Y-99062250D01*
G75*
G02*
X90363250Y-99281000I-218750J0D01*
G01*
X89925750Y-99281000D01*
G75*
G02*
X89707000Y-99062250I0J218750D01*
G01*
X89707000Y-98549750D01*
G75*
G02*
X89925750Y-98331000I218750J0D01*
G01*
X90363250Y-98331000D01*
G75*
G02*
X90582000Y-98549750I0J-218750D01*
G01*
G37*
G36*
G01*
X92157000Y-98549750D02*
X92157000Y-99062250D01*
G75*
G02*
X91938250Y-99281000I-218750J0D01*
G01*
X91500750Y-99281000D01*
G75*
G02*
X91282000Y-99062250I0J218750D01*
G01*
X91282000Y-98549750D01*
G75*
G02*
X91500750Y-98331000I218750J0D01*
G01*
X91938250Y-98331000D01*
G75*
G02*
X92157000Y-98549750I0J-218750D01*
G01*
G37*
G36*
G01*
X106268000Y-92458250D02*
X106268000Y-91945750D01*
G75*
G02*
X106486750Y-91727000I218750J0D01*
G01*
X106924250Y-91727000D01*
G75*
G02*
X107143000Y-91945750I0J-218750D01*
G01*
X107143000Y-92458250D01*
G75*
G02*
X106924250Y-92677000I-218750J0D01*
G01*
X106486750Y-92677000D01*
G75*
G02*
X106268000Y-92458250I0J218750D01*
G01*
G37*
G36*
G01*
X104693000Y-92458250D02*
X104693000Y-91945750D01*
G75*
G02*
X104911750Y-91727000I218750J0D01*
G01*
X105349250Y-91727000D01*
G75*
G02*
X105568000Y-91945750I0J-218750D01*
G01*
X105568000Y-92458250D01*
G75*
G02*
X105349250Y-92677000I-218750J0D01*
G01*
X104911750Y-92677000D01*
G75*
G02*
X104693000Y-92458250I0J218750D01*
G01*
G37*
G36*
G01*
X95459000Y-98549750D02*
X95459000Y-99062250D01*
G75*
G02*
X95240250Y-99281000I-218750J0D01*
G01*
X94802750Y-99281000D01*
G75*
G02*
X94584000Y-99062250I0J218750D01*
G01*
X94584000Y-98549750D01*
G75*
G02*
X94802750Y-98331000I218750J0D01*
G01*
X95240250Y-98331000D01*
G75*
G02*
X95459000Y-98549750I0J-218750D01*
G01*
G37*
G36*
G01*
X93884000Y-98549750D02*
X93884000Y-99062250D01*
G75*
G02*
X93665250Y-99281000I-218750J0D01*
G01*
X93227750Y-99281000D01*
G75*
G02*
X93009000Y-99062250I0J218750D01*
G01*
X93009000Y-98549750D01*
G75*
G02*
X93227750Y-98331000I218750J0D01*
G01*
X93665250Y-98331000D01*
G75*
G02*
X93884000Y-98549750I0J-218750D01*
G01*
G37*
G36*
G01*
X107143000Y-98549750D02*
X107143000Y-99062250D01*
G75*
G02*
X106924250Y-99281000I-218750J0D01*
G01*
X106486750Y-99281000D01*
G75*
G02*
X106268000Y-99062250I0J218750D01*
G01*
X106268000Y-98549750D01*
G75*
G02*
X106486750Y-98331000I218750J0D01*
G01*
X106924250Y-98331000D01*
G75*
G02*
X107143000Y-98549750I0J-218750D01*
G01*
G37*
G36*
G01*
X105568000Y-98549750D02*
X105568000Y-99062250D01*
G75*
G02*
X105349250Y-99281000I-218750J0D01*
G01*
X104911750Y-99281000D01*
G75*
G02*
X104693000Y-99062250I0J218750D01*
G01*
X104693000Y-98549750D01*
G75*
G02*
X104911750Y-98331000I218750J0D01*
G01*
X105349250Y-98331000D01*
G75*
G02*
X105568000Y-98549750I0J-218750D01*
G01*
G37*
G36*
G01*
X94584000Y-92458250D02*
X94584000Y-91945750D01*
G75*
G02*
X94802750Y-91727000I218750J0D01*
G01*
X95240250Y-91727000D01*
G75*
G02*
X95459000Y-91945750I0J-218750D01*
G01*
X95459000Y-92458250D01*
G75*
G02*
X95240250Y-92677000I-218750J0D01*
G01*
X94802750Y-92677000D01*
G75*
G02*
X94584000Y-92458250I0J218750D01*
G01*
G37*
G36*
G01*
X93009000Y-92458250D02*
X93009000Y-91945750D01*
G75*
G02*
X93227750Y-91727000I218750J0D01*
G01*
X93665250Y-91727000D01*
G75*
G02*
X93884000Y-91945750I0J-218750D01*
G01*
X93884000Y-92458250D01*
G75*
G02*
X93665250Y-92677000I-218750J0D01*
G01*
X93227750Y-92677000D01*
G75*
G02*
X93009000Y-92458250I0J218750D01*
G01*
G37*
G36*
G01*
X108870000Y-98549750D02*
X108870000Y-99062250D01*
G75*
G02*
X108651250Y-99281000I-218750J0D01*
G01*
X108213750Y-99281000D01*
G75*
G02*
X107995000Y-99062250I0J218750D01*
G01*
X107995000Y-98549750D01*
G75*
G02*
X108213750Y-98331000I218750J0D01*
G01*
X108651250Y-98331000D01*
G75*
G02*
X108870000Y-98549750I0J-218750D01*
G01*
G37*
G36*
G01*
X110445000Y-98549750D02*
X110445000Y-99062250D01*
G75*
G02*
X110226250Y-99281000I-218750J0D01*
G01*
X109788750Y-99281000D01*
G75*
G02*
X109570000Y-99062250I0J218750D01*
G01*
X109570000Y-98549750D01*
G75*
G02*
X109788750Y-98331000I218750J0D01*
G01*
X110226250Y-98331000D01*
G75*
G02*
X110445000Y-98549750I0J-218750D01*
G01*
G37*
G36*
G01*
X89707000Y-92458250D02*
X89707000Y-91945750D01*
G75*
G02*
X89925750Y-91727000I218750J0D01*
G01*
X90363250Y-91727000D01*
G75*
G02*
X90582000Y-91945750I0J-218750D01*
G01*
X90582000Y-92458250D01*
G75*
G02*
X90363250Y-92677000I-218750J0D01*
G01*
X89925750Y-92677000D01*
G75*
G02*
X89707000Y-92458250I0J218750D01*
G01*
G37*
G36*
G01*
X91282000Y-92458250D02*
X91282000Y-91945750D01*
G75*
G02*
X91500750Y-91727000I218750J0D01*
G01*
X91938250Y-91727000D01*
G75*
G02*
X92157000Y-91945750I0J-218750D01*
G01*
X92157000Y-92458250D01*
G75*
G02*
X91938250Y-92677000I-218750J0D01*
G01*
X91500750Y-92677000D01*
G75*
G02*
X91282000Y-92458250I0J218750D01*
G01*
G37*
D12*
X95726000Y-82296000D03*
X91726000Y-82296000D03*
D13*
X99060000Y-78626000D03*
X99060000Y-83426000D03*
D14*
X102356000Y-86224000D03*
X97796000Y-86224000D03*
D15*
X98551000Y-94199000D03*
X101601000Y-90849000D03*
X101601000Y-94199000D03*
X98551000Y-90849000D03*
M02*
