M48
; DRILL file {KiCad (5.1.9)-1} date 06/03/21 13:52:20
; FORMAT={-:-/ absolute / metric / decimal}
; #@! TF.CreationDate,2021-06-03T13:52:20+02:00
; #@! TF.GenerationSoftware,Kicad,Pcbnew,(5.1.9)-1
FMAT,2
METRIC
T1C0.400
T2C1.000
T3C1.150
T4C2.700
T5C4.300
%
G90
G05
T1
X85.598Y-93.47
X85.598Y-102.614
X87.376Y-92.964
X87.63Y-102.108
X89.408Y-96.52
X89.408Y-105.664
X91.525Y-96.75
X91.525Y-105.75
X92.55Y-109.125
X96.0Y-113.0
X96.0Y-114.5
X96.162Y-78.5
X98.025Y-120.31
X98.088Y-112.627
X100.728Y-87.774
X101.432Y-119.04
X101.5Y-114.5
X101.5Y-116.0
X102.975Y-120.31
X103.025Y-80.095
X103.025Y-82.635
X103.025Y-83.905
X105.23Y-109.125
X108.475Y-94.25
X108.475Y-103.25
X110.744Y-94.488
X110.744Y-103.378
X112.776Y-97.79
X112.776Y-106.934
X114.554Y-95.502
X114.554Y-104.392
T2
X102.87Y-123.19
X105.41Y-123.19
X107.95Y-123.19
T3
X84.5Y-79.0
X84.5Y-84.0
X84.5Y-115.75
X84.5Y-120.75
X115.5Y-79.5
X115.5Y-84.5
X115.5Y-116.0
X115.5Y-121.0
T4
X80.0Y-100.0
X120.0Y-99.75
T5
X100.0Y-100.0
T0
M30
