%FSLAX45Y45*%
G04 Gerber Fmt 4.5, Leading zero omitted, Abs format (unit mm)*
G04 Created by KiCad (PCBNEW (5.1.9)-1) date 2021-06-03 13:52:21*
%MOMM*%
%LPD*%
G01*
G04 APERTURE LIST*
%TA.AperFunction,Profile*%
%ADD10C,0.050000*%
%TD*%
%ADD11C,0.200000*%
%ADD12C,0.300000*%
G04 APERTURE END LIST*
D10*
X7500000Y-7500000D02*
X7500000Y-12500000D01*
X12500000Y-7500000D02*
X7500000Y-7500000D01*
X12500000Y-12500000D02*
X12500000Y-7500000D01*
X7500000Y-12500000D02*
X12500000Y-12500000D01*
D11*
X8539800Y-9327000D02*
X8579800Y-9367000D01*
X8579800Y-9327000D02*
X8539800Y-9367000D01*
X8539800Y-10241400D02*
X8579800Y-10281400D01*
X8579800Y-10241400D02*
X8539800Y-10281400D01*
X8717600Y-9276400D02*
X8757600Y-9316400D01*
X8757600Y-9276400D02*
X8717600Y-9316400D01*
X8743000Y-10190800D02*
X8783000Y-10230800D01*
X8783000Y-10190800D02*
X8743000Y-10230800D01*
X8920800Y-9632000D02*
X8960800Y-9672000D01*
X8960800Y-9632000D02*
X8920800Y-9672000D01*
X8920800Y-10546400D02*
X8960800Y-10586400D01*
X8960800Y-10546400D02*
X8920800Y-10586400D01*
X9132500Y-9655000D02*
X9172500Y-9695000D01*
X9172500Y-9655000D02*
X9132500Y-9695000D01*
X9132500Y-10555000D02*
X9172500Y-10595000D01*
X9172500Y-10555000D02*
X9132500Y-10595000D01*
X9234999Y-10892501D02*
X9274999Y-10932501D01*
X9274999Y-10892501D02*
X9234999Y-10932501D01*
X9580000Y-11280000D02*
X9620000Y-11320000D01*
X9620000Y-11280000D02*
X9580000Y-11320000D01*
X9580000Y-11430000D02*
X9620000Y-11470000D01*
X9620000Y-11430000D02*
X9580000Y-11470000D01*
X9596250Y-7830000D02*
X9636250Y-7870000D01*
X9636250Y-7830000D02*
X9596250Y-7870000D01*
X9782500Y-12011000D02*
X9822500Y-12051000D01*
X9822500Y-12011000D02*
X9782500Y-12051000D01*
X9788754Y-11242746D02*
X9828754Y-11282746D01*
X9828754Y-11242746D02*
X9788754Y-11282746D01*
X10052800Y-8757400D02*
X10092800Y-8797400D01*
X10092800Y-8757400D02*
X10052800Y-8797400D01*
X10123200Y-11884000D02*
X10163200Y-11924000D01*
X10163200Y-11884000D02*
X10123200Y-11924000D01*
X10130000Y-11430000D02*
X10170000Y-11470000D01*
X10170000Y-11430000D02*
X10130000Y-11470000D01*
X10130000Y-11580000D02*
X10170000Y-11620000D01*
X10170000Y-11580000D02*
X10130000Y-11620000D01*
X10277500Y-12011000D02*
X10317500Y-12051000D01*
X10317500Y-12011000D02*
X10277500Y-12051000D01*
X10282500Y-7989500D02*
X10322500Y-8029500D01*
X10322500Y-7989500D02*
X10282500Y-8029500D01*
X10282500Y-8243500D02*
X10322500Y-8283500D01*
X10322500Y-8243500D02*
X10282500Y-8283500D01*
X10282500Y-8370500D02*
X10322500Y-8410500D01*
X10322500Y-8370500D02*
X10282500Y-8410500D01*
X10503000Y-10892501D02*
X10543000Y-10932501D01*
X10543000Y-10892501D02*
X10503000Y-10932501D01*
X10827500Y-9405000D02*
X10867500Y-9445000D01*
X10867500Y-9405000D02*
X10827500Y-9445000D01*
X10827500Y-10305000D02*
X10867500Y-10345000D01*
X10867500Y-10305000D02*
X10827500Y-10345000D01*
X11054400Y-9428800D02*
X11094400Y-9468800D01*
X11094400Y-9428800D02*
X11054400Y-9468800D01*
X11054400Y-10317800D02*
X11094400Y-10357800D01*
X11094400Y-10317800D02*
X11054400Y-10357800D01*
X11257600Y-9759000D02*
X11297600Y-9799000D01*
X11297600Y-9759000D02*
X11257600Y-9799000D01*
X11257600Y-10673400D02*
X11297600Y-10713400D01*
X11297600Y-10673400D02*
X11257600Y-10713400D01*
X11435400Y-9530200D02*
X11475400Y-9570200D01*
X11475400Y-9530200D02*
X11435400Y-9570200D01*
X11435400Y-10419200D02*
X11475400Y-10459200D01*
X11475400Y-10419200D02*
X11435400Y-10459200D01*
X10337000Y-12319000D02*
G75*
G03*
X10337000Y-12319000I-50000J0D01*
G01*
X10591000Y-12319000D02*
G75*
G03*
X10591000Y-12319000I-50000J0D01*
G01*
X10845000Y-12319000D02*
G75*
G03*
X10845000Y-12319000I-50000J0D01*
G01*
X8450000Y-7842500D02*
X8450000Y-7957500D01*
X8392500Y-7900000D02*
X8507500Y-7900000D01*
X8450000Y-8342500D02*
X8450000Y-8457500D01*
X8392500Y-8400000D02*
X8507500Y-8400000D01*
X8450000Y-11517500D02*
X8450000Y-11632500D01*
X8392500Y-11575000D02*
X8507500Y-11575000D01*
X8450000Y-12017500D02*
X8450000Y-12132500D01*
X8392500Y-12075000D02*
X8507500Y-12075000D01*
X11550000Y-7892500D02*
X11550000Y-8007500D01*
X11492500Y-7950000D02*
X11607500Y-7950000D01*
X11550000Y-8392500D02*
X11550000Y-8507500D01*
X11492500Y-8450000D02*
X11607500Y-8450000D01*
X11550000Y-11542500D02*
X11550000Y-11657500D01*
X11492500Y-11600000D02*
X11607500Y-11600000D01*
X11550000Y-12042500D02*
X11550000Y-12157500D01*
X11492500Y-12100000D02*
X11607500Y-12100000D01*
X8095460Y-10095460D02*
X8095460Y-9904540D01*
X7904540Y-9904540D01*
X7904540Y-10095460D01*
X8095460Y-10095460D01*
X12095460Y-10070460D02*
X12095460Y-9879540D01*
X11904540Y-9879540D01*
X11904540Y-10070460D01*
X12095460Y-10070460D01*
X10000000Y-10215000D02*
X10215000Y-10000000D01*
X10000000Y-9785000D01*
X9785000Y-10000000D01*
X10000000Y-10215000D01*
D12*
X7783928Y-12968214D02*
X7783928Y-12668214D01*
X7855357Y-12668214D01*
X7898214Y-12682500D01*
X7926786Y-12711071D01*
X7941071Y-12739643D01*
X7955357Y-12796786D01*
X7955357Y-12839643D01*
X7941071Y-12896786D01*
X7926786Y-12925357D01*
X7898214Y-12953929D01*
X7855357Y-12968214D01*
X7783928Y-12968214D01*
X8083928Y-12968214D02*
X8083928Y-12768214D01*
X8083928Y-12825357D02*
X8098214Y-12796786D01*
X8112500Y-12782500D01*
X8141071Y-12768214D01*
X8169643Y-12768214D01*
X8269643Y-12968214D02*
X8269643Y-12768214D01*
X8269643Y-12668214D02*
X8255357Y-12682500D01*
X8269643Y-12696786D01*
X8283928Y-12682500D01*
X8269643Y-12668214D01*
X8269643Y-12696786D01*
X8455357Y-12968214D02*
X8426786Y-12953929D01*
X8412500Y-12925357D01*
X8412500Y-12668214D01*
X8612500Y-12968214D02*
X8583928Y-12953929D01*
X8569643Y-12925357D01*
X8569643Y-12668214D01*
X8955357Y-12968214D02*
X8955357Y-12668214D01*
X9055357Y-12882500D01*
X9155357Y-12668214D01*
X9155357Y-12968214D01*
X9426786Y-12968214D02*
X9426786Y-12811071D01*
X9412500Y-12782500D01*
X9383928Y-12768214D01*
X9326786Y-12768214D01*
X9298214Y-12782500D01*
X9426786Y-12953929D02*
X9398214Y-12968214D01*
X9326786Y-12968214D01*
X9298214Y-12953929D01*
X9283928Y-12925357D01*
X9283928Y-12896786D01*
X9298214Y-12868214D01*
X9326786Y-12853929D01*
X9398214Y-12853929D01*
X9426786Y-12839643D01*
X9569643Y-12768214D02*
X9569643Y-13068214D01*
X9569643Y-12782500D02*
X9598214Y-12768214D01*
X9655357Y-12768214D01*
X9683928Y-12782500D01*
X9698214Y-12796786D01*
X9712500Y-12825357D01*
X9712500Y-12911071D01*
X9698214Y-12939643D01*
X9683928Y-12953929D01*
X9655357Y-12968214D01*
X9598214Y-12968214D01*
X9569643Y-12953929D01*
X9841071Y-12939643D02*
X9855357Y-12953929D01*
X9841071Y-12968214D01*
X9826786Y-12953929D01*
X9841071Y-12939643D01*
X9841071Y-12968214D01*
X9841071Y-12782500D02*
X9855357Y-12796786D01*
X9841071Y-12811071D01*
X9826786Y-12796786D01*
X9841071Y-12782500D01*
X9841071Y-12811071D01*
X7457500Y-13442500D02*
X7497500Y-13482500D01*
X7497500Y-13442500D02*
X7457500Y-13482500D01*
X7841071Y-13298214D02*
X7869643Y-13298214D01*
X7898214Y-13312500D01*
X7912500Y-13326786D01*
X7926786Y-13355357D01*
X7941071Y-13412500D01*
X7941071Y-13483929D01*
X7926786Y-13541071D01*
X7912500Y-13569643D01*
X7898214Y-13583929D01*
X7869643Y-13598214D01*
X7841071Y-13598214D01*
X7812500Y-13583929D01*
X7798214Y-13569643D01*
X7783928Y-13541071D01*
X7769643Y-13483929D01*
X7769643Y-13412500D01*
X7783928Y-13355357D01*
X7798214Y-13326786D01*
X7812500Y-13312500D01*
X7841071Y-13298214D01*
X8069643Y-13569643D02*
X8083928Y-13583929D01*
X8069643Y-13598214D01*
X8055357Y-13583929D01*
X8069643Y-13569643D01*
X8069643Y-13598214D01*
X8341071Y-13398214D02*
X8341071Y-13598214D01*
X8269643Y-13283929D02*
X8198214Y-13498214D01*
X8383928Y-13498214D01*
X8555357Y-13298214D02*
X8583928Y-13298214D01*
X8612500Y-13312500D01*
X8626786Y-13326786D01*
X8641071Y-13355357D01*
X8655357Y-13412500D01*
X8655357Y-13483929D01*
X8641071Y-13541071D01*
X8626786Y-13569643D01*
X8612500Y-13583929D01*
X8583928Y-13598214D01*
X8555357Y-13598214D01*
X8526786Y-13583929D01*
X8512500Y-13569643D01*
X8498214Y-13541071D01*
X8483928Y-13483929D01*
X8483928Y-13412500D01*
X8498214Y-13355357D01*
X8512500Y-13326786D01*
X8526786Y-13312500D01*
X8555357Y-13298214D01*
X8783928Y-13598214D02*
X8783928Y-13398214D01*
X8783928Y-13426786D02*
X8798214Y-13412500D01*
X8826786Y-13398214D01*
X8869643Y-13398214D01*
X8898214Y-13412500D01*
X8912500Y-13441071D01*
X8912500Y-13598214D01*
X8912500Y-13441071D02*
X8926786Y-13412500D01*
X8955357Y-13398214D01*
X8998214Y-13398214D01*
X9026786Y-13412500D01*
X9041071Y-13441071D01*
X9041071Y-13598214D01*
X9183928Y-13598214D02*
X9183928Y-13398214D01*
X9183928Y-13426786D02*
X9198214Y-13412500D01*
X9226786Y-13398214D01*
X9269643Y-13398214D01*
X9298214Y-13412500D01*
X9312500Y-13441071D01*
X9312500Y-13598214D01*
X9312500Y-13441071D02*
X9326786Y-13412500D01*
X9355357Y-13398214D01*
X9398214Y-13398214D01*
X9426786Y-13412500D01*
X9441071Y-13441071D01*
X9441071Y-13598214D01*
X10026786Y-13283929D02*
X9769643Y-13669643D01*
X10412500Y-13298214D02*
X10441071Y-13298214D01*
X10469643Y-13312500D01*
X10483928Y-13326786D01*
X10498214Y-13355357D01*
X10512500Y-13412500D01*
X10512500Y-13483929D01*
X10498214Y-13541071D01*
X10483928Y-13569643D01*
X10469643Y-13583929D01*
X10441071Y-13598214D01*
X10412500Y-13598214D01*
X10383928Y-13583929D01*
X10369643Y-13569643D01*
X10355357Y-13541071D01*
X10341071Y-13483929D01*
X10341071Y-13412500D01*
X10355357Y-13355357D01*
X10369643Y-13326786D01*
X10383928Y-13312500D01*
X10412500Y-13298214D01*
X10641071Y-13569643D02*
X10655357Y-13583929D01*
X10641071Y-13598214D01*
X10626786Y-13583929D01*
X10641071Y-13569643D01*
X10641071Y-13598214D01*
X10841071Y-13298214D02*
X10869643Y-13298214D01*
X10898214Y-13312500D01*
X10912500Y-13326786D01*
X10926786Y-13355357D01*
X10941071Y-13412500D01*
X10941071Y-13483929D01*
X10926786Y-13541071D01*
X10912500Y-13569643D01*
X10898214Y-13583929D01*
X10869643Y-13598214D01*
X10841071Y-13598214D01*
X10812500Y-13583929D01*
X10798214Y-13569643D01*
X10783928Y-13541071D01*
X10769643Y-13483929D01*
X10769643Y-13412500D01*
X10783928Y-13355357D01*
X10798214Y-13326786D01*
X10812500Y-13312500D01*
X10841071Y-13298214D01*
X11226786Y-13598214D02*
X11055357Y-13598214D01*
X11141071Y-13598214D02*
X11141071Y-13298214D01*
X11112500Y-13341071D01*
X11083928Y-13369643D01*
X11055357Y-13383929D01*
X11483928Y-13298214D02*
X11426786Y-13298214D01*
X11398214Y-13312500D01*
X11383928Y-13326786D01*
X11355357Y-13369643D01*
X11341071Y-13426786D01*
X11341071Y-13541071D01*
X11355357Y-13569643D01*
X11369643Y-13583929D01*
X11398214Y-13598214D01*
X11455357Y-13598214D01*
X11483928Y-13583929D01*
X11498214Y-13569643D01*
X11512500Y-13541071D01*
X11512500Y-13469643D01*
X11498214Y-13441071D01*
X11483928Y-13426786D01*
X11455357Y-13412500D01*
X11398214Y-13412500D01*
X11369643Y-13426786D01*
X11355357Y-13441071D01*
X11341071Y-13469643D01*
X11626786Y-13298214D02*
X11626786Y-13355357D01*
X11741071Y-13298214D02*
X11741071Y-13355357D01*
X12183928Y-13712500D02*
X12169643Y-13698214D01*
X12141071Y-13655357D01*
X12126786Y-13626786D01*
X12112500Y-13583929D01*
X12098214Y-13512500D01*
X12098214Y-13455357D01*
X12112500Y-13383929D01*
X12126786Y-13341071D01*
X12141071Y-13312500D01*
X12169643Y-13269643D01*
X12183928Y-13255357D01*
X12269643Y-13298214D02*
X12455357Y-13298214D01*
X12355357Y-13412500D01*
X12398214Y-13412500D01*
X12426786Y-13426786D01*
X12441071Y-13441071D01*
X12455357Y-13469643D01*
X12455357Y-13541071D01*
X12441071Y-13569643D01*
X12426786Y-13583929D01*
X12398214Y-13598214D01*
X12312500Y-13598214D01*
X12283928Y-13583929D01*
X12269643Y-13569643D01*
X12741071Y-13598214D02*
X12569643Y-13598214D01*
X12655357Y-13598214D02*
X12655357Y-13298214D01*
X12626786Y-13341071D01*
X12598214Y-13369643D01*
X12569643Y-13383929D01*
X13098214Y-13598214D02*
X13098214Y-13298214D01*
X13226786Y-13598214D02*
X13226786Y-13441071D01*
X13212500Y-13412500D01*
X13183928Y-13398214D01*
X13141071Y-13398214D01*
X13112500Y-13412500D01*
X13098214Y-13426786D01*
X13412500Y-13598214D02*
X13383928Y-13583929D01*
X13369643Y-13569643D01*
X13355357Y-13541071D01*
X13355357Y-13455357D01*
X13369643Y-13426786D01*
X13383928Y-13412500D01*
X13412500Y-13398214D01*
X13455357Y-13398214D01*
X13483928Y-13412500D01*
X13498214Y-13426786D01*
X13512500Y-13455357D01*
X13512500Y-13541071D01*
X13498214Y-13569643D01*
X13483928Y-13583929D01*
X13455357Y-13598214D01*
X13412500Y-13598214D01*
X13683928Y-13598214D02*
X13655357Y-13583929D01*
X13641071Y-13555357D01*
X13641071Y-13298214D01*
X13912500Y-13583929D02*
X13883928Y-13598214D01*
X13826786Y-13598214D01*
X13798214Y-13583929D01*
X13783928Y-13555357D01*
X13783928Y-13441071D01*
X13798214Y-13412500D01*
X13826786Y-13398214D01*
X13883928Y-13398214D01*
X13912500Y-13412500D01*
X13926786Y-13441071D01*
X13926786Y-13469643D01*
X13783928Y-13498214D01*
X14041071Y-13583929D02*
X14069643Y-13598214D01*
X14126786Y-13598214D01*
X14155357Y-13583929D01*
X14169643Y-13555357D01*
X14169643Y-13541071D01*
X14155357Y-13512500D01*
X14126786Y-13498214D01*
X14083928Y-13498214D01*
X14055357Y-13483929D01*
X14041071Y-13455357D01*
X14041071Y-13441071D01*
X14055357Y-13412500D01*
X14083928Y-13398214D01*
X14126786Y-13398214D01*
X14155357Y-13412500D01*
X14269643Y-13712500D02*
X14283928Y-13698214D01*
X14312500Y-13655357D01*
X14326786Y-13626786D01*
X14341071Y-13583929D01*
X14355357Y-13512500D01*
X14355357Y-13455357D01*
X14341071Y-13383929D01*
X14326786Y-13341071D01*
X14312500Y-13312500D01*
X14283928Y-13269643D01*
X14269643Y-13255357D01*
X7497500Y-13858500D02*
G75*
G03*
X7497500Y-13858500I-50000J0D01*
G01*
X7941071Y-13994214D02*
X7769643Y-13994214D01*
X7855357Y-13994214D02*
X7855357Y-13694214D01*
X7826786Y-13737071D01*
X7798214Y-13765643D01*
X7769643Y-13779929D01*
X8069643Y-13965643D02*
X8083928Y-13979929D01*
X8069643Y-13994214D01*
X8055357Y-13979929D01*
X8069643Y-13965643D01*
X8069643Y-13994214D01*
X8269643Y-13694214D02*
X8298214Y-13694214D01*
X8326786Y-13708500D01*
X8341071Y-13722786D01*
X8355357Y-13751357D01*
X8369643Y-13808500D01*
X8369643Y-13879929D01*
X8355357Y-13937071D01*
X8341071Y-13965643D01*
X8326786Y-13979929D01*
X8298214Y-13994214D01*
X8269643Y-13994214D01*
X8241071Y-13979929D01*
X8226786Y-13965643D01*
X8212500Y-13937071D01*
X8198214Y-13879929D01*
X8198214Y-13808500D01*
X8212500Y-13751357D01*
X8226786Y-13722786D01*
X8241071Y-13708500D01*
X8269643Y-13694214D01*
X8555357Y-13694214D02*
X8583928Y-13694214D01*
X8612500Y-13708500D01*
X8626786Y-13722786D01*
X8641071Y-13751357D01*
X8655357Y-13808500D01*
X8655357Y-13879929D01*
X8641071Y-13937071D01*
X8626786Y-13965643D01*
X8612500Y-13979929D01*
X8583928Y-13994214D01*
X8555357Y-13994214D01*
X8526786Y-13979929D01*
X8512500Y-13965643D01*
X8498214Y-13937071D01*
X8483928Y-13879929D01*
X8483928Y-13808500D01*
X8498214Y-13751357D01*
X8512500Y-13722786D01*
X8526786Y-13708500D01*
X8555357Y-13694214D01*
X8783928Y-13994214D02*
X8783928Y-13794214D01*
X8783928Y-13822786D02*
X8798214Y-13808500D01*
X8826786Y-13794214D01*
X8869643Y-13794214D01*
X8898214Y-13808500D01*
X8912500Y-13837071D01*
X8912500Y-13994214D01*
X8912500Y-13837071D02*
X8926786Y-13808500D01*
X8955357Y-13794214D01*
X8998214Y-13794214D01*
X9026786Y-13808500D01*
X9041071Y-13837071D01*
X9041071Y-13994214D01*
X9183928Y-13994214D02*
X9183928Y-13794214D01*
X9183928Y-13822786D02*
X9198214Y-13808500D01*
X9226786Y-13794214D01*
X9269643Y-13794214D01*
X9298214Y-13808500D01*
X9312500Y-13837071D01*
X9312500Y-13994214D01*
X9312500Y-13837071D02*
X9326786Y-13808500D01*
X9355357Y-13794214D01*
X9398214Y-13794214D01*
X9426786Y-13808500D01*
X9441071Y-13837071D01*
X9441071Y-13994214D01*
X10026786Y-13679929D02*
X9769643Y-14065643D01*
X10412500Y-13694214D02*
X10441071Y-13694214D01*
X10469643Y-13708500D01*
X10483928Y-13722786D01*
X10498214Y-13751357D01*
X10512500Y-13808500D01*
X10512500Y-13879929D01*
X10498214Y-13937071D01*
X10483928Y-13965643D01*
X10469643Y-13979929D01*
X10441071Y-13994214D01*
X10412500Y-13994214D01*
X10383928Y-13979929D01*
X10369643Y-13965643D01*
X10355357Y-13937071D01*
X10341071Y-13879929D01*
X10341071Y-13808500D01*
X10355357Y-13751357D01*
X10369643Y-13722786D01*
X10383928Y-13708500D01*
X10412500Y-13694214D01*
X10641071Y-13965643D02*
X10655357Y-13979929D01*
X10641071Y-13994214D01*
X10626786Y-13979929D01*
X10641071Y-13965643D01*
X10641071Y-13994214D01*
X10841071Y-13694214D02*
X10869643Y-13694214D01*
X10898214Y-13708500D01*
X10912500Y-13722786D01*
X10926786Y-13751357D01*
X10941071Y-13808500D01*
X10941071Y-13879929D01*
X10926786Y-13937071D01*
X10912500Y-13965643D01*
X10898214Y-13979929D01*
X10869643Y-13994214D01*
X10841071Y-13994214D01*
X10812500Y-13979929D01*
X10798214Y-13965643D01*
X10783928Y-13937071D01*
X10769643Y-13879929D01*
X10769643Y-13808500D01*
X10783928Y-13751357D01*
X10798214Y-13722786D01*
X10812500Y-13708500D01*
X10841071Y-13694214D01*
X11041071Y-13694214D02*
X11226786Y-13694214D01*
X11126786Y-13808500D01*
X11169643Y-13808500D01*
X11198214Y-13822786D01*
X11212500Y-13837071D01*
X11226786Y-13865643D01*
X11226786Y-13937071D01*
X11212500Y-13965643D01*
X11198214Y-13979929D01*
X11169643Y-13994214D01*
X11083928Y-13994214D01*
X11055357Y-13979929D01*
X11041071Y-13965643D01*
X11369643Y-13994214D02*
X11426786Y-13994214D01*
X11455357Y-13979929D01*
X11469643Y-13965643D01*
X11498214Y-13922786D01*
X11512500Y-13865643D01*
X11512500Y-13751357D01*
X11498214Y-13722786D01*
X11483928Y-13708500D01*
X11455357Y-13694214D01*
X11398214Y-13694214D01*
X11369643Y-13708500D01*
X11355357Y-13722786D01*
X11341071Y-13751357D01*
X11341071Y-13822786D01*
X11355357Y-13851357D01*
X11369643Y-13865643D01*
X11398214Y-13879929D01*
X11455357Y-13879929D01*
X11483928Y-13865643D01*
X11498214Y-13851357D01*
X11512500Y-13822786D01*
X11626786Y-13694214D02*
X11626786Y-13751357D01*
X11741071Y-13694214D02*
X11741071Y-13751357D01*
X12183928Y-14108500D02*
X12169643Y-14094214D01*
X12141071Y-14051357D01*
X12126786Y-14022786D01*
X12112500Y-13979929D01*
X12098214Y-13908500D01*
X12098214Y-13851357D01*
X12112500Y-13779929D01*
X12126786Y-13737071D01*
X12141071Y-13708500D01*
X12169643Y-13665643D01*
X12183928Y-13651357D01*
X12269643Y-13694214D02*
X12455357Y-13694214D01*
X12355357Y-13808500D01*
X12398214Y-13808500D01*
X12426786Y-13822786D01*
X12441071Y-13837071D01*
X12455357Y-13865643D01*
X12455357Y-13937071D01*
X12441071Y-13965643D01*
X12426786Y-13979929D01*
X12398214Y-13994214D01*
X12312500Y-13994214D01*
X12283928Y-13979929D01*
X12269643Y-13965643D01*
X12812500Y-13994214D02*
X12812500Y-13694214D01*
X12941071Y-13994214D02*
X12941071Y-13837071D01*
X12926786Y-13808500D01*
X12898214Y-13794214D01*
X12855357Y-13794214D01*
X12826786Y-13808500D01*
X12812500Y-13822786D01*
X13126786Y-13994214D02*
X13098214Y-13979929D01*
X13083928Y-13965643D01*
X13069643Y-13937071D01*
X13069643Y-13851357D01*
X13083928Y-13822786D01*
X13098214Y-13808500D01*
X13126786Y-13794214D01*
X13169643Y-13794214D01*
X13198214Y-13808500D01*
X13212500Y-13822786D01*
X13226786Y-13851357D01*
X13226786Y-13937071D01*
X13212500Y-13965643D01*
X13198214Y-13979929D01*
X13169643Y-13994214D01*
X13126786Y-13994214D01*
X13398214Y-13994214D02*
X13369643Y-13979929D01*
X13355357Y-13951357D01*
X13355357Y-13694214D01*
X13626786Y-13979929D02*
X13598214Y-13994214D01*
X13541071Y-13994214D01*
X13512500Y-13979929D01*
X13498214Y-13951357D01*
X13498214Y-13837071D01*
X13512500Y-13808500D01*
X13541071Y-13794214D01*
X13598214Y-13794214D01*
X13626786Y-13808500D01*
X13641071Y-13837071D01*
X13641071Y-13865643D01*
X13498214Y-13894214D01*
X13755357Y-13979929D02*
X13783928Y-13994214D01*
X13841071Y-13994214D01*
X13869643Y-13979929D01*
X13883928Y-13951357D01*
X13883928Y-13937071D01*
X13869643Y-13908500D01*
X13841071Y-13894214D01*
X13798214Y-13894214D01*
X13769643Y-13879929D01*
X13755357Y-13851357D01*
X13755357Y-13837071D01*
X13769643Y-13808500D01*
X13798214Y-13794214D01*
X13841071Y-13794214D01*
X13869643Y-13808500D01*
X13983928Y-14108500D02*
X13998214Y-14094214D01*
X14026786Y-14051357D01*
X14041071Y-14022786D01*
X14055357Y-13979929D01*
X14069643Y-13908500D01*
X14069643Y-13851357D01*
X14055357Y-13779929D01*
X14041071Y-13737071D01*
X14026786Y-13708500D01*
X13998214Y-13665643D01*
X13983928Y-13651357D01*
X7440000Y-14197000D02*
X7440000Y-14312000D01*
X7382500Y-14254500D02*
X7497500Y-14254500D01*
X7941071Y-14390214D02*
X7769643Y-14390214D01*
X7855357Y-14390214D02*
X7855357Y-14090214D01*
X7826786Y-14133071D01*
X7798214Y-14161643D01*
X7769643Y-14175929D01*
X8069643Y-14361643D02*
X8083928Y-14375929D01*
X8069643Y-14390214D01*
X8055357Y-14375929D01*
X8069643Y-14361643D01*
X8069643Y-14390214D01*
X8369643Y-14390214D02*
X8198214Y-14390214D01*
X8283928Y-14390214D02*
X8283928Y-14090214D01*
X8255357Y-14133071D01*
X8226786Y-14161643D01*
X8198214Y-14175929D01*
X8641071Y-14090214D02*
X8498214Y-14090214D01*
X8483928Y-14233071D01*
X8498214Y-14218786D01*
X8526786Y-14204500D01*
X8598214Y-14204500D01*
X8626786Y-14218786D01*
X8641071Y-14233071D01*
X8655357Y-14261643D01*
X8655357Y-14333071D01*
X8641071Y-14361643D01*
X8626786Y-14375929D01*
X8598214Y-14390214D01*
X8526786Y-14390214D01*
X8498214Y-14375929D01*
X8483928Y-14361643D01*
X8783928Y-14390214D02*
X8783928Y-14190214D01*
X8783928Y-14218786D02*
X8798214Y-14204500D01*
X8826786Y-14190214D01*
X8869643Y-14190214D01*
X8898214Y-14204500D01*
X8912500Y-14233071D01*
X8912500Y-14390214D01*
X8912500Y-14233071D02*
X8926786Y-14204500D01*
X8955357Y-14190214D01*
X8998214Y-14190214D01*
X9026786Y-14204500D01*
X9041071Y-14233071D01*
X9041071Y-14390214D01*
X9183928Y-14390214D02*
X9183928Y-14190214D01*
X9183928Y-14218786D02*
X9198214Y-14204500D01*
X9226786Y-14190214D01*
X9269643Y-14190214D01*
X9298214Y-14204500D01*
X9312500Y-14233071D01*
X9312500Y-14390214D01*
X9312500Y-14233071D02*
X9326786Y-14204500D01*
X9355357Y-14190214D01*
X9398214Y-14190214D01*
X9426786Y-14204500D01*
X9441071Y-14233071D01*
X9441071Y-14390214D01*
X10026786Y-14075929D02*
X9769643Y-14461643D01*
X10412500Y-14090214D02*
X10441071Y-14090214D01*
X10469643Y-14104500D01*
X10483928Y-14118786D01*
X10498214Y-14147357D01*
X10512500Y-14204500D01*
X10512500Y-14275929D01*
X10498214Y-14333071D01*
X10483928Y-14361643D01*
X10469643Y-14375929D01*
X10441071Y-14390214D01*
X10412500Y-14390214D01*
X10383928Y-14375929D01*
X10369643Y-14361643D01*
X10355357Y-14333071D01*
X10341071Y-14275929D01*
X10341071Y-14204500D01*
X10355357Y-14147357D01*
X10369643Y-14118786D01*
X10383928Y-14104500D01*
X10412500Y-14090214D01*
X10641071Y-14361643D02*
X10655357Y-14375929D01*
X10641071Y-14390214D01*
X10626786Y-14375929D01*
X10641071Y-14361643D01*
X10641071Y-14390214D01*
X10841071Y-14090214D02*
X10869643Y-14090214D01*
X10898214Y-14104500D01*
X10912500Y-14118786D01*
X10926786Y-14147357D01*
X10941071Y-14204500D01*
X10941071Y-14275929D01*
X10926786Y-14333071D01*
X10912500Y-14361643D01*
X10898214Y-14375929D01*
X10869643Y-14390214D01*
X10841071Y-14390214D01*
X10812500Y-14375929D01*
X10798214Y-14361643D01*
X10783928Y-14333071D01*
X10769643Y-14275929D01*
X10769643Y-14204500D01*
X10783928Y-14147357D01*
X10798214Y-14118786D01*
X10812500Y-14104500D01*
X10841071Y-14090214D01*
X11198214Y-14190214D02*
X11198214Y-14390214D01*
X11126786Y-14075929D02*
X11055357Y-14290214D01*
X11241071Y-14290214D01*
X11498214Y-14090214D02*
X11355357Y-14090214D01*
X11341071Y-14233071D01*
X11355357Y-14218786D01*
X11383928Y-14204500D01*
X11455357Y-14204500D01*
X11483928Y-14218786D01*
X11498214Y-14233071D01*
X11512500Y-14261643D01*
X11512500Y-14333071D01*
X11498214Y-14361643D01*
X11483928Y-14375929D01*
X11455357Y-14390214D01*
X11383928Y-14390214D01*
X11355357Y-14375929D01*
X11341071Y-14361643D01*
X11626786Y-14090214D02*
X11626786Y-14147357D01*
X11741071Y-14090214D02*
X11741071Y-14147357D01*
X12183928Y-14504500D02*
X12169643Y-14490214D01*
X12141071Y-14447357D01*
X12126786Y-14418786D01*
X12112500Y-14375929D01*
X12098214Y-14304500D01*
X12098214Y-14247357D01*
X12112500Y-14175929D01*
X12126786Y-14133071D01*
X12141071Y-14104500D01*
X12169643Y-14061643D01*
X12183928Y-14047357D01*
X12341071Y-14218786D02*
X12312500Y-14204500D01*
X12298214Y-14190214D01*
X12283928Y-14161643D01*
X12283928Y-14147357D01*
X12298214Y-14118786D01*
X12312500Y-14104500D01*
X12341071Y-14090214D01*
X12398214Y-14090214D01*
X12426786Y-14104500D01*
X12441071Y-14118786D01*
X12455357Y-14147357D01*
X12455357Y-14161643D01*
X12441071Y-14190214D01*
X12426786Y-14204500D01*
X12398214Y-14218786D01*
X12341071Y-14218786D01*
X12312500Y-14233071D01*
X12298214Y-14247357D01*
X12283928Y-14275929D01*
X12283928Y-14333071D01*
X12298214Y-14361643D01*
X12312500Y-14375929D01*
X12341071Y-14390214D01*
X12398214Y-14390214D01*
X12426786Y-14375929D01*
X12441071Y-14361643D01*
X12455357Y-14333071D01*
X12455357Y-14275929D01*
X12441071Y-14247357D01*
X12426786Y-14233071D01*
X12398214Y-14218786D01*
X12812500Y-14390214D02*
X12812500Y-14090214D01*
X12941071Y-14390214D02*
X12941071Y-14233071D01*
X12926786Y-14204500D01*
X12898214Y-14190214D01*
X12855357Y-14190214D01*
X12826786Y-14204500D01*
X12812500Y-14218786D01*
X13126786Y-14390214D02*
X13098214Y-14375929D01*
X13083928Y-14361643D01*
X13069643Y-14333071D01*
X13069643Y-14247357D01*
X13083928Y-14218786D01*
X13098214Y-14204500D01*
X13126786Y-14190214D01*
X13169643Y-14190214D01*
X13198214Y-14204500D01*
X13212500Y-14218786D01*
X13226786Y-14247357D01*
X13226786Y-14333071D01*
X13212500Y-14361643D01*
X13198214Y-14375929D01*
X13169643Y-14390214D01*
X13126786Y-14390214D01*
X13398214Y-14390214D02*
X13369643Y-14375929D01*
X13355357Y-14347357D01*
X13355357Y-14090214D01*
X13626786Y-14375929D02*
X13598214Y-14390214D01*
X13541071Y-14390214D01*
X13512500Y-14375929D01*
X13498214Y-14347357D01*
X13498214Y-14233071D01*
X13512500Y-14204500D01*
X13541071Y-14190214D01*
X13598214Y-14190214D01*
X13626786Y-14204500D01*
X13641071Y-14233071D01*
X13641071Y-14261643D01*
X13498214Y-14290214D01*
X13755357Y-14375929D02*
X13783928Y-14390214D01*
X13841071Y-14390214D01*
X13869643Y-14375929D01*
X13883928Y-14347357D01*
X13883928Y-14333071D01*
X13869643Y-14304500D01*
X13841071Y-14290214D01*
X13798214Y-14290214D01*
X13769643Y-14275929D01*
X13755357Y-14247357D01*
X13755357Y-14233071D01*
X13769643Y-14204500D01*
X13798214Y-14190214D01*
X13841071Y-14190214D01*
X13869643Y-14204500D01*
X13983928Y-14504500D02*
X13998214Y-14490214D01*
X14026786Y-14447357D01*
X14041071Y-14418786D01*
X14055357Y-14375929D01*
X14069643Y-14304500D01*
X14069643Y-14247357D01*
X14055357Y-14175929D01*
X14041071Y-14133071D01*
X14026786Y-14104500D01*
X13998214Y-14061643D01*
X13983928Y-14047357D01*
X7457960Y-14745960D02*
X7457960Y-14555040D01*
X7267040Y-14555040D01*
X7267040Y-14745960D01*
X7457960Y-14745960D01*
X7769643Y-14514786D02*
X7783928Y-14500500D01*
X7812500Y-14486214D01*
X7883928Y-14486214D01*
X7912500Y-14500500D01*
X7926786Y-14514786D01*
X7941071Y-14543357D01*
X7941071Y-14571929D01*
X7926786Y-14614786D01*
X7755357Y-14786214D01*
X7941071Y-14786214D01*
X8069643Y-14757643D02*
X8083928Y-14771929D01*
X8069643Y-14786214D01*
X8055357Y-14771929D01*
X8069643Y-14757643D01*
X8069643Y-14786214D01*
X8183928Y-14486214D02*
X8383928Y-14486214D01*
X8255357Y-14786214D01*
X8555357Y-14486214D02*
X8583928Y-14486214D01*
X8612500Y-14500500D01*
X8626786Y-14514786D01*
X8641071Y-14543357D01*
X8655357Y-14600500D01*
X8655357Y-14671929D01*
X8641071Y-14729071D01*
X8626786Y-14757643D01*
X8612500Y-14771929D01*
X8583928Y-14786214D01*
X8555357Y-14786214D01*
X8526786Y-14771929D01*
X8512500Y-14757643D01*
X8498214Y-14729071D01*
X8483928Y-14671929D01*
X8483928Y-14600500D01*
X8498214Y-14543357D01*
X8512500Y-14514786D01*
X8526786Y-14500500D01*
X8555357Y-14486214D01*
X8783928Y-14786214D02*
X8783928Y-14586214D01*
X8783928Y-14614786D02*
X8798214Y-14600500D01*
X8826786Y-14586214D01*
X8869643Y-14586214D01*
X8898214Y-14600500D01*
X8912500Y-14629071D01*
X8912500Y-14786214D01*
X8912500Y-14629071D02*
X8926786Y-14600500D01*
X8955357Y-14586214D01*
X8998214Y-14586214D01*
X9026786Y-14600500D01*
X9041071Y-14629071D01*
X9041071Y-14786214D01*
X9183928Y-14786214D02*
X9183928Y-14586214D01*
X9183928Y-14614786D02*
X9198214Y-14600500D01*
X9226786Y-14586214D01*
X9269643Y-14586214D01*
X9298214Y-14600500D01*
X9312500Y-14629071D01*
X9312500Y-14786214D01*
X9312500Y-14629071D02*
X9326786Y-14600500D01*
X9355357Y-14586214D01*
X9398214Y-14586214D01*
X9426786Y-14600500D01*
X9441071Y-14629071D01*
X9441071Y-14786214D01*
X10026786Y-14471929D02*
X9769643Y-14857643D01*
X10412500Y-14486214D02*
X10441071Y-14486214D01*
X10469643Y-14500500D01*
X10483928Y-14514786D01*
X10498214Y-14543357D01*
X10512500Y-14600500D01*
X10512500Y-14671929D01*
X10498214Y-14729071D01*
X10483928Y-14757643D01*
X10469643Y-14771929D01*
X10441071Y-14786214D01*
X10412500Y-14786214D01*
X10383928Y-14771929D01*
X10369643Y-14757643D01*
X10355357Y-14729071D01*
X10341071Y-14671929D01*
X10341071Y-14600500D01*
X10355357Y-14543357D01*
X10369643Y-14514786D01*
X10383928Y-14500500D01*
X10412500Y-14486214D01*
X10641071Y-14757643D02*
X10655357Y-14771929D01*
X10641071Y-14786214D01*
X10626786Y-14771929D01*
X10641071Y-14757643D01*
X10641071Y-14786214D01*
X10941071Y-14786214D02*
X10769643Y-14786214D01*
X10855357Y-14786214D02*
X10855357Y-14486214D01*
X10826786Y-14529071D01*
X10798214Y-14557643D01*
X10769643Y-14571929D01*
X11126786Y-14486214D02*
X11155357Y-14486214D01*
X11183928Y-14500500D01*
X11198214Y-14514786D01*
X11212500Y-14543357D01*
X11226786Y-14600500D01*
X11226786Y-14671929D01*
X11212500Y-14729071D01*
X11198214Y-14757643D01*
X11183928Y-14771929D01*
X11155357Y-14786214D01*
X11126786Y-14786214D01*
X11098214Y-14771929D01*
X11083928Y-14757643D01*
X11069643Y-14729071D01*
X11055357Y-14671929D01*
X11055357Y-14600500D01*
X11069643Y-14543357D01*
X11083928Y-14514786D01*
X11098214Y-14500500D01*
X11126786Y-14486214D01*
X11483928Y-14486214D02*
X11426786Y-14486214D01*
X11398214Y-14500500D01*
X11383928Y-14514786D01*
X11355357Y-14557643D01*
X11341071Y-14614786D01*
X11341071Y-14729071D01*
X11355357Y-14757643D01*
X11369643Y-14771929D01*
X11398214Y-14786214D01*
X11455357Y-14786214D01*
X11483928Y-14771929D01*
X11498214Y-14757643D01*
X11512500Y-14729071D01*
X11512500Y-14657643D01*
X11498214Y-14629071D01*
X11483928Y-14614786D01*
X11455357Y-14600500D01*
X11398214Y-14600500D01*
X11369643Y-14614786D01*
X11355357Y-14629071D01*
X11341071Y-14657643D01*
X11626786Y-14486214D02*
X11626786Y-14543357D01*
X11741071Y-14486214D02*
X11741071Y-14543357D01*
X12183928Y-14900500D02*
X12169643Y-14886214D01*
X12141071Y-14843357D01*
X12126786Y-14814786D01*
X12112500Y-14771929D01*
X12098214Y-14700500D01*
X12098214Y-14643357D01*
X12112500Y-14571929D01*
X12126786Y-14529071D01*
X12141071Y-14500500D01*
X12169643Y-14457643D01*
X12183928Y-14443357D01*
X12283928Y-14514786D02*
X12298214Y-14500500D01*
X12326786Y-14486214D01*
X12398214Y-14486214D01*
X12426786Y-14500500D01*
X12441071Y-14514786D01*
X12455357Y-14543357D01*
X12455357Y-14571929D01*
X12441071Y-14614786D01*
X12269643Y-14786214D01*
X12455357Y-14786214D01*
X12812500Y-14786214D02*
X12812500Y-14486214D01*
X12941071Y-14786214D02*
X12941071Y-14629071D01*
X12926786Y-14600500D01*
X12898214Y-14586214D01*
X12855357Y-14586214D01*
X12826786Y-14600500D01*
X12812500Y-14614786D01*
X13126786Y-14786214D02*
X13098214Y-14771929D01*
X13083928Y-14757643D01*
X13069643Y-14729071D01*
X13069643Y-14643357D01*
X13083928Y-14614786D01*
X13098214Y-14600500D01*
X13126786Y-14586214D01*
X13169643Y-14586214D01*
X13198214Y-14600500D01*
X13212500Y-14614786D01*
X13226786Y-14643357D01*
X13226786Y-14729071D01*
X13212500Y-14757643D01*
X13198214Y-14771929D01*
X13169643Y-14786214D01*
X13126786Y-14786214D01*
X13398214Y-14786214D02*
X13369643Y-14771929D01*
X13355357Y-14743357D01*
X13355357Y-14486214D01*
X13626786Y-14771929D02*
X13598214Y-14786214D01*
X13541071Y-14786214D01*
X13512500Y-14771929D01*
X13498214Y-14743357D01*
X13498214Y-14629071D01*
X13512500Y-14600500D01*
X13541071Y-14586214D01*
X13598214Y-14586214D01*
X13626786Y-14600500D01*
X13641071Y-14629071D01*
X13641071Y-14657643D01*
X13498214Y-14686214D01*
X13755357Y-14771929D02*
X13783928Y-14786214D01*
X13841071Y-14786214D01*
X13869643Y-14771929D01*
X13883928Y-14743357D01*
X13883928Y-14729071D01*
X13869643Y-14700500D01*
X13841071Y-14686214D01*
X13798214Y-14686214D01*
X13769643Y-14671929D01*
X13755357Y-14643357D01*
X13755357Y-14629071D01*
X13769643Y-14600500D01*
X13798214Y-14586214D01*
X13841071Y-14586214D01*
X13869643Y-14600500D01*
X13983928Y-14900500D02*
X13998214Y-14886214D01*
X14026786Y-14843357D01*
X14041071Y-14814786D01*
X14055357Y-14771929D01*
X14069643Y-14700500D01*
X14069643Y-14643357D01*
X14055357Y-14571929D01*
X14041071Y-14529071D01*
X14026786Y-14500500D01*
X13998214Y-14457643D01*
X13983928Y-14443357D01*
X7282500Y-15265500D02*
X7497500Y-15050500D01*
X7282500Y-14835500D01*
X7067500Y-15050500D01*
X7282500Y-15265500D01*
X7912500Y-14986214D02*
X7912500Y-15186214D01*
X7841071Y-14871929D02*
X7769643Y-15086214D01*
X7955357Y-15086214D01*
X8069643Y-15157643D02*
X8083928Y-15171929D01*
X8069643Y-15186214D01*
X8055357Y-15171929D01*
X8069643Y-15157643D01*
X8069643Y-15186214D01*
X8183928Y-14886214D02*
X8369643Y-14886214D01*
X8269643Y-15000500D01*
X8312500Y-15000500D01*
X8341071Y-15014786D01*
X8355357Y-15029071D01*
X8369643Y-15057643D01*
X8369643Y-15129071D01*
X8355357Y-15157643D01*
X8341071Y-15171929D01*
X8312500Y-15186214D01*
X8226786Y-15186214D01*
X8198214Y-15171929D01*
X8183928Y-15157643D01*
X8555357Y-14886214D02*
X8583928Y-14886214D01*
X8612500Y-14900500D01*
X8626786Y-14914786D01*
X8641071Y-14943357D01*
X8655357Y-15000500D01*
X8655357Y-15071929D01*
X8641071Y-15129071D01*
X8626786Y-15157643D01*
X8612500Y-15171929D01*
X8583928Y-15186214D01*
X8555357Y-15186214D01*
X8526786Y-15171929D01*
X8512500Y-15157643D01*
X8498214Y-15129071D01*
X8483928Y-15071929D01*
X8483928Y-15000500D01*
X8498214Y-14943357D01*
X8512500Y-14914786D01*
X8526786Y-14900500D01*
X8555357Y-14886214D01*
X8783928Y-15186214D02*
X8783928Y-14986214D01*
X8783928Y-15014786D02*
X8798214Y-15000500D01*
X8826786Y-14986214D01*
X8869643Y-14986214D01*
X8898214Y-15000500D01*
X8912500Y-15029071D01*
X8912500Y-15186214D01*
X8912500Y-15029071D02*
X8926786Y-15000500D01*
X8955357Y-14986214D01*
X8998214Y-14986214D01*
X9026786Y-15000500D01*
X9041071Y-15029071D01*
X9041071Y-15186214D01*
X9183928Y-15186214D02*
X9183928Y-14986214D01*
X9183928Y-15014786D02*
X9198214Y-15000500D01*
X9226786Y-14986214D01*
X9269643Y-14986214D01*
X9298214Y-15000500D01*
X9312500Y-15029071D01*
X9312500Y-15186214D01*
X9312500Y-15029071D02*
X9326786Y-15000500D01*
X9355357Y-14986214D01*
X9398214Y-14986214D01*
X9426786Y-15000500D01*
X9441071Y-15029071D01*
X9441071Y-15186214D01*
X10026786Y-14871929D02*
X9769643Y-15257643D01*
X10412500Y-14886214D02*
X10441071Y-14886214D01*
X10469643Y-14900500D01*
X10483928Y-14914786D01*
X10498214Y-14943357D01*
X10512500Y-15000500D01*
X10512500Y-15071929D01*
X10498214Y-15129071D01*
X10483928Y-15157643D01*
X10469643Y-15171929D01*
X10441071Y-15186214D01*
X10412500Y-15186214D01*
X10383928Y-15171929D01*
X10369643Y-15157643D01*
X10355357Y-15129071D01*
X10341071Y-15071929D01*
X10341071Y-15000500D01*
X10355357Y-14943357D01*
X10369643Y-14914786D01*
X10383928Y-14900500D01*
X10412500Y-14886214D01*
X10641071Y-15157643D02*
X10655357Y-15171929D01*
X10641071Y-15186214D01*
X10626786Y-15171929D01*
X10641071Y-15157643D01*
X10641071Y-15186214D01*
X10941071Y-15186214D02*
X10769643Y-15186214D01*
X10855357Y-15186214D02*
X10855357Y-14886214D01*
X10826786Y-14929071D01*
X10798214Y-14957643D01*
X10769643Y-14971929D01*
X11198214Y-14886214D02*
X11141071Y-14886214D01*
X11112500Y-14900500D01*
X11098214Y-14914786D01*
X11069643Y-14957643D01*
X11055357Y-15014786D01*
X11055357Y-15129071D01*
X11069643Y-15157643D01*
X11083928Y-15171929D01*
X11112500Y-15186214D01*
X11169643Y-15186214D01*
X11198214Y-15171929D01*
X11212500Y-15157643D01*
X11226786Y-15129071D01*
X11226786Y-15057643D01*
X11212500Y-15029071D01*
X11198214Y-15014786D01*
X11169643Y-15000500D01*
X11112500Y-15000500D01*
X11083928Y-15014786D01*
X11069643Y-15029071D01*
X11055357Y-15057643D01*
X11369643Y-15186214D02*
X11426786Y-15186214D01*
X11455357Y-15171929D01*
X11469643Y-15157643D01*
X11498214Y-15114786D01*
X11512500Y-15057643D01*
X11512500Y-14943357D01*
X11498214Y-14914786D01*
X11483928Y-14900500D01*
X11455357Y-14886214D01*
X11398214Y-14886214D01*
X11369643Y-14900500D01*
X11355357Y-14914786D01*
X11341071Y-14943357D01*
X11341071Y-15014786D01*
X11355357Y-15043357D01*
X11369643Y-15057643D01*
X11398214Y-15071929D01*
X11455357Y-15071929D01*
X11483928Y-15057643D01*
X11498214Y-15043357D01*
X11512500Y-15014786D01*
X11626786Y-14886214D02*
X11626786Y-14943357D01*
X11741071Y-14886214D02*
X11741071Y-14943357D01*
X12183928Y-15300500D02*
X12169643Y-15286214D01*
X12141071Y-15243357D01*
X12126786Y-15214786D01*
X12112500Y-15171929D01*
X12098214Y-15100500D01*
X12098214Y-15043357D01*
X12112500Y-14971929D01*
X12126786Y-14929071D01*
X12141071Y-14900500D01*
X12169643Y-14857643D01*
X12183928Y-14843357D01*
X12455357Y-15186214D02*
X12283928Y-15186214D01*
X12369643Y-15186214D02*
X12369643Y-14886214D01*
X12341071Y-14929071D01*
X12312500Y-14957643D01*
X12283928Y-14971929D01*
X12812500Y-15186214D02*
X12812500Y-14886214D01*
X12941071Y-15186214D02*
X12941071Y-15029071D01*
X12926786Y-15000500D01*
X12898214Y-14986214D01*
X12855357Y-14986214D01*
X12826786Y-15000500D01*
X12812500Y-15014786D01*
X13126786Y-15186214D02*
X13098214Y-15171929D01*
X13083928Y-15157643D01*
X13069643Y-15129071D01*
X13069643Y-15043357D01*
X13083928Y-15014786D01*
X13098214Y-15000500D01*
X13126786Y-14986214D01*
X13169643Y-14986214D01*
X13198214Y-15000500D01*
X13212500Y-15014786D01*
X13226786Y-15043357D01*
X13226786Y-15129071D01*
X13212500Y-15157643D01*
X13198214Y-15171929D01*
X13169643Y-15186214D01*
X13126786Y-15186214D01*
X13398214Y-15186214D02*
X13369643Y-15171929D01*
X13355357Y-15143357D01*
X13355357Y-14886214D01*
X13626786Y-15171929D02*
X13598214Y-15186214D01*
X13541071Y-15186214D01*
X13512500Y-15171929D01*
X13498214Y-15143357D01*
X13498214Y-15029071D01*
X13512500Y-15000500D01*
X13541071Y-14986214D01*
X13598214Y-14986214D01*
X13626786Y-15000500D01*
X13641071Y-15029071D01*
X13641071Y-15057643D01*
X13498214Y-15086214D01*
X13741071Y-15300500D02*
X13755357Y-15286214D01*
X13783928Y-15243357D01*
X13798214Y-15214786D01*
X13812500Y-15171929D01*
X13826786Y-15100500D01*
X13826786Y-15043357D01*
X13812500Y-14971929D01*
X13798214Y-14929071D01*
X13783928Y-14900500D01*
X13755357Y-14857643D01*
X13741071Y-14843357D01*
M02*
